<?xml version="1.0" encoding="UTF-8" standalone="no"?>
<svg
   xmlns:dc="http://purl.org/dc/elements/1.1/"
   xmlns:cc="http://creativecommons.org/ns#"
   xmlns:rdf="http://www.w3.org/1999/02/22-rdf-syntax-ns#"
   xmlns:svg="http://www.w3.org/2000/svg"
   xmlns="http://www.w3.org/2000/svg"
   xmlns:xlink="http://www.w3.org/1999/xlink"
   width="1280"
   height="720"
   viewBox="0 0 338.66666 190.50001"
   version="1.1"
   id="svg956">
  <defs
     id="defs950">
    <linearGradient
       id="linearGradient2692">
      <stop
         style="stop-color:#65a4d9;stop-opacity:1;"
         offset="0"
         id="stop2688" />
      <stop
         style="stop-color:#65a4d9;stop-opacity:0;"
         offset="1"
         id="stop2690" />
    </linearGradient>
    <linearGradient
       xlink:href="#linearGradient2692"
       id="linearGradient2704"
       gradientUnits="userSpaceOnUse"
       x1="781.53845"
       y1="149.23077"
       x2="1096.9231"
       y2="393.84613" />
  </defs>
  <metadata
     id="metadata953">
    <rdf:RDF>
      <cc:Work
         rdf:about="">
        <dc:format>image/svg+xml</dc:format>
        <dc:type
           rdf:resource="http://purl.org/dc/dcmitype/StillImage" />
        <dc:title></dc:title>
      </cc:Work>
    </rdf:RDF>
  </metadata>
  <g
     id="layer1"
     style="display:inline;fill:#fe7224;fill-opacity:1"
     transform="translate(-0.76448416,-106.49998)">
    <rect
       style="opacity:1;fill:#fe7224;fill-opacity:1;stroke:none;stroke-width:0.06496903;stroke-linecap:round;stroke-linejoin:round;stroke-miterlimit:4;stroke-dasharray:none;stroke-opacity:1;paint-order:stroke markers fill"
       id="rect1501"
       width="338.66473"
       height="190.47913"
       x="0.0010536164"
       y="106.52"
       rx="0"
       ry="17.279589" />
    <rect
       style="opacity:1;fill:#fe7224;fill-opacity:1;stroke:none;stroke-width:0.065;stroke-linecap:round;stroke-linejoin:round;stroke-miterlimit:4;stroke-dasharray:none;stroke-opacity:1;paint-order:stroke markers fill"
       id="rect2622"
       width="70.870537"
       height="8.1264877"
       x="33.072918"
       y="234.06694" />
  </g>
  <g
     id="g5618"
     transform="matrix(0.2418622,0,0,0.19495333,15.673031,8.9002841)">
    <path
       id="path5394"
       d="m 173.259,171.579 c 0,-8.713 7.06,-15.777 15.775,-15.777 8.712,0 15.774,7.064 15.774,15.777 0,8.711 -7.062,15.773 -15.774,15.773 -8.716,0 -15.775,-7.062 -15.775,-15.773 z"
       style="fill:#eec74d" />
    <path
       id="path5396"
       d="m 199.268,170.299 c 0,-8.713 7.06,-15.777 15.775,-15.777 8.712,0 15.774,7.064 15.774,15.777 0,8.713 -7.062,15.775 -15.774,15.775 -8.716,10e-4 -15.775,-7.062 -15.775,-15.775 z"
       style="fill:#eec74d" />
    <circle
       id="circle5398"
       r="15.776"
       cy="172.42999"
       cx="244.46201"
       style="fill:#eec74d" />
    <circle
       id="circle5400"
       r="15.776"
       cy="156.229"
       cx="238.06599"
       style="fill:#f7e4ab" />
    <circle
       id="circle5402"
       r="15.775"
       cy="148.12801"
       cx="212.911"
       style="fill:#f7e4ab" />
    <circle
       id="circle5404"
       r="15.776"
       cy="148.981"
       cx="197.134"
       style="fill:#f7e4ab" />
    <circle
       id="circle5406"
       r="15.776"
       cy="165.18201"
       cx="172.832"
       style="fill:#eec74d" />
    <path
       id="path5408"
       d="m 165.157,137.895 c 0,-8.713 7.06,-15.777 15.774,-15.777 8.716,0 15.775,7.064 15.775,15.777 0,8.713 -7.059,15.775 -15.775,15.775 -8.714,0 -15.774,-7.062 -15.774,-15.775 z"
       style="fill:#f7e4ab" />
    <path
       id="path5410"
       d="m 188.608,128.94 c 0,-8.713 7.06,-15.775 15.774,-15.775 8.716,0 15.775,7.062 15.775,15.775 0,8.713 -7.06,15.777 -15.775,15.777 -8.714,0 -15.774,-7.064 -15.774,-15.777 z"
       style="fill:#eec74d" />
    <circle
       id="circle5412"
       r="15.777"
       cy="132.778"
       cx="229.11301"
       style="fill:#eec74d" />
    <circle
       id="circle5414"
       r="15.776"
       cy="143.864"
       cx="251.709"
       style="fill:#f7e4ab" />
    <path
       id="path5416"
       d="m 256.826,163.903 c 0,-8.711 7.062,-15.775 15.774,-15.775 8.716,0 15.778,7.064 15.778,15.775 0,8.713 -7.062,15.775 -15.778,15.775 -8.711,0 -15.774,-7.062 -15.774,-15.775 z"
       style="fill:#eec74d" />
    <circle
       id="circle5418"
       r="15.775"
       cy="157.93401"
       cx="263.22198"
       style="fill:#f7e4ab" />
    <circle
       id="circle5420"
       r="15.775"
       cy="145.14301"
       cx="276.439"
       style="fill:#f7e4ab" />
    <circle
       id="circle5422"
       r="15.775"
       cy="163.47701"
       cx="290.93701"
       style="fill:#f3d885" />
    <circle
       id="circle5424"
       r="15.776"
       cy="163.05099"
       cx="322.914"
       style="fill:#f7e4ab" />
    <path
       id="path5426"
       d="m 324.618,168.167 c 0,-8.711 7.062,-15.775 15.778,-15.775 8.712,0 15.774,7.064 15.774,15.775 0,8.713 -7.062,15.775 -15.774,15.775 -8.715,0 -15.778,-7.063 -15.778,-15.775 z"
       style="fill:#f7e4ab" />
    <path
       id="path5428"
       d="m 331.442,154.948 c 0,-8.711 7.06,-15.773 15.775,-15.773 8.712,0 15.774,7.062 15.774,15.773 0,8.715 -7.062,15.777 -15.774,15.777 -8.714,0 -15.775,-7.062 -15.775,-15.777 z"
       style="fill:#f7e4ab" />
    <circle
       id="circle5430"
       r="15.777"
       cy="143.438"
       cx="348.922"
       style="fill:#f7e4ab" />
    <circle
       id="circle5432"
       r="15.775"
       cy="127.235"
       cx="332.29401"
       style="fill:#efe9b6" />
    <circle
       id="circle5434"
       r="15.776"
       cy="148.981"
       cx="322.914"
       style="fill:#f7e4ab" />
    <circle
       id="circle5436"
       r="15.775"
       cy="143.864"
       cx="299.46399"
       style="fill:#f7e4ab" />
    <circle
       id="circle5438"
       r="15.775"
       cy="122.118"
       cx="291.789"
       style="fill:#f7e4ab" />
    <path
       id="path5440"
       d="m 254.269,125.53 c 0,-8.713 7.062,-15.775 15.774,-15.775 8.716,0 15.778,7.062 15.778,15.775 0,8.711 -7.062,15.775 -15.778,15.775 -8.712,0 -15.774,-7.064 -15.774,-15.775 z"
       style="fill:#f3d885" />
    <path
       id="path5442"
       d="m 238.868,103.27 c 6.17,-6.15 16.159,-6.135 22.308,0.037 6.152,6.172 6.137,16.16 -0.035,22.311 -6.173,6.15 -16.159,6.135 -22.308,-0.037 -6.154,-6.174 -6.137,-16.161 0.035,-22.311 z"
       style="fill:#f7e4ab" />
    <circle
       id="circle5444"
       r="15.774"
       cy="110.606"
       cx="227.407"
       style="fill:#f7e4ab" />
    <path
       id="path5446"
       d="m 236.736,87.92 c 6.17,-6.15 16.159,-6.135 22.308,0.039 6.152,6.17 6.137,16.158 -0.035,22.309 -6.173,6.152 -16.159,6.135 -22.308,-0.037 -6.154,-6.172 -6.137,-16.158 0.035,-22.311 z"
       style="fill:#f3d885" />
    <path
       id="path5448"
       d="m 278.949,89.2 c 6.166,-6.15 16.156,-6.135 22.308,0.039 6.151,6.17 6.134,16.158 -0.039,22.311 -6.172,6.148 -16.159,6.133 -22.308,-0.039 -6.151,-6.175 -6.134,-16.161 0.039,-22.311 z"
       style="fill:#f7e4ab" />
    <path
       id="path5450"
       d="m 262.319,79.821 c 6.17,-6.152 16.159,-6.135 22.308,0.037 6.151,6.172 6.137,16.16 -0.035,22.311 -6.173,6.148 -16.159,6.133 -22.308,-0.039 -6.155,-6.173 -6.137,-16.161 0.035,-22.309 z"
       style="fill:#f7e4ab" />
    <path
       id="path5452"
       d="m 211.154,83.659 c 6.169,-6.152 16.158,-6.137 22.308,0.037 6.154,6.17 6.136,16.158 -0.036,22.311 -6.173,6.15 -16.159,6.133 -22.308,-0.039 -6.151,-6.173 -6.137,-16.161 0.036,-22.309 z"
       style="fill:#f7e4ab" />
    <path
       id="path5454"
       d="m 240.575,74.278 c 6.169,-6.152 16.158,-6.135 22.308,0.039 6.151,6.168 6.136,16.156 -0.036,22.309 -6.173,6.15 -16.159,6.133 -22.308,-0.039 -6.154,-6.172 -6.137,-16.159 0.036,-22.309 z"
       style="fill:#f7e4ab" />
    <path
       id="path5456"
       d="m 299.84,90.905 c 6.169,-6.15 16.158,-6.133 22.308,0.039 6.154,6.172 6.136,16.158 -0.036,22.309 -6.173,6.152 -16.159,6.135 -22.308,-0.037 -6.152,-6.172 -6.137,-16.159 0.036,-22.311 z"
       style="fill:#f7e4ab" />
    <path
       id="path5458"
       d="m 191.115,97.301 c 6.169,-6.15 16.159,-6.135 22.308,0.039 6.151,6.17 6.137,16.158 -0.036,22.309 -6.172,6.15 -16.159,6.133 -22.308,-0.039 -6.154,-6.172 -6.137,-16.158 0.036,-22.309 z"
       style="fill:#f7e4ab" />
    <path
       id="path5460"
       d="m 173.634,107.961 c 6.17,-6.152 16.159,-6.135 22.308,0.037 6.151,6.17 6.137,16.16 -0.035,22.311 -6.173,6.148 -16.159,6.133 -22.308,-0.039 -6.156,-6.174 -6.137,-16.16 0.035,-22.309 z"
       style="fill:#f7e4ab" />
    <path
       id="path5462"
       d="m 261.039,94.317 c 6.17,-6.15 16.159,-6.135 22.308,0.037 6.154,6.172 6.137,16.16 -0.035,22.311 -6.173,6.15 -16.159,6.135 -22.308,-0.037 -6.152,-6.174 -6.137,-16.161 0.035,-22.311 z"
       style="fill:#f7e4ab" />
    <path
       id="path5464"
       d="m 296.43,103.27 c 6.167,-6.15 16.159,-6.135 22.308,0.037 6.152,6.172 6.134,16.16 -0.038,22.311 -6.173,6.15 -16.156,6.135 -22.308,-0.037 -6.152,-6.174 -6.134,-16.161 0.038,-22.311 z"
       style="fill:#f7e4ab" />
    <circle
       id="circle5466"
       r="15.774"
       cy="151.965"
       cx="339.96899"
       style="fill:#f3d885" />
    <path
       id="path5468"
       d="m 305.81,124.163 c 6.169,-6.152 16.159,-6.133 22.308,0.039 6.151,6.17 6.137,16.156 -0.036,22.309 -6.172,6.15 -16.159,6.133 -22.308,-0.039 -6.155,-6.173 -6.137,-16.159 0.036,-22.309 z"
       style="fill:#f3d885" />
    <path
       id="path5470"
       d="m 322.439,130.131 c 6.17,-6.15 16.159,-6.135 22.308,0.039 6.152,6.17 6.134,16.158 -0.038,22.309 -6.173,6.15 -16.159,6.135 -22.308,-0.037 -6.153,-6.172 -6.134,-16.16 0.038,-22.311 z"
       style="fill:#f7e4ab" />
    <path
       id="path5472"
       d="m 334.289,113.979 c 6.17,-6.15 16.159,-6.133 22.308,0.039 6.151,6.172 6.137,16.158 -0.035,22.309 -6.173,6.152 -16.159,6.135 -22.308,-0.039 -6.152,-6.172 -6.137,-16.159 0.035,-22.309 z"
       style="fill:#f7e4ab" />
    <circle
       id="circle5474"
       r="15.775"
       cy="108.952"
       cx="330.92801"
       style="fill:#f7e4ab" />
    <path
       id="path5476"
       d="m 344.609,166.374 c 6.17,-6.152 16.159,-6.135 22.308,0.039 6.151,6.168 6.137,16.156 -0.036,22.309 -6.172,6.15 -16.158,6.133 -22.308,-0.039 -6.154,-6.173 -6.135,-16.159 0.036,-22.309 z"
       style="fill:#f7e4ab" />
    <path
       id="path5478"
       d="m 145.067,159.126 c 6.17,-6.15 16.159,-6.135 22.308,0.037 6.152,6.172 6.137,16.16 -0.035,22.311 -6.173,6.15 -16.159,6.133 -22.311,-0.039 -6.151,-6.175 -6.134,-16.159 0.038,-22.309 z"
       style="fill:#eec74d" />
    <circle
       id="circle5480"
       r="15.775"
       cy="143.864"
       cx="175.81599"
       style="fill:#f7e4ab" />
    <path
       id="path5482"
       d="m 156.579,142.069 c 6.169,-6.15 16.159,-6.133 22.308,0.039 6.151,6.172 6.137,16.158 -0.036,22.309 -6.172,6.152 -16.159,6.137 -22.308,-0.037 -6.151,-6.172 -6.137,-16.159 0.036,-22.311 z"
       style="fill:#f7e4ab" />
    <path
       id="path5484"
       d="m 290.082,168.592 c 0,-8.711 7.062,-15.773 15.778,-15.773 8.712,0 15.774,7.062 15.774,15.773 0,8.713 -7.062,15.777 -15.774,15.777 -8.715,0.001 -15.778,-7.064 -15.778,-15.777 z"
       style="fill:#f3d885" />
    <polygon
       id="polygon5486"
       points="137.043,173.71 374.959,173.71 354.492,442.323 157.508,442.323 "
       style="fill:#ef3820" />
    <polygon
       id="polygon5488"
       points="213.221,173.71 298.779,173.71 291.422,442.323 220.578,442.323 "
       style="fill:#ffffff" />
    <path
       id="path5490"
       d="m 156.62,338.985 c -6.515,-28.785 32.894,-62.23 88.016,-74.703 55.117,-12.473 105.083,0.752 111.595,29.539 6.515,28.785 -32.89,62.228 -88.013,74.701 -55.116,12.473 -105.082,-0.752 -111.598,-29.537 z"
       style="fill:#ef3820" />
    <ellipse
       id="ellipse5492"
       ry="94.707001"
       rx="49.457001"
       cy="316.41699"
       cx="256.435"
       style="fill:#ffffff"
       transform="matrix(0.2207,0.9753,-0.9753,0.2207,508.4521,-3.53)" />
    <path
       id="path5494"
       d="m 194.068,320.461 c 1.1,-1.596 2.136,-2.824 3.115,-3.693 0.977,-0.869 2.061,-1.447 3.251,-1.732 1.54,-0.371 2.796,-0.082 3.764,0.869 0.971,0.953 1.456,2.387 1.456,4.315 0,3.375 -1.164,6.752 -3.492,10.129 -2.332,3.379 -4.865,5.395 -7.599,6.053 -0.763,0.184 -1.37,0.246 -1.814,0.184 -0.44,-0.061 -1.021,-0.311 -1.739,-0.75 -1.099,5.105 -1.808,9.156 -2.132,12.15 l -5.815,2.428 c 1.084,-7.406 2.466,-14.978 4.148,-22.717 -2.02,3.129 -3.377,5.084 -4.082,5.863 l -0.524,0.127 v -2.062 c 2.9,-3.828 5.291,-8.207 7.17,-13.135 l 5.181,-2.184 z m -2.649,12.891 c 0.795,1.123 1.676,1.57 2.638,1.338 1.543,-0.369 2.909,-1.871 4.095,-4.502 1.182,-2.629 1.774,-5.057 1.774,-7.287 0,-1.176 -0.238,-2.07 -0.721,-2.68 -0.482,-0.609 -1.104,-0.822 -1.867,-0.641 -0.596,0.145 -1.224,0.562 -1.879,1.254 -0.657,0.693 -1.152,1.435 -1.488,2.228 -0.334,0.789 -0.718,2.123 -1.144,3.994 z"
       style="fill:#ef3820" />
    <path
       id="path5496"
       d="m 230.102,322.274 c -0.78,0.871 -1.536,1.541 -2.268,1.998 -0.732,0.459 -1.314,0.738 -1.742,0.844 -1.102,0.264 -2.191,0.1 -3.275,-0.498 -2.197,3.859 -4.719,6.129 -7.562,6.812 -1.771,0.426 -3.207,0.105 -4.306,-0.957 -1.099,-1.065 -1.649,-2.699 -1.649,-4.898 0,-3.482 1.235,-6.77 3.71,-9.859 2.477,-3.096 5.431,-5.051 8.867,-5.877 1.301,-0.315 2.251,-0.402 2.852,-0.264 0.604,0.139 0.977,0.381 1.113,0.73 0.137,0.35 0.206,0.814 0.206,1.393 0,2.857 -0.78,6.549 -2.338,11.08 0.78,0.531 1.596,0.691 2.45,0.488 1.024,-0.248 2.338,-1.457 3.942,-3.629 z m -7.562,-10.99 c -0.226,-0.039 -0.557,-0.006 -0.982,0.098 -1.989,0.477 -3.541,1.887 -4.663,4.236 -1.122,2.346 -1.686,4.91 -1.686,7.691 0,1.543 0.241,2.682 0.732,3.422 0.488,0.734 1.171,1 2.04,0.791 1.084,-0.26 2.26,-1.545 3.528,-3.85 -1.436,-1.455 -2.153,-3.225 -2.153,-5.303 0,-2.443 1.061,-4.806 3.184,-7.085 z"
       style="fill:#ef3820" />
    <path
       id="path5498"
       d="m 241.039,309.174 c 1.102,-1.594 2.138,-2.824 3.114,-3.693 0.977,-0.869 2.061,-1.445 3.252,-1.73 1.539,-0.371 2.796,-0.08 3.764,0.869 0.971,0.953 1.456,2.387 1.456,4.312 0,3.379 -1.164,6.754 -3.493,10.129 -2.331,3.381 -4.865,5.398 -7.599,6.055 -0.762,0.184 -1.369,0.244 -1.814,0.184 -0.44,-0.06 -1.02,-0.31 -1.735,-0.752 -1.102,5.107 -1.811,9.158 -2.132,12.152 l -5.818,2.43 c 1.084,-7.408 2.466,-14.98 4.147,-22.719 -2.018,3.127 -3.376,5.082 -4.079,5.863 l -0.526,0.125 v -2.06 c 2.899,-3.828 5.294,-8.209 7.17,-13.135 l 5.181,-2.186 z m -2.649,12.893 c 0.795,1.121 1.676,1.568 2.638,1.34 1.542,-0.371 2.909,-1.873 4.094,-4.502 1.183,-2.631 1.775,-5.06 1.775,-7.289 0,-1.176 -0.238,-2.07 -0.718,-2.68 -0.485,-0.609 -1.107,-0.822 -1.87,-0.639 -0.596,0.143 -1.224,0.561 -1.879,1.252 -0.655,0.695 -1.152,1.434 -1.488,2.229 -0.334,0.789 -0.718,2.121 -1.144,3.996 z"
       style="fill:#ef3820" />
    <path
       id="path5500"
       d="m 273.634,311.813 c -1.956,2.395 -3.742,4.238 -5.371,5.531 -1.626,1.291 -3.326,2.148 -5.098,2.574 -1.985,0.477 -3.623,0.227 -4.913,-0.754 -1.292,-0.983 -1.939,-2.465 -1.939,-4.449 0,-3.256 1.189,-6.545 3.564,-9.873 2.373,-3.328 4.942,-5.324 7.712,-5.988 1.357,-0.326 2.466,-0.215 3.32,0.336 0.857,0.549 1.283,1.43 1.283,2.637 0,0.428 -0.081,0.766 -0.241,1.02 -0.158,0.254 -0.462,0.541 -0.905,0.859 l -2.659,1.898 c -0.318,0.23 -0.557,0.363 -0.709,0.398 -0.214,0.053 -0.318,-0.074 -0.318,-0.381 0,-0.121 0.045,-0.533 0.134,-1.236 0.096,-0.701 0.138,-1.127 0.138,-1.279 0,-0.672 -0.141,-1.182 -0.423,-1.525 -0.283,-0.346 -0.658,-0.461 -1.132,-0.348 -1.116,0.268 -2.135,1.338 -3.06,3.211 -0.923,1.869 -1.388,3.859 -1.388,5.967 0,1.818 0.438,3.166 1.307,4.041 0.873,0.877 2.031,1.141 3.484,0.789 1.235,-0.295 2.402,-0.932 3.495,-1.904 1.09,-0.971 2.332,-2.359 3.719,-4.156 z"
       style="fill:#ef3820" />
    <path
       id="path5502"
       d="m 294.212,306.87 c -0.78,0.873 -1.536,1.541 -2.269,2 -0.732,0.459 -1.313,0.738 -1.742,0.842 -1.102,0.264 -2.194,0.102 -3.275,-0.496 -2.197,3.858 -4.72,6.129 -7.562,6.812 -1.772,0.424 -3.207,0.104 -4.306,-0.961 -1.099,-1.062 -1.649,-2.697 -1.649,-4.895 0,-3.482 1.235,-6.77 3.71,-9.861 2.477,-3.094 5.431,-5.051 8.867,-5.877 1.301,-0.312 2.251,-0.4 2.852,-0.262 0.604,0.137 0.977,0.381 1.113,0.729 0.137,0.352 0.205,0.814 0.205,1.393 0,2.859 -0.78,6.551 -2.337,11.08 0.777,0.533 1.596,0.691 2.45,0.488 1.024,-0.246 2.338,-1.455 3.942,-3.627 v 2.635 z m -7.563,-10.991 c -0.227,-0.039 -0.558,-0.006 -0.983,0.098 -1.988,0.478 -3.54,1.889 -4.662,4.236 -1.123,2.348 -1.686,4.912 -1.686,7.691 0,1.543 0.241,2.684 0.732,3.424 0.488,0.734 1.17,0.998 2.036,0.791 1.087,-0.262 2.264,-1.545 3.532,-3.85 -1.436,-1.457 -2.153,-3.225 -2.153,-5.303 0.001,-2.442 1.061,-4.807 3.184,-7.087 z"
       style="fill:#ef3820" />
    <path
       id="path5504"
       d="m 311.327,302.756 c -3.836,4.68 -6.789,7.27 -8.867,7.77 -0.933,0.221 -1.719,0.02 -2.361,-0.615 -0.641,-0.631 -0.962,-1.527 -0.962,-2.691 0,-2.152 1.152,-5.315 3.46,-9.492 -1.132,0.853 -2.367,1.555 -3.713,2.109 -0.992,2.07 -2.549,4.414 -4.672,7.033 l -0.527,0.127 v -2.062 c 1.191,-1.523 2.27,-3.111 3.23,-4.762 -1.315,-0.266 -1.971,-0.973 -1.971,-2.117 0,-1.176 0.402,-2.531 1.203,-4.061 0.801,-1.527 1.902,-2.461 3.311,-2.797 1.191,-0.287 1.787,0.18 1.787,1.402 0,0.963 -0.343,2.418 -1.03,4.369 2.536,-0.881 4.749,-3.354 6.643,-7.414 l 2.087,-0.592 -2.132,6.379 c -0.887,2.688 -1.459,4.508 -1.715,5.463 -0.265,0.957 -0.39,1.777 -0.39,2.465 0,0.643 0.145,1.119 0.446,1.428 0.295,0.31 0.693,0.406 1.2,0.285 0.551,-0.131 1.077,-0.443 1.581,-0.941 0.506,-0.496 1.635,-1.801 3.392,-3.92 z"
       style="fill:#ef3820" />
    <path
       id="path5506"
       d="m 333.828,297.352 c -3.528,4.576 -6.554,7.164 -9.076,7.77 -1.021,0.246 -1.849,0.088 -2.474,-0.482 -0.626,-0.566 -0.941,-1.455 -0.941,-2.662 0,-1.633 0.673,-4.293 2.019,-7.975 0.718,-1.975 1.078,-3.207 1.078,-3.697 0,-0.49 -0.193,-0.688 -0.574,-0.596 -0.212,0.053 -0.494,0.227 -0.849,0.525 -0.319,0.291 -0.694,0.68 -1.123,1.162 -0.378,0.445 -0.81,0.973 -1.283,1.594 -0.411,0.525 -0.854,1.123 -1.328,1.785 l -1.283,1.795 c -0.565,0.826 -0.914,1.635 -1.051,2.432 -0.23,1.353 -0.384,2.582 -0.462,3.684 -0.044,0.824 -0.068,1.92 -0.068,3.295 l -5.064,2.408 c -0.167,-2.021 -0.247,-3.537 -0.247,-4.547 0,-2.457 0.285,-4.855 0.855,-7.193 0.571,-2.338 1.494,-5.033 2.76,-8.086 l 5.595,-2.422 c -1.176,3.445 -1.95,6.119 -2.316,8.023 2.501,-3.397 4.49,-5.809 5.964,-7.24 1.471,-1.43 2.778,-2.281 3.925,-2.555 0.774,-0.185 1.423,-0.049 1.941,0.414 0.518,0.463 0.78,1.135 0.78,2.02 0,1.465 -0.658,4.035 -1.975,7.711 -0.899,2.523 -1.349,4.129 -1.349,4.818 0,0.918 0.375,1.289 1.125,1.109 1.117,-0.27 2.928,-2.178 5.423,-5.727 v 2.637 z"
       style="fill:#ef3820" />
    <g
       id="g5508" />
    <g
       id="g5510" />
    <g
       id="g5512" />
    <g
       id="g5514" />
    <g
       id="g5516" />
    <g
       id="g5518" />
    <g
       id="g5520" />
    <g
       id="g5522" />
    <g
       id="g5524" />
    <g
       id="g5526" />
    <g
       id="g5528" />
    <g
       id="g5530" />
    <g
       id="g5532" />
    <g
       id="g5534" />
    <g
       id="g5536" />
  </g>
  <g
     id="g5744"
     transform="matrix(0.06428984,0,0,0.06609168,119.49571,60.060337)">
    <path
       id="path5671"
       d="m 465.19,285.054 c 0,61.607 -40.062,146.747 -88.501,193.258 -21.482,20.655 -44.62,33.688 -66.647,33.688 -13.922,0 -27.808,-2.236 -39.754,-5.843 -16.368,-4.954 -33.775,-4.954 -50.143,0 C 208.2,509.764 194.315,512 180.392,512 157.316,512 133.004,497.682 110.656,475.285 63.614,428.181 25.244,345.338 25.244,285.053 c 0,-88.945 53.207,-142.683 103.238,-155.654 23.966,-6.214 51.774,-2.211 74.232,3.632 23.225,6.053 47.363,7.066 70.884,3.039 4.744,-0.815 9.45,-1.828 14.12,-3.039 22.459,-5.843 50.254,-9.846 74.232,-3.632 50.034,12.972 103.24,66.71 103.24,155.655 z"
       style="fill:#f94848" />
    <path
       id="path5673"
       d="m 376.687,478.307 c -59.444,10.504 -105.23,7.594 -139.729,-0.76 -56.335,-13.641 -98.243,-61.156 -105.227,-118.696 -17.493,-144.11 76.667,-186.066 76.667,-186.066 27.598,12.539 58.63,5.843 58.63,5.843 -19.803,-19.79 6.572,-42.558 6.572,-42.558 -23.521,4.027 -47.66,3.014 -70.884,-3.039 -22.459,-5.843 -50.266,-9.846 -74.232,-3.632 -50.033,12.972 -103.239,66.71 -103.239,155.655 0,88.933 83.497,226.946 155.147,226.946 13.922,0 27.808,-2.236 39.754,-5.843 16.368,-4.954 33.774,-4.954 50.143,0 11.946,3.607 25.831,5.843 39.754,5.843 22.026,0 45.164,-13.033 66.647,-33.688 -0.003,-0.003 0,0 -0.003,-0.005 z"
       style="fill:#e23d3d" />
    <path
       id="path5675"
       d="m 486.756,5.506 c 0,0 -12.354,86.116 -77.419,111.182 -62.2,23.966 -117.643,-40.828 -140.385,-35.726 -1.025,0.21 -1.977,0.581 -2.866,1.112 -0.037,0.012 -0.049,0.025 -0.049,0.025 l 0.012,-0.049 c 0.766,-2.322 25.708,-76.616 89.761,-81.484 65.064,-4.943 100.47,24.706 130.946,4.94 z"
       style="fill:#c7f492" />
    <path
       id="path5677"
       d="m 486.756,5.506 c 0,0 -39.531,48.179 -95.122,48.179 -48.883,0 -108.909,21.965 -122.683,27.277 -1.655,0.63 -2.631,1.025 -2.866,1.112 -0.037,0.012 -0.049,0.025 -0.049,0.025 l 0.012,-0.049 c 0.766,-2.322 25.708,-76.616 89.761,-81.484 65.065,-4.943 100.471,24.706 130.947,4.94 z"
       style="fill:#a3e261" />
    <ellipse
       id="ellipse5679"
       ry="28.771"
       rx="44.464001"
       cy="247.459"
       cx="393.87799"
       style="fill:#fc8181"
       transform="matrix(-0.0989,-0.9951,0.9951,-0.0989,186.5864,663.8789)" />
    <path
       id="path5681"
       d="m 291.289,166.437 c 0,10.118 -15.887,18.543 -36.974,20.457 -2.94,0.272 -5.979,0.408 -9.092,0.408 -3.249,0 -6.411,-0.148 -9.463,-0.432 -20.89,-1.989 -36.591,-10.377 -36.591,-20.433 z"
       style="fill:#e23d3d" />
    <path
       id="path5683"
       d="m 280.368,81.012 -33.787,51.316 c 2.532,10.402 4.719,21.866 6.14,34.108 0.778,6.609 1.334,13.441 1.594,20.457 -2.94,0.272 -5.979,0.408 -9.092,0.408 -3.249,0 -6.411,-0.148 -9.463,-0.432 -0.272,-7.017 -0.877,-13.836 -1.705,-20.433 -6.053,-47.969 -24.559,-83.3 -24.781,-83.695 -2.397,-4.521 -0.679,-10.13 3.842,-12.526 4.521,-2.409 10.13,-0.692 12.526,3.83 0.544,1.038 7.35,14.046 14.219,34.8 l 25.041,-38.024 c 2.804,-4.274 8.561,-5.448 12.823,-2.631 4.274,2.804 5.46,8.548 2.643,12.822 z"
       style="fill:#b25719" />
    <g
       id="g5685" />
    <g
       id="g5687" />
    <g
       id="g5689" />
    <g
       id="g5691" />
    <g
       id="g5693" />
    <g
       id="g5695" />
    <g
       id="g5697" />
    <g
       id="g5699" />
    <g
       id="g5701" />
    <g
       id="g5703" />
    <g
       id="g5705" />
    <g
       id="g5707" />
    <g
       id="g5709" />
    <g
       id="g5711" />
    <g
       id="g5713" />
  </g>
  <g
     transform="matrix(0.0396283,0.05062392,-0.05204275,0.04073895,169.26894,55.888352)"
     id="g5790">
    <path
       style="fill:#f94848"
       d="m 465.19,285.054 c 0,61.607 -40.062,146.747 -88.501,193.258 -21.482,20.655 -44.62,33.688 -66.647,33.688 -13.922,0 -27.808,-2.236 -39.754,-5.843 -16.368,-4.954 -33.775,-4.954 -50.143,0 C 208.2,509.764 194.315,512 180.392,512 157.316,512 133.004,497.682 110.656,475.285 63.614,428.181 25.244,345.338 25.244,285.053 c 0,-88.945 53.207,-142.683 103.238,-155.654 23.966,-6.214 51.774,-2.211 74.232,3.632 23.225,6.053 47.363,7.066 70.884,3.039 4.744,-0.815 9.45,-1.828 14.12,-3.039 22.459,-5.843 50.254,-9.846 74.232,-3.632 50.034,12.972 103.24,66.71 103.24,155.655 z"
       id="path5746" />
    <path
       style="fill:#e23d3d"
       d="m 376.687,478.307 c -59.444,10.504 -105.23,7.594 -139.729,-0.76 -56.335,-13.641 -98.243,-61.156 -105.227,-118.696 -17.493,-144.11 76.667,-186.066 76.667,-186.066 27.598,12.539 58.63,5.843 58.63,5.843 -19.803,-19.79 6.572,-42.558 6.572,-42.558 -23.521,4.027 -47.66,3.014 -70.884,-3.039 -22.459,-5.843 -50.266,-9.846 -74.232,-3.632 -50.033,12.972 -103.239,66.71 -103.239,155.655 0,88.933 83.497,226.946 155.147,226.946 13.922,0 27.808,-2.236 39.754,-5.843 16.368,-4.954 33.774,-4.954 50.143,0 11.946,3.607 25.831,5.843 39.754,5.843 22.026,0 45.164,-13.033 66.647,-33.688 -0.003,-0.003 0,0 -0.003,-0.005 z"
       id="path5748" />
    <path
       style="fill:#c7f492"
       d="m 486.756,5.506 c 0,0 -12.354,86.116 -77.419,111.182 -62.2,23.966 -117.643,-40.828 -140.385,-35.726 -1.025,0.21 -1.977,0.581 -2.866,1.112 -0.037,0.012 -0.049,0.025 -0.049,0.025 l 0.012,-0.049 c 0.766,-2.322 25.708,-76.616 89.761,-81.484 65.064,-4.943 100.47,24.706 130.946,4.94 z"
       id="path5750" />
    <path
       style="fill:#a3e261"
       d="m 486.756,5.506 c 0,0 -39.531,48.179 -95.122,48.179 -48.883,0 -108.909,21.965 -122.683,27.277 -1.655,0.63 -2.631,1.025 -2.866,1.112 -0.037,0.012 -0.049,0.025 -0.049,0.025 l 0.012,-0.049 c 0.766,-2.322 25.708,-76.616 89.761,-81.484 65.065,-4.943 100.471,24.706 130.947,4.94 z"
       id="path5752" />
    <ellipse
       transform="matrix(-0.0989,-0.9951,0.9951,-0.0989,186.5864,663.8789)"
       style="fill:#fc8181"
       cx="393.87799"
       cy="247.459"
       rx="44.464001"
       ry="28.771"
       id="ellipse5754" />
    <path
       style="fill:#e23d3d"
       d="m 291.289,166.437 c 0,10.118 -15.887,18.543 -36.974,20.457 -2.94,0.272 -5.979,0.408 -9.092,0.408 -3.249,0 -6.411,-0.148 -9.463,-0.432 -20.89,-1.989 -36.591,-10.377 -36.591,-20.433 z"
       id="path5756" />
    <path
       style="fill:#b25719"
       d="m 280.368,81.012 -33.787,51.316 c 2.532,10.402 4.719,21.866 6.14,34.108 0.778,6.609 1.334,13.441 1.594,20.457 -2.94,0.272 -5.979,0.408 -9.092,0.408 -3.249,0 -6.411,-0.148 -9.463,-0.432 -0.272,-7.017 -0.877,-13.836 -1.705,-20.433 -6.053,-47.969 -24.559,-83.3 -24.781,-83.695 -2.397,-4.521 -0.679,-10.13 3.842,-12.526 4.521,-2.409 10.13,-0.692 12.526,3.83 0.544,1.038 7.35,14.046 14.219,34.8 l 25.041,-38.024 c 2.804,-4.274 8.561,-5.448 12.823,-2.631 4.274,2.804 5.46,8.548 2.643,12.822 z"
       id="path5758" />
    <g
       id="g5760" />
    <g
       id="g5762" />
    <g
       id="g5764" />
    <g
       id="g5766" />
    <g
       id="g5768" />
    <g
       id="g5770" />
    <g
       id="g5772" />
    <g
       id="g5774" />
    <g
       id="g5776" />
    <g
       id="g5778" />
    <g
       id="g5780" />
    <g
       id="g5782" />
    <g
       id="g5784" />
    <g
       id="g5786" />
    <g
       id="g5788" />
  </g>
  <g
     id="g5836"
     transform="matrix(0.00947879,0.06358723,-0.06536938,0.00974445,165.83296,38.081464)">
    <path
       id="path5792"
       d="m 465.19,285.054 c 0,61.607 -40.062,146.747 -88.501,193.258 -21.482,20.655 -44.62,33.688 -66.647,33.688 -13.922,0 -27.808,-2.236 -39.754,-5.843 -16.368,-4.954 -33.775,-4.954 -50.143,0 C 208.2,509.764 194.315,512 180.392,512 157.316,512 133.004,497.682 110.656,475.285 63.614,428.181 25.244,345.338 25.244,285.053 c 0,-88.945 53.207,-142.683 103.238,-155.654 23.966,-6.214 51.774,-2.211 74.232,3.632 23.225,6.053 47.363,7.066 70.884,3.039 4.744,-0.815 9.45,-1.828 14.12,-3.039 22.459,-5.843 50.254,-9.846 74.232,-3.632 50.034,12.972 103.24,66.71 103.24,155.655 z"
       style="fill:#f94848" />
    <path
       id="path5794"
       d="m 376.687,478.307 c -59.444,10.504 -105.23,7.594 -139.729,-0.76 -56.335,-13.641 -98.243,-61.156 -105.227,-118.696 -17.493,-144.11 76.667,-186.066 76.667,-186.066 27.598,12.539 58.63,5.843 58.63,5.843 -19.803,-19.79 6.572,-42.558 6.572,-42.558 -23.521,4.027 -47.66,3.014 -70.884,-3.039 -22.459,-5.843 -50.266,-9.846 -74.232,-3.632 -50.033,12.972 -103.239,66.71 -103.239,155.655 0,88.933 83.497,226.946 155.147,226.946 13.922,0 27.808,-2.236 39.754,-5.843 16.368,-4.954 33.774,-4.954 50.143,0 11.946,3.607 25.831,5.843 39.754,5.843 22.026,0 45.164,-13.033 66.647,-33.688 -0.003,-0.003 0,0 -0.003,-0.005 z"
       style="fill:#e23d3d" />
    <path
       id="path5796"
       d="m 486.756,5.506 c 0,0 -12.354,86.116 -77.419,111.182 -62.2,23.966 -117.643,-40.828 -140.385,-35.726 -1.025,0.21 -1.977,0.581 -2.866,1.112 -0.037,0.012 -0.049,0.025 -0.049,0.025 l 0.012,-0.049 c 0.766,-2.322 25.708,-76.616 89.761,-81.484 65.064,-4.943 100.47,24.706 130.946,4.94 z"
       style="fill:#c7f492" />
    <path
       id="path5798"
       d="m 486.756,5.506 c 0,0 -39.531,48.179 -95.122,48.179 -48.883,0 -108.909,21.965 -122.683,27.277 -1.655,0.63 -2.631,1.025 -2.866,1.112 -0.037,0.012 -0.049,0.025 -0.049,0.025 l 0.012,-0.049 c 0.766,-2.322 25.708,-76.616 89.761,-81.484 65.065,-4.943 100.471,24.706 130.947,4.94 z"
       style="fill:#a3e261" />
    <ellipse
       id="ellipse5800"
       ry="28.771"
       rx="44.464001"
       cy="247.459"
       cx="393.87799"
       style="fill:#fc8181"
       transform="matrix(-0.0989,-0.9951,0.9951,-0.0989,186.5864,663.8789)" />
    <path
       id="path5802"
       d="m 291.289,166.437 c 0,10.118 -15.887,18.543 -36.974,20.457 -2.94,0.272 -5.979,0.408 -9.092,0.408 -3.249,0 -6.411,-0.148 -9.463,-0.432 -20.89,-1.989 -36.591,-10.377 -36.591,-20.433 z"
       style="fill:#e23d3d" />
    <path
       id="path5804"
       d="m 280.368,81.012 -33.787,51.316 c 2.532,10.402 4.719,21.866 6.14,34.108 0.778,6.609 1.334,13.441 1.594,20.457 -2.94,0.272 -5.979,0.408 -9.092,0.408 -3.249,0 -6.411,-0.148 -9.463,-0.432 -0.272,-7.017 -0.877,-13.836 -1.705,-20.433 -6.053,-47.969 -24.559,-83.3 -24.781,-83.695 -2.397,-4.521 -0.679,-10.13 3.842,-12.526 4.521,-2.409 10.13,-0.692 12.526,3.83 0.544,1.038 7.35,14.046 14.219,34.8 l 25.041,-38.024 c 2.804,-4.274 8.561,-5.448 12.823,-2.631 4.274,2.804 5.46,8.548 2.643,12.822 z"
       style="fill:#b25719" />
    <g
       id="g5806" />
    <g
       id="g5808" />
    <g
       id="g5810" />
    <g
       id="g5812" />
    <g
       id="g5814" />
    <g
       id="g5816" />
    <g
       id="g5818" />
    <g
       id="g5820" />
    <g
       id="g5822" />
    <g
       id="g5824" />
    <g
       id="g5826" />
    <g
       id="g5828" />
    <g
       id="g5830" />
    <g
       id="g5832" />
    <g
       id="g5834" />
  </g>
  <g
     id="g6057"
     transform="matrix(0.88580498,0.28671087,-0.34067264,1.1052126,209.50464,24.947398)">
    <g
       id="g5977">
      <path
         id="path5927"
         d="m 28.758,19.06 c 16.058,0 15.944,8.507 15.944,19 0,10.493 -7.139,19 -15.944,19 h -0.456 c -8.806,0 -15.944,-8.507 -15.944,-19 0,-10.493 -0.114,-19 15.944,-19"
         style="fill:#d6a550" />
      <g
         id="g5931">
        <path
           id="path5929"
           d="m 32.51,13.389 c 0.515,-0.644 1.095,-1.246 1.728,-1.77 0.791,-4.56 6.234,-8.278 10.119,-9.28 0,0 -3.318,-2.76 -7.433,-2.284 -4.264,0.493 -6.688,2.584 -8.055,5.056 2.881,2.25 3.56,5.793 3.641,8.278 z"
           style="fill:#88c057" />
      </g>
      <path
         id="path5933"
         d="M 23.255,19.411 C 24.731,19.183 26.4,19.06 28.303,19.06 h 0.056 c 0,0 0.167,-5.042 -5,-6 -5.167,-0.958 -6,2 -6,2 4.466,1.071 5.604,3.261 5.896,4.351 z"
         style="fill:#659c35" />
      <path
         id="path5935"
         d="m 34.612,19.553 c 0.819,-1.552 4.68,-5.279 9.746,-6.493 0,0 -1.833,-3.958 -7,-3 -5.167,0.958 -7.999,9 -7.999,9 0,0 0.028,0.005 0.069,0.011 1.971,0.031 3.689,0.196 5.184,0.482 z"
         style="fill:#659c35" />
      <path
         id="path5937"
         d="m 25.988,14.156 c 2.26,1.652 2.367,4.399 2.37,4.838 0.335,0.016 0.679,0.014 1.025,0 0.145,-0.395 1.021,-2.682 2.565,-4.859 0.059,-0.115 0.119,-0.204 0.181,-0.242 0.074,-0.101 0.152,-0.201 0.228,-0.301 0.052,-0.067 0.1,-0.136 0.154,-0.203 C 32.392,9.763 31.005,3.882 23.358,3.06 c -3.875,-0.417 -7,2 -7,2 3.951,0.947 9.625,4.667 9.63,9.096 z"
         style="fill:#a4e869" />
      <g
         id="g5975">
        <polygon
           id="polygon5939"
           points="19.065,49.767 21.358,47.474 23.651,49.767 25.065,48.353 21.358,44.646 17.651,48.353 "
           style="fill:#f4c44e" />
        <polygon
           id="polygon5941"
           points="28.358,52.474 30.651,54.767 32.065,53.353 28.358,49.646 24.651,53.353 26.065,54.767 "
           style="fill:#f4c44e" />
        <polygon
           id="polygon5943"
           points="35.358,47.474 37.651,49.767 39.065,48.353 35.358,44.646 31.651,48.353 33.065,49.767 "
           style="fill:#f4c44e" />
        <polygon
           id="polygon5945"
           points="23.651,41.767 25.065,40.353 21.358,36.646 17.651,40.353 19.065,41.767 21.358,39.474 "
           style="fill:#f4c44e" />
        <polygon
           id="polygon5947"
           points="32.065,44.353 28.358,40.646 24.651,44.353 26.065,45.767 28.358,43.474 30.651,45.767 "
           style="fill:#f4c44e" />
        <polygon
           id="polygon5949"
           points="14.205,43.767 14.498,43.474 16.791,45.767 18.205,44.353 14.498,40.646 12.791,42.353 "
           style="fill:#f4c44e" />
        <polygon
           id="polygon5951"
           points="39.065,40.353 35.358,36.646 31.651,40.353 33.065,41.767 35.358,39.474 37.651,41.767 "
           style="fill:#f4c44e" />
        <polygon
           id="polygon5953"
           points="21.358,31.474 23.651,33.767 25.065,32.353 21.358,28.646 17.651,32.353 19.065,33.767 "
           style="fill:#f4c44e" />
        <polygon
           id="polygon5955"
           points="32.065,36.353 28.358,32.646 24.651,36.353 26.065,37.767 28.358,35.474 30.651,37.767 "
           style="fill:#f4c44e" />
        <polygon
           id="polygon5957"
           points="33.065,33.767 35.358,31.474 37.651,33.767 39.065,32.353 35.358,28.646 31.651,32.353 "
           style="fill:#f4c44e" />
        <polygon
           id="polygon5959"
           points="25.065,24.353 21.358,20.646 17.651,24.353 19.065,25.767 21.358,23.474 23.651,25.767 "
           style="fill:#f4c44e" />
        <polygon
           id="polygon5961"
           points="30.651,29.767 32.065,28.353 28.358,24.646 24.651,28.353 26.065,29.767 28.358,27.474 "
           style="fill:#f4c44e" />
        <polygon
           id="polygon5963"
           points="39.065,24.353 35.358,20.646 31.651,24.353 33.065,25.767 35.358,23.474 37.651,25.767 "
           style="fill:#f4c44e" />
        <path
           id="path5965"
           d="m 43.212,25.538 -0.699,-1.048 -3.862,3.863 1.414,1.414 2.138,-2.137 1.323,1.985 0.732,-0.488 c -0.22,-1.294 -0.553,-2.496 -1.046,-3.589 z"
           style="fill:#f4c44e" />
        <path
           id="path5967"
           d="m 42.16,40.843 -3.51,3.51 1.414,1.414 2.49,-2.49 1.355,0.678 c 0.18,-0.656 0.336,-1.323 0.456,-2.008 z"
           style="fill:#f4c44e" />
        <path
           id="path5969"
           d="m 14.23,24.774 c -0.383,0.693 -0.688,1.438 -0.93,2.228 l 0.765,0.765 0.293,-0.293 2.293,2.293 1.414,-1.414 -3.707,-3.707 z"
           style="fill:#f4c44e" />
        <path
           id="path5971"
           d="m 44.689,34.977 -2.331,-2.331 -3.707,3.707 1.414,1.414 2.293,-2.293 1.293,1.293 1.046,-1.046 c -0.002,-0.249 -0.005,-0.498 -0.008,-0.744 z"
           style="fill:#f4c44e" />
        <path
           id="path5973"
           d="m 12.378,34.626 c -0.008,0.474 -0.014,0.952 -0.017,1.437 l 0.704,0.704 1.293,-1.293 2.293,2.293 1.414,-1.414 -3.707,-3.707 z"
           style="fill:#f4c44e" />
      </g>
    </g>
    <g
       id="g5979" />
    <g
       id="g5981" />
    <g
       id="g5983" />
    <g
       id="g5985" />
    <g
       id="g5987" />
    <g
       id="g5989" />
    <g
       id="g5991" />
    <g
       id="g5993" />
    <g
       id="g5995" />
    <g
       id="g5997" />
    <g
       id="g5999" />
    <g
       id="g6001" />
    <g
       id="g6003" />
    <g
       id="g6005" />
    <g
       id="g6007" />
  </g>
  <g
     transform="matrix(-0.13035749,0.92187879,-1.1472933,-0.14584491,305.81604,60.314458)"
     id="g6225">
    <g
       id="g6193">
      <path
         style="fill:#d6a550"
         d="m 28.758,19.06 c 16.058,0 15.944,8.507 15.944,19 0,10.493 -7.139,19 -15.944,19 h -0.456 c -8.806,0 -15.944,-8.507 -15.944,-19 0,-10.493 -0.114,-19 15.944,-19"
         id="path6143" />
      <g
         id="g6147">
        <path
           style="fill:#88c057"
           d="m 32.51,13.389 c 0.515,-0.644 1.095,-1.246 1.728,-1.77 0.791,-4.56 6.234,-8.278 10.119,-9.28 0,0 -3.318,-2.76 -7.433,-2.284 -4.264,0.493 -6.688,2.584 -8.055,5.056 2.881,2.25 3.56,5.793 3.641,8.278 z"
           id="path6145" />
      </g>
      <path
         style="fill:#659c35"
         d="M 23.255,19.411 C 24.731,19.183 26.4,19.06 28.303,19.06 h 0.056 c 0,0 0.167,-5.042 -5,-6 -5.167,-0.958 -6,2 -6,2 4.466,1.071 5.604,3.261 5.896,4.351 z"
         id="path6149" />
      <path
         style="fill:#659c35"
         d="m 34.612,19.553 c 0.819,-1.552 4.68,-5.279 9.746,-6.493 0,0 -1.833,-3.958 -7,-3 -5.167,0.958 -7.999,9 -7.999,9 0,0 0.028,0.005 0.069,0.011 1.971,0.031 3.689,0.196 5.184,0.482 z"
         id="path6151" />
      <path
         style="fill:#a4e869"
         d="m 25.988,14.156 c 2.26,1.652 2.367,4.399 2.37,4.838 0.335,0.016 0.679,0.014 1.025,0 0.145,-0.395 1.021,-2.682 2.565,-4.859 0.059,-0.115 0.119,-0.204 0.181,-0.242 0.074,-0.101 0.152,-0.201 0.228,-0.301 0.052,-0.067 0.1,-0.136 0.154,-0.203 C 32.392,9.763 31.005,3.882 23.358,3.06 c -3.875,-0.417 -7,2 -7,2 3.951,0.947 9.625,4.667 9.63,9.096 z"
         id="path6153" />
      <g
         id="g6191">
        <polygon
           style="fill:#f4c44e"
           points="17.651,48.353 19.065,49.767 21.358,47.474 23.651,49.767 25.065,48.353 21.358,44.646 "
           id="polygon6155" />
        <polygon
           style="fill:#f4c44e"
           points="26.065,54.767 28.358,52.474 30.651,54.767 32.065,53.353 28.358,49.646 24.651,53.353 "
           id="polygon6157" />
        <polygon
           style="fill:#f4c44e"
           points="33.065,49.767 35.358,47.474 37.651,49.767 39.065,48.353 35.358,44.646 31.651,48.353 "
           id="polygon6159" />
        <polygon
           style="fill:#f4c44e"
           points="21.358,39.474 23.651,41.767 25.065,40.353 21.358,36.646 17.651,40.353 19.065,41.767 "
           id="polygon6161" />
        <polygon
           style="fill:#f4c44e"
           points="30.651,45.767 32.065,44.353 28.358,40.646 24.651,44.353 26.065,45.767 28.358,43.474 "
           id="polygon6163" />
        <polygon
           style="fill:#f4c44e"
           points="12.791,42.353 14.205,43.767 14.498,43.474 16.791,45.767 18.205,44.353 14.498,40.646 "
           id="polygon6165" />
        <polygon
           style="fill:#f4c44e"
           points="37.651,41.767 39.065,40.353 35.358,36.646 31.651,40.353 33.065,41.767 35.358,39.474 "
           id="polygon6167" />
        <polygon
           style="fill:#f4c44e"
           points="19.065,33.767 21.358,31.474 23.651,33.767 25.065,32.353 21.358,28.646 17.651,32.353 "
           id="polygon6169" />
        <polygon
           style="fill:#f4c44e"
           points="30.651,37.767 32.065,36.353 28.358,32.646 24.651,36.353 26.065,37.767 28.358,35.474 "
           id="polygon6171" />
        <polygon
           style="fill:#f4c44e"
           points="31.651,32.353 33.065,33.767 35.358,31.474 37.651,33.767 39.065,32.353 35.358,28.646 "
           id="polygon6173" />
        <polygon
           style="fill:#f4c44e"
           points="23.651,25.767 25.065,24.353 21.358,20.646 17.651,24.353 19.065,25.767 21.358,23.474 "
           id="polygon6175" />
        <polygon
           style="fill:#f4c44e"
           points="28.358,27.474 30.651,29.767 32.065,28.353 28.358,24.646 24.651,28.353 26.065,29.767 "
           id="polygon6177" />
        <polygon
           style="fill:#f4c44e"
           points="37.651,25.767 39.065,24.353 35.358,20.646 31.651,24.353 33.065,25.767 35.358,23.474 "
           id="polygon6179" />
        <path
           style="fill:#f4c44e"
           d="m 43.212,25.538 -0.699,-1.048 -3.862,3.863 1.414,1.414 2.138,-2.137 1.323,1.985 0.732,-0.488 c -0.22,-1.294 -0.553,-2.496 -1.046,-3.589 z"
           id="path6181" />
        <path
           style="fill:#f4c44e"
           d="m 42.16,40.843 -3.51,3.51 1.414,1.414 2.49,-2.49 1.355,0.678 c 0.18,-0.656 0.336,-1.323 0.456,-2.008 z"
           id="path6183" />
        <path
           style="fill:#f4c44e"
           d="m 14.23,24.774 c -0.383,0.693 -0.688,1.438 -0.93,2.228 l 0.765,0.765 0.293,-0.293 2.293,2.293 1.414,-1.414 -3.707,-3.707 z"
           id="path6185" />
        <path
           style="fill:#f4c44e"
           d="m 44.689,34.977 -2.331,-2.331 -3.707,3.707 1.414,1.414 2.293,-2.293 1.293,1.293 1.046,-1.046 c -0.002,-0.249 -0.005,-0.498 -0.008,-0.744 z"
           id="path6187" />
        <path
           style="fill:#f4c44e"
           d="m 12.378,34.626 c -0.008,0.474 -0.014,0.952 -0.017,1.437 l 0.704,0.704 1.293,-1.293 2.293,2.293 1.414,-1.414 -3.707,-3.707 z"
           id="path6189" />
      </g>
    </g>
    <g
       id="g6195" />
    <g
       id="g6197" />
    <g
       id="g6199" />
    <g
       id="g6201" />
    <g
       id="g6203" />
    <g
       id="g6205" />
    <g
       id="g6207" />
    <g
       id="g6209" />
    <g
       id="g6211" />
    <g
       id="g6213" />
    <g
       id="g6215" />
    <g
       id="g6217" />
    <g
       id="g6219" />
    <g
       id="g6221" />
    <g
       id="g6223" />
  </g>
  <text
     xml:space="preserve"
     style="font-style:normal;font-variant:normal;font-weight:bold;font-stretch:normal;font-size:14.11111069px;line-height:1.25;font-family:Arial;-inkscape-font-specification:'Arial, Bold';font-variant-ligatures:normal;font-variant-caps:normal;font-variant-numeric:normal;font-feature-settings:normal;text-align:start;letter-spacing:0px;word-spacing:0px;writing-mode:lr-tb;text-anchor:start;fill:#b22600;fill-opacity:1;stroke:none;stroke-width:0.26458335"
     x="102.44813"
     y="137.06415"
     id="text11620"><tspan
       x="102.44813"
       y="137.06415"
       id="tspan11610"
       style="stroke-width:0.26458335"><tspan
         dx="0"
         x="102.44813"
         y="137.06415"
         id="tspan11608"
         style="stroke-width:0.26458335">എ</tspan></tspan></text>
  <text
     id="text1860"
     y="137.82863"
     x="123.8537"
     style="font-style:normal;font-variant:normal;font-weight:bold;font-stretch:normal;font-size:14.11111069px;line-height:1.25;font-family:Arial;-inkscape-font-specification:'Arial, Bold';font-variant-ligatures:normal;font-variant-caps:normal;font-variant-numeric:normal;font-feature-settings:normal;text-align:start;letter-spacing:0px;word-spacing:0px;writing-mode:lr-tb;text-anchor:start;fill:#b22600;fill-opacity:1;stroke:none;stroke-width:0.26458335"
     xml:space="preserve"><tspan
       style="stroke-width:0.26458335"
       id="tspan1858"
       y="137.82863"
       x="123.8537">ത്ര<tspan
   style="stroke-width:0.26458335"
   id="tspan1856"
   y="137.82863"
   x="123.8537" /></tspan></text>
  <text
     xml:space="preserve"
     style="font-style:normal;font-variant:normal;font-weight:bold;font-stretch:normal;font-size:14.11111069px;line-height:1.25;font-family:Arial;-inkscape-font-specification:'Arial, Bold';font-variant-ligatures:normal;font-variant-caps:normal;font-variant-numeric:normal;font-feature-settings:normal;text-align:start;letter-spacing:0px;word-spacing:0px;writing-mode:lr-tb;text-anchor:start;fill:#b22600;fill-opacity:1;stroke:none;stroke-width:0.26458335"
     x="151.37515"
     y="137.44638"
     id="text1866"><tspan
       x="151.37515"
       y="137.44638"
       id="tspan1864"
       style="stroke-width:0.26458335">കഴിച്ചാലും</tspan></text>
  <text
     id="text1870"
     y="161.88272"
     x="37.523209"
     style="font-style:normal;font-variant:normal;font-weight:bold;font-stretch:normal;font-size:14.11111069px;line-height:1.25;font-family:Arial;-inkscape-font-specification:'Arial, Bold';font-variant-ligatures:normal;font-variant-caps:normal;font-variant-numeric:normal;font-feature-settings:normal;text-align:start;letter-spacing:0px;word-spacing:0px;writing-mode:lr-tb;text-anchor:start;fill:#b22600;fill-opacity:1;stroke:none;stroke-width:0.26458335"
     xml:space="preserve"><tspan
       style="stroke-width:0.26458335"
       id="tspan1868"
       y="161.88272"
       x="37.523209">തടി വെക്കാത്ത 15 ഭക്ഷണങ്ങൾ</tspan></text>
</svg>
