<?xml version="1.0" encoding="UTF-8" standalone="no"?>
<svg
   xmlns:dc="http://purl.org/dc/elements/1.1/"
   xmlns:cc="http://creativecommons.org/ns#"
   xmlns:rdf="http://www.w3.org/1999/02/22-rdf-syntax-ns#"
   xmlns:svg="http://www.w3.org/2000/svg"
   xmlns="http://www.w3.org/2000/svg"
   xmlns:xlink="http://www.w3.org/1999/xlink"
   id="svg956"
   version="1.1"
   viewBox="0 0 338.66666 190.50001"
   height="720"
   width="1280">
  <defs
     id="defs950">
    <linearGradient
       id="linearGradient2692">
      <stop
         id="stop2688"
         offset="0"
         style="stop-color:#65a4d9;stop-opacity:1;" />
      <stop
         id="stop2690"
         offset="1"
         style="stop-color:#65a4d9;stop-opacity:0;" />
    </linearGradient>
    <linearGradient
       y2="393.84613"
       x2="1096.9231"
       y1="149.23077"
       x1="781.53845"
       gradientUnits="userSpaceOnUse"
       id="linearGradient2704"
       xlink:href="#linearGradient2692" />
  </defs>
  <metadata
     id="metadata953">
    <rdf:RDF>
      <cc:Work
         rdf:about="">
        <dc:format>image/svg+xml</dc:format>
        <dc:type
           rdf:resource="http://purl.org/dc/dcmitype/StillImage" />
        <dc:title></dc:title>
      </cc:Work>
    </rdf:RDF>
  </metadata>
  <g
     transform="translate(-0.76448416,-106.49998)"
     style="display:inline;fill:#3e7f3e;fill-opacity:1"
     id="layer1">
    <rect
       ry="17.279589"
       rx="0"
       y="106.52"
       x="0.0010536164"
       height="190.47913"
       width="338.66473"
       id="rect1501"
       style="opacity:1;fill:#3e7f3e;fill-opacity:1;stroke:none;stroke-width:0.06496903;stroke-linecap:round;stroke-linejoin:round;stroke-miterlimit:4;stroke-dasharray:none;stroke-opacity:1;paint-order:stroke markers fill" />
    <rect
       y="234.06694"
       x="33.072918"
       height="8.1264877"
       width="70.870537"
       id="rect2622"
       style="opacity:1;fill:#3e7f3e;fill-opacity:1;stroke:none;stroke-width:0.065;stroke-linecap:round;stroke-linejoin:round;stroke-miterlimit:4;stroke-dasharray:none;stroke-opacity:1;paint-order:stroke markers fill" />
  </g>
  <g
     transform="matrix(0.83607886,0,0,0.7387337,2.7660781,1.5402733)"
     id="g1587">
    <g
       id="layer6">
      <path
         style="fill:none;stroke:#000000;stroke-width:4.60422993;stroke-linecap:round;stroke-linejoin:miter;stroke-miterlimit:4;stroke-dasharray:none;stroke-opacity:1"
         d="M 66.768157,139.81035 C 51.893233,146.9178 32.246079,178.46662 40.013915,173.24137"
         id="path878" />
      <path
         id="path880"
         d="m 139.53994,141.79213 c 9.68927,12.94143 25.35237,46.78746 17.95995,40.3533"
         style="fill:none;stroke:#000000;stroke-width:4.60422993;stroke-linecap:round;stroke-linejoin:miter;stroke-miterlimit:4;stroke-dasharray:none;stroke-opacity:1" />
      <path
         style="fill:none;stroke:#000000;stroke-width:5.86499977;stroke-linecap:round;stroke-linejoin:miter;stroke-miterlimit:4;stroke-dasharray:none;stroke-opacity:1"
         d="m 82.131923,185.30806 c 11.483861,17.80912 -11.928366,48.16385 -0.374176,45.46254"
         id="path882" />
      <path
         id="path884"
         d="m 116.18207,184.93389 c 11.48386,17.80912 -11.92837,48.16385 -0.37418,45.46254"
         style="fill:none;stroke:#000000;stroke-width:5.86499977;stroke-linecap:round;stroke-linejoin:miter;stroke-miterlimit:4;stroke-dasharray:none;stroke-opacity:1" />
    </g>
    <g
       id="layer4"
       style="display:inline">
      <rect
         style="opacity:1;fill:#fe7b6a;fill-opacity:1;stroke:none;stroke-width:0.07566334;stroke-linecap:round;stroke-linejoin:round;stroke-miterlimit:4;stroke-dasharray:none;stroke-opacity:1;paint-order:normal"
         id="rect2154"
         width="75.683777"
         height="49.587734"
         x="64.645958"
         y="136.27773"
         ry="2.5358722" />
      <path
         style="fill:#f0624e;fill-opacity:1;stroke:#f0624e;stroke-width:0.32813942;stroke-linecap:butt;stroke-linejoin:miter;stroke-miterlimit:4;stroke-dasharray:none;stroke-opacity:1"
         d="m 64.791873,156.17051 75.391307,-0.72834 5e-5,18.15658 -75.391309,0.11601 z"
         id="path2156" />
    </g>
    <g
       id="layer1-6">
      <g
         transform="translate(4.1038546,-103.99778)"
         id="layer1-4"
         style="fill:#a3e0c0;fill-opacity:1">
        <rect
           rx="49.514881"
           ry="50.081848"
           y="146.18748"
           x="33.261906"
           height="100.1637"
           width="132.66963"
           id="rect815"
           style="opacity:1;fill:#a3e0c0;fill-opacity:1;stroke:none;stroke-width:3.00399995;stroke-linecap:round;stroke-linejoin:round;stroke-miterlimit:4;stroke-dasharray:none;stroke-opacity:1;paint-order:normal" />
      </g>
      <path
         style="fill:#86d0ab;fill-opacity:1;fill-rule:evenodd;stroke-width:0.26458332"
         id="path2023"
         d="M 79.913584,104.69958 A 10.022608,10.557146 0 0 1 69.891632,115.25672 10.022608,10.557146 0 0 1 59.868368,104.70096 10.022608,10.557146 0 0 1 69.889008,94.142431 10.022608,10.557146 0 0 1 79.913583,104.69681 l -10.022607,0.003 z" />
      <path
         style="fill:#86d0ab;fill-opacity:1;fill-rule:evenodd;stroke-width:0.26458332"
         id="path2025"
         d="m 161.16352,101.75961 a 10.423512,11.358955 0 0 1 -10.42283,11.35896 10.423512,11.358955 0 0 1 -10.4242,-11.35747 10.423512,11.358955 0 0 1 10.42147,-11.360442 10.423512,11.358955 0 0 1 10.42556,11.355982 l -10.42351,0.003 z" />
      <path
         style="fill:#95d8af;fill-opacity:1;stroke:#95d8af;stroke-width:0.26458332px;stroke-linecap:butt;stroke-linejoin:miter;stroke-opacity:1"
         d="M 135.46234,139.90161 C 103.83913,141.25495 74.025655,141.06533 71.045524,115.05813 55.376425,115 57.726273,95.128724 69.412294,93.82613 65.298145,53.389322 79.393102,48.961318 88.864323,42.672194 59.562019,39.595249 37.185723,67.453189 37.809284,89.960016 c -1.76528,33.488194 25.446872,52.047174 47.118697,52.046414 23.662139,0.75924 42.395969,0.886 50.534359,-2.10482 z"
         id="path2029" />
      <path
         style="fill:#77c79f;fill-opacity:1;stroke:none;stroke-width:0.114;stroke-linecap:butt;stroke-linejoin:miter;stroke-miterlimit:4;stroke-dasharray:none;stroke-opacity:1"
         d="M 42.918268,69.134595 29.167873,57.475574 c -4.06867,-3.600109 1.797433,-10.284612 5.762783,-6.888703 l 13.041932,10.732934 c -2.588087,3.245779 -3.523411,5.121467 -5.05432,7.81479 z"
         id="path2031" />
      <path
         style="fill:#77c79f;fill-opacity:1;stroke:none;stroke-width:0.075;stroke-linecap:butt;stroke-linejoin:miter;stroke-miterlimit:4;stroke-dasharray:none;stroke-opacity:1"
         d="M 49.850716,58.986426 29.938228,41.293354 C 26.241189,38.140029 32.50453,32.234957 35.8028,34.8462 l 20.059955,18.236876 c -1.122746,1.030173 -4.87864,4.541005 -6.012039,5.90335 z"
         id="path2033" />
      <path
         id="path2044"
         d="M 58.093776,51.342742 44.461795,39.800021 c -4.06867,-3.600109 1.797433,-10.284612 5.762783,-6.888703 l 15.195652,13.90722 c -1.85391,0.869755 -5.856491,3.288176 -7.326454,4.524204 z"
         style="fill:#77c79f;fill-opacity:1;stroke:none;stroke-width:0.114;stroke-linecap:butt;stroke-linejoin:miter;stroke-miterlimit:4;stroke-dasharray:none;stroke-opacity:1" />
    </g>
    <g
       id="layer2"
       style="display:inline">
      <path
         d="M 108.76829,82.887405 A 13.607142,12.851191 0 0 1 95.162039,95.738596 13.607142,12.851191 0 0 1 81.554006,82.889088 13.607142,12.851191 0 0 1 95.158476,70.036215 13.607142,12.851191 0 0 1 108.76829,82.884041 l -13.607142,0.0034 z"
         id="path847"
         style="fill:#ffffff;fill-opacity:1;fill-rule:evenodd;stroke-width:0.26458332" />
      <path
         style="fill:#ffffff;fill-opacity:1;fill-rule:evenodd;stroke-width:0.26458332;paint-order:fill markers stroke"
         id="path2091"
         d="M 133.94442,83.118378 A 13.607142,12.851191 0 0 1 120.33816,95.969568 13.607142,12.851191 0 0 1 106.73013,83.12006 13.607142,12.851191 0 0 1 120.3346,70.267187 13.607142,12.851191 0 0 1 133.94441,83.115013 l -13.60714,0.0034 z" />
      <path
         style="fill:#000000;fill-opacity:1;fill-rule:evenodd;stroke:none;stroke-width:0.26458332;stroke-opacity:1"
         id="path2179"
         d="m 101.28195,90.806244 a 6.1208024,5.7743421 0 0 1 -6.120401,5.774342 6.1208024,5.7743421 0 0 1 -6.121203,-5.773586 6.1208024,5.7743421 0 0 1 6.1196,-5.775098 6.1208024,5.7743421 0 0 1 6.122004,5.77283 l -6.120802,0.0015 z" />
      <path
         d="m 126.58827,90.743927 a 6.1208024,5.7743421 0 0 1 -6.1204,5.774342 6.1208024,5.7743421 0 0 1 -6.1212,-5.773586 6.1208024,5.7743421 0 0 1 6.1196,-5.775098 6.1208024,5.7743421 0 0 1 6.122,5.77283 l -6.1208,0.0015 z"
         id="path2181"
         style="fill:#000000;fill-opacity:1;fill-rule:evenodd;stroke-width:0.26458332;paint-order:markers stroke fill" />
      <path
         style="fill:#a3e0c0;fill-opacity:1;stroke:#a3e0c0;stroke-width:0.065;stroke-linecap:butt;stroke-linejoin:miter;stroke-miterlimit:4;stroke-dasharray:none;stroke-opacity:1"
         d="m 81.47596,82.945154 c 1.738848,-17.658284 23.00856,-14.931422 26.27325,-4.965933 7.83267,-13.688767 26.00903,-7.572675 26.1952,5.13579 l 13.16761,-1.258019 -5.85786,-21.035023 -67.631584,4.659656 -1.464463,18.372362 z"
         id="path2201" />
      <path
         style="fill:#a3e0c0;fill-opacity:1;stroke:#a3e0c0;stroke-width:0.065;stroke-linecap:butt;stroke-linejoin:miter;stroke-miterlimit:4;stroke-dasharray:none;stroke-opacity:1"
         d="m 81.47596,82.945154 c 1.045872,13.684224 19.03344,18.034166 26.17231,5.112708 5.50008,11.980628 25.5048,10.051654 26.29614,-4.942853 l 13.16761,-1.258017 -9.33918,16.744471 -55.829213,5.144777 -6.559526,-11.403483 -3.128389,-0.201829 -0.0976,-8.286943 z"
         id="path2213" />
    </g>
    <g
       id="layer5" />
    <g
       id="layer3"
       style="display:inline">
      <path
         style="fill:none;stroke:#64a2d6;stroke-width:8.25;stroke-linecap:round;stroke-linejoin:miter;stroke-miterlimit:4;stroke-dasharray:none;stroke-opacity:1"
         d="m 91.369316,108.83786 c 34.845494,-3.27864 34.845494,-3.27864 34.845494,-3.27864"
         id="path895" />
      <path
         style="fill:none;stroke:#000000;stroke-width:2.06500006;stroke-linecap:round;stroke-linejoin:miter;stroke-miterlimit:4;stroke-dasharray:none;stroke-opacity:1"
         d="m 91.369316,108.83786 34.845494,-3.27864"
         id="path897" />
    </g>
  </g>
  <g
     transform="matrix(0.09859342,0,0,0.07786889,63.681774,104.88841)"
     id="g1635">
    <path
       style="fill:#b9dd39"
       d="m 271,15 c 0,8.399 -6.599,15 -15,15 -124.2,0 -226,101.8 -226,226 0,45.599 14.5,89.399 40,126.899 4.801,6.601 3.001,15.901 -3.9,20.7 -6.899,4.799 -16.199,2.999 -20.7,-3.9 C 16.3,357.4 0,307.599 0,256 0,115.3 115.3,0 256,0 c 8.401,0 15,6.599 15,15 z"
       id="path1589" />
    <path
       style="fill:#90cc1c"
       d="M 256,30 V 0 c 8.401,0 15,6.599 15,15 0,8.399 -6.599,15 -15,15 z"
       id="path1591" />
    <path
       style="fill:#b9dd39"
       d="m 512,256 c 0,140.7 -115.3,256 -256,256 -8.401,0 -15,-6.601 -15,-15 0,-8.401 6.599,-15 15,-15 124.2,0 226,-101.8 226,-226 0,-47.401 -15.399,-93.701 -43.001,-131.8 -4.799,-6.901 -3.3,-16.201 3.301,-21 6.899,-4.801 16.199,-3.301 20.999,3.3 C 494.5,150 512,202.299 512,256 Z"
       id="path1593" />
    <path
       style="fill:#90cc1c"
       d="m 512,256 c 0,140.7 -115.3,256 -256,256 v -30 c 124.2,0 226,-101.8 226,-226 0,-47.401 -15.399,-93.701 -43.001,-131.8 -4.799,-6.901 -3.3,-16.201 3.301,-21 6.899,-4.801 16.199,-3.301 20.999,3.3 C 494.5,150 512,202.299 512,256 Z"
       id="path1595" />
    <path
       style="fill:#ff637b"
       d="m 361,135 c 0,41.4 -33.6,75 -75,75 -10.499,0 -20.7,-2.1 -30,-6.301 -26.4,-11.4 -45,-37.8 -45,-68.699 0,-30.901 18.6,-57.301 45,-68.701 C 265.3,62.1 275.501,60 286,60 c 41.4,0 75,33.6 75,75 z"
       id="path1597" />
    <path
       style="fill:#e63950"
       d="m 361,135 c 0,41.4 -33.6,75 -75,75 -10.499,0 -20.7,-2.1 -30,-6.301 V 66.299 C 265.3,62.1 275.501,60 286,60 c 41.4,0 75,33.6 75,75 z"
       id="path1599" />
    <path
       style="fill:#ff8e8e"
       d="m 391,256 c 0,74.7 -60.3,135 -135,135 -74.7,0 -135,-60.3 -135,-135 0,-74.7 60.3,-136 135,-136 74.7,0 135,61.3 135,136 z"
       id="path1601" />
    <path
       style="fill:#ff637b"
       d="M 256,391 V 120 c 74.7,0 135,61.3 135,136 0,74.7 -60.3,135 -135,135 z"
       id="path1603" />
    <path
       style="fill:#90cc1c"
       d="m 414.364,163.286 c -5.068,-1.201 -9.141,-4.937 -10.781,-9.858 L 371.767,57.964 c -1.802,-5.391 -0.396,-11.338 3.618,-15.352 3.999,-4.014 9.946,-5.449 15.352,-3.618 L 486.2,70.811 c 4.922,1.641 8.657,5.713 9.858,10.781 1.187,5.054 -0.322,10.371 -3.999,14.048 l -63.647,63.647 c -3.544,3.544 -8.778,5.215 -14.048,3.999 z"
       id="path1605" />
    <path
       style="fill:#b9dd39"
       d="M 116.708,468.959 21.244,437.143 c -4.922,-1.641 -8.657,-5.713 -9.858,-10.781 -1.187,-5.054 0.322,-10.371 3.999,-14.048 l 63.633,-63.633 c 3.662,-3.662 8.979,-5.186 14.048,-3.999 5.068,1.201 9.141,4.922 10.781,9.858 l 31.831,95.449 c 1.802,5.391 0.396,11.338 -3.618,15.352 -4.059,4.059 -10.063,5.414 -15.352,3.618 z"
       id="path1607" />
    <path
       style="fill:#ff637b"
       d="m 166,210 c -24.814,0 -45,-20.186 -45,-45 0,-24.814 20.186,-45 45,-45 24.814,0 45,20.186 45,45 0,24.814 -20.186,45 -45,45 z"
       id="path1609" />
    <path
       style="fill:#e63950"
       d="m 331,391 c -33.091,0 -60,-26.909 -60,-60 0,-33.091 26.909,-60 60,-60 33.091,0 60,26.909 60,60 0,33.091 -26.909,60 -60,60 z"
       id="path1611" />
    <path
       style="fill:#ff637b"
       d="m 166,361 c -24.814,0 -45,-20.186 -45,-45 0,-24.814 20.186,-45 45,-45 24.814,0 45,20.186 45,45 0,24.814 -20.186,45 -45,45 z"
       id="path1613" />
  </g>
  <text
     id="text1673"
     y="63.176468"
     x="182.32944"
     style="font-style:normal;font-variant:normal;font-weight:bold;font-stretch:normal;font-size:16.93333435px;line-height:1.25;font-family:Arial;-inkscape-font-specification:'Arial, Bold';font-variant-ligatures:normal;font-variant-caps:normal;font-variant-numeric:normal;font-feature-settings:normal;text-align:start;letter-spacing:0px;word-spacing:0px;writing-mode:lr-tb;text-anchor:start;fill:#3cd03b;fill-opacity:1;stroke:none;stroke-width:0.26458335"
     xml:space="preserve"><tspan
       style="stroke-width:0.26458335"
       id="tspan1651"
       y="63.176468"
       x="182.32944"><tspan
         style="stroke-width:0.26458335"
         id="tspan1649"
         y="63.176468"
         x="182.32944">10 FOODS </tspan></tspan><tspan
       style="stroke-width:0.26458335"
       id="tspan1657"
       y="84.343132"
       x="182.32944"><tspan
         style="stroke-width:0.26458335"
         id="tspan1653"
         y="84.343132"
         x="182.32944">THAT</tspan><tspan
         style="stroke-width:0.26458335"
         id="tspan1655"
         y="84.343132"
         x="226.25027"
         dx="0" /></tspan><tspan
       style="stroke-width:0.26458335"
       id="tspan1663"
       y="105.5098"
       x="182.32944"><tspan
         style="stroke-width:0.26458335"
         id="tspan1659"
         y="105.5098"
         x="182.32944">BOOST</tspan><tspan
         style="stroke-width:0.26458335"
         id="tspan1661"
         y="105.5098"
         x="242.55522"
         dx="0" /></tspan><tspan
       style="stroke-width:0.26458335"
       id="tspan1667"
       y="126.67647"
       x="182.32944"><tspan
         style="stroke-width:0.26458335"
         id="tspan1665"
         y="126.67647"
         x="182.32944">YOUR </tspan></tspan><tspan
       style="stroke-width:0.26458335"
       id="tspan1671"
       y="147.84312"
       x="182.32944"><tspan
         style="stroke-width:0.26458335"
         id="tspan1669"
         y="147.84312"
         x="182.32944">METABOLISM</tspan></tspan></text>
</svg>
