<?xml version="1.0" encoding="UTF-8" standalone="no"?>
<!-- Created with Inkscape (http://www.inkscape.org/) -->

<svg
   xmlns:dc="http://purl.org/dc/elements/1.1/"
   xmlns:cc="http://creativecommons.org/ns#"
   xmlns:rdf="http://www.w3.org/1999/02/22-rdf-syntax-ns#"
   xmlns:svg="http://www.w3.org/2000/svg"
   xmlns="http://www.w3.org/2000/svg"
   xmlns:sodipodi="http://sodipodi.sourceforge.net/DTD/sodipodi-0.dtd"
   xmlns:inkscape="http://www.inkscape.org/namespaces/inkscape"
   width="1280"
   height="720"
   viewBox="0 0 338.66666 190.5"
   version="1.1"
   id="svg8"
   inkscape:version="0.92.4 (5da689c313, 2019-01-14)"
   sodipodi:docname="eight.svg">
  <defs
     id="defs2" />
  <sodipodi:namedview
     id="base"
     pagecolor="#ffffff"
     bordercolor="#666666"
     borderopacity="1.0"
     inkscape:pageopacity="0.0"
     inkscape:pageshadow="2"
     inkscape:zoom="1"
     inkscape:cx="705.59217"
     inkscape:cy="314.5728"
     inkscape:document-units="mm"
     inkscape:current-layer="layer1"
     showgrid="false"
     units="px"
     inkscape:window-width="1366"
     inkscape:window-height="745"
     inkscape:window-x="-8"
     inkscape:window-y="-8"
     inkscape:window-maximized="1" />
  <metadata
     id="metadata5">
    <rdf:RDF>
      <cc:Work
         rdf:about="">
        <dc:format>image/svg+xml</dc:format>
        <dc:type
           rdf:resource="http://purl.org/dc/dcmitype/StillImage" />
        <dc:title></dc:title>
      </cc:Work>
    </rdf:RDF>
  </metadata>
  <g
     inkscape:label="Layer 1"
     inkscape:groupmode="layer"
     id="layer1"
     transform="translate(0,-106.49998)">
    <rect
       style="opacity:1;fill:#e0bddd;fill-opacity:1;fill-rule:nonzero;stroke:none;stroke-width:0.76434302;stroke-linecap:round;stroke-linejoin:round;stroke-miterlimit:4;stroke-dasharray:none;stroke-opacity:1;paint-order:normal"
       id="rect815"
       width="338.66174"
       height="190.48596"
       x="0.0027687326"
       y="106.50325" />
    <g
       id="g2904"
       transform="matrix(2.1050226,0,0,1.9439595,70.503696,133.33678)">
      <g
         id="g2837">
	<polygon
   id="polygon2813"
   points="12,51 12,18 26,23 26,57 "
   style="fill:#c6c6c6" />

	<polygon
   id="polygon2815"
   points="26,57 26,23 45,18 45,52 "
   style="fill:#e6e6e6" />

	<polygon
   id="polygon2817"
   points="19,8 19,4 38,0 38,4 "
   style="fill:#e2e2e2" />

	<polygon
   id="polygon2819"
   points="19,8 26,23 12,18 "
   style="fill:#d1d1d1" />

	<polygon
   id="polygon2821"
   points="26,23 19,8 38,4 45,18 "
   style="fill:#eaeaea" />

	<polygon
   id="polygon2823"
   points="26,52 26,37 45,21 45,37 "
   style="fill:#3dabef" />

	<polygon
   id="polygon2825"
   points="26,52 26,37 12,31 12,46 "
   style="fill:#2b9dd6" />

	<path
   id="path2827"
   d="m 34.215,16.875 v 0 c -2.217,0.58 -2.956,-1.423 -3.305,-2.753 v 0 c -0.348,-1.33 -0.684,-3.439 1.533,-4.019 v 0 c 2.217,-0.58 2.956,1.423 3.304,2.753 v 0 c 0.348,1.33 0.685,3.439 -1.532,4.019 z"
   style="fill:#ffffff"
   inkscape:connector-curvature="0" />

	<polygon
   id="polygon2829"
   points="36,4.421 36,0.421 34,0.842 34,4.842 "
   style="fill:#ededed" />

	<polygon
   id="polygon2831"
   points="32,5.263 32,1.263 30,1.684 30,5.684 "
   style="fill:#ededed" />

	<polygon
   id="polygon2833"
   points="28,6.105 28,2.105 26,2.526 26,6.526 "
   style="fill:#ededed" />

	<polygon
   id="polygon2835"
   points="24,6.947 24,2.947 22,3.368 22,7.368 "
   style="fill:#ededed" />

</g>
      <g
         id="g2839">
</g>
      <g
         id="g2841">
</g>
      <g
         id="g2843">
</g>
      <g
         id="g2845">
</g>
      <g
         id="g2847">
</g>
      <g
         id="g2849">
</g>
      <g
         id="g2851">
</g>
      <g
         id="g2853">
</g>
      <g
         id="g2855">
</g>
      <g
         id="g2857">
</g>
      <g
         id="g2859">
</g>
      <g
         id="g2861">
</g>
      <g
         id="g2863">
</g>
      <g
         id="g2865">
</g>
      <g
         id="g2867">
</g>
    </g>
    <g
       transform="matrix(2.1050226,0,0,1.9439595,108.37689,151.40346)"
       id="g2962">
      <g
         id="g2930"
         transform="translate(-0.73224937,-3.9622748)">
	<polygon
   style="fill:#c6c6c6"
   points="12,18 26,23 26,57 12,51 "
   id="polygon2906" />

	<polygon
   style="fill:#e6e6e6"
   points="26,23 45,18 45,52 26,57 "
   id="polygon2908" />

	<polygon
   style="fill:#e2e2e2"
   points="19,4 38,0 38,4 19,8 "
   id="polygon2910" />

	<polygon
   style="fill:#d1d1d1"
   points="26,23 12,18 19,8 "
   id="polygon2912" />

	<polygon
   style="fill:#eaeaea"
   points="19,8 38,4 45,18 26,23 "
   id="polygon2914" />

	<polygon
   style="fill:#3dabef"
   points="26,37 45,21 45,37 26,52 "
   id="polygon2916" />

	<polygon
   style="fill:#2b9dd6"
   points="26,37 12,31 12,46 26,52 "
   id="polygon2918" />

	<path
   inkscape:connector-curvature="0"
   style="fill:#ffffff"
   d="m 34.215,16.875 v 0 c -2.217,0.58 -2.956,-1.423 -3.305,-2.753 v 0 c -0.348,-1.33 -0.684,-3.439 1.533,-4.019 v 0 c 2.217,-0.58 2.956,1.423 3.304,2.753 v 0 c 0.348,1.33 0.685,3.439 -1.532,4.019 z"
   id="path2920" />

	<polygon
   style="fill:#ededed"
   points="36,0.421 34,0.842 34,4.842 36,4.421 "
   id="polygon2922" />

	<polygon
   style="fill:#ededed"
   points="32,1.263 30,1.684 30,5.684 32,5.263 "
   id="polygon2924" />

	<polygon
   style="fill:#ededed"
   points="28,2.105 26,2.526 26,6.526 28,6.105 "
   id="polygon2926" />

	<polygon
   style="fill:#ededed"
   points="24,2.947 22,3.368 22,7.368 24,6.947 "
   id="polygon2928" />

</g>
      <g
         id="g2932">
</g>
      <g
         id="g2934">
</g>
      <g
         id="g2936">
</g>
      <g
         id="g2938">
</g>
      <g
         id="g2940">
</g>
      <g
         id="g2942">
</g>
      <g
         id="g2944">
</g>
      <g
         id="g2946">
</g>
      <g
         id="g2948">
</g>
      <g
         id="g2950">
</g>
      <g
         id="g2952">
</g>
      <g
         id="g2954">
</g>
      <g
         id="g2956">
</g>
      <g
         id="g2958">
</g>
      <g
         id="g2960">
</g>
    </g>
    <g
       id="g3020"
       transform="matrix(2.1050226,0,0,1.9439595,142.90132,153.65885)">
      <g
         id="g2988">
	<polygon
   id="polygon2964"
   points="12,18 26,23 26,57 12,51 "
   style="fill:#c6c6c6" />

	<polygon
   id="polygon2966"
   points="26,23 45,18 45,52 26,57 "
   style="fill:#e6e6e6" />

	<polygon
   id="polygon2968"
   points="19,4 38,0 38,4 19,8 "
   style="fill:#e2e2e2" />

	<polygon
   id="polygon2970"
   points="12,18 19,8 26,23 "
   style="fill:#d1d1d1" />

	<polygon
   id="polygon2972"
   points="19,8 38,4 45,18 26,23 "
   style="fill:#eaeaea" />

	<polygon
   id="polygon2974"
   points="26,37 45,21 45,37 26,52 "
   style="fill:#3dabef" />

	<polygon
   id="polygon2976"
   points="26,37 12,31 12,46 26,52 "
   style="fill:#2b9dd6" />

	<path
   id="path2978"
   d="m 34.215,16.875 v 0 c -2.217,0.58 -2.956,-1.423 -3.305,-2.753 v 0 c -0.348,-1.33 -0.684,-3.439 1.533,-4.019 v 0 c 2.217,-0.58 2.956,1.423 3.304,2.753 v 0 c 0.348,1.33 0.685,3.439 -1.532,4.019 z"
   style="fill:#ffffff"
   inkscape:connector-curvature="0" />

	<polygon
   id="polygon2980"
   points="36,0.421 34,0.842 34,4.842 36,4.421 "
   style="fill:#ededed" />

	<polygon
   id="polygon2982"
   points="32,1.263 30,1.684 30,5.684 32,5.263 "
   style="fill:#ededed" />

	<polygon
   id="polygon2984"
   points="28,2.105 26,2.526 26,6.526 28,6.105 "
   style="fill:#ededed" />

	<polygon
   id="polygon2986"
   points="24,2.947 22,3.368 22,7.368 24,6.947 "
   style="fill:#ededed" />

</g>
      <g
         id="g2990">
</g>
      <g
         id="g2992">
</g>
      <g
         id="g2994">
</g>
      <g
         id="g2996">
</g>
      <g
         id="g2998">
</g>
      <g
         id="g3000">
</g>
      <g
         id="g3002">
</g>
      <g
         id="g3004">
</g>
      <g
         id="g3006">
</g>
      <g
         id="g3008">
</g>
      <g
         id="g3010">
</g>
      <g
         id="g3012">
</g>
      <g
         id="g3014">
</g>
      <g
         id="g3016">
</g>
      <g
         id="g3018">
</g>
    </g>
    <text
       xml:space="preserve"
       style="font-style:normal;font-variant:normal;font-weight:bold;font-stretch:normal;font-size:6.04814339px;line-height:1.25;font-family:Arial;-inkscape-font-specification:'Arial, Bold';font-variant-ligatures:normal;font-variant-caps:normal;font-variant-numeric:normal;font-feature-settings:normal;text-align:start;letter-spacing:0px;word-spacing:0px;writing-mode:lr-tb;text-anchor:start;fill:#848383;fill-opacity:1;stroke:none;stroke-width:0.29935375"
       x="133.85544"
       y="119.20316"
       id="text3062"
       transform="matrix(0.80240405,0.2909203,-0.02961297,1.2355184,0,0)"><tspan
         sodipodi:role="line"
         x="133.85544"
         y="119.20316"
         id="tspan3060"
         style="stroke-width:0.29935375"><tspan
           x="133.85544"
           y="119.20316"
           id="tspan3058"
           style="stroke-width:0.29935375">MILK</tspan></tspan></text>
    <text
       xml:space="preserve"
       style="font-style:normal;font-variant:normal;font-weight:bold;font-stretch:normal;font-size:6.04814339px;line-height:1.25;font-family:Arial;-inkscape-font-specification:'Arial, Bold';font-variant-ligatures:normal;font-variant-caps:normal;font-variant-numeric:normal;font-feature-settings:normal;text-align:start;letter-spacing:0px;word-spacing:0px;writing-mode:lr-tb;text-anchor:start;fill:#848383;fill-opacity:1;stroke:none;stroke-width:0.29935375"
       x="184.00594"
       y="113.09878"
       id="text3056"
       transform="matrix(0.79545899,0.30940569,-0.0581882,1.2345027,0,0)"><tspan
         sodipodi:role="line"
         x="184.00594"
         y="113.09878"
         id="tspan3054"
         style="stroke-width:0.29935375"><tspan
           x="184.00594"
           y="113.09878"
           id="tspan3052"
           style="stroke-width:0.29935375">MILK</tspan></tspan></text>
    <text
       xml:space="preserve"
       style="font-style:normal;font-variant:normal;font-weight:bold;font-stretch:normal;font-size:6.04814339px;line-height:1.25;font-family:Arial;-inkscape-font-specification:'Arial, Bold';font-variant-ligatures:normal;font-variant-caps:normal;font-variant-numeric:normal;font-feature-settings:normal;text-align:start;letter-spacing:0px;word-spacing:0px;writing-mode:lr-tb;text-anchor:start;fill:#848383;fill-opacity:1;stroke:none;stroke-width:0.29935375"
       x="216.89426"
       y="120.98224"
       id="text3050"
       transform="matrix(0.81186372,0.2633708,0.01256333,1.2358094,0,0)"><tspan
         sodipodi:role="line"
         x="216.89426"
         y="120.98224"
         id="tspan3048"
         style="stroke-width:0.29935375"><tspan
           x="216.89426"
           y="120.98224"
           id="tspan3046"
           style="stroke-width:0.29935375">MILK</tspan></tspan></text>
  </g>
</svg>
