<?xml version="1.0" encoding="UTF-8" standalone="no"?>
<svg
   xmlns:dc="http://purl.org/dc/elements/1.1/"
   xmlns:cc="http://creativecommons.org/ns#"
   xmlns:rdf="http://www.w3.org/1999/02/22-rdf-syntax-ns#"
   xmlns:svg="http://www.w3.org/2000/svg"
   xmlns="http://www.w3.org/2000/svg"
   id="svg8"
   version="1.1"
   viewBox="0 0 338.66666 190.5"
   height="720"
   width="1280">
  <defs
     id="defs2" />
  <metadata
     id="metadata5">
    <rdf:RDF>
      <cc:Work
         rdf:about="">
        <dc:format>image/svg+xml</dc:format>
        <dc:type
           rdf:resource="http://purl.org/dc/dcmitype/StillImage" />
        <dc:title></dc:title>
      </cc:Work>
    </rdf:RDF>
  </metadata>
  <g
     transform="translate(0,-106.49998)"
     id="layer1">
    <rect
       y="106.50325"
       x="0.0027687326"
       height="190.48596"
       width="338.66174"
       id="rect815"
       style="opacity:1;fill:#e0bddd;fill-opacity:1;fill-rule:nonzero;stroke:none;stroke-width:0.76434302;stroke-linecap:round;stroke-linejoin:round;stroke-miterlimit:4;stroke-dasharray:none;stroke-opacity:1;paint-order:normal" />
    <g
       transform="matrix(0.27402339,0,0,0.24978839,33.161007,144.26526)"
       id="g2338">
      <path
         style="fill:#5f9548"
         d="M 296.47266,249.30859 C 172.87109,331.4375 36.71875,279.05469 0,135.28516 c 123.60156,-82.109379 259.75391,-29.75 296.47266,114.02343 z m 0,0"
         id="path2261" />
      <path
         style="fill:#68a34f"
         d="m 291.54297,238.83984 -95.58203,-36.76171 -32.92188,-74.0625 -14.625,6.49609 26.42578,59.44531 -25.28125,-9.72656 -27.20703,-61.20703 -14.625,6.49609 20.71485,46.58985 -25.27344,-9.71875 -18.640626,-41.94532 -14.625,6.50391 12.136718,27.3125 -37.648437,-14.48047 -5.75,14.94531 37.648437,14.47266 -27.3125,12.14453 6.503907,14.62109 41.933593,-18.64062 25.273438,9.72266 -46.582031,20.70312 6.503906,14.63281 61.207035,-27.20703 25.27343,9.71875 -59.4414,26.41406 6.5039,14.625 74.05469,-32.91796 95.58594,36.75781 z m 0,0"
         id="path2263" />
      <path
         style="fill:#7eb457"
         d="M 279.45703,290.50391 C 134,261.16797 74.753906,127.87109 150.44922,0.238281 295.91016,29.574219 355.15234,162.87891 279.45703,290.50391 Z m 0,0"
         id="path2265" />
      <path
         style="fill:#88c25e"
         d="m 241.78516,186.03906 29.09375,-75.64062 -14.9336,-5.75391 -23.35156,60.70703 -11,-24.74609 24.04688,-62.519532 -14.9375,-5.742188 -18.30469,47.57422 -10.99219,-24.734376 16.47266,-42.832032 -14.9336,-5.753906 -10.73047,27.894532 -16.38281,-36.855469 -14.625,6.496093 16.38672,36.863282 -27.90625,-10.726563 -5.74219,14.9375 42.83985,16.480469 11,24.74219 -47.59375,-18.3125 -5.75,14.94531 62.53515,24.05469 10.99219,24.73047 -60.70312,-23.34375 -5.75391,14.93359 75.64844,29.09766 41.59375,93.57422 14.62109,-6.4961 z m 0,0"
         id="path2267" />
      <path
         style="fill:#95573a"
         d="m 342.07031,5.839844 -5.59765,-5.601563 -5.60157,5.558594 c -12.82031,12.4375 -27.84375,22.378906 -44.30468,29.3125 -50.375,22.191406 -86.09375,76.898435 -86.09375,141.128905 0,83.94531 60.88672,152 136,152 75.11328,0 136,-68.05469 136,-152 0,-64.23047 -35.71875,-118.937499 -86.13672,-141.128905 C 369.89453,28.183594 354.88281,18.257812 342.07031,5.839844 Z m 0,0"
         id="path2269" />
      <path
         style="fill:#8f4d2e"
         d="M 438.67188,76.324219 C 394.70313,194.30078 298.02344,248.23828 231.02344,272.17578 c 24.07031,34.57813 63.32031,55.44531 105.44922,56.0625 75.11328,0 136,-68.05469 136,-152 0.2539,-36.15234 -11.64844,-71.33984 -33.80078,-99.914061 z m 0,0"
         id="path2271" />
      <path
         style="fill:#8f4d2e"
         d="m 224.47266,200.23828 c -7.35157,0.0117 -14.69141,0.5 -21.97657,1.46485 10.89454,71.80078 66.64844,126.53515 133.97657,126.53515 13.3125,-0.0156 26.53906,-2.19922 39.15234,-6.46484 -8.08203,-68.30469 -72.64062,-121.53516 -151.15234,-121.53516 z m 0,0"
         id="path2273" />
      <g
         style="fill:#7a3b1d"
         id="g2291">
        <path
           d="m 328.47266,40.238281 h 16 V 152.23828 h -16 z m 0,0"
           id="path2275" />
        <path
           d="m 328.47266,168.23828 h 16 v 32 h -16 z m 0,0"
           id="path2277" />
        <path
           d="m 328.47266,216.23828 h 16 v 80 h -16 z m 0,0"
           id="path2279" />
        <path
           d="m 296.75391,54.117188 c -21.57032,79.984372 -21.57032,164.257812 0,244.242192 l 15.4375,-4.24219 c -20.83203,-77.20703 -20.83203,-158.55469 0,-235.757815 z m 0,0"
           id="path2281" />
        <path
           d="m 232.15234,176.07031 16,0.33594 c 0.80079,-37.69531 12,-69.03125 22.71875,-83.367188 L 258.07031,83.4375 c -14.99219,20 -25.16015,56.35156 -25.91797,92.63281 z m 0,0"
           id="path2283" />
        <path
           d="m 360.75391,58.359375 c 20.82812,77.203125 20.82812,158.550785 0,235.757815 l 15.4375,4.24219 c 21.57031,-79.98438 21.57031,-164.25782 0,-244.242192 z m 0,0"
           id="path2285" />
        <path
           d="m 435.38281,134.34375 -15.54297,3.78906 c 9.83204,41.57813 3.26172,85.34375 -18.34375,122.20313 l 13.95313,7.80469 c 23.60937,-40.3711 30.75,-88.29297 19.93359,-133.79688 z m 0,0"
           id="path2287" />
        <path
           d="m 430.46484,117.62891 c -4,-11.52344 -9.02343,-22.667972 -15.01562,-33.292972 l -13.95313,7.804687 c 5.51563,9.804685 10.14844,20.082035 13.83985,30.707035 z m 0,0"
           id="path2289" />
      </g>
      <path
         style="fill:#a36548"
         d="m 6.070312,322.67969 -5.597656,5.55859 5.558594,5.60156 c 12.4375,12.81641 22.378906,27.84375 29.3125,44.30079 22.191406,50.3789 76.89453,86.09765 141.12891,86.09765 83.9414,0 152,-60.88672 152,-136 0,-75.11328 -68.0586,-136 -152,-136 -64.23438,0 -118.937504,35.71875 -141.12891,86.13672 -6.921875,16.45703 -16.847656,31.48047 -29.273438,44.30469 z m 0,0"
         id="path2293" />
      <path
         style="fill:#95573a"
         d="M 300.21484,249.45313 C 246.53516,346.18359 123.95313,381.10938 44.214844,394.69531 73.480469,439 123.38672,465.24219 176.47266,464.23828 c 83.9414,0 152,-60.88672 152,-136 -0.15235,-28.71484 -10.1211,-56.51562 -28.25782,-78.78515 z m 0,0"
         id="path2295" />
      <path
         style="fill:#ffb531"
         d="m 264.47266,328.23828 c 8.91797,-0.0117 17.23047,-4.52344 22.09765,-12 4.86328,-7.47656 5.625,-16.90625 2.02344,-25.0625 -17.25781,-39.09766 -61.00781,-66.9375 -112.12109,-66.9375 -49.25,0 -94.19141,26.9375 -111.832035,67.01563 l -0.167969,0.42578 -0.152344,0.35156 c -3.351562,8.11328 -2.414062,17.36719 2.492188,24.64453 4.90625,7.28125 13.128906,11.6211 21.90625,11.5625 z m 0,0"
         id="path2297" />
      <path
         style="fill:#ffa912"
         d="m 266.78516,328.23828 c 8.91406,0.0195 17.21484,4.53906 22.07422,12.01172 4.85546,7.47656 5.61328,16.89844 2.01171,25.05078 -17.23046,39.09766 -60.97656,66.9375 -112.09375,66.9375 -49.25,0 -94.191402,-26.9375 -111.832028,-67.01562 l -0.191406,-0.42578 -0.152344,-0.35157 c -3.355468,-8.11718 -2.414062,-17.3789 2.5,-24.66015 4.910157,-7.28125 13.144532,-11.61719 21.929688,-11.54688 z m 0,0"
         id="path2299" />
      <path
         style="fill:#f79900"
         d="m 260.59375,297.38281 -20,-12 c -8.0625,-4.80468 -17.37891,-7.07422 -26.74609,-6.51172 -0.15235,0 -0.27344,-0.10546 -0.42188,-0.11328 l -9.60156,-0.53515 c -6.70313,-0.0742 -12.79688,-3.90235 -15.77734,-9.90625 -2.77735,-5.15235 -2.36329,-11.44141 1.0664,-16.19141 5.19141,-7.15234 11.8711,-10.20703 30.58985,-4.71094 4.19921,1.13282 8.53125,-1.29297 9.76171,-5.46093 1.22657,-4.17188 -1.09765,-8.5586 -5.24218,-9.88282 -15.58203,-4.59375 -33.05469,-7.03125 -45.97657,8.05469 -2.125,-3.47266 -5.01171,-6.42578 -8.4375,-8.63281 -9.54687,-5.01953 -20.76562,-5.78516 -30.90625,-2.10938 -4.15625,1.49219 -6.32031,6.07422 -4.82812,10.23438 1.49609,4.16015 6.07812,6.32031 10.23828,4.82812 5.55859,-2.02343 11.69141,-1.78906 17.07813,0.64844 4.22265,3.38672 6.67187,8.51563 6.64843,13.92969 0.66407,3.52344 0.11719,7.16797 -1.55078,10.34375 -4.23047,6.5039 -14.39844,7.52734 -24.1914,8.52734 -2.80079,0.28125 -5.51172,0.5586 -8,0.94531 -7.73047,0.33594 -15.25782,2.58204 -21.90626,6.54297 l -19.999995,12 c -3.789063,2.27344 -5.015625,7.19141 -2.738281,10.98047 2.273437,3.78906 7.191406,5.01563 10.980466,2.73828 l 20,-12 c 9.77344,-5.87109 21.98828,-5.87109 31.75782,0 14.84375,8.92188 33.39843,8.92188 48.24218,0 9.77344,-5.87109 21.98828,-5.87109 31.75782,0 l 20,12 c 3.78906,2.27735 8.70703,1.05078 10.98046,-2.73828 2.27735,-3.78906 1.05078,-8.70703 -2.73828,-10.98047 z m -92.80078,-8.86328 c 3.67187,-1.76172 6.94141,-4.26172 9.59766,-7.34375 2.19531,2.82813 4.82031,5.29688 7.77734,7.3086 -5.66016,1.67968 -11.68359,1.6914 -17.35156,0.0351 z m 0,0"
         id="path2301" />
      <path
         style="fill:#f59416"
         d="m 265.64063,348.11719 c -1.09375,-1.82031 -2.86329,-3.13281 -4.92188,-3.64844 -2.0625,-0.51562 -4.24219,-0.1875 -6.0625,0.90625 l -20,12 c -9.77344,5.87109 -21.98828,5.87109 -31.76172,0 -14.83984,-8.92187 -33.39453,-8.92187 -48.23828,0 -9.77344,5.87109 -21.98828,5.87109 -31.76172,0 l -20,-12 c -3.789061,-2.27734 -8.703124,-1.05078 -10.980468,2.73828 -2.273437,3.78906 -1.046874,8.70703 2.742188,10.98047 l 20,12 c 6.65625,3.96484 14.1875,6.21094 21.92969,6.54297 2.51953,0.38672 5.22265,0.66406 8,0.94531 9.8125,1 20,2.02344 24.1914,8.52735 1.66797,3.17578 2.21485,6.82031 1.55079,10.34375 0.0234,5.41406 -2.42579,10.54296 -6.64844,13.92968 -5.3711,2.4336 -11.48438,2.67188 -17.03125,0.66407 -4.15625,-1.50391 -8.74219,0.64453 -10.25,4.80078 -1.50391,4.15234 0.64453,8.74218 4.80078,10.24609 4.55078,1.5625 9.32422,2.37109 14.13672,2.39844 5.89453,0.11719 11.70312,-1.42969 16.76172,-4.46094 3.4375,-2.21484 6.32812,-5.17969 8.45312,-8.67187 6.27735,7.59765 15.70313,11.8789 25.55469,11.60546 6.93359,-0.19922 13.80469,-1.38672 20.40625,-3.51953 2.80078,-0.75781 4.97266,-2.96875 5.67578,-5.78515 0.70313,-2.8125 -0.17187,-5.78907 -2.28906,-7.77344 -2.11719,-1.98438 -5.14453,-2.66797 -7.90625,-1.78516 -18.71094,5.48047 -25.39063,2.40235 -30.59375,-4.71875 -3.42578,-4.74609 -3.83985,-11.03125 -1.0625,-16.18359 3.08203,-6.11328 9.35937,-9.95703 16.20703,-9.92188 l 9.16016,-0.51953 c 0.15234,0 0.27343,-0.0976 0.42578,-0.11328 9.36718,0.56641 18.68359,-1.70312 26.74218,-6.51172 l 20,-12 c 1.83594,-1.08594 3.16016,-2.86328 3.67969,-4.92969 0.51953,-2.07031 0.19141,-4.25781 -0.91015,-6.08593 z m -95.51954,19.83984 c 5.6875,-1.67578 11.74219,-1.67578 17.42969,0 -2.96875,2.00391 -5.60156,4.46875 -7.79687,7.29688 -2.67969,-3.06641 -5.95703,-5.54688 -9.63282,-7.29688 z m 0,0"
         id="path2303" />
      <path
         style="fill:#f79900"
         d="M 266.78516,336.23828 H 80.472656 c -4.417968,0 -8,-3.58203 -8,-8 0,-4.41797 3.582032,-8 8,-8 H 266.78516 c 4.41797,0 8,3.58203 8,8 0,4.41797 -3.58203,8 -8,8 z m 0,0"
         id="path2305" />
    </g>
    <g
       transform="matrix(0.90844949,0,0,0.89295525,200.86027,157.66452)"
       id="g2408">
      <path
         style="fill:#c65532"
         d="m 70.601425,19.387249 c -14.31604,-3.23015 -16.397102,1.328249 -21.543365,3.752962 -2.394848,1.128245 -5.440735,1.451143 -8.013218,1.473875 -2.697968,0.02389 -4.841595,2.264977 -4.699593,4.959196 0.146355,2.770785 0.05806,6.114592 -0.826469,8.706843 -1.837017,5.384147 -6.13551,7.959499 -1.332402,21.827217 0,0 3.141015,14.993457 9.745583,19.734035 6.604546,4.740601 11.675175,5.741616 15.919125,5.723099 4.243732,-0.01871 9.496875,3.373169 13.153087,2.197174 3.655998,-1.176178 8.335449,-2.032379 12.787697,-5.867966 2.226013,-1.917892 3.897232,-2.107696 5.725746,-1.87239 3.361481,0.432312 6.057412,-2.582329 5.253723,-5.874825 -0.437294,-1.791008 -0.434654,-3.472938 1.223618,-5.898544 3.316333,-4.85141 3.646503,-9.597073 4.408553,-13.361248 0.76186,-3.764393 -3.193503,-8.607468 -3.647162,-12.826901 -0.45385,-4.219654 -2.012894,-9.147403 -7.458962,-15.183439 -5.446098,-6.036009 -20.695961,-7.489088 -20.695961,-7.489088 z"
         id="path2340" />
      <g
         style="fill:#963e25"
         id="g2360">
        <path
           d="m 37.410202,26.347864 c 5.055969,4.00293 10.027222,8.100588 14.91333,12.293459 4.904785,4.172363 9.731567,8.431641 14.543213,12.708008 4.786743,4.304199 9.556763,8.626953 14.249206,13.036617 4.711243,4.388184 9.335694,8.874024 13.875,13.455078 C 89.933456,73.839562 84.961044,69.742882 80.075546,65.549034 75.171188,61.376675 70.344406,57.117397 65.534347,52.839077 60.749252,48.533413 55.979233,44.210659 51.287155,39.800503 46.576523,35.411343 41.950973,30.926966 37.410202,26.347864 Z"
           id="path2342" />
        <path
           d="m 55.489281,26.180662 c 1.10207,0.659024 2.12677,1.404562 3.124023,2.180363 1.002373,0.770506 1.958893,1.592283 2.906513,2.424017 0.932759,0.847919 1.855873,1.707054 2.733349,2.617222 0.882385,0.904682 1.736694,1.84032 2.513283,2.863308 C 65.663391,35.607647 64.638504,34.862755 63.64125,34.086521 62.639091,33.315773 61.682571,32.493996 60.736126,31.661385 59.804107,30.812203 58.880997,29.953068 58.003734,29.04266 57.12178,28.137928 56.266846,27.202553 55.489281,26.180662 Z"
           id="path2344" />
        <path
           d="m 70.49633,27.897982 c 1.102066,0.659023 2.12677,1.404562 3.124024,2.18036 1.002372,0.770506 1.958892,1.592286 2.906509,2.424019 0.932755,0.84792 1.855873,1.707054 2.733345,2.617222 0.882385,0.904682 1.736702,1.840321 2.513283,2.863308 -1.10305,-0.657925 -2.127945,-1.40282 -3.125199,-2.17905 -1.002151,-0.770748 -1.958679,-1.592526 -2.90512,-2.425137 -0.932015,-0.849182 -1.855133,-1.708319 -2.732392,-2.618727 -0.881958,-0.904729 -1.736885,-1.840105 -2.51445,-2.861995 z"
           id="path2346" />
        <path
           d="m 70.861221,41.976746 c 1.102066,0.659023 2.12677,1.404564 3.124016,2.180362 1.002373,0.770504 1.958901,1.592286 2.906517,2.424019 0.932755,0.847916 1.855873,1.707054 2.733345,2.617222 0.882385,0.904678 1.736702,1.840317 2.513283,2.863308 -1.10305,-0.657928 -2.127945,-1.402821 -3.125199,-2.17905 -1.002151,-0.770748 -1.958679,-1.592526 -2.90512,-2.425141 -0.932015,-0.849178 -1.855133,-1.708317 -2.732392,-2.618725 -0.881958,-0.904728 -1.736885,-1.840103 -2.51445,-2.861995 z"
           id="path2348" />
        <path
           d="m 84.352104,44.275101 c 1.102066,0.659023 2.12677,1.40456 3.124024,2.180362 1.002372,0.770504 1.958892,1.592286 2.906509,2.424015 0.932762,0.84792 1.855873,1.707058 2.733345,2.617222 0.882385,0.904682 1.736702,1.840321 2.513283,2.863312 -1.10305,-0.657928 -2.127945,-1.402821 -3.125199,-2.179054 -1.002151,-0.770745 -1.958671,-1.592522 -2.90512,-2.425137 -0.932015,-0.849178 -1.855134,-1.708317 -2.732392,-2.618725 -0.88195,-0.904728 -1.736885,-1.840103 -2.51445,-2.861995 z"
           id="path2350" />
        <path
           d="m 39.85083,43.667919 c 0.777565,1.021889 1.6325,1.957264 2.51445,2.861996 0.877262,0.910408 1.800377,1.769543 2.732392,2.618725 0.946449,0.832611 1.902969,1.654388 2.905124,2.425136 0.997254,0.776234 2.022145,1.521126 3.125199,2.179051 C 50.35141,52.729839 49.497097,51.794201 48.614712,50.889519 47.737236,49.979351 46.814125,49.120216 45.881363,48.272297 44.933746,47.440563 43.977226,46.618786 42.974854,45.848278 41.9776,45.072479 40.9529,44.326942 39.85083,43.667919 Z"
           id="path2352" />
        <path
           d="m 43.227417,58.390663 c 0.777565,1.021893 1.6325,1.957268 2.514454,2.861996 0.877262,0.910408 1.800373,1.769546 2.732391,2.618725 0.946446,0.832611 1.90297,1.654388 2.905125,2.42514 0.997253,0.77623 2.022144,1.521126 3.125195,2.179047 -0.776581,-1.022988 -1.630898,-1.958626 -2.513279,-2.863304 -0.877476,-0.910172 -1.800591,-1.769307 -2.733349,-2.617222 -0.947617,-0.831734 -1.904141,-1.653515 -2.906513,-2.424019 -0.997254,-0.775803 -2.021954,-1.52134 -3.124024,-2.180363 z"
           id="path2354" />
        <path
           d="m 57.25935,57.186649 c 0.777565,1.021889 1.632499,1.957264 2.514454,2.861996 0.877262,0.910408 1.800373,1.769543 2.732391,2.618725 0.946446,0.832611 1.90297,1.654392 2.905121,2.425136 0.997253,0.77623 2.022148,1.521126 3.125198,2.179055 -0.77658,-1.022995 -1.630897,-1.958634 -2.513282,-2.863312 C 65.14576,63.498081 64.222649,62.638947 63.289887,61.791027 62.342266,60.959293 61.385746,60.137516 60.383373,59.367008 59.38612,58.591209 58.36142,57.845669 57.25935,57.186649 Z"
           id="path2356" />
        <path
           d="m 61.044655,70.33799 c 0.777565,1.021896 1.6325,1.957268 2.51445,2.861999 0.877266,0.910408 1.800377,1.769547 2.732391,2.618721 0.94645,0.832619 1.90297,1.654396 2.905129,2.425141 0.997246,0.77623 2.02214,1.521125 3.125191,2.179046 -0.776581,-1.022987 -1.630898,-1.958626 -2.513276,-2.863304 -0.877479,-0.910164 -1.80059,-1.769302 -2.733352,-2.617225 -0.947617,-0.831726 -1.904137,-1.653511 -2.90651,-2.424012 -0.997253,-0.775802 -2.021953,-1.521339 -3.124023,-2.180366 z"
           id="path2358" />
      </g>
      <path
         style="fill:#feda6f"
         d="m 75.647789,50.309376 c -1.108337,-0.896485 -2.395935,-1.75293 -2.843506,-3.106445 -0.178894,-0.541016 -0.23822,-1.180176 -0.685913,-1.532715 -0.531921,-0.418946 -1.295288,-0.202149 -1.963135,-0.09033 -2.258362,0.378418 -4.69342,-0.875489 -5.696899,-2.934082 -0.727116,-1.491211 -0.295227,-2.907715 -1.650028,-3.865723 -1.560425,-1.103516 -4.249939,-0.716797 -5.900818,0.246582 -1.650879,0.962891 -3.677552,1.99707 -5.36023,1.09082 -1.10791,-0.596679 -1.6781,-1.875 -2.694702,-2.616699 -1.371338,-1.000488 -3.29956,-0.832519 -4.866211,-0.178223 -1.087585,0.453614 -2.270752,1.127442 -3.364807,0.689454 -0.64209,-0.256836 -1.082458,-0.848145 -1.654602,-1.236817 -2.07428,-1.408691 -6.512634,-0.32373 -8.413574,1.311524 -1.901001,1.635253 -2.740235,3.992187 -4.979798,2.864257 -1.09436,-0.551269 -1.961181,-1.769043 -3.183777,-1.687011 -0.617065,0.0415 -1.155395,0.424316 -1.618957,0.833496 -1.240967,1.095703 -2.215698,2.490722 -2.817871,4.032714 -0.203125,0.520508 -0.373169,1.071778 -0.741638,1.491211 -1.083619,1.234375 -3.216614,0.72168 -4.538514,1.695801 -0.981445,0.723633 -1.255004,2.124024 -0.978881,3.312012 0.276062,1.1875 0.996277,2.215332 1.701172,3.209961 l 30.136718,9.416015 c 3.806153,-0.571777 7.678284,0.0054 11.526185,0.09033 3.8479,0.08496 7.934936,-0.41455 10.969364,-2.782226 1.428955,-1.114746 2.602295,-2.625977 4.281982,-3.307129 1.323548,-0.536133 2.804382,-0.488281 4.199585,-0.793457 1.395203,-0.305176 2.862854,-1.171387 3.096497,-2.580567 0.233276,-1.406249 -0.849305,-2.676269 -1.957642,-3.572753 z"
         id="path2362" />
      <path
         style="fill:#d6683d"
         d="M 84.706123,53.212067 H 10.771798 10.260384 c -2.026977,0 -3.3769526,2.127441 -2.4768672,3.943847 1.1850586,2.391114 2.3014522,5.400879 2.5133052,7.765625 4.89e-4,0.0059 0.0019,0.0098 0.0024,0.01514 0.932678,10.366211 6.000245,24.193848 25.956726,26.501953 31.248413,3.61377 42.756836,-27.466308 44.45581,-31.586426 0.995606,-2.41455 2.963623,-4.279296 4.422425,-5.409668 0.518554,-0.401855 0.227843,-1.230468 -0.428102,-1.230468 z"
         id="path2364" />
      <path
         style="fill:#fed35b"
         d="m 23.529621,51.158882 c 1.279289,0.05082 2.158602,-1.757675 1.328547,-2.732445 -0.577452,-0.678127 -1.648329,-0.843624 -2.09499,-1.614208 -0.522856,-0.902042 0.200712,-2.11348 1.17448,-2.486084 0.973768,-0.372601 2.061842,-0.158142 3.081244,0.06067 0.243154,0.05219 0.501917,0.112854 0.673074,0.293278 0.141493,0.149155 0.199505,0.35598 0.2704,0.548958 0.521678,1.42007 2.064615,2.391262 3.57063,2.247512 1.506014,-0.143745 2.837367,-1.389286 3.080985,-2.882404 0.120761,-0.740146 0.03169,-1.593384 0.546753,-2.138462 0.370296,-0.391876 0.960762,-0.496399 1.497096,-0.441334 1.918179,0.196942 3.326485,2.440483 2.670022,4.253563 1.284427,0.237503 2.633724,0.113499 3.853347,-0.354137 0.532475,-0.204167 1.070702,-0.501545 1.337304,-1.005665 0.182594,-0.345264 0.215942,-0.746872 0.313076,-1.125179 0.341556,-1.330212 1.776947,-2.418026 3.086193,-2.003289 1.459541,0.462342 1.997303,2.36163 3.379234,3.02063 1.769157,0.843659 3.697464,-0.720577 5.625744,-1.071892 0.732223,-0.133403 1.63007,-0.005 1.979572,0.652085 0.144795,0.272232 0.168312,0.590309 0.25021,0.887577 0.242806,0.881294 1.00909,1.55109 1.867069,1.866539 0.857975,0.315445 1.799523,0.320385 2.708874,0.227016 1.093018,-0.112228 2.389091,-0.289753 3.115723,0.534447 0.508873,0.57721 0.5056,1.485363 0.143737,2.164463 -0.361862,0.6791 -1.017021,1.15725 -1.707794,1.496292 -2.925144,1.4357 -6.739734,0.51997 -8.884773,-1.932884 -0.581066,-0.664452 -1.076325,-1.444767 -1.847534,-1.874149 -0.588192,-0.327484 -1.27581,-0.414189 -1.944176,-0.494831 -2.137508,-0.257916 -4.337292,-0.511994 -6.417221,0.04418 -0.500782,0.133911 -1.076523,0.423348 -1.103432,0.941025 -0.02071,0.398384 0.306942,0.72438 0.63443,0.952179 1.24411,0.865391 2.886665,1.130608 4.339916,0.70076 0.461331,0.57019 -0.269886,1.346233 -0.942131,1.639542 -1.628429,0.710506 -3.471805,0.919086 -5.217819,0.590404 -0.944572,-0.177811 -1.891323,-0.529198 -2.566975,-1.212814 -0.406185,-0.410969 -0.701034,-0.928158 -1.144722,-1.298325 -0.852928,-0.711597 -2.087551,-0.744469 -3.177436,-0.529968 -1.089882,0.214496 -2.141064,0.639026 -3.248738,0.722179 -1.658531,0.124512 -3.376657,-0.520347 -4.958793,-0.0074 -0.161867,1.220764 -1.32009,2.116177 -2.524454,2.373024 -1.204365,0.256848 -2.452536,0.01261 -3.65956,-0.231438 0.510197,-0.901706 1.771441,-1.282341 2.695284,-0.813415"
         id="path2366" />
      <g
         style="fill:#963e25"
         id="g2378">
        <path
           d="m 13.488617,61.680706 c 0,0 14.698669,1.084961 23.274986,0 z"
           id="path2368" />
        <path
           d="m 43.851788,68.02224 c 0,0 14.698669,2.040001 23.27499,0 z"
           id="path2370" />
        <path
           d="m 42.02549,61.084827 c 0,0 14.285831,1.982708 22.621269,0 z"
           id="path2372" />
        <path
           d="m 17.006941,72.93399 c 0,0 14.698667,2.040001 23.274988,0 z"
           id="path2374" />
        <path
           d="m 29.502214,80.199356 c 0,0 14.698668,2.040001 23.274989,0 z"
           id="path2376" />
      </g>
    </g>
  </g>
</svg>
