<?xml version="1.0" encoding="UTF-8" standalone="no"?>
<svg
   xmlns:dc="http://purl.org/dc/elements/1.1/"
   xmlns:cc="http://creativecommons.org/ns#"
   xmlns:rdf="http://www.w3.org/1999/02/22-rdf-syntax-ns#"
   xmlns:svg="http://www.w3.org/2000/svg"
   xmlns="http://www.w3.org/2000/svg"
   id="svg8"
   version="1.1"
   viewBox="0 0 338.66666 190.5"
   height="720"
   width="1280">
  <defs
     id="defs2" />
  <metadata
     id="metadata5">
    <rdf:RDF>
      <cc:Work
         rdf:about="">
        <dc:format>image/svg+xml</dc:format>
        <dc:type
           rdf:resource="http://purl.org/dc/dcmitype/StillImage" />
        <dc:title></dc:title>
      </cc:Work>
    </rdf:RDF>
  </metadata>
  <g
     transform="translate(0,-106.49998)"
     id="layer1">
    <rect
       y="106.50325"
       x="0.0027687326"
       height="190.48596"
       width="338.66174"
       id="rect815"
       style="opacity:1;fill:#e0bddd;fill-opacity:1;fill-rule:nonzero;stroke:none;stroke-width:0.76434302;stroke-linecap:round;stroke-linejoin:round;stroke-miterlimit:4;stroke-dasharray:none;stroke-opacity:1;paint-order:normal" />
    <g
       transform="matrix(0.36896969,0,0,0.33867004,73.554147,101.82127)"
       id="g2205">
      <g
         style="opacity:0.1"
         id="g2009">
	
</g>
      <path
         style="fill:#ef5050"
         d="m 242.54,188.248 c 0.289,1.668 0.438,3.398 0.441,5.143 0.001,0.518 0.396,0.949 0.912,0.995 12.801,1.125 23.504,10.244 26.636,22.693 0.086,0.343 0.348,0.615 0.687,0.715 0.094,0.028 0.188,0.041 0.283,0.041 0.25,0 0.494,-0.094 0.682,-0.269 5.216,-4.865 11.707,-7.789 18.772,-8.455 0.501,-0.047 0.89,-0.46 0.905,-0.963 0.455,-14.023 6.157,-27.21 16.057,-37.131 0.207,-0.207 0.423,-0.4 0.633,-0.604 -2.19,-13.962 -8.624,-27.379 -19.336,-38.115 -2.107,-2.11 -5.522,-2.111 -7.632,0 l -43.896,43.997 c 2.396,3.494 4.09,7.538 4.856,11.953 z"
         id="path2017" />
      <g
         id="g2025">
	<path
   style="fill:#c0272d"
   d="m 270.528,217.079 c 0.086,0.343 0.348,0.615 0.687,0.715 0.094,0.028 0.188,0.041 0.283,0.041 0.25,0 0.494,-0.094 0.682,-0.269 2.548,-2.377 5.404,-4.282 8.48,-5.695 -0.344,-1.147 -0.967,-2.229 -1.872,-3.137 l -7.281,-7.299 c -2.924,-2.932 -7.673,-2.939 -10.606,-0.013 -0.022,0.021 -0.039,0.044 -0.06,0.066 4.664,3.977 8.122,9.368 9.687,15.591 z"
   id="path2019" />

	<path
   style="fill:#c0272d"
   d="m 286.125,194.879 h -10.296 c -4.143,0 -7.5,-3.358 -7.5,-7.5 0,-4.142 3.357,-7.5 7.5,-7.5 h 10.296 c 4.143,0 7.5,3.358 7.5,7.5 0,4.143 -3.357,7.5 -7.5,7.5 z"
   id="path2021" />

	<path
   style="fill:#c0272d"
   d="m 274.376,174.159 c -1.917,0 -3.834,-0.73 -5.298,-2.191 -2.932,-2.926 -2.936,-7.675 -0.011,-10.607 l 7.284,-7.298 c 2.926,-2.931 7.675,-2.936 10.606,-0.01 2.932,2.926 2.936,7.675 0.011,10.607 l -7.284,7.298 c -1.464,1.466 -3.386,2.201 -5.308,2.201 z"
   id="path2023" />

</g>
      <path
         style="fill:#89c947"
         d="m 368.404,158.862 c -0.088,-0.229 -0.225,-0.433 -0.395,-0.604 -0.171,-0.171 -0.374,-0.307 -0.603,-0.397 -20.771,-8.273 -44.401,-3.386 -60.201,12.449 -10.496,10.52 -16.164,24.504 -16.371,38.811 1.038,-0.102 2.091,-0.157 3.155,-0.157 15.554,0 28.547,11.17 31.431,25.926 11.342,-1.848 22.082,-7.188 30.565,-15.69 15.799,-15.837 20.674,-39.52 12.419,-60.338 z"
         id="path2027" />
      <path
         style="fill:#d5e962"
         d="m 341.458,184.871 c -2.932,-2.926 -7.681,-2.921 -10.606,0.012 l -25.944,26.003 c 4.897,1.785 9.239,4.735 12.694,8.514 l 23.869,-23.923 c 2.926,-2.932 2.92,-7.681 -0.013,-10.606 z"
         id="path2029" />
      <g
         id="g2035">
	<path
   style="fill:#ffc502"
   d="m 379.175,244.754 c 0.261,1.512 0.395,3.069 0.396,4.629 10e-4,0.518 0.397,0.949 0.912,0.995 4.059,0.357 7.929,1.615 11.502,3.739 0.159,0.095 0.335,0.141 0.511,0.141 0.28,0 0.558,-0.118 0.754,-0.343 0.853,-0.977 1.584,-1.768 2.304,-2.489 6.036,-6.05 13.335,-10.368 21.294,-12.722 0.747,-2.764 1.152,-5.668 1.152,-8.669 0,-18.283 -14.788,-33.106 -33.031,-33.106 -15.558,0 -28.597,10.785 -32.099,25.3 13.044,0.226 24.068,9.619 26.305,22.525 z"
   id="path2031" />

	<path
   style="fill:#ffc502"
   d="m 152.809,289.091 c -3.349,-5.935 -5.469,-12.444 -6.279,-19.142 -9.746,-1.594 -18.02,-7.836 -22.259,-16.599 -13.884,3.918 -24.065,16.694 -24.065,31.862 0,1.314 0.1,2.604 0.249,3.878 h 52.354 z"
   id="path2033" />

</g>
      <path
         style="fill:#89c947"
         d="m 404.894,272.816 c 0.966,5.573 0.198,11.186 -2.216,16.275 h 42.444 c 10.023,-14.076 12.446,-32.446 5.929,-48.886 -0.083,-0.209 -0.207,-0.397 -0.364,-0.554 -0.157,-0.157 -0.345,-0.282 -0.553,-0.365 -19.077,-7.598 -40.777,-3.11 -55.288,11.433 -1.06,1.063 -2.051,2.173 -3.003,3.309 6.736,3.956 11.653,10.721 13.051,18.788 z"
         id="path2037" />
      <path
         style="fill:#d5e962"
         d="m 402.678,289.091 h 9.275 l 14.793,-14.826 c 2.926,-2.932 2.92,-7.681 -0.013,-10.606 -2.932,-2.926 -7.681,-2.921 -10.606,0.012 l -10.983,11.008 c 0.516,4.953 -0.321,9.89 -2.466,14.412 z"
         id="path2039" />
      <path
         style="fill:#368c0e"
         d="m 271.677,217.658 c -3.009,-13.47 -14.411,-23.102 -27.696,-24.269 -0.003,-1.753 -0.145,-3.528 -0.455,-5.313 -2.946,-16.996 -19.133,-28.375 -36.153,-25.412 -8.835,1.538 -16.148,6.643 -20.74,13.566 -6.649,-4.967 -15.254,-7.3 -24.089,-5.763 -17.023,2.964 -28.432,19.146 -25.484,36.142 0.308,1.785 0.77,3.505 1.359,5.155 -12.56,5.795 -20.187,19.466 -17.717,33.719 2.334,13.473 12.993,23.406 25.791,25.472 -1.24,-8.592 -0.245,-17.46 3.076,-25.837 0.032,-0.082 0.08,-0.154 0.143,-0.218 0.061,-0.061 0.135,-0.109 0.216,-0.142 5.958,-2.373 12.22,-3.577 18.61,-3.577 13.441,0 26.084,5.251 35.599,14.787 0.688,0.691 1.348,1.404 1.991,2.128 -0.532,-3.448 -0.808,-6.958 -0.808,-10.515 0,-2.43 1.971,-4.407 4.394,-4.407 h 52.364 C 262.033,242.478 262,241.778 262,241.07 c 0,-9.142 3.698,-17.42 9.677,-23.412 z"
         id="path2041" />
      <g
         id="g2047">
	<path
   style="fill:#89c947"
   d="m 162.155,220.587 c -0.044,0 -0.087,-10e-4 -0.13,-10e-4 -4.142,-0.07 -7.442,-3.484 -7.372,-7.626 0.22,-12.985 10.87,-23.408 23.82,-23.408 0.127,0 0.253,0.001 0.381,0.003 6.524,0.101 12.791,2.922 17.192,7.741 2.793,3.059 2.578,7.803 -0.48,10.596 -3.058,2.794 -7.802,2.579 -10.596,-0.479 -1.648,-1.806 -3.904,-2.821 -6.351,-2.859 -4.875,-0.079 -8.887,3.809 -8.969,8.661 -0.068,4.097 -3.413,7.371 -7.495,7.372 z"
   id="path2043" />

	<path
   style="fill:#89c947"
   d="m 203.559,233.492 c -0.866,0 -1.747,-0.151 -2.606,-0.47 -3.884,-1.441 -5.865,-5.756 -4.425,-9.64 4.184,-11.279 16.771,-17.067 28.063,-12.902 5.616,2.074 10.18,6.423 12.521,11.933 1.62,3.812 -0.156,8.216 -3.969,9.836 -3.81,1.621 -8.215,-0.156 -9.836,-3.969 -0.743,-1.747 -2.132,-3.071 -3.91,-3.728 -3.547,-1.308 -7.493,0.508 -8.805,4.046 -1.121,3.024 -3.987,4.894 -7.033,4.894 z"
   id="path2045" />

</g>
      <path
         style="fill:#368c0e"
         d="m 325.954,243.093 h -0.274 c -0.002,0.07 -0.002,0.141 -0.005,0.211 h 10.046 c 2.981,0 5.396,2.421 5.396,5.407 0,15.07 -4.864,29.004 -13.057,40.38 h 75.696 c 2.263,-4.98 3.126,-10.655 2.123,-16.446 -2.23,-12.872 -12.867,-22.171 -25.308,-23.264 -0.002,-1.583 -0.133,-3.187 -0.411,-4.798 -2.661,-15.352 -17.281,-25.629 -32.653,-22.953 -7.98,1.391 -14.587,6 -18.733,12.255 -1.345,-1.004 -2.783,-1.878 -4.288,-2.63 0.994,3.096 1.537,6.393 1.537,9.816 -0.001,0.66 -0.023,1.328 -0.069,2.022 z"
         id="path2049" />
      <path
         style="fill:#f7931e"
         d="m 326.943,243.174 c 0.046,-0.696 0.079,-1.396 0.079,-2.104 0,-18.285 -14.789,-33.107 -33.032,-33.107 -18.242,0 -33.031,14.823 -33.031,33.107 0,0.708 0.033,1.408 0.078,2.104 z"
         id="path2051" />
      <path
         style="fill:#89c947"
         d="m 204.845,255.263 c -14.511,-14.542 -36.212,-19.03 -55.288,-11.433 -0.209,0.084 -0.396,0.209 -0.554,0.365 -0.156,0.157 -0.281,0.344 -0.364,0.555 -5.836,14.722 -4.5,30.991 3.036,44.341 h 68.08 c -6.896,-9.186 -11.571,-20.134 -13.212,-32.042 -0.55,-0.606 -1.115,-1.202 -1.698,-1.786 z"
         id="path2053" />
      <path
         style="fill:#d5e962"
         d="m 183.202,289.091 h 21.189 l -20.829,-20.876 c -2.926,-2.931 -7.673,-2.939 -10.606,-0.012 -2.933,2.925 -2.939,7.674 -0.013,10.606 z"
         id="path2055" />
      <path
         style="fill:#ef5050"
         d="m 328.566,289.091 c 8.689,-11.576 13.87,-25.941 13.87,-41.51 0,-2.986 -2.414,-5.407 -5.396,-5.407 H 209.714 c -2.981,0 -5.394,2.421 -5.394,5.407 0,15.569 5.181,29.934 13.871,41.51 z"
         id="path2057" />
      <g
         id="g2069">
	<path
   style="fill:#c0272d"
   d="m 281.15,289.091 v -5.188 c 0,-4.142 -3.357,-7.5 -7.5,-7.5 -4.143,0 -7.5,3.358 -7.5,7.5 v 5.188 z"
   id="path2059" />

	<path
   style="fill:#c0272d"
   d="m 295.539,289.091 h 11.663 c 2.413,-2.943 2.249,-7.293 -0.496,-10.045 l -7.281,-7.298 c -2.925,-2.932 -7.674,-2.939 -10.606,-0.013 -2.933,2.926 -2.938,7.674 -0.013,10.606 z"
   id="path2061" />

	<path
   style="fill:#c0272d"
   d="m 250.579,289.091 6.732,-6.748 c 2.926,-2.932 2.921,-7.681 -0.011,-10.606 -2.932,-2.926 -7.681,-2.921 -10.607,0.011 l -7.282,7.298 c -2.745,2.751 -2.91,7.101 -0.498,10.044 z"
   id="path2063" />

	<path
   style="fill:#c0272d"
   d="M 239.048,268.865 H 228.75 c -4.143,0 -7.5,-3.358 -7.5,-7.5 0,-4.142 3.357,-7.5 7.5,-7.5 h 10.298 c 4.143,0 7.5,3.358 7.5,7.5 0,4.142 -3.358,7.5 -7.5,7.5 z"
   id="path2065" />

	<path
   style="fill:#c0272d"
   d="m 318.006,268.865 h -10.299 c -4.142,0 -7.5,-3.358 -7.5,-7.5 0,-4.142 3.358,-7.5 7.5,-7.5 h 10.299 c 4.143,0 7.5,3.358 7.5,7.5 0,4.142 -3.358,7.5 -7.5,7.5 z"
   id="path2067" />

</g>
      <path
         style="fill:#e6e9ed"
         d="m 92.98,340.804 c 0.09,0.025 0.181,0.038 0.271,0.038 0.216,0 0.428,-0.07 0.604,-0.203 0.25,-0.189 0.396,-0.484 0.396,-0.797 v -12.693 c 0,-3.584 2.916,-6.5 6.5,-6.5 3.584,0 6.5,2.916 6.5,6.5 v 12.693 c 0,0.313 0.146,0.608 0.396,0.797 0.176,0.133 0.388,0.203 0.604,0.203 0.091,0 0.182,-0.012 0.271,-0.038 5.261,-1.482 11.468,-2.266 17.947,-2.266 18.205,0 30.435,5.901 30.435,11.413 0,0.712 -0.217,1.457 -0.646,2.215 -0.142,0.249 -0.169,0.548 -0.075,0.819 0.094,0.271 0.299,0.489 0.564,0.598 23.309,9.608 39.826,29.989 43.107,53.188 0.043,0.301 0.22,0.566 0.481,0.721 0.156,0.092 0.332,0.139 0.509,0.139 0.12,0 0.24,-0.022 0.355,-0.065 L 359.074,347.59 c 3.055,-1.16 6.261,-1.748 9.529,-1.748 4.579,0 9.108,1.181 13.099,3.414 6.94,3.884 11.749,10.583 13.194,18.378 l 1.375,7.425 c 0.06,0.321 0.271,0.593 0.569,0.728 0.132,0.06 0.273,0.09 0.414,0.09 0.177,0 0.353,-0.046 0.509,-0.139 l 53.08,-31.334 c 4.561,-16.253 6.873,-33.105 6.873,-50.414 0,-2.862 -2.316,-5.182 -5.172,-5.182 H 91.393 c -2.856,0 -5.172,2.32 -5.172,5.182 0,15.951 1.972,31.513 5.847,46.577 0.303,0.08 0.615,0.153 0.912,0.237 z"
         id="path2071" />
      <path
         style="opacity:0.1;enable-background:new"
         d="m 92.98,340.804 c 0.09,0.025 0.181,0.038 0.271,0.038 0.216,0 0.428,-0.07 0.604,-0.203 0.25,-0.189 0.396,-0.484 0.396,-0.797 v -12.693 c 0,-3.584 2.916,-6.5 6.5,-6.5 3.584,0 6.5,2.916 6.5,6.5 v 12.693 c 0,0.313 0.146,0.608 0.396,0.797 0.176,0.133 0.388,0.203 0.604,0.203 0.091,0 0.182,-0.012 0.271,-0.038 4.503,-1.269 9.702,-2.021 15.169,-2.212 -3.544,-14.448 -5.339,-29.348 -5.339,-44.602 0,-2.862 2.315,-5.182 5.172,-5.182 H 91.393 c -2.856,0 -5.172,2.32 -5.172,5.182 0,15.951 1.972,31.513 5.847,46.577 0.303,0.08 0.615,0.153 0.912,0.237 z"
         id="path2073" />
      <path
         style="fill:#89c947"
         d="m 100.75,344.373 c 2.054,-1.153 4.598,-2.158 7.502,-2.977 v -14.248 c 0,-4.142 -3.357,-7.5 -7.5,-7.5 -4.143,0 -7.5,3.358 -7.5,7.5 v 14.248 c 2.904,0.818 5.445,1.824 7.498,2.977 z"
         id="path2075" />
      <path
         style="fill:#ef5050"
         d="m 177.369,483.55 -27.088,0.011 h -0.01 c -12.895,-10e-4 -23.952,-9.165 -26.29,-21.792 l -0.267,-1.436 c -2.339,-12.629 4.711,-25.12 16.764,-29.7 l 60.513,-22.988 c -3.116,-24.924 -20.68,-45.798 -44.798,-55.375 -2.34,3.933 -10.398,7.357 -20.89,8.588 -0.4,0.047 -0.734,0.33 -0.845,0.718 -0.111,0.388 0.021,0.804 0.336,1.056 5.438,4.35 8.854,8.936 9.139,12.269 0.104,1.208 -0.193,2.188 -0.909,2.996 -1.275,1.44 -3.783,2.201 -7.251,2.201 0,0 0,0 -0.001,0 -6.752,0 -15.882,-2.823 -24.424,-7.551 -3.762,-2.085 -7.109,-4.362 -9.952,-6.771 -0.187,-0.158 -0.417,-0.237 -0.646,-0.237 -0.23,0 -0.46,0.079 -0.646,0.237 -2.845,2.411 -6.192,4.689 -9.95,6.77 -8.542,4.729 -17.673,7.552 -24.425,7.552 -3.469,0 -5.976,-0.761 -7.251,-2.201 -0.716,-0.808 -1.014,-1.787 -0.91,-2.995 0.286,-3.333 3.702,-7.919 9.138,-12.27 0.314,-0.252 0.447,-0.668 0.336,-1.056 -0.11,-0.388 -0.444,-0.671 -0.845,-0.718 -10.495,-1.231 -18.554,-4.657 -20.89,-8.592 C 18.657,362.846 0,387.216 0,415.601 c 0,38.086 33.581,68.96 75.004,68.96 H 179 c 1.123,0 0.254,-0.399 -1.631,-1.011 z"
         id="path2077" />
      <path
         style="opacity:0.1;enable-background:new"
         d="m 32.45,415.601 c 0,-22.622 11.848,-42.699 30.148,-55.275 -8.714,-1.521 -15.231,-4.588 -17.292,-8.059 C 18.657,362.846 0,387.216 0,415.601 c 0,38.086 33.581,68.96 75.004,68.96 h 32.451 c -41.423,0 -75.005,-30.874 -75.005,-68.96 z"
         id="path2079" />
      <path
         style="fill:#368c0e"
         d="m 157.905,349.952 c 0,-6.856 -14.074,-12.413 -31.435,-12.413 -10.634,0 -20.032,2.087 -25.721,5.28 -5.685,-3.192 -15.082,-5.28 -25.718,-5.28 -17.36,0 -31.436,5.557 -31.436,12.413 0,5.626 9.486,10.375 22.483,11.9 -7.951,6.363 -11.592,13.05 -8.352,16.708 4.293,4.847 19.029,2.545 32.909,-5.139 3.897,-2.158 7.312,-4.508 10.112,-6.882 2.803,2.375 6.22,4.724 10.114,6.882 13.881,7.684 28.616,9.984 32.908,5.139 3.241,-3.658 -0.399,-10.345 -8.353,-16.708 13.006,-1.525 22.489,-6.274 22.489,-11.9 z"
         id="path2081" />
      <path
         style="fill:#89c947"
         d="m 511.884,394.361 -2.014,-10.864 c -0.692,-3.75 -4.309,-6.228 -8.075,-5.538 l -77.731,14.279 49.631,-33.177 c 2.353,-1.572 3.442,-4.349 2.958,-6.986 -0.137,-0.732 -0.395,-1.45 -0.779,-2.133 l -5.617,-9.948 c -0.912,-1.62 -2.447,-2.806 -4.25,-3.285 -1.802,-0.481 -3.722,-0.219 -5.328,0.73 l -64.564,38.113 12.214,65.94 74.054,13.308 c 1.845,0.332 3.749,-0.096 5.271,-1.184 1.523,-1.089 2.542,-2.748 2.816,-4.597 l 1.674,-11.231 c 0.116,-0.773 0.1,-1.537 -0.036,-2.265 -0.488,-2.641 -2.505,-4.844 -5.265,-5.477 l -58.252,-13.361 77.732,-14.28 c 3.768,-0.692 6.255,-4.292 5.561,-8.044 z"
         id="path2083" />
      <path
         style="fill:#f7931e"
         d="m 122.998,461.951 c 2.427,13.104 13.903,22.614 27.283,22.609 l 233.967,-0.09 c 8.233,-0.003 16.042,-3.65 21.308,-9.954 5.268,-6.303 7.45,-14.611 5.956,-22.678 l -15.63,-84.387 c -1.495,-8.065 -6.51,-15.051 -13.689,-19.069 -7.179,-4.018 -15.778,-4.649 -23.472,-1.728 l -218.598,83.043 c -12.502,4.751 -19.818,17.712 -17.392,30.817 z"
         id="path2085" />
      <g
         style="opacity:0.1"
         id="g2089">
	<path
   d="m 122.998,461.951 c 0.372,2.012 0.981,3.926 1.754,5.747 3.225,-5.729 8.405,-10.364 14.944,-12.849 l 228.289,-86.725 c 8.035,-3.051 17.016,-2.391 24.512,1.804 1.575,0.882 3.044,1.908 4.406,3.045 l -1.021,-5.521 c -1.495,-8.065 -6.51,-15.051 -13.689,-19.069 -7.179,-4.018 -15.778,-4.649 -23.472,-1.728 l -218.598,83.043 c -12.502,4.751 -19.818,17.712 -17.392,30.817 z"
   id="path2087" />

</g>
      <g
         id="g2101">
	<path
   style="fill:#ffc502"
   d="m 370.837,449.389 c -0.778,-4.069 -4.716,-6.736 -8.775,-5.957 -4.068,0.778 -6.735,4.707 -5.957,8.775 l 6.174,32.272 15.271,-0.006 z"
   id="path2091" />

	<path
   style="fill:#ffc502"
   d="m 330.183,458.282 c -0.768,-4.071 -4.688,-6.747 -8.76,-5.981 -4.07,0.767 -6.748,4.689 -5.98,8.759 l 4.418,23.435 15.263,-0.006 z"
   id="path2093" />

	<path
   style="fill:#ffc502"
   d="m 290.439,401.794 c 0.857,3.402 3.912,5.67 7.268,5.67 0.606,0 1.223,-0.074 1.837,-0.229 4.017,-1.011 6.453,-5.087 5.442,-9.105 l -7.139,-28.35 -14.118,5.364 z"
   id="path2095" />

	<path
   style="fill:#ffc502"
   d="m 251.413,451.746 c -0.735,-4.076 -4.632,-6.786 -8.712,-6.05 -4.076,0.735 -6.785,4.636 -6.05,8.712 l 5.431,30.117 15.241,-0.006 z"
   id="path2097" />

	<path
   style="fill:#ffc502"
   d="m 175.752,437.728 c 0.741,3.535 3.858,5.961 7.332,5.961 0.511,0 1.029,-0.052 1.549,-0.162 4.054,-0.85 6.649,-4.827 5.799,-8.88 l -4.677,-22.283 -14.194,5.392 z"
   id="path2099" />

</g>
      <g
         id="g2103">
</g>
      <g
         id="g2105">
</g>
      <g
         id="g2107">
</g>
      <g
         id="g2109">
</g>
      <g
         id="g2111">
</g>
      <g
         id="g2113">
</g>
      <g
         id="g2115">
</g>
      <g
         id="g2117">
</g>
      <g
         id="g2119">
</g>
      <g
         id="g2121">
</g>
      <g
         id="g2123">
</g>
      <g
         id="g2125">
</g>
      <g
         id="g2127">
</g>
      <g
         id="g2129">
</g>
      <g
         id="g2131">
</g>
    </g>
  </g>
</svg>
