<?xml version="1.0" encoding="UTF-8" standalone="no"?>
<svg
   xmlns:dc="http://purl.org/dc/elements/1.1/"
   xmlns:cc="http://creativecommons.org/ns#"
   xmlns:rdf="http://www.w3.org/1999/02/22-rdf-syntax-ns#"
   xmlns:svg="http://www.w3.org/2000/svg"
   xmlns="http://www.w3.org/2000/svg"
   id="svg8"
   version="1.1"
   viewBox="0 0 338.66666 190.5"
   height="720"
   width="1280">
  <defs
     id="defs2" />
  <metadata
     id="metadata5">
    <rdf:RDF>
      <cc:Work
         rdf:about="">
        <dc:format>image/svg+xml</dc:format>
        <dc:type
           rdf:resource="http://purl.org/dc/dcmitype/StillImage" />
        <dc:title></dc:title>
      </cc:Work>
    </rdf:RDF>
  </metadata>
  <g
     transform="translate(0,-106.49998)"
     id="layer1">
    <rect
       y="106.50325"
       x="0.0027687326"
       height="190.48596"
       width="338.66174"
       id="rect815"
       style="opacity:1;fill:#e0bddd;fill-opacity:1;fill-rule:nonzero;stroke:none;stroke-width:0.76434302;stroke-linecap:round;stroke-linejoin:round;stroke-miterlimit:4;stroke-dasharray:none;stroke-opacity:1;paint-order:normal" />
    <g
       transform="matrix(0.09807899,-0.34777067,0.35093827,0.09719372,49.427298,265.18197)"
       id="g3149">
      <path
         style="fill:#ffb95c"
         d="m 442.985,346.293 -8.159,10.709 5.246,18.501 c 0,0 -103.14,59.243 -222.487,-82.423 0,0 -91.722,-125.633 -7.763,-243.969 10.002,-14.098 23.455,-25.659 39.598,-31.841 9.202,-3.525 20.082,-5.813 31.789,-4.517 l 14.062,22.798 -6.367,33.603 c -1.419,7.494 -3.499,14.82 -6.198,21.955 -8.142,21.534 -24.842,77.63 -1.098,127.438 32.572,68.328 113.802,110.855 161.377,127.746 z"
         id="path3064" />
      <path
         style="fill:#fcad2d"
         d="m 249.42,17.273 c 9.202,-3.525 20.082,-5.813 31.789,-4.517 l 14.062,22.798 c -12.588,33.189 -68.652,123.942 -41.202,187.406 43.035,99.498 136.066,124.813 181.969,132.45 l -1.212,1.591 5.246,18.501 c 0,0 -103.14,59.243 -222.487,-82.423 0,0 -91.722,-125.633 -7.763,-243.969 10.002,-14.094 23.455,-25.658 39.598,-31.837 z"
         id="path3066" />
      <polygon
         style="fill:#965b2f"
         points="449.871,351.539 447.904,369.985 440.072,375.503 434.827,357.002 442.985,346.293 "
         id="polygon3068" />
      <path
         style="fill:#ffb95c"
         d="m 403.482,441.015 -12.005,10.624 1.85,22.827 c 0,0 -134.177,45.352 -240.836,-147.728 0,0 -78.094,-167.962 47.338,-286.781 14.94,-14.156 33.335,-24.551 53.618,-28.04 11.561,-1.989 24.803,-2.148 38.172,2.077 l 11.156,29.884 -15.206,37.78 c -3.392,8.428 -7.514,16.502 -12.316,24.214 -14.493,23.274 -46.969,84.94 -30.749,148.609 22.257,87.344 107.314,155.801 158.978,186.534 z"
         id="path3070" />
      <path
         style="fill:#fcad2d"
         d="m 253.45,11.92 c 11.561,-1.989 24.803,-2.148 38.172,2.077 l 11.156,29.884 c -22.373,35.855 -108.846,128.906 -91.453,209.387 27.266,126.174 130.082,177.258 181.937,196.79 l -1.785,1.581 1.85,22.827 c 0,0 -134.177,45.352 -240.836,-147.728 0,0 -78.094,-167.962 47.338,-286.781 C 214.773,25.804 233.167,15.41 253.45,11.92 Z"
         id="path3072" />
      <polygon
         style="fill:#965b2f"
         points="410.312,448.733 403.75,469.826 393.33,474.466 391.477,451.639 403.482,441.015 "
         id="polygon3074" />
      <path
         style="fill:#ffb95c"
         d="m 283.065,481.39 -15.041,7.216 -4.646,23.371 c 0,0 -147.186,7.18 -198.941,-216.402 0,0 -30.321,-190.316 129.029,-273.503 18.981,-9.908 40.346,-15.076 61.637,-12.792 12.138,1.299 25.432,4.915 37.608,12.948 l 2.654,33.079 -25.964,33.473 c -5.797,7.469 -12.219,14.373 -19.224,20.724 -21.129,19.162 -71.189,71.626 -73.085,139.958 -2.597,93.737 63.022,186.466 105.973,231.928 z"
         id="path3076" />
      <path
         style="fill:#fcad2d"
         d="m 255.106,9.28 c 12.138,1.299 25.432,4.915 37.608,12.948 l 1.74,21.667 c -67.505,29.518 -147.971,87.169 -150.223,194.904 -2.806,134.275 79.707,214.426 126.032,248.736 l -2.236,1.072 -4.646,23.371 c 0,0 -147.186,7.18 -198.941,-216.402 0,0 -30.321,-190.316 129.029,-273.503 C 212.45,12.16 233.815,6.995 255.106,9.28 Z"
         id="path3078" />
      <polygon
         style="fill:#965b2f"
         points="287.705,491.056 275.133,510.302 263.381,511.974 268.028,488.603 283.065,481.39 "
         id="polygon3080" />
      <polygon
         style="fill:#a9b135"
         points="295.371,55.306 294.457,43.891 291.467,13.155 334.917,0 356.088,36.306 301.903,63.124 "
         id="polygon3082" />
      <polygon
         style="fill:#bec142"
         points="348.318,22.976 356.088,36.306 301.903,63.124 295.371,55.306 294.457,43.891 "
         id="polygon3084" />
      <g
         id="g3086">
</g>
      <g
         id="g3088">
</g>
      <g
         id="g3090">
</g>
      <g
         id="g3092">
</g>
      <g
         id="g3094">
</g>
      <g
         id="g3096">
</g>
      <g
         id="g3098">
</g>
      <g
         id="g3100">
</g>
      <g
         id="g3102">
</g>
      <g
         id="g3104">
</g>
      <g
         id="g3106">
</g>
      <g
         id="g3108">
</g>
      <g
         id="g3110">
</g>
      <g
         id="g3112">
</g>
      <g
         id="g3114">
</g>
    </g>
  </g>
</svg>
