<?xml version="1.0" encoding="UTF-8" standalone="no"?>
<svg
   xmlns:dc="http://purl.org/dc/elements/1.1/"
   xmlns:cc="http://creativecommons.org/ns#"
   xmlns:rdf="http://www.w3.org/1999/02/22-rdf-syntax-ns#"
   xmlns:svg="http://www.w3.org/2000/svg"
   xmlns="http://www.w3.org/2000/svg"
   xmlns:xlink="http://www.w3.org/1999/xlink"
   id="svg8"
   version="1.1"
   viewBox="0 0 338.66666 190.50001"
   height="720"
   width="1280">
  <defs
     id="defs2">
    <linearGradient
       id="linearGradient1136">
      <stop
         id="stop1132"
         offset="0"
         style="stop-color:#000000;stop-opacity:1;" />
      <stop
         id="stop1134"
         offset="1"
         style="stop-color:#000000;stop-opacity:0;" />
    </linearGradient>
    <linearGradient
       gradientUnits="userSpaceOnUse"
       y2="614.18965"
       x2="1167.9193"
       y1="614.18965"
       x1="612.89648"
       id="linearGradient1138"
       xlink:href="#linearGradient1136" />
    <linearGradient
       y2="614.18965"
       x2="1167.9193"
       y1="614.18965"
       x1="612.89648"
       gradientUnits="userSpaceOnUse"
       id="linearGradient1140"
       xlink:href="#linearGradient1136" />
    <linearGradient
       y2="614.18965"
       x2="1167.9193"
       y1="614.18965"
       x1="612.89648"
       gradientUnits="userSpaceOnUse"
       id="linearGradient1142"
       xlink:href="#linearGradient1136" />
  </defs>
  <metadata
     id="metadata5">
    <rdf:RDF>
      <cc:Work
         rdf:about="">
        <dc:format>image/svg+xml</dc:format>
        <dc:type
           rdf:resource="http://purl.org/dc/dcmitype/StillImage" />
        <dc:title></dc:title>
      </cc:Work>
    </rdf:RDF>
  </metadata>
  <g
     transform="translate(0,-106.49998)"
     id="layer1">
    <rect
       ry="0"
       y="106.16954"
       x="-1.0690781"
       height="192.96858"
       width="342.10498"
       id="rect815"
       style="opacity:1;fill:#e0bddd;fill-opacity:1;fill-rule:nonzero;stroke:none;stroke-width:0.66173601;stroke-linecap:round;stroke-linejoin:round;stroke-miterlimit:4;stroke-dasharray:none;stroke-opacity:1;paint-order:stroke markers fill" />
  </g>
  <g
     id="layer2">
    <path
       id="path820"
       d="m 22.437151,54.39748 0.487618,126.6618"
       style="fill:none;stroke:#596073;stroke-width:8.78861141;stroke-linecap:butt;stroke-linejoin:miter;stroke-miterlimit:4;stroke-dasharray:none;stroke-opacity:1;paint-order:markers fill stroke" />
    <path
       id="path826"
       d="m 25.513069,63.469699 -4.015674,0.143996"
       style="fill:none;stroke:#e0bddd;stroke-width:1.90445447;stroke-linecap:butt;stroke-linejoin:miter;stroke-miterlimit:4;stroke-dasharray:none;stroke-opacity:1" />
    <path
       style="fill:none;stroke:#e0bddd;stroke-width:1.90445447;stroke-linecap:butt;stroke-linejoin:miter;stroke-miterlimit:4;stroke-dasharray:none;stroke-opacity:1"
       d="m 25.418575,70.524963 -4.015674,0.143996"
       id="path839" />
    <path
       id="path841"
       d="m 25.418575,77.29226 -4.015674,0.143996"
       style="fill:none;stroke:#e0bddd;stroke-width:1.90445447;stroke-linecap:butt;stroke-linejoin:miter;stroke-miterlimit:4;stroke-dasharray:none;stroke-opacity:1" />
    <path
       style="fill:none;stroke:#e0bddd;stroke-width:1.90445447;stroke-linecap:butt;stroke-linejoin:miter;stroke-miterlimit:4;stroke-dasharray:none;stroke-opacity:1"
       d="m 25.465822,83.339633 -4.015674,0.143996"
       id="path843" />
    <path
       id="path845"
       d="m 25.513069,90.250914 -4.015674,0.143997"
       style="fill:none;stroke:#e0bddd;stroke-width:1.90445447;stroke-linecap:butt;stroke-linejoin:miter;stroke-miterlimit:4;stroke-dasharray:none;stroke-opacity:1" />
    <path
       style="fill:none;stroke:#e0bddd;stroke-width:1.90445447;stroke-linecap:butt;stroke-linejoin:miter;stroke-miterlimit:4;stroke-dasharray:none;stroke-opacity:1"
       d="m 25.465822,97.162198 -4.015674,0.143996"
       id="path847" />
    <path
       id="path849"
       d="m 25.418575,104.36145 -4.015674,0.144"
       style="fill:none;stroke:#e0bddd;stroke-width:1.90445447;stroke-linecap:butt;stroke-linejoin:miter;stroke-miterlimit:4;stroke-dasharray:none;stroke-opacity:1" />
    <path
       style="fill:none;stroke:#e0bddd;stroke-width:1.90445447;stroke-linecap:butt;stroke-linejoin:miter;stroke-miterlimit:4;stroke-dasharray:none;stroke-opacity:1"
       d="m 25.513069,111.41672 -4.015674,0.14399"
       id="path851" />
    <path
       id="path853"
       d="m 25.560316,119.19191 -4.015674,0.14399"
       style="fill:none;stroke:#e0bddd;stroke-width:1.90445447;stroke-linecap:butt;stroke-linejoin:miter;stroke-miterlimit:4;stroke-dasharray:none;stroke-opacity:1" />
    <path
       style="fill:none;stroke:#e0bddd;stroke-width:1.90445447;stroke-linecap:butt;stroke-linejoin:miter;stroke-miterlimit:4;stroke-dasharray:none;stroke-opacity:1"
       d="m 25.65481,126.67913 -4.015674,0.14399"
       id="path855" />
    <path
       id="path857"
       d="m 25.65481,134.16635 -4.015674,0.144"
       style="fill:none;stroke:#e0bddd;stroke-width:1.90445447;stroke-linecap:butt;stroke-linejoin:miter;stroke-miterlimit:4;stroke-dasharray:none;stroke-opacity:1" />
    <path
       style="fill:none;stroke:#e0bddd;stroke-width:1.90445447;stroke-linecap:butt;stroke-linejoin:miter;stroke-miterlimit:4;stroke-dasharray:none;stroke-opacity:1"
       d="m 25.65481,141.3656 -4.015674,0.144"
       id="path859" />
    <path
       id="path861"
       d="m 25.702057,149.14079 -4.015674,0.14402"
       style="fill:none;stroke:#e0bddd;stroke-width:1.90445447;stroke-linecap:butt;stroke-linejoin:miter;stroke-miterlimit:4;stroke-dasharray:none;stroke-opacity:1" />
    <path
       style="fill:none;stroke:#e0bddd;stroke-width:1.90445447;stroke-linecap:butt;stroke-linejoin:miter;stroke-miterlimit:4;stroke-dasharray:none;stroke-opacity:1"
       d="m 25.65481,156.62801 -4.015674,0.14401"
       id="path863" />
    <path
       id="path865"
       d="m 25.749304,164.54717 -4.015674,0.14382"
       style="fill:none;stroke:#e0bddd;stroke-width:1.90445447;stroke-linecap:butt;stroke-linejoin:miter;stroke-miterlimit:4;stroke-dasharray:none;stroke-opacity:1" />
    <path
       style="fill:none;stroke:#e0bddd;stroke-width:1.90445447;stroke-linecap:butt;stroke-linejoin:miter;stroke-miterlimit:4;stroke-dasharray:none;stroke-opacity:1"
       d="m 25.843798,172.03441 -4.015674,0.14382"
       id="path867" />
    <path
       id="path869"
       d="m 25.749304,179.80961 -4.015674,0.14383"
       style="fill:none;stroke:#e0bddd;stroke-width:1.90445447;stroke-linecap:butt;stroke-linejoin:miter;stroke-miterlimit:4;stroke-dasharray:none;stroke-opacity:1" />
  </g>
  <g
     id="layer3">
    <g
       transform="matrix(0.70208516,0,0,0.77451799,3.5737764,51.452112)"
       id="g968">
      <g
         id="layer6">
        <path
           style="fill:none;stroke:#000000;stroke-width:3.00399995;stroke-linecap:round;stroke-linejoin:round;stroke-miterlimit:4;stroke-dasharray:none;stroke-opacity:1"
           d="m 41.530374,89.222178 c 0,0 -3.182588,11.240532 -4.15774,27.355442"
           id="path862" />
        <path
           style="fill:none;stroke:#000000;stroke-width:3.06500006;stroke-linecap:round;stroke-linejoin:round;stroke-miterlimit:4;stroke-dasharray:none;stroke-opacity:1"
           d="M 146.19861,89.285579 C 160.42642,72.642348 145.96602,33.084246 100.53721,33.820318"
           id="path882" />
        <path
           style="fill:none;stroke:#000000;stroke-width:3.06500006;stroke-linecap:round;stroke-linejoin:round;stroke-miterlimit:4;stroke-dasharray:none;stroke-opacity:1"
           d="m 80.251755,129.72281 c 4.288849,10.15159 5.336811,21.02828 3.245881,34.93268"
           id="path884" />
        <path
           style="fill:none;stroke:#000000;stroke-width:3.06500006;stroke-linecap:round;stroke-linejoin:round;stroke-miterlimit:4;stroke-dasharray:none;stroke-opacity:1"
           d="m 110.3278,130.33954 c 8.00698,7.04502 6.3373,35.28411 6.33722,35.2856"
           id="path886" />
      </g>
      <g
         id="layer1-3"
         transform="translate(0,-106.49998)">
        <path
           style="fill:#fb7c85;fill-opacity:1;stroke:none;stroke-width:0.26458332px;stroke-linecap:butt;stroke-linejoin:miter;stroke-opacity:1"
           d="m 40.445546,195.70238 c 0,-10.20535 9.761556,-43.94905 44.979165,-42.71131 18.805869,0.66094 58.796349,3.57348 61.889939,42.71131 1.8154,22.96707 -25.3563,44.65874 -49.605716,43.84524 -8.57106,-0.28754 -60.665175,-1.13393 -57.263388,-43.84524 z"
           id="path3724" />
        <path
           style="fill:#fb7c85;fill-opacity:1;stroke:none;stroke-width:0.26458332px;stroke-linecap:butt;stroke-linejoin:miter;stroke-opacity:1"
           d="m 59.156936,163.19591 c -1.228422,-2.17336 -3.827274,-6.46471 -2.645832,-9.44941 1.795386,-4.53571 14.35465,-1.63738 15.686013,-4.44122 1.373734,-2.89306 2.624413,-15.60611 10.583333,-15.7805 8.392204,-0.18389 3.114245,14.90453 4.819198,13.60714 3.370416,-1.71488 9.271556,-4.48292 14.079602,-4.91369 3.59076,0.47247 5.82127,0.5898 6.70907,4.34673 0.96066,4.06528 -4.44175,8.50708 -4.44175,8.50708 -16.438202,-1.92965 -31.614828,-1.74498 -44.789634,8.12387 z"
           id="path3726" />
        <g
           style="display:inline"
           id="layer2-1"
           transform="translate(-16.105329,76.906318)" />
      </g>
      <g
         id="layer3-3">
        <path
           style="fill:#ffffff;fill-opacity:1;fill-rule:evenodd;stroke-width:0.53492969"
           id="path1026"
           d="M 97.114059,75.462433 A 10.205261,9.0032873 0 0 1 86.909481,84.46572 10.205261,9.0032873 0 0 1 76.703537,75.463638 10.205261,9.0032873 0 0 1 86.90675,66.459146 10.205261,9.0032873 0 0 1 97.114059,75.460024 l -10.205261,0.0024 z" />
        <path
           d="m 115.07457,75.836609 a 10.205261,9.0032873 0 0 1 -10.20458,9.003287 10.205261,9.0032873 0 0 1 -10.205943,-9.002082 10.205261,9.0032873 0 0 1 10.203213,-9.004492 10.205261,9.0032873 0 0 1 10.20731,9.000878 l -10.20526,0.0024 z"
           id="path1028"
           style="fill:#ffffff;fill-opacity:1;fill-rule:evenodd;stroke-width:0.53492969" />
        <path
           style="fill:#000000;fill-opacity:0.96984923;fill-rule:evenodd;stroke-width:0.26458332"
           id="path1030"
           d="m 90.5743,66.460213 a 3.6482289,3.7417734 0 0 1 -3.64799,3.741773 3.6482289,3.7417734 0 0 1 -3.648468,-3.741283 3.6482289,3.7417734 0 0 1 3.647513,-3.742264 3.6482289,3.7417734 0 0 1 3.648945,3.740794 l -3.648229,9.8e-4 z" />
        <path
           d="m 108.51143,66.787613 a 3.6482289,3.7417734 0 0 1 -3.64799,3.741773 3.6482289,3.7417734 0 0 1 -3.64847,-3.741283 3.6482289,3.7417734 0 0 1 3.64751,-3.742263 3.6482289,3.7417734 0 0 1 3.64895,3.740793 l -3.64823,9.8e-4 z"
           id="path1034"
           style="fill:#000000;fill-opacity:0.96984923;fill-rule:evenodd;stroke-width:0.26458332" />
        <path
           style="fill:none;stroke:none;stroke-width:0.1;stroke-linecap:butt;stroke-linejoin:miter;stroke-miterlimit:4;stroke-dasharray:none;stroke-opacity:1"
           d="m 76.66302,75.703905 c 0.214979,-3.187878 1.323704,-5.628946 3.978782,-7.352453 1.381309,-0.896657 3.113421,-1.794553 5.645436,-1.907963 3.094196,0.05116 6.361592,0.229091 9.723438,4.861718 v 0"
           id="path1036" />
        <path
           style="fill:none;stroke:none;stroke-width:0.1;stroke-linecap:butt;stroke-linejoin:miter;stroke-miterlimit:4;stroke-dasharray:none;stroke-opacity:1"
           d="m 96.010676,71.305205 c 2.286883,-2.991864 5.256074,-4.456663 8.852524,-4.517589 7.06639,0.565632 9.90392,4.601347 10.21137,9.046583 v 0"
           id="path1038" />
      </g>
      <g
         id="layer4">
        <path
           style="fill:#fb7c85;fill-opacity:0.98994978;stroke:none;stroke-width:0.065;stroke-linecap:butt;stroke-linejoin:miter;stroke-miterlimit:4;stroke-dasharray:none;stroke-opacity:1"
           d="m 76.72974,74.925975 c 0.810933,-5.3617 4.359082,-8.042189 10.196332,-8.465762 v 0 c 3.889787,0.02787 6.870231,1.730837 9.084604,4.844992 2.402437,-3.250785 5.632514,-4.391319 8.852524,-4.517589 5.87073,0.313218 9.81617,3.658861 10.21137,9.046583 l 7.42173,0.214308 -0.10523,-4.513514 -0.81503,-7.902702 -50.932291,-1.190625 1.190625,12.038541 z"
           id="path1082" />
        <path
           style="fill:#fb7c85;fill-opacity:1;stroke:none;stroke-width:0.065;stroke-linecap:butt;stroke-linejoin:miter;stroke-miterlimit:4;stroke-dasharray:none;stroke-opacity:1"
           d="m 76.72974,74.925975 c 0.0771,5.491221 3.696492,9.138065 10.360035,9.564907 4.076198,-0.246378 6.736854,-1.996769 8.676235,-4.513514 2.392054,3.308168 5.53782,5.186877 9.86893,4.817533 5.29249,-0.667928 9.27746,-3.743419 9.43963,-8.960702 l 7.42173,0.214308 0.10569,12.835426 -49.000631,1.556372 -1.766985,-15.9601 z"
           id="path1084" />
      </g>
      <g
         id="layer5">
        <path
           style="fill:none;stroke:#000000;stroke-width:1.06500006;stroke-linecap:round;stroke-linejoin:miter;stroke-miterlimit:4;stroke-dasharray:none;stroke-opacity:1"
           d="M 81.083589,98.908205 C 94.485246,91.722422 110.154,96.439215 110.47816,98.766195"
           id="path1087" />
      </g>
    </g>
    <path
       id="path1049"
       d="m 185.98826,116.55715 -0.49207,-68.743161 74.95749,0.85661 0.9841,68.957311"
       style="fill:none;stroke:#5d5f74;stroke-width:3.93206215;stroke-linecap:round;stroke-linejoin:round;stroke-miterlimit:4;stroke-dasharray:none;stroke-opacity:1" />
    <g
       transform="matrix(0.24060685,0,0,0.28855977,203.33849,44.36848)"
       id="g1122">
      <g
         id="layer6-9">
        <path
           style="fill:none;stroke:#000000;stroke-width:3.00399995;stroke-linecap:round;stroke-linejoin:round;stroke-miterlimit:4;stroke-dasharray:none;stroke-opacity:1"
           d="m 41.530374,89.222178 c 0,0 -8.09174,-84.8712823 3.696903,-84.3110952"
           id="path862-7" />
        <path
           style="fill:none;stroke:#000000;stroke-width:3.06500006;stroke-linecap:round;stroke-linejoin:round;stroke-miterlimit:4;stroke-dasharray:none;stroke-opacity:1"
           d="m 146.19861,89.285579 c 0,0 13.38607,-89.69183891 4.26105,-83.844538"
           id="path882-3" />
        <path
           style="fill:none;stroke:#000000;stroke-width:3.06500006;stroke-linecap:round;stroke-linejoin:round;stroke-miterlimit:4;stroke-dasharray:none;stroke-opacity:1"
           d="m 80.251755,129.72281 c 4.288849,10.15159 5.336811,21.02828 3.245881,34.93268"
           id="path884-1" />
        <path
           style="fill:none;stroke:#000000;stroke-width:3.06500006;stroke-linecap:round;stroke-linejoin:round;stroke-miterlimit:4;stroke-dasharray:none;stroke-opacity:1"
           d="m 110.3278,130.33954 c 8.00698,7.04502 6.3373,35.28411 6.33722,35.2856"
           id="path886-5" />
      </g>
      <g
         id="layer1-4"
         transform="translate(0,-106.49998)">
        <path
           style="fill:#fb7c85;fill-opacity:1;stroke:none;stroke-width:0.26458332px;stroke-linecap:butt;stroke-linejoin:miter;stroke-opacity:1"
           d="m 40.445546,195.70238 c 0,-10.20535 9.761556,-43.94905 44.979165,-42.71131 18.805869,0.66094 58.796349,3.57348 61.889939,42.71131 1.8154,22.96707 -25.3563,44.65874 -49.605716,43.84524 -8.57106,-0.28754 -60.665175,-1.13393 -57.263388,-43.84524 z"
           id="path3724-7" />
        <path
           style="fill:#fb7c85;fill-opacity:1;stroke:none;stroke-width:0.26458332px;stroke-linecap:butt;stroke-linejoin:miter;stroke-opacity:1"
           d="m 59.156936,163.19591 c -1.228422,-2.17336 -3.827274,-6.46471 -2.645832,-9.44941 1.795386,-4.53571 14.35465,-1.63738 15.686013,-4.44122 1.373734,-2.89306 2.624413,-15.60611 10.583333,-15.7805 8.392204,-0.18389 3.114245,14.90453 4.819198,13.60714 3.370416,-1.71488 9.271556,-4.48292 14.079602,-4.91369 3.59076,0.47247 5.82127,0.5898 6.70907,4.34673 0.96066,4.06528 -4.44175,8.50708 -4.44175,8.50708 -16.438202,-1.92965 -31.614828,-1.74498 -44.789634,8.12387 z"
           id="path3726-3" />
        <g
           style="display:inline"
           id="layer2-8"
           transform="translate(-16.105329,76.906318)" />
      </g>
      <g
         id="layer3-0">
        <path
           style="fill:#ffffff;fill-opacity:1;fill-rule:evenodd;stroke-width:0.53492969"
           id="path1026-1"
           d="M 97.114059,75.462433 A 10.205261,9.0032873 0 0 1 86.909481,84.46572 10.205261,9.0032873 0 0 1 76.703537,75.463638 10.205261,9.0032873 0 0 1 86.90675,66.459146 10.205261,9.0032873 0 0 1 97.114059,75.460024 l -10.205261,0.0024 z" />
        <path
           d="m 115.07457,75.836609 a 10.205261,9.0032873 0 0 1 -10.20458,9.003287 10.205261,9.0032873 0 0 1 -10.205943,-9.002082 10.205261,9.0032873 0 0 1 10.203213,-9.004492 10.205261,9.0032873 0 0 1 10.20731,9.000878 l -10.20526,0.0024 z"
           id="path1028-5"
           style="fill:#ffffff;fill-opacity:1;fill-rule:evenodd;stroke-width:0.53492969" />
        <path
           style="fill:#000000;fill-opacity:0.96984923;fill-rule:evenodd;stroke-width:0.27446872"
           id="path1030-0"
           d="m 90.001624,81.830193 a 3.9259324,3.7417734 0 0 1 -3.925676,3.741773 3.9259324,3.7417734 0 0 1 -3.926189,-3.741284 3.9259324,3.7417734 0 0 1 3.925161,-3.742263 3.9259324,3.7417734 0 0 1 3.926703,3.740794 l -3.925932,9.8e-4 z" />
        <path
           d="m 108.61204,82.436028 a 4.2036362,3.7417734 0 0 1 -4.20336,3.741773 4.2036362,3.7417734 0 0 1 -4.20391,-3.741284 4.2036362,3.7417734 0 0 1 4.20281,-3.742263 4.2036362,3.7417734 0 0 1 4.20446,3.740794 l -4.20364,9.8e-4 z"
           id="path1034-5"
           style="fill:#000000;fill-opacity:0.96984923;fill-rule:evenodd;stroke-width:0.28401023" />
        <path
           style="fill:none;stroke:none;stroke-width:0.1;stroke-linecap:butt;stroke-linejoin:miter;stroke-miterlimit:4;stroke-dasharray:none;stroke-opacity:1"
           d="m 76.66302,75.703905 c 0.214979,-3.187878 1.323704,-5.628946 3.978782,-7.352453 1.381309,-0.896657 3.113421,-1.794553 5.645436,-1.907963 3.094196,0.05116 6.361592,0.229091 9.723438,4.861718 v 0"
           id="path1036-2" />
        <path
           style="fill:none;stroke:none;stroke-width:0.1;stroke-linecap:butt;stroke-linejoin:miter;stroke-miterlimit:4;stroke-dasharray:none;stroke-opacity:1"
           d="m 96.010676,71.305205 c 2.286883,-2.991864 5.256074,-4.456663 8.852524,-4.517589 7.06639,0.565632 9.90392,4.601347 10.21137,9.046583 v 0"
           id="path1038-8" />
      </g>
      <g
         id="layer4-7">
        <path
           style="fill:#fb7c85;fill-opacity:0.98994978;stroke:none;stroke-width:0.065;stroke-linecap:butt;stroke-linejoin:miter;stroke-miterlimit:4;stroke-dasharray:none;stroke-opacity:1"
           d="m 76.72974,74.925975 c 0.810933,-5.3617 4.359082,-8.042189 10.196332,-8.465762 v 0 c 3.889787,0.02787 6.870231,1.730837 9.084604,4.844992 2.402437,-3.250785 5.632514,-4.391319 8.852524,-4.517589 5.87073,0.313218 9.81617,3.658861 10.21137,9.046583 l 7.42173,0.214308 -0.10523,-4.513514 -0.81503,-7.902702 -50.932291,-1.190625 1.190625,12.038541 z"
           id="path1082-7" />
        <path
           style="fill:#fb7c85;fill-opacity:1;stroke:none;stroke-width:0.065;stroke-linecap:butt;stroke-linejoin:miter;stroke-miterlimit:4;stroke-dasharray:none;stroke-opacity:1"
           d="m 76.72974,74.925975 c 0.0771,5.491221 3.696492,9.138065 10.360035,9.564907 4.076198,-0.246378 6.736854,-1.996769 8.676235,-4.513514 2.392054,3.308168 5.53782,5.186877 9.86893,4.817533 5.29249,-0.667928 9.27746,-3.743419 9.43963,-8.960702 l 7.42173,0.214308 0.10569,12.835426 -49.000631,1.556372 -1.766985,-15.9601 z"
           id="path1084-8" />
      </g>
      <g
         id="layer5-1">
        <path
           style="fill:none;stroke:#000000;stroke-width:1.06500006;stroke-linecap:round;stroke-linejoin:miter;stroke-miterlimit:4;stroke-dasharray:none;stroke-opacity:1"
           d="m 81.083589,98.908205 c 15.82572,-1.296643 29.369381,-1.544163 29.394571,-0.14201"
           id="path1087-8" />
      </g>
    </g>
    <flowRoot
       transform="matrix(0.26458333,0,0,0.29885493,18.142857,-31.688451)"
       style="font-style:normal;font-variant:normal;font-weight:900;font-stretch:normal;font-size:64px;line-height:1.5;font-family:Arial;-inkscape-font-specification:'Arial Heavy';letter-spacing:0px;word-spacing:0px;fill:url(#linearGradient1138);fill-opacity:1;stroke:none"
       id="flowRoot1124"
       xml:space="preserve"><flowRegion
         style="font-style:normal;font-variant:normal;font-weight:900;font-stretch:normal;font-size:64px;line-height:1.5;font-family:Arial;-inkscape-font-specification:'Arial Heavy';fill:url(#linearGradient1142);fill-opacity:1"
         id="flowRegion1126"><rect
           style="font-style:normal;font-variant:normal;font-weight:900;font-stretch:normal;font-size:64px;line-height:1.5;font-family:Arial;-inkscape-font-specification:'Arial Heavy';fill:url(#linearGradient1140);fill-opacity:1"
           y="475.71429"
           x="611.42859"
           height="284.26617"
           width="604.28571"
           id="rect1128" /></flowRegion><flowPara
         style="letter-spacing:2.99211407px;word-spacing:1.54310286px;fill:#5b6074;fill-opacity:1"
         id="flowPara1130">TOP 10 FOODS TO INRCEASE HEIGHT</flowPara></flowRoot>  </g>
</svg>
