<?xml version="1.0" encoding="UTF-8" standalone="no"?>
<svg
   xmlns:dc="http://purl.org/dc/elements/1.1/"
   xmlns:cc="http://creativecommons.org/ns#"
   xmlns:rdf="http://www.w3.org/1999/02/22-rdf-syntax-ns#"
   xmlns:svg="http://www.w3.org/2000/svg"
   xmlns="http://www.w3.org/2000/svg"
   id="svg8"
   version="1.1"
   viewBox="0 0 338.66666 190.5"
   height="720"
   width="1280">
  <defs
     id="defs2" />
  <metadata
     id="metadata5">
    <rdf:RDF>
      <cc:Work
         rdf:about="">
        <dc:format>image/svg+xml</dc:format>
        <dc:type
           rdf:resource="http://purl.org/dc/dcmitype/StillImage" />
        <dc:title></dc:title>
      </cc:Work>
    </rdf:RDF>
  </metadata>
  <g
     transform="translate(0,-106.49998)"
     id="layer1">
    <rect
       y="106.50325"
       x="0.0027687326"
       height="190.48596"
       width="338.66174"
       id="rect815"
       style="opacity:1;fill:#e0bddd;fill-opacity:1;fill-rule:nonzero;stroke:none;stroke-width:0.76434302;stroke-linecap:round;stroke-linejoin:round;stroke-miterlimit:4;stroke-dasharray:none;stroke-opacity:1;paint-order:normal" />
    <g
       transform="matrix(2.6056887,0,0,2.2447558,157.99576,147.41258)"
       id="g2739">
      <g
         id="g2672">
	<path
   style="fill:#dae7ef"
   d="m 36.586,16.355 v -0.422 h 1 c 1.1,0 2,-0.9 2,-2 v -2 c 0,-0.594 -0.267,-1.123 -0.682,-1.49 L 33.757,9.933 H 15.586 c -1.1,0 -2,0.9 -2,2 v 2 c 0,1.1 0.9,2 2,2 h 1 v 0.422 c 0,3.89 -7,1.828 -7,9 v 22.194 c 0,4.63 3.753,8.383 8.383,8.383 h 8.617 8.617 c 4.63,0 8.383,-3.753 8.383,-8.383 V 25.355 c 0,-7.172 -7,-5.11 -7,-9 z"
   id="path2648" />

	<path
   style="fill:#fbd490"
   d="m 45.761,3.414 -19.17,19.17 -2.828,-2.828 19.17,-19.17 c 0.781,-0.781 2.047,-0.781 2.828,0 v 0 c 0.781,0.781 0.781,2.047 0,2.828 z"
   id="path2650" />

	<path
   style="fill:#f9da49"
   d="m 17.969,55.933 h 8.617 8.617 c 4.63,0 8.383,-3.753 8.383,-8.383 V 37.313 C 39.398,40.54 36.6,40.931 32.412,37.704 28.224,34.477 25.187,33.8 20.999,37.027 16.811,40.254 13.774,40.931 9.586,37.704 v 9.845 c 0,4.63 3.753,8.384 8.383,8.384 z"
   id="path2652" />

	<circle
   style="fill:#eeaf4b"
   cx="30.586"
   cy="47.932999"
   r="1"
   id="circle2654" />

	<path
   style="fill:#fbd490"
   d="m 24.382,30.622 v 0 c -0.972,0.972 -2.563,0.972 -3.536,0 l -4.95,-4.95 c -0.972,-0.972 -0.972,-2.563 0,-3.536 v 0 c 0.972,-0.972 2.563,-0.972 3.536,0 l 4.95,4.95 c 0.972,0.973 0.972,2.564 0,3.536 z"
   id="path2656" />

	<path
   style="fill:#eeaf4b"
   d="m 19.786,33.097 v 0 c -0.972,0.972 -2.563,0.972 -3.536,0 l -2.828,-2.828 c -0.972,-0.972 -0.972,-2.563 0,-3.536 v 0 c 0.972,-0.972 2.563,-0.972 3.536,0 l 2.828,2.828 c 0.972,0.973 0.972,2.564 0,3.536 z"
   id="path2658" />

	<path
   style="fill:#eeaf4b"
   d="m 26.776,26.106 v 0 c -0.972,0.972 -2.563,0.972 -3.536,0 l -2.828,-2.828 c -0.972,-0.972 -0.972,-2.563 0,-3.536 v 0 c 0.972,-0.972 2.563,-0.972 3.536,0 l 2.828,2.828 c 0.973,0.973 0.973,2.564 0,3.536 z"
   id="path2660" />

	<circle
   style="fill:#eeaf4b"
   cx="27.586"
   cy="51.932999"
   r="1"
   id="circle2662" />

	<circle
   style="fill:#eeaf4b"
   cx="33.585999"
   cy="50.932999"
   r="1"
   id="circle2664" />

	<circle
   style="fill:#eeaf4b"
   cx="37.585999"
   cy="48.932999"
   r="1"
   id="circle2666" />

	<polygon
   style="fill:#eeaf4b"
   points="15.468,45.996 17.704,45.996 18.822,47.933 17.704,49.869 15.468,49.869 14.35,47.933 "
   id="polygon2668" />

	<polygon
   style="fill:#eeaf4b"
   points="21.468,41.933 23.704,41.933 24.822,43.869 23.704,45.806 21.468,45.806 20.35,43.869 "
   id="polygon2670" />

</g>
      <g
         id="g2674">
</g>
      <g
         id="g2676">
</g>
      <g
         id="g2678">
</g>
      <g
         id="g2680">
</g>
      <g
         id="g2682">
</g>
      <g
         id="g2684">
</g>
      <g
         id="g2686">
</g>
      <g
         id="g2688">
</g>
      <g
         id="g2690">
</g>
      <g
         id="g2692">
</g>
      <g
         id="g2694">
</g>
      <g
         id="g2696">
</g>
      <g
         id="g2698">
</g>
      <g
         id="g2700">
</g>
      <g
         id="g2702">
</g>
    </g>
    <g
       style="fill:none"
       transform="matrix(1.6638145,0,0,1.5857425,26.336169,121.73672)"
       id="005---Apitherapy">
      <path
         style="fill:#f3d55b"
         id="Shape"
         d="m 8,5 v 8 l 8,5 8,-5 V 5 L 16,0 Z" />
      <path
         style="fill:#f0c419"
         id="path2742"
         d="m 16,18 v 8 L 8,31 0,26 v -8 l 8,-5 z" />
      <path
         style="fill:#f3d55b"
         id="path2744"
         d="m 48,18 v 8 l -8,5 -8,-5 v -8 l 8,-5 z" />
      <path
         style="fill:#f3d55b"
         id="path2746"
         d="m 24,31 v 8 l -8,5 -8,-5 v -8 l 8,-5 z" />
      <path
         style="fill:#f0c419"
         id="path2748"
         d="m 16,44 v 8 L 8,57 0,52 v -8 l 8,-5 z" />
      <path
         style="fill:#f29c1f"
         id="path2750"
         d="m 32,44 v 8 l -8,5 -8,-5 v -8 l 8,-5 z" />
      <path
         style="fill:#f29c1f"
         id="path2752"
         d="m 32,18 v 8 l -8,5 -8,-5 v -8 l 8,-5 z" />
      <path
         style="fill:#f0c419"
         id="path2754"
         d="m 24,5 v 8 l 8,5 8,-5 V 5 L 32,0 Z" />
      <g
         style="fill:#2c3e50"
         id="g2762">
        <path
           id="path2756"
           d="m 36.371,24.75 c -0.381049,0.0019 -0.730055,-0.212942 -0.9,-0.554 l -1.37,-2.75 c -0.162625,-0.32016 -0.141101,-0.702937 0.05639,-1.002847 0.197493,-0.299911 0.540629,-0.470904 0.898993,-0.44799 0.358364,0.02291 0.676928,0.236216 0.834616,0.558837 l 1.37,2.75 c 0.154384,0.309818 0.137564,0.677443 -0.04447,0.971869 C 37.034502,24.570295 36.713152,24.749642 36.367,24.75 Z" />
        <path
           id="path2758"
           d="M 41.629,24.75 C 41.282847,24.749643 40.961498,24.570295 40.779467,24.275869 40.597436,23.981443 40.580616,23.613818 40.735,23.304 l 1.37,-2.75 c 0.248758,-0.48973 0.84596,-0.687141 1.337587,-0.442152 0.491627,0.24499 0.693619,0.840658 0.452413,1.334152 l -1.37,2.75 c -0.169306,0.339763 -0.516391,0.554367 -0.896,0.554 z" />
        <path
           id="path2760"
           d="m 39,59 c -0.552285,0 -1,-0.447715 -1,-1 v -2 c 0,-0.552285 0.447715,-1 1,-1 0.552285,0 1,0.447715 1,1 v 2 c 0,0.552285 -0.447715,1 -1,1 z" />
      </g>
      <path
         style="fill:#f0c419"
         id="path2764"
         d="M 45.31,38 44,31 H 34 l -1.34,7 c -0.414123,1.804792 -0.635364,3.648469 -0.66,5.5 0,5.237 2.3,12.5 7,12.5 4.741,0 7,-7.324 7,-12.5 -0.0021,-1.854789 -0.233822,-3.702183 -0.69,-5.5 z" />
      <path
         style="fill:#f0c419"
         id="path2766"
         d="M 45.31,38 H 32.66 L 34,31 h 10 z" />
      <path
         style="fill:#35495e"
         id="path2768"
         d="m 45.95,42 h -13.9 c 0.05522,-0.825349 0.158726,-1.646756 0.31,-2.46 L 32.66,38 h 12.65 l 0.33,1.54 c 0.151274,0.813244 0.254784,1.634651 0.31,2.46 z" />
      <path
         style="fill:#f0c419"
         id="path2770"
         d="m 46,43.5 c -3.68e-4,0.835282 -0.04711,1.669899 -0.14,2.5 H 32.14 C 32.047107,45.169899 32.000368,44.335282 32,43.5 32,42.99 32.02,42.49 32.05,42 h 13.9 c 0.03,0.49 0.05,0.99 0.05,1.5 z" />
      <path
         style="fill:#35495e"
         id="path2772"
         d="m 45.86,46 c -0.144155,1.361831 -0.439302,2.703409 -0.88,4 H 33.02 c -0.440698,-1.296591 -0.735845,-2.638169 -0.88,-4 z" />
      <path
         style="fill:#f0c419"
         id="path2774"
         d="m 44.98,50 c -1.23,3.6 -3.45,6 -5.98,6 -2.53,0 -4.75,-2.4 -5.98,-6 z" />
      <path
         style="fill:#35495e"
         id="path2776"
         d="m 44,30 v -2 c 0,-2.761424 -2.238576,-5 -5,-5 -2.761424,0 -5,2.238576 -5,5 v 4 z" />
      <path
         style="fill:#f5efca"
         id="path2778"
         d="m 20,35 c 0,2.761 5.029,5 10,5 4.971,0 9,-6.239 9,-9 0,-1 -4.029,-1 -9,-1 -4.971,0 -10,2.239 -10,5 z" />
      <path
         style="fill:#f5efca"
         id="path2780"
         d="m 58,35 c 0,2.76 -5.03,5 -10,5 C 47.191718,39.9933 46.391627,39.837356 45.64,39.54 44.72082,39.163123 43.866959,38.643382 43.11,38 41.836615,36.923481 40.780969,35.613258 40,34.14 39.429067,33.184416 39.08682,32.10976 39,31 c 0,-0.17 0.11,-0.3 0.32,-0.42 h 0.01 c 0.644931,-0.265447 1.332832,-0.41116 2.03,-0.43 C 42.1,30.08 43,30.04 44,30.03 45.21,30 46.57,30 48,30 c 4.97,0 10,2.24 10,5 z" />
    </g>
  </g>
</svg>
