<?xml version="1.0" encoding="UTF-8" standalone="no"?>
<svg
   xmlns:dc="http://purl.org/dc/elements/1.1/"
   xmlns:cc="http://creativecommons.org/ns#"
   xmlns:rdf="http://www.w3.org/1999/02/22-rdf-syntax-ns#"
   xmlns:svg="http://www.w3.org/2000/svg"
   xmlns="http://www.w3.org/2000/svg"
   id="svg8"
   version="1.1"
   viewBox="0 0 338.66666 190.5"
   height="720"
   width="1280">
  <defs
     id="defs2" />
  <metadata
     id="metadata5">
    <rdf:RDF>
      <cc:Work
         rdf:about="">
        <dc:format>image/svg+xml</dc:format>
        <dc:type
           rdf:resource="http://purl.org/dc/dcmitype/StillImage" />
        <dc:title></dc:title>
      </cc:Work>
    </rdf:RDF>
  </metadata>
  <g
     transform="translate(0,-106.49998)"
     id="layer1">
    <rect
       y="106.50325"
       x="0.0027687326"
       height="190.48596"
       width="338.66174"
       id="rect815"
       style="opacity:1;fill:#e0bddd;fill-opacity:1;fill-rule:nonzero;stroke:none;stroke-width:0.76434302;stroke-linecap:round;stroke-linejoin:round;stroke-miterlimit:4;stroke-dasharray:none;stroke-opacity:1;paint-order:normal" />
    <g
       transform="matrix(0.14180639,0,0,0.18996674,25.810998,148.46314)"
       id="g2447">
      <path
         style="fill:#fbced3"
         d="M 135.001,90.516 C 60.561,90.516 0,151.077 0,225.517 0,299.957 60.561,360.518 135.001,360.518 H 153.215 190 v -30 h -36.785 c -29.776,0 -54.001,-24.225 -54.001,-54.001 0,-29.776 24.225,-54.001 54.001,-54.001 h 195.236 c 56.115,0 101.768,-45.653 101.768,-101.768 v -0.232 H 512 v -30 z"
         id="path2410" />
      <path
         style="fill:#f18f9d"
         d="m 332.282,147.01 c 7.846,0 15.363,-6.899 15,-15 -0.364,-8.127 -6.591,-15 -15,-15 -7.846,0 -15.363,6.899 -15,15 0.364,8.127 6.591,15 15,15 z"
         id="path2412" />
      <g
         style="fill:#f8aaab"
         id="g2420">
        <path
           d="m 183.896,90.516 h 84.582 v 131.576 h -84.582 z"
           id="path2414" />
        <path
           d="m 0.628,212.522 105.156,38.201 c 5.46,-10 13.992,-18.089 24.317,-23 L 70.486,106.956 C 32.127,127.913 5.002,166.944 0.628,212.522 Z"
           id="path2416" />
        <path
           d="M 18.521,157.343 C 6.758,177.364 0,200.665 0,225.517 0,299.957 60.561,360.518 135.001,360.518 H 190 v -30 h -36.785 c -29.776,0 -54.001,-24.225 -54.001,-54.001 0,-29.776 24.225,-54.001 54.001,-54.001 h 195.236 c 43.221,0 80.229,-27.086 94.958,-65.172 H 18.521 Z"
           id="path2418" />
      </g>
      <path
         style="fill:#f18f9d"
         d="m 183.896,157.343 h 84.582 v 64.749 h -84.582 z"
         id="path2422" />
      <path
         style="fill:#f18f9d"
         d="M 18.518,157.343 C 8.832,173.832 2.544,192.548 0.628,212.522 l 105.156,38.201 c 5.46,-10 13.992,-18.089 24.317,-23 l -34.742,-70.38 z"
         id="path2424" />
      <path
         style="fill:#fbced3"
         d="m 223.864,345.83 h -59.766 v -17.276 c 0,-32.554 26.484,-59.038 59.038,-59.038 h 59.766 v 17.276 c 0,32.553 -26.485,59.038 -59.038,59.038 z"
         id="path2426" />
      <path
         style="fill:#f18f9d"
         d="m 282.902,421.484 h -59.766 c -32.554,0 -59.038,-26.484 -59.038,-59.038 V 345.17 h 59.766 c 32.553,0 59.038,26.484 59.038,59.038 z"
         id="path2428" />
    </g>
    <g
       transform="matrix(0.16519186,0,0,0.21340591,117.11058,145.83059)"
       id="g2591">
      <g
         id="g2455">
	<path
   style="fill:#e6643c"
   d="m 203.728,170.153 c 9.218,-6.208 15.094,-16.913 14.599,-28.831 -0.759,-18.254 -16.172,-32.437 -34.426,-31.678 -18.254,0.759 -32.437,16.172 -31.678,34.426 0.557,13.413 9.032,24.619 20.727,29.323 1.578,28.298 13,55.937 13.546,57.242 2.566,6.133 8.625,9.741 14.9,9.48 1.78,-0.074 3.58,-0.461 5.32,-1.189 7.873,-3.294 11.586,-12.346 8.291,-20.22 -3.113,-7.44 -10.541,-29.259 -11.279,-48.553 z"
   id="path2449" />

	<path
   style="fill:#e6643c"
   d="m 308.27,170.153 c -9.218,-6.208 -15.095,-16.913 -14.599,-28.831 0.759,-18.254 16.172,-32.437 34.426,-31.678 18.254,0.759 32.437,16.172 31.678,34.426 -0.557,13.413 -9.032,24.619 -20.727,29.323 -1.578,28.298 -13,55.937 -13.546,57.242 -2.566,6.133 -8.625,9.741 -14.9,9.48 -1.78,-0.074 -3.58,-0.461 -5.32,-1.189 -7.873,-3.294 -11.586,-12.346 -8.291,-20.22 3.114,-7.44 10.54,-29.259 11.279,-48.553 z"
   id="path2451" />

	<path
   style="fill:#e6643c"
   d="m 141.285,232.592 c -35.761,-36.725 -67.158,-3.966 -28.13,27.686 39.028,31.652 28.13,-27.686 28.13,-27.686 z"
   id="path2453" />

</g>
      <g
         id="g2461">
	<path
   style="fill:#ff6f43"
   d="m 442.563,126.132 28.042,-60.229 c 0,0 37.572,9.185 41.218,61.906 2.896,41.877 -30.647,77.474 -72.623,77.218 -1.583,-0.009 -2.471,-0.062 -2.471,-0.062 z"
   id="path2457" />

	<path
   style="fill:#ff6f43"
   d="m 399.035,216.465 c 22.992,-77.321 99.384,-17.853 16.983,20.673 z"
   id="path2459" />

</g>
      <g
         id="g2473">
	<path
   style="fill:#e6643c"
   d="m 370.714,232.592 c 35.761,-36.725 67.158,-3.966 28.13,27.686 -39.028,31.652 -28.13,-27.686 -28.13,-27.686 z"
   id="path2463" />

	<path
   style="fill:#e6643c"
   d="m 123.967,329.204 c -10.347,2.779 -20.912,4.366 -30.883,8.982 -11.101,5.139 -19.909,13.2 -19.521,26.251 0.231,7.797 2.782,15.243 5.394,22.512 1.794,4.991 2.843,11.13 -3.511,13.425 -2.955,1.066 -6.135,0.248 -8.223,-1.829 -7.671,-7.625 -14.204,-16.725 -17.665,-27.051 -5.125,-15.296 -2.577,-31.659 6.944,-44.657 8.436,-11.518 20.972,-19.576 33.953,-25.103 14.041,-5.977 45.328,-17.528 49.048,6.882 1.376,9.034 -4.23,16.538 -12.506,19.628 -0.997,0.372 -2.009,0.686 -3.03,0.96 z"
   id="path2465" />

	<path
   style="fill:#e6643c"
   d="m 178.794,365.837 c -9.623,4.71 -19.689,8.291 -28.591,14.731 -9.912,7.17 -17.012,16.769 -14.132,29.503 1.72,7.608 5.65,14.428 9.606,21.061 2.717,4.555 4.923,10.379 -0.875,13.848 -2.696,1.613 -5.973,1.419 -8.422,-0.219 -8.99,-6.014 -17.145,-13.695 -22.518,-23.166 -7.96,-14.031 -8.592,-30.579 -1.738,-45.16 6.074,-12.921 16.833,-23.23 28.517,-31.141 12.635,-8.556 41.131,-25.886 49.458,-2.64 3.081,8.603 -0.984,17.042 -8.515,21.661 -0.908,0.555 -1.841,1.057 -2.79,1.522 z"
   id="path2467" />

	<path
   style="fill:#e6643c"
   d="m 388.031,329.204 c 10.347,2.779 20.912,4.366 30.883,8.982 11.101,5.139 19.909,13.2 19.521,26.251 -0.231,7.797 -2.782,15.243 -5.394,22.512 -1.794,4.991 -2.843,11.13 3.511,13.425 2.955,1.066 6.135,0.248 8.223,-1.829 7.671,-7.625 14.204,-16.725 17.665,-27.051 5.125,-15.296 2.577,-31.659 -6.944,-44.657 -8.436,-11.518 -20.972,-19.576 -33.953,-25.103 -14.041,-5.977 -45.328,-17.528 -49.048,6.882 -1.376,9.034 4.23,16.538 12.506,19.628 0.998,0.372 2.008,0.686 3.03,0.96 z"
   id="path2469" />

	<path
   style="fill:#e6643c"
   d="m 333.205,365.837 c 9.623,4.71 19.689,8.291 28.591,14.731 9.912,7.17 17.012,16.769 14.132,29.503 -1.72,7.608 -5.65,14.428 -9.606,21.061 -2.717,4.555 -4.923,10.379 0.875,13.848 2.696,1.613 5.973,1.419 8.422,-0.219 8.99,-6.014 17.145,-13.695 22.518,-23.166 7.96,-14.031 8.592,-30.579 1.738,-45.16 -6.074,-12.921 -16.833,-23.23 -28.517,-31.141 -12.635,-8.556 -41.131,-25.886 -49.458,-2.64 -3.081,8.603 0.984,17.042 8.515,21.661 0.908,0.555 1.84,1.057 2.79,1.522 z"
   id="path2471" />

</g>
      <path
         style="opacity:0.1;enable-background:new"
         d="m 186.496,230.635 c 2.566,6.134 8.625,9.741 14.9,9.48 1.781,-0.074 3.58,-0.459 5.32,-1.189 7.873,-3.294 11.586,-12.346 8.291,-20.219 -2.523,-6.031 -7.877,-21.499 -10.21,-37.415 -10.405,1.924 -20.477,4.435 -30.101,7.506 3.671,22.178 11.354,40.773 11.8,41.837 z"
         id="path2475" />
      <path
         style="opacity:0.1;enable-background:new"
         d="m 307.202,181.292 c -2.333,15.917 -7.688,31.385 -10.21,37.415 -3.294,7.873 0.418,16.925 8.292,20.219 1.74,0.729 3.54,1.115 5.32,1.189 6.275,0.261 12.334,-3.346 14.9,-9.48 0.446,-1.065 8.128,-19.659 11.801,-41.837 -9.626,-3.07 -19.698,-5.582 -30.103,-7.506 z"
         id="path2477" />
      <path
         style="opacity:0.1;enable-background:new"
         d="m 431.556,306.602 c -3.265,-1.805 -6.622,-3.426 -10.013,-4.87 -14.041,-5.977 -45.328,-17.529 -49.048,6.882 -1.376,9.034 4.23,16.538 12.507,19.628 0.996,0.372 2.008,0.686 3.029,0.96 9.864,2.65 19.925,4.222 29.481,8.361 6.905,-9.695 11.636,-20.089 14.044,-30.961 z"
         id="path2479" />
      <path
         style="opacity:0.1;enable-background:new"
         d="m 371.358,345.293 c -12.635,-8.556 -41.132,-25.885 -49.458,-2.64 -3.081,8.603 0.984,17.042 8.515,21.66 0.907,0.556 1.839,1.058 2.789,1.524 9.623,4.71 19.689,8.29 28.591,14.731 0.122,0.088 0.237,0.181 0.358,0.27 4.818,-2.242 9.472,-4.64 13.927,-7.202 5.569,-3.202 10.753,-6.603 15.556,-10.174 -5.728,-7.072 -12.811,-13.113 -20.278,-18.169 z"
         id="path2481" />
      <path
         style="opacity:0.1;enable-background:new"
         d="m 140.639,345.293 c -7.467,5.056 -14.55,11.096 -20.279,18.168 4.803,3.572 9.987,6.972 15.556,10.174 4.457,2.562 9.11,4.96 13.928,7.202 0.121,-0.089 0.236,-0.181 0.359,-0.27 8.903,-6.44 18.968,-10.021 28.591,-14.731 0.95,-0.465 1.882,-0.966 2.789,-1.524 7.532,-4.618 11.597,-13.057 8.515,-21.66 -8.327,-23.244 -36.823,-5.914 -49.459,2.641 z"
         id="path2483" />
      <path
         style="opacity:0.1;enable-background:new"
         d="m 139.502,308.615 c -3.72,-24.411 -35.007,-12.859 -49.048,-6.882 -3.39,1.443 -6.749,3.065 -10.013,4.87 2.409,10.871 7.139,21.265 14.044,30.963 9.557,-4.139 19.618,-5.711 29.482,-8.361 1.021,-0.274 2.033,-0.588 3.029,-0.96 8.277,-3.092 13.883,-10.596 12.506,-19.63 z"
         id="path2485" />
      <ellipse
         style="fill:#ff6f43"
         cx="256.004"
         cy="289.64001"
         rx="151.666"
         ry="87.206001"
         id="ellipse2487" />
      <g
         id="g2493">
	<circle
   style="fill:#212121"
   cx="185.27"
   cy="142.692"
   r="10.918"
   id="circle2489" />

	<circle
   style="fill:#212121"
   cx="326.72699"
   cy="142.692"
   r="10.918"
   id="circle2491" />

</g>
      <g
         id="g2499">
	<path
   style="fill:#ff6f43"
   d="M 69.435,126.132 41.393,65.903 c 0,0 -37.572,9.185 -41.218,61.906 -2.896,41.877 30.647,77.474 72.623,77.218 1.583,-0.009 2.471,-0.062 2.471,-0.062 z"
   id="path2495" />

	<path
   style="fill:#ff6f43"
   d="M 112.963,216.465 C 89.971,139.144 13.579,198.612 95.98,237.138 Z"
   id="path2497" />

</g>
      <g
         id="g2505">
	<path
   style="fill:#e6643c"
   d="m 80.662,119.152 c 7.827,-7.06 20.363,-2.568 21.919,7.857 4.695,31.464 6.277,82.925 -38.844,62.863 -35.74,-15.891 -5.063,-50.887 16.925,-70.72 z"
   id="path2501" />

	<path
   style="fill:#e6643c"
   d="m 431.337,119.152 c -7.827,-7.06 -20.363,-2.568 -21.919,7.857 -4.695,31.464 -6.277,82.925 38.844,62.863 35.74,-15.891 5.062,-50.887 -16.925,-70.72 z"
   id="path2503" />

</g>
      <path
         style="fill:#212121"
         d="m 255.996,270.679 c -10.298,0 -19.709,-2.632 -25.821,-7.223 -5.942,-4.464 -7.142,-12.899 -2.679,-18.841 4.463,-5.943 12.899,-7.14 18.841,-2.679 0.544,0.375 3.844,1.83 9.658,1.83 5.815,0 9.115,-1.456 9.681,-1.845 5.942,-4.463 14.366,-3.257 18.831,2.686 4.463,5.942 3.253,14.386 -2.69,18.849 -6.112,4.59 -15.523,7.223 -25.821,7.223 z"
         id="path2507" />
      <g
         id="g2509">
</g>
      <g
         id="g2511">
</g>
      <g
         id="g2513">
</g>
      <g
         id="g2515">
</g>
      <g
         id="g2517">
</g>
      <g
         id="g2519">
</g>
      <g
         id="g2521">
</g>
      <g
         id="g2523">
</g>
      <g
         id="g2525">
</g>
      <g
         id="g2527">
</g>
      <g
         id="g2529">
</g>
      <g
         id="g2531">
</g>
      <g
         id="g2533">
</g>
      <g
         id="g2535">
</g>
      <g
         id="g2537">
</g>
    </g>
    <g
       transform="matrix(0.22102471,0,0,0.31125508,224.23262,154.32355)"
       id="g2646">
      <g
         style="fill:#ffd782"
         id="g2603">
        <path
           d="m 440,216 c 0,0 -64,-32 -80,-32 v -32 c 16,0 80,-32 80,-32 5.35156,-1.83203 11.24609,-1.0625 15.95313,2.07031 4.70312,3.13672 7.67968,8.28907 8.04687,13.92969 v 64 c -0.36719,5.64063 -3.34375,10.79297 -8.04687,13.92969 C 451.24609,217.0625 445.35156,217.83203 440,216 Z m 0,0"
           id="path2593" />
        <path
           d="m 104,248 c 0,0 72,56 128,56 56,0 -24,-56 -24,-56 z m 0,0"
           id="path2595" />
        <path
           d="m 256,240 c 0,0 88,24 96,0 2.26563,-6.35937 1.83984,-13.37109 -1.17969,-19.41016 C 347.80078,214.55078 342.44922,210.00391 336,208 Z m 0,0"
           id="path2597" />
        <path
           d="M 240,96 H 96 c 0,0 40,-72 152,-72 h 0.16016 c 9.71484,-0.207031 19.42187,0.625 28.96093,2.480469 C 334.87891,39.039062 240,96 240,96 Z m 0,0"
           id="path2599" />
        <path
           d="m 280,104 c 0,0 40,-32 80,-32 40,0 24,48 -32,56 z m 0,0"
           id="path2601" />
      </g>
      <path
         style="fill:#f7ac4b"
         d="m 376,168 c 0,16 -72,88 -200,88 C 48,256 0,184 0,168 0,152 64,80 176,80 c 120,0 200,72 200,88 z m 0,0"
         id="path2605" />
      <path
         style="fill:#fcec97"
         d="m 91.199219,243.39844 c 14.234371,4.62109 28.859371,7.92969 43.695311,9.89062 15.32031,-26.23437 47.3711,-97.02343 0.80078,-170.050779 C 121.91406,85.503906 108.35937,89 95.199219,93.6875 c 14.855471,27.19141 30.554691,78.97656 -4,149.71094 z m 0,0"
         id="path2607" />
      <path
         style="fill:#fcec97"
         d="m 256.49609,245.67188 c -3.625,-48.70313 -5.60156,-110.96875 2.52735,-153.824224 -19.23828,-5.601562 -39,-9.238281 -58.97656,-10.847656 -4.36719,20.75 -7.0586,41.81641 -8.04688,63 0,40 24,40 24,64 -0.76953,15.61328 -3.19922,31.10156 -7.24609,46.19922 16.11328,-1.57031 32.07812,-4.42188 47.74218,-8.52734 z m 0,0"
         id="path2609" />
      <path
         style="fill:#fcec97"
         d="m 277.03906,239.47266 c 14.02735,-4.85547 27.6211,-10.87891 40.63282,-18.01563 12.64843,-33.3125 13.58984,-69.9375 2.66406,-103.85547 -12.21875,-6.91015 -24.9336,-12.90234 -38.03906,-17.929685 13.42187,27.921875 24.5664,75.945315 -5.25782,139.800785 z m 0,0"
         id="path2611" />
      <path
         style="fill:#ebb562"
         d="m 416,160 h 48 v 16 h -48 z m 0,0"
         id="path2613" />
      <path
         style="fill:#ebb562"
         d="m 277.12109,26.480469 c -10.48046,5.441406 -31.76171,16.878906 -48.72265,28.160156 l -8.79688,-13.28125 C 228.80078,35.199219 238.96094,29.199219 248.16016,24 c 9.71484,-0.207031 19.42187,0.625 28.96093,2.480469 z m 0,0"
         id="path2615" />
      <path
         style="fill:#394d5c"
         d="m 56,144 h 16 v 16 H 56 Z m 0,0"
         id="path2617" />
      <path
         style="fill:#87cee9"
         d="M 40,72 C 40,80.835938 32.835938,88 24,88 15.164062,88 8,80.835938 8,72 8,63.164062 15.164062,56 24,56 c 8.835938,0 16,7.164062 16,16 z m 0,0"
         id="path2619" />
      <path
         style="fill:#87cee9"
         d="M 96,24 C 96,37.253906 85.253906,48 72,48 58.746094,48 48,37.253906 48,24 48,10.746094 58.746094,0 72,0 85.253906,0 96,10.746094 96,24 Z m 0,0"
         id="path2621" />
    </g>
  </g>
</svg>
