<?xml version="1.0" encoding="UTF-8" standalone="no"?>
<svg
   xmlns:dc="http://purl.org/dc/elements/1.1/"
   xmlns:cc="http://creativecommons.org/ns#"
   xmlns:rdf="http://www.w3.org/1999/02/22-rdf-syntax-ns#"
   xmlns:svg="http://www.w3.org/2000/svg"
   xmlns="http://www.w3.org/2000/svg"
   id="svg8"
   version="1.1"
   viewBox="0 0 338.66666 190.5"
   height="720"
   width="1280">
  <defs
     id="defs2" />
  <metadata
     id="metadata5">
    <rdf:RDF>
      <cc:Work
         rdf:about="">
        <dc:format>image/svg+xml</dc:format>
        <dc:type
           rdf:resource="http://purl.org/dc/dcmitype/StillImage" />
        <dc:title></dc:title>
      </cc:Work>
    </rdf:RDF>
  </metadata>
  <g
     transform="translate(0,-106.49998)"
     id="layer1">
    <rect
       y="106.50325"
       x="0.0027687326"
       height="190.48596"
       width="338.66174"
       id="rect815"
       style="opacity:1;fill:#e0bddd;fill-opacity:1;fill-rule:nonzero;stroke:none;stroke-width:0.76434302;stroke-linecap:round;stroke-linejoin:round;stroke-miterlimit:4;stroke-dasharray:none;stroke-opacity:1;paint-order:normal" />
    <g
       transform="matrix(-0.12206418,0.24560123,-0.29647345,-0.11893149,271.94703,179.54243)"
       id="g1864">
      <path
         style="fill:#d33737"
         d="M 475.87109,234.80078 C 458.57422,181.125 418.61328,133.44531 364.8125,114.97656 346.49609,108.69141 331.27344,102.16797 314.97656,91.796875 298.73047,81.457031 287.41016,64.390625 275.14063,49.8125 258.23828,29.722656 243.35938,14.582031 217.63281,6.257812 200.19922,0.617188 181.52734,-0.976562 163.3125,0.546875 c -14.13672,1.183594 -28.19531,3.085937 -42.27344,4.792969 0.39844,-0.050782 0.78516,-0.078125 1.17969,-0.121094 -3.01172,0.324219 -6.08984,0.796875 -9.25391,1.46875 -32.097652,6.839844 -51.273434,24.351562 -60.062496,49.789062 -3.074219,8.886719 -4.875,18.738282 -5.519532,29.453126 -1.195312,19.851562 1.835938,39.843752 -1.429687,59.593752 -3.898437,23.55859 -12.640625,46 -21.503906,68.05469 -15.84375,39.42968 -27.140625,81.8125 -23.136719,124.11328 5.898438,62.3164 46.476562,119.32031 101.63281,148.92187 26.6836,14.32422 56.28516,20.90235 86.29297,23.25 18.09766,1.41797 36.25391,2.38281 54.41016,2.08203 22.69531,-0.3789 45.4414,-2.45703 67.6875,-7.05468 11.16797,-2.3086 22.21094,-5.25391 32.96875,-9.04688 18.96875,-6.6875 36.63672,-16.67969 52.88281,-28.47266 53.00781,-38.48046 86.24219,-92.27734 88.69531,-158.94921 0.91407,-24.85547 -2.38672,-49.9336 -10.01172,-73.6211 z m 0,0"
         id="path1811" />
      <path
         style="fill:#c42626"
         d="M 475.87109,234.80078 C 458.57813,181.125 418.61719,133.44922 364.80859,114.97656 346.5,108.68359 331.27344,102.16797 314.97656,91.800781 298.73047,81.460938 287.40625,64.394531 275.13672,49.816406 258.23828,29.726562 243.35938,14.578125 217.63672,6.253906 200.19141,0.613281 181.52734,-0.972656 163.3125,0.542969 c -2.625,0.222656 -5.24609,0.46875 -7.85937,0.730469 7.51171,1.015624 14.92187,2.652343 22.1289,4.980468 23.31641,7.53125 42.94141,23.648438 56.69141,43.347656 15.75781,22.574219 36.94531,41.355469 61.32422,54.160158 19.22265,10.10156 39.01953,18.78125 58.8164,27.66797 20.26172,9.09765 34.17578,22.39844 49.49219,37.89062 39.36328,39.8125 56.44141,99.02735 48.05469,153.98438 -8.59375,56.32812 -49.38281,111.07812 -94.82813,144.07031 -16.24609,11.79297 -33.91406,21.78516 -52.88281,28.47266 -10.75391,3.79297 -21.79297,6.73047 -32.96484,9.03906 -18.07813,3.73828 -36.48828,5.8125 -54.91797,6.66016 9.08984,0.38281 18.1875,0.54687 27.28515,0.39453 22.69141,-0.375 45.44141,-2.44922 67.6836,-7.05469 11.16406,-2.3086 22.21094,-5.2461 32.96875,-9.03906 18.96875,-6.6875 36.63672,-16.67969 52.88281,-28.47266 53.00391,-38.48828 86.24609,-92.28516 88.69531,-158.95312 0.91407,-24.85547 -2.38672,-49.9336 -10.01172,-73.6211 z m 0,0"
         id="path1813" />
      <path
         style="fill:#e57670"
         d="m 52.902344,56.476562 c -3.074219,8.886719 -4.875,18.738282 -5.519532,29.453126 -1.195312,19.851562 1.835938,39.843752 -1.429687,59.593752 -3.898437,23.55859 -12.640625,46 -21.503906,68.05469 -15.84375,39.42968 -27.140625,81.8125 -23.136719,124.11328 5.898438,62.3164 46.480469,119.32031 101.63281,148.92187 55.14844,29.60156 123.0586,32.40234 182.00782,11.35547 33.79296,-12.06641 65.33203,-33.00781 90.84375,-58.10937 32.97265,-32.44532 49.78515,-78.40235 51.46093,-124.13282 0.875,-23.96093 -2.30859,-48.14453 -9.66406,-70.98047 C 403.88672,202.19531 382.92969,172.26563 343.28906,150.01953 323.60547,138.97656 302.35938,131.03516 282.37891,120.57812 224.0625,90.054688 193.53516,-10.476562 112.96484,6.6875 80.867188,13.527344 61.691406,31.039062 52.902344,56.476562 Z m 0,0"
         id="path1815" />
      <path
         style="fill:#e05c56"
         d="m 427.25781,315.73047 c -1.67968,45.72656 -18.49218,91.6875 -51.46093,124.125 -25.50391,25.10937 -57.05079,46.04297 -90.83985,58.10937 -2.0625,0.73047 -4.13672,1.44141 -6.22265,2.125 24.46093,-12.16796 47.12109,-28.73046 66.34375,-47.64843 32.97656,-32.4375 49.79296,-78.39844 51.46875,-124.13282 0.875,-23.96093 -2.3086,-48.14453 -9.66797,-70.97656 -13.70313,-42.55469 -34.66407,-72.48437 -74.30078,-94.72656 -19.6836,-11.05078 -40.92969,-18.98828 -60.91407,-29.44141 C 193.34375,102.63672 162.81641,2.105469 82.25,19.265625 81.804688,19.359375 81.355469,19.460938 80.917969,19.570312 89.703125,13.726562 100.33594,9.375 112.96094,6.691406 193.53516,-10.476562 224.0625,90.050781 282.375,120.57813 c 19.98438,10.46093 41.23047,18.40234 60.91406,29.4414 39.63282,22.24219 60.59766,52.17188 74.30078,94.72266 7.35938,22.83203 10.54297,47.01953 9.66797,70.98828 z m 0,0"
         id="path1817" />
      <path
         style="fill:#ffc1b8"
         d="m 84.46875,92.5 c -0.898438,20.125 2.855469,42.39844 1.988281,57.12109 -2.050781,34.81641 -19.507812,63.21875 -30.671875,95.25782 -13.730468,39.41015 -23.578125,79.48047 -7.605468,119.39453 14.019531,35.01562 40.855468,64.79687 74.066402,82.62109 45.5625,24.45313 101.66016,26.76953 150.35938,9.37891 27.91797,-9.96875 53.97266,-27.26563 75.04687,-48.00391 28.03516,-27.58203 40.52735,-72.47265 38.23438,-111.13672 -1.78516,-30.08203 -11.28125,-60.38672 -29.40234,-84.6914 C 323.18359,167.77734 260.09375,161.14063 225.66797,119.28125 218.60938,110.69531 212.64844,101.28906 206.375,92.132812 194.4375,74.707031 181.34375,57.835938 161.55078,48.964844 140.63672,39.59375 117.91016,42.097656 100.92187,58.023438 91.269531,67.074219 85.066406,79.171875 84.46875,92.5 Z m 0,0"
         id="path1819" />
      <g
         style="fill:#d33737"
         id="g1835">
        <path
           d="m 241.48828,134.85156 c -13.27734,7.55469 -28.82812,11.25391 -42.63281,5.53907 -20.57422,-8.50391 -33.37891,-26.15235 -56.58984,-28.44532 -9.33594,-0.92578 -18.8711,-0.91797 -27.83985,-3.66015 C 101.01562,104.1875 95.984375,94.070312 89.460938,82.8125 88.65625,81.421875 87.914062,79.996094 87.242188,78.542969 90.027344,70.777344 94.777344,63.78125 100.92578,58.019531 c 16.98828,-15.921875 39.70703,-18.433593 60.62891,-9.058593 19.79297,8.875 32.88672,25.75 44.82031,43.171874 6.27344,9.148438 12.23047,18.562498 19.29688,27.144528 4.76562,5.80469 10.09375,10.92969 15.8164,15.57422 z m 0,0"
           id="path1821" />
        <path
           d="m 105.46484,192.63672 c -2.0664,10.12891 -5.816402,19.64062 -12.730465,28.91016 -5.546875,7.4375 -12.597656,18.47656 -13.75,27.93359 -1.355469,11.11328 9.484375,16.80078 19.210937,18.73828 7.554688,1.50391 15.300778,1.125 22.855468,2.41406 12.07813,2.0586 24.36328,8.51563 35.31641,13.69141 13.25,6.26172 28.04297,8.80859 42.61719,6.97266 12.77343,-1.60547 30.8164,-5.99219 38.02734,-17.76172 19.80859,-32.32032 -14.48438,-49.10157 -32.33203,-68.82422 -12.61328,-13.9375 -16.85938,-33.67188 -30.51563,-47.06641 -13.17968,-12.92969 -39.09375,-30.03515 -57.42969,-17.0625 -8.3125,5.88672 -8.48437,16.14453 -8.73828,25.4336 -0.2539,9.43359 -0.8164,18.23828 -2.53125,26.62109 z m 0,0"
           id="path1823" />
        <path
           d="m 185.58984,367.34766 c 30.94141,0.35156 61.61719,-7.21094 91.21875,-15.82032 13.67969,-3.98047 28.35938,-8.83593 36.48047,-20.54296 10.03906,-14.46485 5.69922,-40.01172 -11.22656,-48.01172 -19.3125,-9.12891 -40.67188,11.54687 -56.58203,19.29687 -17.08594,8.32031 -34.66016,13.02344 -53.82422,10.9375 -8.69531,-0.94531 -18.70703,0.125 -24.92578,7.1211 -7.4336,8.37109 -9.39844,25.58593 -5.79297,35.875 3.14062,8.95312 14.03125,11.02734 24.65234,11.14453 z m 0,0"
           id="path1825" />
        <path
           d="m 205.20703,467.57813 c -28.86328,-0.28516 -57.54687,-7.04688 -82.96484,-20.6875 -33.21094,-17.82032 -60.046878,-47.59375 -74.05469,-82.61719 -4.859375,-12.11719 -7.332031,-24.26563 -8.03125,-36.39063 1.28125,-15.75781 8.4375,-30.30468 24.082031,-36.20312 6.789063,-2.5625 14.414063,-3.89063 21.96875,-3.75781 15.624999,0.28125 30.964839,6.85937 38.109379,21.91406 8.4375,17.76953 -2.88672,37.30078 1.61718,55.49609 4.3711,17.60547 20.57422,22.54688 36.57813,24.80469 21.33594,3.01953 44.60547,0.36719 51.29297,25.36328 4.54687,16.93359 0.35937,36.91016 -8.59766,52.07813 z m 0,0"
           id="path1827" />
        <path
           d="m 363.19531,388.92578 c -0.74218,0.53906 -1.50781,1.05469 -2.29687,1.53516 -11.65235,7.08594 -36.59766,4.9414 -37.69531,-12.25 -0.6211,-9.62891 10.28515,-19.0625 13.89453,-27.33594 11.10156,-25.4375 11.88672,-55.44531 1.42578,-81.21484 -6.08203,-14.98438 -36.28516,-74.24219 1.91797,-74.26953 h 0.0938 c 5.8164,5.05078 11.17968,10.66406 15.94922,17.04687 18.125,24.30469 27.62109,54.60938 29.41015,84.69922 1.8086,30.58203 -5.63281,65.0625 -22.69922,91.78906 z m 0,0"
           id="path1829" />
        <path
           d="m 280.23828,377.46094 c -6.35937,0.37109 -12.55469,1.82031 -16.76172,3.53125 -13.44922,5.46875 -21.41015,18.71875 -21.9375,32.96875 -0.59765,16.14844 4.01172,25.83203 21.27344,21.44922 10.32422,-2.61719 22.44922,-8.42578 30.01953,-16.125 7.82031,-7.94922 17.01172,-21.14063 11.52344,-32.55078 -3.76172,-7.8086 -14.14063,-9.86329 -24.11719,-9.27344 z m 0,0"
           id="path1831" />
        <path
           d="m 278.9375,188.90234 c 5.91797,4.90625 11.57031,10.1836 16.45703,16.58204 8.41406,11.01171 12.39453,35.02343 2.07422,46.03125 -7.49609,7.99609 -23.12109,7.98046 -27.14844,-3.34766 -3.23047,-9.08203 -1.73437,-16.42188 -7.49218,-24.81641 -4.95313,-7.21875 -11.78125,-12.92578 -17.92969,-19.07031 -8.14844,-8.14453 -31.39453,-29.99219 -9.95313,-39.33984 8.58985,-3.7461 16.78516,1.77734 23.23438,7.32422 6.76562,5.82421 13.9375,10.98437 20.75781,16.63671 z m 0,0"
           id="path1833" />
      </g>
      <path
         style="fill:#ffc1b8"
         d="m 204.12109,298.35547 c 0,27.66406 -22.42578,50.08984 -50.08593,50.08984 -27.66407,0 -50.08985,-22.42578 -50.08985,-50.08984 0,-27.66406 22.42578,-50.08984 50.08985,-50.08984 27.66015,0 50.08593,22.42578 50.08593,50.08984 z m 0,0"
         id="path1837" />
      <path
         style="fill:#ffb3a8"
         d="m 204.11719,298.35938 c 0,27.66015 -22.42578,50.08593 -50.08594,50.08593 -12.28906,0 -23.55469,-4.43359 -32.26563,-11.78125 3.69922,0.8711 7.56251,1.33203 11.53907,1.33203 27.66015,0 50.08594,-22.42578 50.08594,-50.08984 0,-15.35937 -6.91407,-29.11328 -17.8086,-38.29297 22.09766,5.21485 38.53516,25.0586 38.53516,48.7461 z m 0,0"
         id="path1839" />
    </g>
  </g>
</svg>
