<?xml version="1.0" encoding="UTF-8" standalone="no"?>
<!-- Created with Inkscape (http://www.inkscape.org/) -->

<svg
   xmlns:dc="http://purl.org/dc/elements/1.1/"
   xmlns:cc="http://creativecommons.org/ns#"
   xmlns:rdf="http://www.w3.org/1999/02/22-rdf-syntax-ns#"
   xmlns:svg="http://www.w3.org/2000/svg"
   xmlns="http://www.w3.org/2000/svg"
   xmlns:sodipodi="http://sodipodi.sourceforge.net/DTD/sodipodi-0.dtd"
   xmlns:inkscape="http://www.inkscape.org/namespaces/inkscape"
   width="1280"
   height="720"
   viewBox="0 0 338.66666 190.5"
   version="1.1"
   id="svg8"
   inkscape:version="0.92.4 (5da689c313, 2019-01-14)"
   sodipodi:docname="two.svg">
  <defs
     id="defs2" />
  <sodipodi:namedview
     id="base"
     pagecolor="#ffffff"
     bordercolor="#666666"
     borderopacity="1.0"
     inkscape:pageopacity="0.0"
     inkscape:pageshadow="2"
     inkscape:zoom="0.5"
     inkscape:cx="711.31855"
     inkscape:cy="508.73028"
     inkscape:document-units="mm"
     inkscape:current-layer="layer1"
     showgrid="false"
     units="px"
     inkscape:window-width="1366"
     inkscape:window-height="745"
     inkscape:window-x="-8"
     inkscape:window-y="-8"
     inkscape:window-maximized="1" />
  <metadata
     id="metadata5">
    <rdf:RDF>
      <cc:Work
         rdf:about="">
        <dc:format>image/svg+xml</dc:format>
        <dc:type
           rdf:resource="http://purl.org/dc/dcmitype/StillImage" />
        <dc:title></dc:title>
      </cc:Work>
    </rdf:RDF>
  </metadata>
  <g
     inkscape:label="Layer 1"
     inkscape:groupmode="layer"
     id="layer1"
     transform="translate(0,-106.49998)">
    <rect
       style="opacity:1;fill:#e0bddd;fill-opacity:1;fill-rule:nonzero;stroke:none;stroke-width:0.76434302;stroke-linecap:round;stroke-linejoin:round;stroke-miterlimit:4;stroke-dasharray:none;stroke-opacity:1;paint-order:normal"
       id="rect815"
       width="338.66174"
       height="190.48596"
       x="0.0027687326"
       y="106.50325" />
    <g
       id="g1600"
       transform="matrix(1.8571676,0,0,1.7252417,41.74382,95.56871)">
      <path
         id="path1557"
         d="m 81.1,62.657 a 23.035,23.035 0 1 1 -46.069,0 c 0,-12.722 10.313,-35.292 23.035,-35.292 12.722,0 23.034,22.57 23.034,35.292 z"
         inkscape:connector-curvature="0"
         style="fill:#ffd4ba" />
      <path
         id="path1559"
         d="M 81.1,62.657 C 81.1,49.935 70.787,27.365 58.065,27.365 V 85.691 A 23.035,23.035 0 0 0 81.1,62.657 Z"
         inkscape:connector-curvature="0"
         style="fill:#ffb698" />
      <path
         id="path1561"
         d="m 116,57.24 a 23.035,23.035 0 0 1 -46.07,0 c 0,-12.12 9.36,-33.18 21.26,-35.14 a 10.518,10.518 0 0 1 1.78,-0.15 10.053,10.053 0 0 1 1.74,0.15 C 106.62,24.01 116,45.11 116,57.24 Z"
         inkscape:connector-curvature="0"
         style="fill:#ffd4ba" />
      <path
         id="path1563"
         d="M 116,57.238 C 116,44.516 105.687,21.946 92.965,21.946 V 80.272 A 23.035,23.035 0 0 0 116,57.238 Z"
         inkscape:connector-curvature="0"
         style="fill:#ffb698" />
      <path
         id="path1565"
         d="m 58.069,70.158 a 23.035,23.035 0 1 1 -46.069,0 c 0,-12.722 10.313,-35.292 23.035,-35.292 12.722,0 23.034,22.571 23.034,35.292 z"
         inkscape:connector-curvature="0"
         style="fill:#ffd4ba" />
      <path
         id="path1567"
         d="M 58.069,70.158 C 58.069,57.436 47.756,34.866 35.034,34.866 V 93.193 A 23.035,23.035 0 0 0 58.069,70.158 Z"
         inkscape:connector-curvature="0"
         style="fill:#ffb698" />
      <path
         id="path1569"
         d="m 95.713,83.019 a 23.035,23.035 0 0 1 -46.069,0 c 0,-12.722 10.313,-35.292 23.035,-35.292 12.722,0 23.034,22.573 23.034,35.292 z"
         inkscape:connector-curvature="0"
         style="fill:#e7ffff" />
      <path
         id="path1571"
         d="m 100.65,39.47 v 9.51 a 1.75,1.75 0 1 1 -3.5,0 v -8.82 l -1.81,-1.92 -5.91,5.57 a 1.782,1.782 0 0 1 -1.2,0.47 1.721,1.721 0 0 1 -1.27,-0.55 1.751,1.751 0 0 1 0.07,-2.47 l 5.91,-5.56 -2.28,-2.43 a 1.751,1.751 0 0 1 -0.47,-1.38 l 1,-9.79 a 10.518,10.518 0 0 1 1.78,-0.15 10.053,10.053 0 0 1 1.74,0.15 v 0.02 l -0.96,9.33 6.43,6.82 a 1.756,1.756 0 0 1 0.47,1.2 z"
         inkscape:connector-curvature="0"
         style="fill:#e7ffff" />
      <circle
         id="circle1573"
         r="10.768"
         cy="82.994003"
         cx="72.678001"
         style="fill:#fed943" />
      <path
         id="path1575"
         d="m 28.4,45.928 a 1.751,1.751 0 0 0 -2.474,0.056 34.029,34.029 0 0 0 -6.6,10.847 1.75,1.75 0 1 0 3.257,1.281 30.5,30.5 0 0 1 5.877,-9.71 1.75,1.75 0 0 0 -0.06,-2.474 z"
         inkscape:connector-curvature="0"
         style="fill:#e7ffff" />
      <path
         id="path1577"
         d="M 95.713,83.019 C 95.713,70.297 85.4,47.727 72.678,47.727 v 58.326 A 23.035,23.035 0 0 0 95.713,83.019 Z"
         inkscape:connector-curvature="0"
         style="fill:#cce8f7" />
      <path
         id="path1579"
         d="M 83.446,82.994 A 10.768,10.768 0 0 0 72.678,72.226 V 93.762 A 10.768,10.768 0 0 0 83.446,82.994 Z"
         inkscape:connector-curvature="0"
         style="fill:#fbbe2c" />
    </g>
  </g>
</svg>
