<?xml version="1.0" encoding="UTF-8" standalone="no"?>
<svg
   xmlns:dc="http://purl.org/dc/elements/1.1/"
   xmlns:cc="http://creativecommons.org/ns#"
   xmlns:rdf="http://www.w3.org/1999/02/22-rdf-syntax-ns#"
   xmlns:svg="http://www.w3.org/2000/svg"
   xmlns="http://www.w3.org/2000/svg"
   xmlns:xlink="http://www.w3.org/1999/xlink"
   id="svg956"
   version="1.1"
   viewBox="0 0 338.66666 190.50001"
   height="720"
   width="1280">
  <defs
     id="defs950">
    <linearGradient
       id="linearGradient2692">
      <stop
         id="stop2688"
         offset="0"
         style="stop-color:#65a4d9;stop-opacity:1;" />
      <stop
         id="stop2690"
         offset="1"
         style="stop-color:#65a4d9;stop-opacity:0;" />
    </linearGradient>
    <linearGradient
       y2="393.84613"
       x2="1096.9231"
       y1="149.23077"
       x1="781.53845"
       gradientUnits="userSpaceOnUse"
       id="linearGradient2704"
       xlink:href="#linearGradient2692" />
  </defs>
  <metadata
     id="metadata953">
    <rdf:RDF>
      <cc:Work
         rdf:about="">
        <dc:format>image/svg+xml</dc:format>
        <dc:type
           rdf:resource="http://purl.org/dc/dcmitype/StillImage" />
        <dc:title></dc:title>
      </cc:Work>
    </rdf:RDF>
  </metadata>
  <g
     transform="translate(-0.76448416,-106.49998)"
     style="display:inline;fill:#db521a;fill-opacity:1"
     id="layer1">
    <rect
       ry="17.279589"
       rx="0"
       y="106.52"
       x="0.0010536164"
       height="190.47913"
       width="338.66473"
       id="rect1501"
       style="opacity:1;fill:#db521a;fill-opacity:1;stroke:none;stroke-width:0.06496903;stroke-linecap:round;stroke-linejoin:round;stroke-miterlimit:4;stroke-dasharray:none;stroke-opacity:1;paint-order:stroke markers fill" />
    <rect
       y="234.06694"
       x="33.072918"
       height="8.1264877"
       width="70.870537"
       id="rect2622"
       style="opacity:1;fill:#db521a;fill-opacity:1;stroke:none;stroke-width:0.065;stroke-linecap:round;stroke-linejoin:round;stroke-miterlimit:4;stroke-dasharray:none;stroke-opacity:1;paint-order:stroke markers fill" />
  </g>
  <g
     transform="matrix(0.3184469,0,0,0.34468377,21.683771,14.207585)"
     id="g2115">
	<g
   id="g2063">
		<path
   style="fill:#ffdaaa"
   d="M 372.333,124.164 V 258.49 c -28.529,28.529 -44.525,44.525 -73.054,73.054 H 212.721 C 184.192,303.015 168.196,287.019 139.667,258.49 V 124.164 C 139.667,59.915 191.751,7.831 256,7.831 c 64.214,0 116.333,52.05 116.333,116.333 z"
   id="path2051" />

		<path
   style="fill:#626169"
   d="M 370.052,101.125 C 354.037,21.412 263.106,-17.071 194.855,25.178 V 57.15 c 0,24.287 19.688,43.975 43.975,43.975 z"
   id="path2053" />

		<path
   style="fill:#626169"
   d="m 140.822,107.711 c 29.117,2.311 54.033,-20.63 54.033,-49.86 V 25.178 c -28.699,17.765 -49.097,47.663 -54.033,82.533 z"
   id="path2055" />

		<path
   style="fill:#ffdaaa"
   d="M 504.5,378.319 478.637,352.456 H 334.653 V 296.46 c -10.311,10.31 -20.889,20.888 -34.061,34.06 H 211.41 l -34.061,-34.061 v 55.997 H 33.364 C 11.487,374.333 29.376,356.444 7.5,378.32 V 504.505 H 504 Z"
   id="path2057" />

		<g
   id="g2061">
			<path
   style="fill:#ff8a1c;fill-opacity:1"
   d="M 478.636,352.456 H 334.653 c 0,0 -42.511,43.776 -78.653,43.776 -36.141,0 -78.652,-43.776 -78.652,-43.776 H 33.364 C 11.487,374.333 29.376,356.444 7.5,378.32 V 504.505 H 504 l 0.5,-126.186 z"
   id="path2059" />

		</g>

	</g>

	<g
   id="g2085">
		<path
   style="fill:#ffb680"
   d="M 169.667,258.49 V 124.164 C 169.667,64.998 213.837,16.15 271,8.791 200.923,-0.232 139.667,54.363 139.667,124.164 V 258.49 c 28.529,28.529 44.525,44.525 73.054,73.054 h 30 c -28.529,-28.53 -44.525,-44.525 -73.054,-73.054 z"
   id="path2065" />

		<path
   style="fill:#4d4c50"
   d="M 224.855,57.15 V 25.178 C 238.608,16.665 254.271,10.954 271.049,8.801 244.948,5.429 218.055,10.818 194.855,25.178 V 57.15 c 0,24.287 19.688,43.975 43.975,43.975 h 30 c -24.286,0 -43.975,-19.688 -43.975,-43.975 z"
   id="path2067" />

		<path
   style="fill:#4d4c50"
   d="M 194.855,51.877 V 25.178 c -28.699,17.765 -49.097,47.663 -54.033,82.533 11.14,0.883 22.123,-1.915 31.44,-8.037 3.81,-17.779 11.677,-34.051 22.593,-47.797 z"
   id="path2069" />

		<g
   id="g2077">
			<g
   id="g2075">
				<path
   style="fill:#ffb680"
   d="M 334.653,326.459 V 296.46 c -10.311,10.31 -20.889,20.888 -34.061,34.061 h 30 c 1.383,-1.384 2.732,-2.733 4.061,-4.062 z"
   id="path2071" />

				<polygon
   style="fill:#ffb680"
   points="177.348,296.459 177.348,352.456 207.348,352.456 207.348,326.459 "
   id="polygon2073" />

			</g>

		</g>

		<g
   id="g2083">
			<path
   style="fill:#e24543;fill-opacity:1"
   d="m 286,396.232 c 36.142,0 78.653,-43.776 78.653,-43.776 h -30 c 0,0 -31.719,32.658 -63.653,41.556 5.036,1.403 10.077,2.22 15,2.22 z"
   id="path2079" />

			<path
   style="fill:#f75b43;fill-opacity:1"
   d="m 63.364,352.456 h -30 C 11.487,374.333 29.376,356.444 7.5,378.32 v 126.185 h 30 V 378.32 c 21.877,-21.876 3.987,-3.987 25.864,-25.864 z"
   id="path2081" />

		</g>

	</g>

	<g
   id="g2109">
		<path
   d="M 481.746,344.792 H 419.86 v 15 h 55.673 l 21.454,21.454 -0.458,115.596 h -61.69 v -64.774 h -15 v 64.774 H 92.161 v -64.774 h -15 v 64.774 H 15 V 381.26 l 21.468,-21.468 h 137.797 c 20.432,19.777 53.215,43.78 81.735,43.78 34.296,0 72.078,-34.4 81.741,-43.78 h 60.499 v -15 h -56.09 v -45.676 l 37.683,-37.683 V 124.001 c 0,-66.987 -53.684,-122.395 -121.32,-123.805 -33.55,-0.676 -65.335,12.144 -88.992,35.252 -15.933,14.278 -26.153,30.806 -31.496,50.886 -3.803,11.883 -5.858,24.539 -5.858,37.667 v 137.432 l 37.683,37.683 v 45.676 H 30.252 L 0,375.045 v 136.797 h 511.471 l 0.542,-136.784 z M 187.355,57.688 c 0,24.567 -23.008,35.588 -36.527,39.936 3.78,-19.853 17.654,-43.221 36.527,-57.438 z m 15,-27.417 c 64.455,-37.057 138.28,-1.76 157.142,63.191 H 238.831 c -20.112,0 -36.475,-16.363 -36.475,-36.475 V 30.271 Z m -54.727,83.768 c 17.885,-4.098 37.308,-14.154 47.352,-30.122 9.07,14.715 25.333,24.545 43.851,24.545 h 124.888 c 1.532,10.67 1.114,4.727 1.114,146.758 l -67.632,67.632 H 214.799 L 147.167,255.22 c 0,-142.252 -0.196,-133.98 0.461,-141.181 z m 61.987,224.842 h 92.771 l 1.028,-1.028 c 0.435,0 -1.545,1.827 23.736,-23.454 v 34.759 c -17.16,16.545 -47.305,39.415 -71.15,39.415 -23.853,0 -53.949,-22.848 -71.15,-39.417 V 314.4 c 25.209,25.209 23.312,23.454 23.736,23.454 z"
   id="path2087" />

		<rect
   x="161.5"
   y="192.009"
   width="15"
   height="15"
   id="rect2089" />

		<rect
   x="213.77"
   y="192.009"
   width="15"
   height="15"
   id="rect2091" />

		<rect
   x="161.5"
   y="234.198"
   width="15"
   height="15"
   id="rect2093" />

		<rect
   x="213.77"
   y="234.198"
   width="15"
   height="15"
   id="rect2095" />

		<rect
   x="187.63499"
   y="213.103"
   width="15"
   height="15"
   id="rect2097" />

		<rect
   x="284.23001"
   y="192.009"
   width="15"
   height="15"
   id="rect2099" />

		<rect
   x="336.5"
   y="192.009"
   width="15"
   height="15"
   id="rect2101" />

		<rect
   x="284.23001"
   y="234.198"
   width="15"
   height="15"
   id="rect2103" />

		<rect
   x="336.5"
   y="234.198"
   width="15"
   height="15"
   id="rect2105" />

		<rect
   x="310.36499"
   y="213.103"
   width="15"
   height="15"
   id="rect2107" />

	</g>

	<g
   id="g2113">
		<path
   style="fill:#ffffff"
   d="m 274.566,470.966 h -15 v -15 h 15 z m -25,0 h -15 v -15 h 15 z"
   id="path2111" />

	</g>

</g>
  <text
     id="text2181"
     y="72.771973"
     x="320.59579"
     style="font-style:normal;font-variant:normal;font-weight:bold;font-stretch:normal;font-size:16.93333435px;line-height:1.25;font-family:Arial;-inkscape-font-specification:'Arial, Bold';font-variant-ligatures:normal;font-variant-caps:normal;font-variant-numeric:normal;font-feature-settings:normal;text-align:center;letter-spacing:0px;word-spacing:0px;writing-mode:lr-tb;text-anchor:middle;fill:#ff9600;fill-opacity:1;stroke:none;stroke-width:0.26458335;"
     xml:space="preserve"><tspan
       style="text-align:center;text-anchor:middle;stroke-width:0.26458335;fill:#ff9600;fill-opacity:1;"
       id="tspan2167"
       y="72.771973"
       x="265.06635"><tspan
         style="text-align:center;text-anchor:middle;stroke-width:0.26458335;fill:#ff9600;fill-opacity:1;"
         id="tspan2165"
         y="72.771973"
         x="262.71817">10 HIDDEN </tspan></tspan><tspan
       style="text-align:center;text-anchor:middle;stroke-width:0.26458335;fill:#ff9600;fill-opacity:1;"
       id="tspan2171"
       y="93.938637"
       x="265.06635"><tspan
         style="text-align:center;text-anchor:middle;stroke-width:0.26458335;fill:#ff9600;fill-opacity:1;"
         id="tspan2169"
         y="93.938637"
         x="262.71817">REASON YOU </tspan></tspan><tspan
       style="text-align:center;text-anchor:middle;stroke-width:0.26458335;fill:#ff9600;fill-opacity:1;"
       id="tspan2175"
       y="115.10532"
       x="265.06635"><tspan
         style="text-align:center;text-anchor:middle;stroke-width:0.26458335;fill:#ff9600;fill-opacity:1;"
         id="tspan2173"
         y="115.10532"
         x="262.71817">ARE GETTING </tspan></tspan><tspan
       style="text-align:center;text-anchor:middle;stroke-width:0.26458335;fill:#ff9600;fill-opacity:1;"
       id="tspan2179"
       y="136.27197"
       x="262.71817"><tspan
         style="text-align:center;text-anchor:middle;stroke-width:0.26458335;fill:#ff9600;fill-opacity:1;"
         id="tspan2177"
         y="136.27197"
         x="262.71817">ACNE</tspan></tspan></text>
</svg>
