<?xml version="1.0" encoding="UTF-8" standalone="no"?>
<svg
   xmlns:dc="http://purl.org/dc/elements/1.1/"
   xmlns:cc="http://creativecommons.org/ns#"
   xmlns:rdf="http://www.w3.org/1999/02/22-rdf-syntax-ns#"
   xmlns:svg="http://www.w3.org/2000/svg"
   xmlns="http://www.w3.org/2000/svg"
   xmlns:xlink="http://www.w3.org/1999/xlink"
   id="svg956"
   version="1.1"
   viewBox="0 0 338.66666 291.04168"
   height="1100"
   width="1280">
  <defs
     id="defs950">
    <linearGradient
       id="linearGradient2692">
      <stop
         id="stop2688"
         offset="0"
         style="stop-color:#65a4d9;stop-opacity:1;" />
      <stop
         id="stop2690"
         offset="1"
         style="stop-color:#65a4d9;stop-opacity:0;" />
    </linearGradient>
    <linearGradient
       y2="393.84613"
       x2="1096.9231"
       y1="149.23077"
       x1="781.53845"
       gradientUnits="userSpaceOnUse"
       id="linearGradient2704"
       xlink:href="#linearGradient2692" />
  </defs>
  <metadata
     id="metadata953">
    <rdf:RDF>
      <cc:Work
         rdf:about="">
        <dc:format>image/svg+xml</dc:format>
        <dc:type
           rdf:resource="http://purl.org/dc/dcmitype/StillImage" />
        <dc:title></dc:title>
      </cc:Work>
    </rdf:RDF>
  </metadata>
  <g
     transform="matrix(1,0,0,1.4000703,0.90742784,-145.43361)"
     style="display:inline;opacity:1"
     id="layer1">
    <rect
       ry="0"
       rx="0"
       y="99.110474"
       x="-11.58447"
       height="219.58447"
       width="358.18762"
       id="rect1501"
       style="opacity:1;fill:#65a4d9;fill-opacity:1;stroke:none;stroke-width:0.0689382;stroke-linecap:round;stroke-linejoin:round;stroke-miterlimit:4;stroke-dasharray:none;stroke-opacity:1;paint-order:stroke markers fill" />
    <rect
       y="234.06694"
       x="33.072918"
       height="8.1264877"
       width="70.870537"
       id="rect2622"
       style="opacity:1;fill:#65a4d9;fill-opacity:1;stroke:none;stroke-width:0.065;stroke-linecap:round;stroke-linejoin:round;stroke-miterlimit:4;stroke-dasharray:none;stroke-opacity:1;paint-order:stroke markers fill" />
  </g>
  <g
     transform="translate(-15.33968,44.251406)"
     style="display:inline"
     id="layer9">
    <path
       id="path2627-0"
       d="m 68.247201,139.32652 86.200869,-0.7807"
       style="display:inline;fill:none;stroke:#65a473;stroke-width:4.32974911;stroke-linecap:round;stroke-linejoin:miter;stroke-miterlimit:4;stroke-dasharray:none;stroke-opacity:1" />
    <path
       id="path2629-3"
       d="m 85.359682,140.00955 0.127581,32.00755"
       style="display:inline;fill:none;stroke:#65a473;stroke-width:3.50278497;stroke-linecap:round;stroke-linejoin:miter;stroke-miterlimit:4;stroke-dasharray:none;stroke-opacity:1" />
    <path
       style="display:inline;fill:none;stroke:#65a473;stroke-width:3.50278497;stroke-linecap:round;stroke-linejoin:miter;stroke-miterlimit:4;stroke-dasharray:none;stroke-opacity:1"
       d="m 141.03905,138.741 0.12758,32.00752"
       id="path2631-4" />
  </g>
  <g
     transform="translate(-15.33968,44.251406)"
     style="display:inline"
     id="layer7">
    <g
       transform="matrix(0.86337487,0,0,0.76843144,19.881883,-4.0838596)"
       id="g2620">
      <g
         id="layer6">
        <path
           style="fill:none;stroke:#000000;stroke-width:4.60422993;stroke-linecap:round;stroke-linejoin:miter;stroke-miterlimit:4;stroke-dasharray:none;stroke-opacity:1"
           d="m 66.768157,139.81035 c -9.835465,5.31762 -13.018608,19.64248 -6.93306,15.01472"
           id="path878" />
        <path
           id="path880"
           d="m 139.53994,141.79213 c 9.68927,12.94143 13.24647,16.44839 5.85405,10.01423"
           style="fill:none;stroke:#000000;stroke-width:4.60422993;stroke-linecap:round;stroke-linejoin:miter;stroke-miterlimit:4;stroke-dasharray:none;stroke-opacity:1" />
        <path
           style="fill:none;stroke:#000000;stroke-width:5.86499977;stroke-linecap:round;stroke-linejoin:miter;stroke-miterlimit:4;stroke-dasharray:none;stroke-opacity:1"
           d="m 82.131923,185.30806 c 18.225597,4.46881 -11.32312,46.96621 -0.374176,45.46254"
           id="path882" />
        <path
           id="path884"
           d="m 116.18207,184.93389 c 15.33914,6.3074 -11.89267,48.05733 -0.37418,45.46254"
           style="fill:none;stroke:#000000;stroke-width:5.86499977;stroke-linecap:round;stroke-linejoin:miter;stroke-miterlimit:4;stroke-dasharray:none;stroke-opacity:1" />
      </g>
      <g
         id="layer4"
         style="display:inline">
        <rect
           style="opacity:1;fill:#fe7b6a;fill-opacity:1;stroke:none;stroke-width:0.07566334;stroke-linecap:round;stroke-linejoin:round;stroke-miterlimit:4;stroke-dasharray:none;stroke-opacity:1;paint-order:normal"
           id="rect2154"
           width="75.683777"
           height="49.587734"
           x="64.645958"
           y="136.27773"
           ry="2.5358722" />
        <path
           style="fill:#f0624e;fill-opacity:1;stroke:#f0624e;stroke-width:0.32813942;stroke-linecap:butt;stroke-linejoin:miter;stroke-miterlimit:4;stroke-dasharray:none;stroke-opacity:1"
           d="m 64.791873,156.17051 75.391307,-0.72834 5e-5,18.15658 -75.391309,0.11601 z"
           id="path2156" />
      </g>
      <g
         id="layer1-6">
        <g
           transform="translate(4.1038546,-103.99778)"
           id="layer1-4"
           style="fill:#a3e0c0;fill-opacity:1">
          <rect
             rx="49.514881"
             ry="50.081848"
             y="146.18748"
             x="33.261906"
             height="100.1637"
             width="132.66963"
             id="rect815"
             style="opacity:1;fill:#a3e0c0;fill-opacity:1;stroke:none;stroke-width:3.00399995;stroke-linecap:round;stroke-linejoin:round;stroke-miterlimit:4;stroke-dasharray:none;stroke-opacity:1;paint-order:normal" />
        </g>
        <path
           style="fill:#86d0ab;fill-opacity:1;fill-rule:evenodd;stroke-width:0.26458332"
           id="path2023"
           d="M 79.913584,104.69958 A 10.022608,10.557146 0 0 1 69.891632,115.25672 10.022608,10.557146 0 0 1 59.868368,104.70096 10.022608,10.557146 0 0 1 69.889008,94.142431 10.022608,10.557146 0 0 1 79.913583,104.69681 l -10.022607,0.003 z" />
        <path
           style="fill:#86d0ab;fill-opacity:1;fill-rule:evenodd;stroke-width:0.26458332"
           id="path2025"
           d="m 161.16352,101.75961 a 10.423512,11.358955 0 0 1 -10.42283,11.35896 10.423512,11.358955 0 0 1 -10.4242,-11.35747 10.423512,11.358955 0 0 1 10.42147,-11.360442 10.423512,11.358955 0 0 1 10.42556,11.355982 l -10.42351,0.003 z" />
        <path
           style="fill:#95d8af;fill-opacity:1;stroke:#95d8af;stroke-width:0.26458332px;stroke-linecap:butt;stroke-linejoin:miter;stroke-opacity:1"
           d="M 135.46234,139.90161 C 103.83913,141.25495 74.025655,141.06533 71.045524,115.05813 55.376425,115 57.726273,95.128724 69.412294,93.82613 65.298145,53.389322 79.393102,48.961318 88.864323,42.672194 59.562019,39.595249 37.185723,67.453189 37.809284,89.960016 c -1.76528,33.488194 25.446872,52.047174 47.118697,52.046414 23.662139,0.75924 42.395969,0.886 50.534359,-2.10482 z"
           id="path2029" />
        <path
           style="fill:#77c79f;fill-opacity:1;stroke:none;stroke-width:0.114;stroke-linecap:butt;stroke-linejoin:miter;stroke-miterlimit:4;stroke-dasharray:none;stroke-opacity:1"
           d="M 42.918268,69.134595 29.167873,57.475574 c -4.06867,-3.600109 1.797433,-10.284612 5.762783,-6.888703 l 13.041932,10.732934 c -2.588087,3.245779 -3.523411,5.121467 -5.05432,7.81479 z"
           id="path2031" />
        <path
           style="fill:#77c79f;fill-opacity:1;stroke:none;stroke-width:0.075;stroke-linecap:butt;stroke-linejoin:miter;stroke-miterlimit:4;stroke-dasharray:none;stroke-opacity:1"
           d="M 49.850716,58.986426 29.938228,41.293354 C 26.241189,38.140029 32.50453,32.234957 35.8028,34.8462 l 20.059955,18.236876 c -1.122746,1.030173 -4.87864,4.541005 -6.012039,5.90335 z"
           id="path2033" />
        <path
           id="path2044"
           d="M 58.093776,51.342742 44.461795,39.800021 c -4.06867,-3.600109 1.797433,-10.284612 5.762783,-6.888703 l 15.195652,13.90722 c -1.85391,0.869755 -5.856491,3.288176 -7.326454,4.524204 z"
           style="fill:#77c79f;fill-opacity:1;stroke:none;stroke-width:0.114;stroke-linecap:butt;stroke-linejoin:miter;stroke-miterlimit:4;stroke-dasharray:none;stroke-opacity:1" />
      </g>
      <g
         id="layer2"
         style="display:inline">
        <path
           d="M 108.76829,82.887405 A 13.607142,12.851191 0 0 1 95.162039,95.738596 13.607142,12.851191 0 0 1 81.554006,82.889088 13.607142,12.851191 0 0 1 95.158476,70.036215 13.607142,12.851191 0 0 1 108.76829,82.884041 l -13.607142,0.0034 z"
           id="path847"
           style="fill:#ffffff;fill-opacity:1;fill-rule:evenodd;stroke-width:0.26458332" />
        <path
           style="fill:#ffffff;fill-opacity:1;fill-rule:evenodd;stroke-width:0.26458332;paint-order:fill markers stroke"
           id="path2091"
           d="M 133.94442,83.118378 A 13.607142,12.851191 0 0 1 120.33816,95.969568 13.607142,12.851191 0 0 1 106.73013,83.12006 13.607142,12.851191 0 0 1 120.3346,70.267187 13.607142,12.851191 0 0 1 133.94441,83.115013 l -13.60714,0.0034 z" />
        <path
           style="fill:#000000;fill-opacity:1;fill-rule:evenodd;stroke:none;stroke-width:0.26458332;stroke-opacity:1"
           id="path2179"
           d="m 101.17901,92.395996 a 6.1208024,5.7743421 0 0 1 -6.120405,5.774342 6.1208024,5.7743421 0 0 1 -6.121203,-5.773586 6.1208024,5.7743421 0 0 1 6.119601,-5.775098 6.1208024,5.7743421 0 0 1 6.122007,5.77283 l -6.120805,0.0015 z" />
        <path
           d="m 126.74464,92.195168 a 6.1208024,5.7743421 0 0 1 -6.1204,5.774342 6.1208024,5.7743421 0 0 1 -6.1212,-5.773587 6.1208024,5.7743421 0 0 1 6.1196,-5.775097 6.1208024,5.7743421 0 0 1 6.122,5.77283 l -6.1208,0.0015 z"
           id="path2181"
           style="fill:#000000;fill-opacity:1;fill-rule:evenodd;stroke-width:0.26458332;paint-order:markers stroke fill" />
        <path
           style="fill:#a3e0c0;fill-opacity:1;stroke:#a3e0c0;stroke-width:0.065;stroke-linecap:butt;stroke-linejoin:miter;stroke-miterlimit:4;stroke-dasharray:none;stroke-opacity:1"
           d="m 81.47596,82.945154 c 1.738848,-17.658284 23.00856,-14.931422 26.27325,-4.965933 7.83267,-13.688767 26.00903,-7.572675 26.1952,5.13579 l 13.16761,-1.258019 -5.85786,-21.035023 -67.631584,4.659656 -1.464463,18.372362 z"
           id="path2201" />
        <path
           style="fill:#a3e0c0;fill-opacity:1;stroke:#a3e0c0;stroke-width:0.065;stroke-linecap:butt;stroke-linejoin:miter;stroke-miterlimit:4;stroke-dasharray:none;stroke-opacity:1"
           d="m 81.47596,82.945154 c 1.045872,13.684224 19.03344,18.034166 26.17231,5.112708 5.50008,11.980628 25.5048,10.051654 26.29614,-4.942853 l 13.16761,-1.258017 -9.33918,16.744471 -55.829213,5.144777 -6.559526,-11.403483 -3.128389,-0.201829 -0.0976,-8.286943 z"
           id="path2213" />
      </g>
      <g
         id="layer5" />
      <g
         id="layer3"
         style="display:inline">
        <path
           style="fill:none;stroke:#64a2d6;stroke-width:8.25;stroke-linecap:round;stroke-linejoin:miter;stroke-miterlimit:4;stroke-dasharray:none;stroke-opacity:1"
           d="m 91.369316,108.83786 c 11.615164,5.88571 23.230334,2.70882 34.845494,-3.27864"
           id="path895" />
        <path
           style="fill:none;stroke:#000000;stroke-width:2.06500006;stroke-linecap:round;stroke-linejoin:miter;stroke-miterlimit:4;stroke-dasharray:none;stroke-opacity:1"
           d="m 91.369316,108.83786 c 12.004684,5.96257 23.415844,1.17459 34.845494,-3.27864"
           id="path897" />
      </g>
    </g>
  </g>
  <g
     transform="translate(-15.33968,44.251406)"
     id="layer11">
    <flowRoot
       transform="scale(0.26458333)"
       style="font-style:normal;font-weight:normal;font-size:40px;line-height:1.25;font-family:sans-serif;letter-spacing:0px;word-spacing:0px;fill:#000000;fill-opacity:1;stroke:none"
       id="flowRoot2728"
       xml:space="preserve"><flowRegion
         id="flowRegion2730"><rect
           y="121.67888"
           x="850.70386"
           height="548.27972"
           width="385.10123"
           id="rect2732" /></flowRegion><flowPara
         id="flowPara2734" /></flowRoot>    <flowRoot
       transform="scale(0.26458333)"
       style="font-style:normal;font-weight:normal;font-size:40px;line-height:1.25;font-family:sans-serif;letter-spacing:0px;word-spacing:0px;fill:#000000;fill-opacity:1;stroke:none"
       id="flowRoot2776"
       xml:space="preserve"><flowRegion
         id="flowRegion2778"><rect
           y="160"
           x="924.61536"
           height="70.769234"
           width="80"
           id="rect2780" /></flowRegion><flowPara
         id="flowPara2782" /></flowRoot>  </g>
  <path
     style="display:inline;fill:#2d63ff;fill-opacity:1;stroke-width:0.98682582"
     d="m 89.661304,145.40501 c -7.19556,2.92285 -11.91536,9.13733 -11.91536,9.13733 0.0381,0.0388 3.57667,3.75875 6.50453,2.77817 l 0.0999,0.66475 c -0.36869,0.12198 -0.74664,0.17777 -1.12872,0.17777 -2.02365,0 -4.1369,-1.53849 -5.22854,-2.47463 1.5458,1.77489 5.72493,6.14072 11.15636,8.51039 4.05452,-6.34402 1.14622,-16.73994 0.51183,-18.79378 z m -4.39436,9.73589 c -0.9969,0 -1.80842,-0.74419 -1.80842,-1.66047 0,-0.91629 0.81152,-1.65858 1.80842,-1.65858 0.99895,0 1.80944,0.74229 1.80944,1.65858 0,0.91628 -0.81152,1.66047 -1.80944,1.66047 z"
     id="path997-8" />
  <path
     style="display:inline;fill:#2d63ff;fill-opacity:1;stroke-width:0.98682582"
     d="m 113.00388,152.497 c -3.16782,-3.20652 -9.47977,-8.46595 -16.746386,-8.46595 -2.03086,0 -3.98655,0.41418 -5.82071,1.07704 0.62203,1.93753 3.74865,12.62753 -0.5211,19.40653 1.98349,0.7754 4.11734,1.27089 6.34181,1.27089 7.702246,0 14.324176,-5.90621 17.280876,-9.01251 l 5.83925,3.05996 v -9.8503 z"
     id="path999-3" />
  <path
     style="display:inline;fill:#2d63ff;fill-opacity:1;stroke-width:0.98682582"
     d="m 98.627184,136.26012 c 0.36353,0.39904 0.74767,0.76972 1.14107,1.14134 0.381046,0.36784 0.726036,0.72622 1.026756,1.10068 0.29042,0.38202 0.48712,0.79052 0.52831,1.18389 0.0546,0.39147 -0.0752,0.7943 -0.34397,1.18389 -0.26776,0.38769 -0.64571,0.7404 -1.063826,1.07514 l 0.035,0.0662 c 0.557136,-0.12765 1.074126,-0.39147 1.506656,-0.78295 0.43254,-0.38202 0.74974,-0.9787 0.70442,-1.6009 -0.0453,-0.62221 -0.39752,-1.14134 -0.78371,-1.54606 -0.38414,-0.41417 -0.8589,-0.72905 -1.34396,-0.98815 -0.464456,-0.25153 -0.895966,-0.56736 -1.201826,-0.97302 -0.3069,-0.40661 -0.41709,-0.90494 -0.38414,-1.32384 0.0144,-0.21087 0.0628,-0.41039 0.13079,-0.61464 0.0762,-0.20141 0.18847,-0.39337 0.32544,-0.58721 0.276,-0.38392 0.64674,-0.73284 1.04632,-1.08933 l -0.035,-0.0662 c -0.56024,0.12199 -1.06898,0.40472 -1.48607,0.80565 -0.40988,0.39337 -0.72193,0.98437 -0.6313,1.57916 0.0814,0.5995 0.483,1.0411 0.82903,1.43636 z"
     id="path1001-5" />
  <path
     style="display:inline;fill:#2d63ff;fill-opacity:1;stroke-width:0.98682582"
     d="m 105.05241,136.26012 c 0.36045,0.39904 0.74355,0.76972 1.13798,1.14134 0.37899,0.36784 0.73017,0.72622 1.02779,1.10068 0.28836,0.38202 0.483,0.79052 0.52832,1.18389 0.0536,0.39147 -0.0762,0.7943 -0.34603,1.18389 -0.26673,0.38769 -0.64469,0.7404 -1.05869,1.07514 l 0.0319,0.0662 c 0.55921,-0.12765 1.07516,-0.39147 1.50564,-0.78295 0.4346,-0.38202 0.75179,-0.9787 0.70442,-1.6009 -0.0443,-0.62221 -0.40062,-1.14134 -0.78166,-1.54606 -0.38619,-0.41417 -0.86302,-0.72905 -1.34602,-0.98815 -0.4624,-0.25153 -0.90008,-0.56736 -1.19977,-0.97302 -0.30895,-0.40661 -0.42121,-0.90494 -0.38619,-1.32384 0.0165,-0.21087 0.0639,-0.41039 0.12873,-0.61464 0.0762,-0.20141 0.19052,-0.39337 0.32646,-0.58721 0.276,-0.38392 0.64881,-0.73284 1.04942,-1.08933 l -0.035,-0.0662 c -0.56436,0.12199 -1.0731,0.40472 -1.49225,0.80565 -0.40473,0.39337 -0.71781,0.98437 -0.62821,1.57916 0.0814,0.5995 0.48403,1.0411 0.83315,1.43636 z"
     id="path1003-2" />
  <path
     style="display:inline;fill:#2d63ff;fill-opacity:1;stroke-width:0.98682582"
     d="m 91.621114,136.26012 c 0.35942,0.39904 0.74149,0.76972 1.13695,1.14134 0.37899,0.36784 0.72605,0.72622 1.0247,1.10068 0.29557,0.38202 0.48403,0.79052 0.52832,1.18389 0.0546,0.39147 -0.0742,0.7943 -0.345,1.18389 -0.26467,0.38769 -0.64469,0.7404 -1.05972,1.07514 l 0.036,0.0662 c 0.55509,-0.12765 1.07001,-0.39147 1.50255,-0.78295 0.43459,-0.38202 0.75076,-0.9787 0.70647,-1.6009 -0.0443,-0.62221 -0.39855,-1.14134 -0.78577,-1.54606 -0.38516,-0.41417 -0.86096,-0.72905 -1.34293,-0.98815 -0.46446,-0.25153 -0.89802,-0.56736 -1.20183,-0.97302 -0.30793,-0.40661 -0.41709,-0.90494 -0.38413,-1.32384 0.0124,-0.21087 0.0608,-0.41039 0.13079,-0.61464 0.0762,-0.20141 0.18949,-0.39337 0.32543,-0.58721 0.27394,-0.38392 0.64572,-0.73284 1.04942,-1.08933 l -0.036,-0.0662 c -0.56333,0.12199 -1.07207,0.40472 -1.48813,0.80565 -0.40782,0.39337 -0.72193,0.98437 -0.63336,1.57916 0.0793,0.5995 0.48197,1.0411 0.83624,1.43636 z"
     id="path1005-5" />
  <text
     xml:space="preserve"
     style="font-style:normal;font-variant:normal;font-weight:bold;font-stretch:normal;font-size:11.28888988px;line-height:1.70000005;font-family:Arial;-inkscape-font-specification:'Arial, Bold';font-variant-ligatures:normal;font-variant-caps:normal;font-variant-numeric:normal;font-feature-settings:normal;text-align:start;letter-spacing:0px;word-spacing:0px;writing-mode:lr-tb;text-anchor:start;fill:#7fd2f2;fill-opacity:1;stroke:none;stroke-width:0.26458335"
     x="222.79727"
     y="110.23472"
     id="text2241"><tspan
       x="232.21202"
       y="129.42583"
       id="tspan2227"
       style="fill:#7fd2f2;fill-opacity:1;stroke-width:0.26458335"><tspan
         x="222.79727"
         y="110.23472"
         id="tspan2223"
         style="fill:#7fd2f2;fill-opacity:1;stroke-width:0.26458335">9 </tspan><tspan
         x="232.21202"
         y="110.23472"
         id="tspan2225"
         style="fill:#7fd2f2;fill-opacity:1;stroke-width:0.26458335">തരം മത്സ്യം </tspan></tspan><tspan
       x="222.79727"
       y="148.61691"
       id="tspan2231"
       style="fill:#7fd2f2;fill-opacity:1;stroke-width:0.26458335"><tspan
         x="222.79727"
         y="129.42583"
         id="tspan2229"
         style="fill:#7fd2f2;fill-opacity:1;stroke-width:0.26458335">നിങ്ങൾ </tspan></tspan><tspan
       x="222.79727"
       y="167.80804"
       id="tspan2235"
       style="fill:#7fd2f2;fill-opacity:1;stroke-width:0.26458335"><tspan
         x="222.79727"
         y="148.61691"
         id="tspan2233"
         style="fill:#7fd2f2;fill-opacity:1;stroke-width:0.26458335">കഴിക്കാൻ </tspan></tspan><tspan
       x="222.79727"
       y="44.251408"
       id="tspan2239"
       style="fill:#7fd2f2;fill-opacity:1;stroke-width:0.26458335"><tspan
         x="222.79727"
         y="167.80804"
         id="tspan2237"
         style="fill:#7fd2f2;fill-opacity:1;stroke-width:0.26458335">പാടില്ലാത്തത്</tspan></tspan></text>
  <g
     transform="translate(-15.33968,44.251406)"
     style="display:inline"
     id="layer8">
    <path
       id="path2627"
       d="M 27.458437,122.21972 189.85329,120.75131"
       style="fill:none;stroke:#65a473;stroke-width:8.15050316;stroke-linecap:round;stroke-linejoin:miter;stroke-miterlimit:4;stroke-dasharray:none;stroke-opacity:1" />
    <path
       id="path2629"
       d="m 59.696822,123.50461 0.240601,60.20536"
       style="fill:none;stroke:#65a473;stroke-width:6.59379053;stroke-linecap:round;stroke-linejoin:miter;stroke-miterlimit:4;stroke-dasharray:none;stroke-opacity:1" />
    <path
       style="fill:none;stroke:#65a473;stroke-width:6.59379053;stroke-linecap:round;stroke-linejoin:miter;stroke-miterlimit:4;stroke-dasharray:none;stroke-opacity:1"
       d="m 164.59187,121.11842 0.24061,60.20536"
       id="path2631" />
    <path
       d="m 151.17946,116.0856 a 38.694016,0.48921412 0 0 1 -38.69148,0.48922 38.694016,0.48921412 0 0 1 -38.696552,-0.48915 38.694016,0.48921412 0 0 1 38.686422,-0.48928 38.694016,0.48921412 0 0 1 38.70161,0.48908 l -38.69402,1.3e-4 z"
       id="path2682"
       style="fill:#fffaff;fill-opacity:1;fill-rule:evenodd;stroke-width:0.25395697" />
    <rect
       rx="3.336576"
       ry="0.82241601"
       transform="matrix(0.99995314,-0.00968067,0.00460339,0.9999894,0,0)"
       y="116.8818"
       x="88.207169"
       height="1.644832"
       width="45.978371"
       id="rect2686"
       style="opacity:1;fill:#ffffff;fill-opacity:1;stroke:none;stroke-width:0.12154344;stroke-linecap:round;stroke-linejoin:round;stroke-miterlimit:4;stroke-dasharray:none;stroke-opacity:1;paint-order:stroke markers fill" />
  </g>
</svg>
