<?xml version="1.0" encoding="UTF-8" standalone="no"?>
<svg
   xmlns:dc="http://purl.org/dc/elements/1.1/"
   xmlns:cc="http://creativecommons.org/ns#"
   xmlns:rdf="http://www.w3.org/1999/02/22-rdf-syntax-ns#"
   xmlns:svg="http://www.w3.org/2000/svg"
   xmlns="http://www.w3.org/2000/svg"
   xmlns:xlink="http://www.w3.org/1999/xlink"
   width="1280"
   height="720"
   viewBox="0 0 338.66666 190.50001"
   version="1.1"
   id="svg956">
  <defs
     id="defs950">
    <linearGradient
       id="linearGradient2692">
      <stop
         style="stop-color:#65a4d9;stop-opacity:1;"
         offset="0"
         id="stop2688" />
      <stop
         style="stop-color:#65a4d9;stop-opacity:0;"
         offset="1"
         id="stop2690" />
    </linearGradient>
    <linearGradient
       xlink:href="#linearGradient2692"
       id="linearGradient2704"
       gradientUnits="userSpaceOnUse"
       x1="781.53845"
       y1="149.23077"
       x2="1096.9231"
       y2="393.84613" />
  </defs>
  <metadata
     id="metadata953">
    <rdf:RDF>
      <cc:Work
         rdf:about="">
        <dc:format>image/svg+xml</dc:format>
        <dc:type
           rdf:resource="http://purl.org/dc/dcmitype/StillImage" />
        <dc:title></dc:title>
      </cc:Work>
    </rdf:RDF>
  </metadata>
  <g
     id="layer1"
     style="display:inline;fill:#f2f100;fill-opacity:1"
     transform="translate(0,-106.49998)">
    <rect
       style="opacity:1;fill:#f2f100;fill-opacity:1;stroke:none;stroke-width:0.06496903;stroke-linecap:round;stroke-linejoin:round;stroke-miterlimit:4;stroke-dasharray:none;stroke-opacity:1;paint-order:stroke markers fill"
       id="rect1501"
       width="338.66473"
       height="190.47913"
       x="0.0010536164"
       y="106.52"
       rx="0"
       ry="17.279589" />
    <rect
       style="opacity:1;fill:#f2f100;fill-opacity:1;stroke:none;stroke-width:0.065;stroke-linecap:round;stroke-linejoin:round;stroke-miterlimit:4;stroke-dasharray:none;stroke-opacity:1;paint-order:stroke markers fill"
       id="rect2622"
       width="70.870537"
       height="8.1264877"
       x="33.072918"
       y="234.06694" />
  </g>
  <g
     id="layer9"
     style="display:inline">
    <path
       style="display:inline;fill:none;stroke:#ffa800;stroke-width:4.32974911;stroke-linecap:round;stroke-linejoin:miter;stroke-miterlimit:4;stroke-dasharray:none;stroke-opacity:1"
       d="m 68.247201,139.32652 86.200869,-0.7807"
       id="path2627-0" />
    <path
       style="display:inline;fill:none;stroke:#ffa800;stroke-width:3.50278497;stroke-linecap:round;stroke-linejoin:miter;stroke-miterlimit:4;stroke-dasharray:none;stroke-opacity:1"
       d="m 85.359682,140.00955 0.127581,32.00755"
       id="path2629-3" />
    <path
       id="path2631-4"
       d="m 141.03905,138.741 0.12758,32.00752"
       style="display:inline;fill:none;stroke:#ffa800;stroke-width:3.50278497;stroke-linecap:round;stroke-linejoin:miter;stroke-miterlimit:4;stroke-dasharray:none;stroke-opacity:1" />
  </g>
  <g
     id="layer7"
     style="display:inline">
    <g
       id="g2620"
       transform="matrix(0.86337487,0,0,0.76843144,19.881883,-4.0838596)">
      <g
         id="layer6">
        <path
           id="path878"
           d="m 66.768157,139.81035 c -9.835465,5.31762 -8.42528,12.61625 -4.498043,14.45511"
           style="fill:none;stroke:#000000;stroke-width:4.60422993;stroke-linecap:round;stroke-linejoin:miter;stroke-miterlimit:4;stroke-dasharray:none;stroke-opacity:1" />
        <path
           style="fill:none;stroke:#000000;stroke-width:4.60422993;stroke-linecap:round;stroke-linejoin:miter;stroke-miterlimit:4;stroke-dasharray:none;stroke-opacity:1"
           d="m 139.53994,141.79213 c 9.68927,12.94143 13.24647,16.44839 5.85405,10.01423"
           id="path880" />
        <path
           id="path882"
           d="m 82.131923,185.30806 c 18.225597,4.46881 -11.32312,46.96621 -0.374176,45.46254"
           style="fill:none;stroke:#000000;stroke-width:5.86499977;stroke-linecap:round;stroke-linejoin:miter;stroke-miterlimit:4;stroke-dasharray:none;stroke-opacity:1" />
        <path
           style="fill:none;stroke:#000000;stroke-width:5.86499977;stroke-linecap:round;stroke-linejoin:miter;stroke-miterlimit:4;stroke-dasharray:none;stroke-opacity:1"
           d="m 116.18207,184.93389 c 15.33914,6.3074 -11.89267,48.05733 -0.37418,45.46254"
           id="path884" />
      </g>
      <g
         style="display:inline"
         id="layer4">
        <rect
           ry="2.5358722"
           y="136.27773"
           x="64.645958"
           height="49.587734"
           width="75.683777"
           id="rect2154"
           style="opacity:1;fill:#fe7b6a;fill-opacity:1;stroke:none;stroke-width:0.07566334;stroke-linecap:round;stroke-linejoin:round;stroke-miterlimit:4;stroke-dasharray:none;stroke-opacity:1;paint-order:normal" />
        <path
           id="path2156"
           d="m 64.791873,156.17051 75.391307,-0.72834 5e-5,18.15658 -75.391309,0.11601 z"
           style="fill:#f0624e;fill-opacity:1;stroke:#f0624e;stroke-width:0.32813942;stroke-linecap:butt;stroke-linejoin:miter;stroke-miterlimit:4;stroke-dasharray:none;stroke-opacity:1" />
      </g>
      <g
         id="layer1-6">
        <g
           style="fill:#a3e0c0;fill-opacity:1"
           id="layer1-4"
           transform="translate(4.1038546,-103.99778)">
          <rect
             style="opacity:1;fill:#a3e0c0;fill-opacity:1;stroke:none;stroke-width:3.00399995;stroke-linecap:round;stroke-linejoin:round;stroke-miterlimit:4;stroke-dasharray:none;stroke-opacity:1;paint-order:normal"
             id="rect815"
             width="132.66963"
             height="100.1637"
             x="33.261906"
             y="146.18748"
             ry="50.081848"
             rx="49.514881" />
        </g>
        <path
           d="M 79.913584,104.69958 A 10.022608,10.557146 0 0 1 69.891632,115.25672 10.022608,10.557146 0 0 1 59.868368,104.70096 10.022608,10.557146 0 0 1 69.889008,94.142431 10.022608,10.557146 0 0 1 79.913583,104.69681 l -10.022607,0.003 z"
           id="path2023"
           style="fill:#86d0ab;fill-opacity:1;fill-rule:evenodd;stroke-width:0.26458332" />
        <path
           d="m 161.16352,101.75961 a 10.423512,11.358955 0 0 1 -10.42283,11.35896 10.423512,11.358955 0 0 1 -10.4242,-11.35747 10.423512,11.358955 0 0 1 10.42147,-11.360442 10.423512,11.358955 0 0 1 10.42556,11.355982 l -10.42351,0.003 z"
           id="path2025"
           style="fill:#86d0ab;fill-opacity:1;fill-rule:evenodd;stroke-width:0.26458332" />
        <path
           id="path2029"
           d="M 135.46234,139.90161 C 103.83913,141.25495 74.025655,141.06533 71.045524,115.05813 55.376425,115 57.726273,95.128724 69.412294,93.82613 65.298145,53.389322 79.393102,48.961318 88.864323,42.672194 59.562019,39.595249 37.185723,67.453189 37.809284,89.960016 c -1.76528,33.488194 25.446872,52.047174 47.118697,52.046414 23.662139,0.75924 42.395969,0.886 50.534359,-2.10482 z"
           style="fill:#95d8af;fill-opacity:1;stroke:#95d8af;stroke-width:0.26458332px;stroke-linecap:butt;stroke-linejoin:miter;stroke-opacity:1" />
        <path
           id="path2031"
           d="M 42.918268,69.134595 29.167873,57.475574 c -4.06867,-3.600109 1.797433,-10.284612 5.762783,-6.888703 l 13.041932,10.732934 c -2.588087,3.245779 -3.523411,5.121467 -5.05432,7.81479 z"
           style="fill:#77c79f;fill-opacity:1;stroke:none;stroke-width:0.114;stroke-linecap:butt;stroke-linejoin:miter;stroke-miterlimit:4;stroke-dasharray:none;stroke-opacity:1" />
        <path
           id="path2033"
           d="M 49.850716,58.986426 29.938228,41.293354 C 26.241189,38.140029 32.50453,32.234957 35.8028,34.8462 l 20.059955,18.236876 c -1.122746,1.030173 -4.87864,4.541005 -6.012039,5.90335 z"
           style="fill:#77c79f;fill-opacity:1;stroke:none;stroke-width:0.075;stroke-linecap:butt;stroke-linejoin:miter;stroke-miterlimit:4;stroke-dasharray:none;stroke-opacity:1" />
        <path
           style="fill:#77c79f;fill-opacity:1;stroke:none;stroke-width:0.114;stroke-linecap:butt;stroke-linejoin:miter;stroke-miterlimit:4;stroke-dasharray:none;stroke-opacity:1"
           d="M 58.093776,51.342742 44.461795,39.800021 c -4.06867,-3.600109 1.797433,-10.284612 5.762783,-6.888703 l 15.195652,13.90722 c -1.85391,0.869755 -5.856491,3.288176 -7.326454,4.524204 z"
           id="path2044" />
      </g>
      <g
         style="display:inline"
         id="layer2">
        <path
           style="fill:#ffffff;fill-opacity:1;fill-rule:evenodd;stroke-width:0.26458332"
           id="path847"
           d="M 108.76829,82.887405 A 13.607142,12.851191 0 0 1 95.162039,95.738596 13.607142,12.851191 0 0 1 81.554006,82.889088 13.607142,12.851191 0 0 1 95.158476,70.036215 13.607142,12.851191 0 0 1 108.76829,82.884041 l -13.607142,0.0034 z" />
        <path
           d="M 133.94442,83.118378 A 13.607142,12.851191 0 0 1 120.33816,95.969568 13.607142,12.851191 0 0 1 106.73013,83.12006 13.607142,12.851191 0 0 1 120.3346,70.267187 13.607142,12.851191 0 0 1 133.94441,83.115013 l -13.60714,0.0034 z"
           id="path2091"
           style="fill:#ffffff;fill-opacity:1;fill-rule:evenodd;stroke-width:0.26458332;paint-order:fill markers stroke" />
        <path
           d="m 98.674549,92.220127 a 6.1208024,5.7743421 0 0 1 -6.120405,5.774342 6.1208024,5.7743421 0 0 1 -6.121203,-5.773586 6.1208024,5.7743421 0 0 1 6.119601,-5.775098 6.1208024,5.7743421 0 0 1 6.122007,5.77283 l -6.120805,0.0015 z"
           id="path2179"
           style="fill:#000000;fill-opacity:1;fill-rule:evenodd;stroke:none;stroke-width:0.26458332;stroke-opacity:1" />
        <path
           style="fill:#000000;fill-opacity:1;fill-rule:evenodd;stroke-width:0.26458332;paint-order:markers stroke fill"
           id="path2181"
           d="m 124.70977,92.371037 a 6.1208024,5.7743421 0 0 1 -6.1204,5.774342 6.1208024,5.7743421 0 0 1 -6.1212,-5.773587 6.1208024,5.7743421 0 0 1 6.1196,-5.775097 6.1208024,5.7743421 0 0 1 6.122,5.77283 l -6.1208,0.0015 z" />
        <path
           id="path2201"
           d="m 81.47596,82.945154 c 1.738848,-17.658284 23.00856,-14.931422 26.27325,-4.965933 7.83267,-13.688767 26.00903,-7.572675 26.1952,5.13579 l 13.16761,-1.258019 -5.85786,-21.035023 -67.631584,4.659656 -1.464463,18.372362 z"
           style="fill:#a3e0c0;fill-opacity:1;stroke:#a3e0c0;stroke-width:0.065;stroke-linecap:butt;stroke-linejoin:miter;stroke-miterlimit:4;stroke-dasharray:none;stroke-opacity:1" />
        <path
           id="path2213"
           d="m 81.47596,82.945154 c 1.045872,13.684224 19.03344,18.034166 26.17231,5.112708 5.50008,11.980628 25.5048,10.051654 26.29614,-4.942853 l 13.16761,-1.258017 -9.33918,16.744471 -55.829213,5.144777 -6.559526,-11.403483 -3.128389,-0.201829 -0.0976,-8.286943 z"
           style="fill:#a3e0c0;fill-opacity:1;stroke:#a3e0c0;stroke-width:0.065;stroke-linecap:butt;stroke-linejoin:miter;stroke-miterlimit:4;stroke-dasharray:none;stroke-opacity:1" />
      </g>
      <g
         id="layer5" />
      <g
         style="display:inline"
         id="layer3">
        <path
           id="path895"
           d="m 91.369316,108.83786 c 11.615164,5.88571 23.230334,2.70882 34.845494,-3.27864"
           style="fill:none;stroke:#64a2d6;stroke-width:8.25;stroke-linecap:round;stroke-linejoin:miter;stroke-miterlimit:4;stroke-dasharray:none;stroke-opacity:1" />
        <path
           id="path897"
           d="m 91.369316,108.83786 c 12.004684,5.96257 23.415844,1.17459 34.845494,-3.27864"
           style="fill:none;stroke:#000000;stroke-width:2.06500006;stroke-linecap:round;stroke-linejoin:miter;stroke-miterlimit:4;stroke-dasharray:none;stroke-opacity:1" />
      </g>
    </g>
  </g>
  <g
     id="layer11">
    <flowRoot
       xml:space="preserve"
       id="flowRoot2728"
       style="font-style:normal;font-weight:normal;font-size:40px;line-height:1.25;font-family:sans-serif;letter-spacing:0px;word-spacing:0px;fill:#000000;fill-opacity:1;stroke:none"
       transform="scale(0.26458333)"><flowRegion
         id="flowRegion2730"><rect
           id="rect2732"
           width="385.10123"
           height="548.27972"
           x="850.70386"
           y="121.67888" /></flowRegion><flowPara
         id="flowPara2734" /></flowRoot>    <flowRoot
       xml:space="preserve"
       id="flowRoot2776"
       style="font-style:normal;font-weight:normal;font-size:40px;line-height:1.25;font-family:sans-serif;letter-spacing:0px;word-spacing:0px;fill:#000000;fill-opacity:1;stroke:none"
       transform="scale(0.26458333)"><flowRegion
         id="flowRegion2778"><rect
           id="rect2780"
           width="80"
           height="70.769234"
           x="924.61536"
           y="160" /></flowRegion><flowPara
         id="flowPara2782" /></flowRoot>  </g>
  <g
     id="layer8"
     style="display:inline;fill:#d9f100;fill-opacity:1">
    <path
       style="fill:#d9f100;stroke:#ffa800;stroke-width:8.15050316;stroke-linecap:round;stroke-linejoin:miter;stroke-miterlimit:4;stroke-dasharray:none;stroke-opacity:1;fill-opacity:1"
       d="M 27.458437,122.21972 189.85329,120.75131"
       id="path2627" />
    <path
       style="fill:#d9f100;stroke:#ffa800;stroke-width:6.59379053;stroke-linecap:round;stroke-linejoin:miter;stroke-miterlimit:4;stroke-dasharray:none;stroke-opacity:1;fill-opacity:1"
       d="m 59.696822,123.50461 0.240601,60.20536"
       id="path2629" />
    <path
       id="path2631"
       d="m 164.59187,121.11842 0.24061,60.20536"
       style="fill:#d9f100;stroke:#ffa800;stroke-width:6.59379053;stroke-linecap:round;stroke-linejoin:miter;stroke-miterlimit:4;stroke-dasharray:none;stroke-opacity:1;fill-opacity:1" />
  </g>
  <g
     transform="matrix(0.20019325,0,0,0.18466379,67.466947,88.974936)"
     id="g1701">
    <g
       id="g1613">
      <g
         id="g1577">
        <g
           id="g1549">
          <circle
             style="fill:#ffd01f"
             cx="99.421997"
             cy="50.125999"
             r="27.492001"
             id="circle1547" />
        </g>
        <g
           id="g1553">
          <circle
             style="fill:#ffd01f"
             cx="99.804001"
             cy="49.743999"
             r="22.528"
             id="circle1551" />
        </g>
        <g
           id="g1557">
          <circle
             style="fill:#ffffff"
             cx="99.804001"
             cy="49.743999"
             r="22.528"
             id="circle1555" />
        </g>
        <g
           id="g1575">
          <g
             id="g1561">
            <path
               style="fill:#ffd01f"
               d="M 98.754,48.472 V 31.184 c -9.616,0.434 -17.406,7.843 -18.451,17.288 z"
               id="path1559" />
          </g>
          <g
             id="g1565">
            <path
               style="fill:#ffd01f"
               d="m 119.305,48.217 c -1.584,-9.02 -8.962,-16.036 -18.166,-17.056 v 17.056 z"
               id="path1563" />
          </g>
          <g
             id="g1569">
            <path
               style="fill:#ffd01f"
               d="M 98.754,51.018 V 68.305 C 89.138,67.871 81.348,60.463 80.303,51.018 c 0,0 18.451,0 18.451,0 z"
               id="path1567" />
          </g>
          <g
             id="g1573">
            <path
               style="fill:#ffd01f"
               d="m 119.305,51.271 c -1.584,9.02 -8.962,16.037 -18.166,17.056 V 51.271 Z"
               id="path1571" />
          </g>
        </g>
      </g>
      <g
         id="g1581">
        <polygon
           style="fill:#abd9d5"
           points="102.656,47.883 94.188,155.883 37.438,155.883 28.969,47.883 "
           id="polygon1579" />
      </g>
      <g
         id="g1585">
        <polygon
           style="fill:#cde8e6"
           points="63.816,47.883 63.816,155.883 37.438,155.883 28.969,47.883 "
           id="polygon1583" />
      </g>
      <g
         id="g1589">
        <polygon
           style="fill:#ddf0ee"
           points="96.729,47.883 88.258,141.883 43.367,141.883 34.898,47.883 "
           id="polygon1587" />
      </g>
      <g
         id="g1593">
        <polygon
           style="fill:#ffd01f"
           points="94.82,68.606 36.805,68.606 43.367,141.449 88.258,141.449 "
           id="polygon1591" />
      </g>
      <path
         style="fill:#ffffff"
         d="m 83.676,127.346 c -0.216,2.329 -2.278,4.044 -4.607,3.828 v 0 c -2.328,-0.215 -4.042,-2.277 -3.827,-4.606 L 79.29,82.711 c 0.215,-2.329 2.277,-4.043 4.605,-3.828 v 0 c 2.33,0.215 4.043,2.277 3.828,4.606 z"
         id="path1595" />
      <g
         id="g1605">
        <g
           id="g1599">
          <polygon
             style="fill:#ffb000"
             points="66.236,141.449 66.236,68.606 36.805,68.606 43.367,141.449 "
             id="polygon1597" />
        </g>
        <g
           id="g1603">
          <polygon
             style="fill:#ffb000"
             points="66.236,141.449 66.236,68.606 36.805,68.606 43.367,141.449 "
             id="polygon1601" />
        </g>
      </g>
      <g
         id="g1611">
        <g
           id="g1609">
          <polygon
             style="fill:#f62d8d"
             points="46.076,0 37.193,0 42.182,47.433 51.064,47.433 "
             id="polygon1607" />
        </g>
      </g>
    </g>
    <g
       id="g1615" />
    <g
       id="g1617" />
    <g
       id="g1619" />
    <g
       id="g1621" />
    <g
       id="g1623" />
    <g
       id="g1625" />
    <g
       id="g1627" />
    <g
       id="g1629" />
    <g
       id="g1631" />
    <g
       id="g1633" />
    <g
       id="g1635" />
    <g
       id="g1637" />
    <g
       id="g1639" />
    <g
       id="g1641" />
    <g
       id="g1643" />
  </g>
  <g
     transform="matrix(0.01677835,0,0,0.01683511,89.824741,109.21279)"
     id="g2761">
    <path
       style="fill:#ffe239"
       d="m 393.327,425.054 c 71.69,-71.69 83.907,-180.325 36.663,-264.614 -4.407,-7.864 -3.071,-17.692 3.303,-24.066 v 0 c 17.746,-17.746 17.746,-46.518 0,-64.265 v 0 c -17.746,-17.746 -46.519,-17.746 -64.265,0 v 0 c -6.374,6.374 -16.203,7.71 -24.066,3.303 -84.29,-47.243 -192.924,-35.027 -264.614,36.663 -71.69,71.69 -83.907,180.324 -36.664,264.614 4.407,7.863 3.071,17.692 -3.303,24.066 v 0 c -17.746,17.746 -17.746,46.518 0,64.265 v 0 c 17.746,17.746 46.519,17.746 64.265,0 v 0 c 6.374,-6.374 16.203,-7.71 24.066,-3.303 84.29,47.243 192.925,35.027 264.615,-36.663 z"
       id="path2723" />
    <path
       style="fill:#ffb83b"
       d="m 294.208,482.34 c -55.06,14.72 -114.7,7.85 -165.49,-20.62 -3.09,-1.73 -6.48,-2.58 -9.85,-2.58 -5.21,0 -10.35,2.01 -14.22,5.88 -8.87,8.87 -20.5,13.31 -32.13,13.31 -11.63,0 -23.26,-4.44 -32.13,-13.31 -8.87,-8.87 -13.31,-20.51 -13.31,-32.13 0,-11.63 4.44,-23.26 13.31,-32.13 6.37,-6.38 7.71,-16.21 3.3,-24.07 -47.24,-84.29 -35.03,-192.93 36.66,-264.62 58.15,-58.15 140.62,-77.17 214.68,-57.06 -94.78,24.91 -164.68,111.18 -164.68,213.78 0,102.29 69.5,188.36 163.86,213.55 z"
       id="path2725" />
    <path
       style="fill:#ffb83b"
       d="M 140.767,336.008 C 133.064,303.467 148,252.021 230.321,235.779 312.642,219.537 79.154,205.806 79.154,205.806"
       id="path2727" />
    <path
       style="fill:#70d65b"
       d="m 403.99,80.12 c -1.19,31.59 -12.22,62.95 -31.99,89.46 -11.55,15.49 -26.07,29.33 -43.36,40.59 -29.21,19.03 -73.55,35.45 -115.63,41.66 -33.57,4.96 -65.68,3.42 -87.53,-8.45 -1.61,-19.53 5.22,-42.29 17.04,-65.11 21.99,-42.45 61.24,-85.09 95.39,-107.34 31.47,-20.5 67.05,-29.2 101.12,-27.09 8.17,0.5 16.26,1.62 24.18,3.35 1.32,0.27 2.63,0.57 3.94,0.9 12.73,3.13 24.98,7.84 36.45,14.07 0.49,5.98 0.62,11.97 0.39,17.96 z"
       id="path2729" />
    <path
       style="fill:#58b741"
       d="m 403.99,80.12 c -1.19,31.59 -12.22,62.95 -31.99,89.46 -31.78,17.3 -70.47,27.46 -112.22,27.46 -34.17,0 -77.23,-6.8 -117.26,-18.77 21.99,-42.45 61.24,-85.09 95.39,-107.34 31.47,-20.5 67.05,-29.2 101.12,-27.09 24.38,8.4 46.13,20.55 64.05,35.52 0.3,0.25 0.61,0.5 0.91,0.76 z"
       id="path2731" />
    <path
       style="fill:#70d65b"
       d="m 455.12,83.1 c -32.38,49.32 -98.36,83.09 -174.49,83.09 -42.35,0 -98.38,-10.45 -145.34,-28.22 C 97.83,123.8 66.16,104.98 51.79,83.1 84.16,33.78 204.5,0 280.63,0 c 56.58,0 107.56,18.66 143.3,48.51 1.16,0.95 2.3,1.92 3.42,2.91 10.88,9.57 20.23,20.2 27.77,31.68 z"
       id="path2733" />
    <path
       style="fill:#58b741"
       d="M 423.93,48.51 C 374.65,12.28 135.29,34.36 135.29,137.97 97.83,123.8 66.16,104.98 51.79,83.1 84.16,33.78 204.5,0 280.63,0 c 56.58,0 107.56,18.66 143.3,48.51 z"
       id="path2735" />
    <path
       style="fill:#4aa032"
       d="M 466.836,90.597 H 156.041 c -4.143,0 -7.5,-3.358 -7.5,-7.5 0,-4.142 3.357,-7.5 7.5,-7.5 h 310.795 c 4.143,0 7.5,3.358 7.5,7.5 0,4.142 -3.357,7.5 -7.5,7.5 z"
       id="path2737" />
    <path
       style="fill:#4aa032"
       d="m 322.724,136.901 c -1.92,0 -3.839,-0.732 -5.304,-2.197 -2.929,-2.929 -2.929,-7.678 0,-10.606 L 358.422,83.097 317.42,42.096 c -2.929,-2.929 -2.929,-7.677 0,-10.606 2.93,-2.929 7.678,-2.929 10.607,0 l 46.305,46.304 c 1.406,1.406 2.196,3.314 2.196,5.303 0,1.989 -0.79,3.897 -2.196,5.303 l -46.305,46.304 c -1.464,1.465 -3.384,2.197 -5.303,2.197 z"
       id="path2739" />
    <path
       style="fill:#4aa032"
       d="m 248.499,129.186 c -1.92,0 -3.839,-0.732 -5.304,-2.197 -2.929,-2.929 -2.929,-7.678 0,-10.606 L 276.482,83.097 243.195,49.811 c -2.929,-2.929 -2.929,-7.677 0,-10.606 2.93,-2.929 7.678,-2.929 10.607,0 l 38.59,38.589 c 1.406,1.406 2.196,3.314 2.196,5.303 0,1.989 -0.79,3.897 -2.196,5.303 l -38.59,38.589 c -1.464,1.465 -3.384,2.197 -5.303,2.197 z"
       id="path2741" />
    <path
       style="fill:#4aa032"
       d="m 185.11,119.665 c -1.919,0 -3.839,-0.732 -5.304,-2.197 -2.929,-2.929 -2.929,-7.677 0,-10.606 L 203.572,83.097 179.806,59.332 c -2.929,-2.929 -2.929,-7.677 0,-10.606 2.93,-2.929 7.678,-2.929 10.607,0 l 29.068,29.068 c 2.929,2.929 2.929,7.677 0,10.606 l -29.068,29.068 c -1.464,1.465 -3.384,2.197 -5.303,2.197 z"
       id="path2743" />
    <g
       id="g2751">
      <path
         style="fill:#ff933b"
         d="m 223.83,463.123 c -3.188,0 -6.133,-2.12 -7.117,-5.152 -0.969,-2.986 0.026,-6.324 2.5,-8.263 5.338,-4.183 13.239,0.688 11.983,7.301 -0.661,3.486 -3.805,6.114 -7.366,6.114 z"
         id="path2745" />
      <path
         style="fill:#ff933b"
         d="m 234.13,438.123 c -3.137,0 -6.004,-2.035 -7.064,-4.981 -1.102,-3.065 -0.025,-6.611 2.592,-8.547 5.45,-4.033 13.306,1.035 11.78,7.668 -0.774,3.366 -3.829,5.86 -7.308,5.86 z"
         id="path2747" />
      <path
         style="fill:#ff933b"
         d="m 249.7,457.023 c -3.256,0 -6.239,-2.194 -7.173,-5.319 -0.858,-2.87 0.085,-6.074 2.415,-7.975 5.383,-4.393 13.634,0.61 12.067,7.443 -0.774,3.376 -3.836,5.851 -7.309,5.851 z"
         id="path2749" />
    </g>
    <g
       id="g2759">
      <path
         style="fill:#ff933b"
         d="m 69.82,178.333 c -3.066,0 -5.897,-1.94 -6.994,-4.801 -1.13,-2.948 -0.26,-6.338 2.121,-8.4 2.447,-2.119 6.155,-2.37 8.88,-0.636 2.584,1.644 3.95,4.797 3.344,7.807 -0.697,3.461 -3.815,6.03 -7.351,6.03 z"
         id="path2753" />
      <path
         style="fill:#ff933b"
         d="m 89.58,159.873 c -6.689,0 -9.974,-8.475 -5.092,-13.005 4.949,-4.592 13.237,-0.44 12.554,6.244 -0.387,3.788 -3.644,6.761 -7.462,6.761 z"
         id="path2755" />
      <path
         style="fill:#ff933b"
         d="m 95.88,183.543 c -6.663,0 -9.999,-8.474 -5.086,-13.005 2.326,-2.145 5.831,-2.586 8.621,-1.104 2.828,1.503 4.394,4.743 3.855,7.895 -0.608,3.553 -3.792,6.214 -7.39,6.214 z"
         id="path2757" />
    </g>
  </g>
  <g
     id="g2828"
     transform="matrix(0.01666594,-0.00193896,0.00194552,0.01672232,96.632677,109.44879)">
    <path
       id="path2790"
       d="m 393.327,425.054 c 71.69,-71.69 83.907,-180.325 36.663,-264.614 -4.407,-7.864 -3.071,-17.692 3.303,-24.066 v 0 c 17.746,-17.746 17.746,-46.518 0,-64.265 v 0 c -17.746,-17.746 -46.519,-17.746 -64.265,0 v 0 c -6.374,6.374 -16.203,7.71 -24.066,3.303 -84.29,-47.243 -192.924,-35.027 -264.614,36.663 -71.69,71.69 -83.907,180.324 -36.664,264.614 4.407,7.863 3.071,17.692 -3.303,24.066 v 0 c -17.746,17.746 -17.746,46.518 0,64.265 v 0 c 17.746,17.746 46.519,17.746 64.265,0 v 0 c 6.374,-6.374 16.203,-7.71 24.066,-3.303 84.29,47.243 192.925,35.027 264.615,-36.663 z"
       style="fill:#ffe239" />
    <path
       id="path2792"
       d="m 294.208,482.34 c -55.06,14.72 -114.7,7.85 -165.49,-20.62 -3.09,-1.73 -6.48,-2.58 -9.85,-2.58 -5.21,0 -10.35,2.01 -14.22,5.88 -8.87,8.87 -20.5,13.31 -32.13,13.31 -11.63,0 -23.26,-4.44 -32.13,-13.31 -8.87,-8.87 -13.31,-20.51 -13.31,-32.13 0,-11.63 4.44,-23.26 13.31,-32.13 6.37,-6.38 7.71,-16.21 3.3,-24.07 -47.24,-84.29 -35.03,-192.93 36.66,-264.62 58.15,-58.15 140.62,-77.17 214.68,-57.06 -94.78,24.91 -164.68,111.18 -164.68,213.78 0,102.29 69.5,188.36 163.86,213.55 z"
       style="fill:#ffb83b" />
    <path
       id="path2794"
       d="M 140.767,336.008 C 133.064,303.467 148,252.021 230.321,235.779 312.642,219.537 79.154,205.806 79.154,205.806"
       style="fill:#ffb83b" />
    <path
       id="path2796"
       d="m 403.99,80.12 c -1.19,31.59 -12.22,62.95 -31.99,89.46 -11.55,15.49 -26.07,29.33 -43.36,40.59 -29.21,19.03 -73.55,35.45 -115.63,41.66 -33.57,4.96 -65.68,3.42 -87.53,-8.45 -1.61,-19.53 5.22,-42.29 17.04,-65.11 21.99,-42.45 61.24,-85.09 95.39,-107.34 31.47,-20.5 67.05,-29.2 101.12,-27.09 8.17,0.5 16.26,1.62 24.18,3.35 1.32,0.27 2.63,0.57 3.94,0.9 12.73,3.13 24.98,7.84 36.45,14.07 0.49,5.98 0.62,11.97 0.39,17.96 z"
       style="fill:#70d65b" />
    <path
       id="path2798"
       d="m 403.99,80.12 c -1.19,31.59 -12.22,62.95 -31.99,89.46 -31.78,17.3 -70.47,27.46 -112.22,27.46 -34.17,0 -77.23,-6.8 -117.26,-18.77 21.99,-42.45 61.24,-85.09 95.39,-107.34 31.47,-20.5 67.05,-29.2 101.12,-27.09 24.38,8.4 46.13,20.55 64.05,35.52 0.3,0.25 0.61,0.5 0.91,0.76 z"
       style="fill:#58b741" />
    <path
       id="path2800"
       d="m 455.12,83.1 c -32.38,49.32 -98.36,83.09 -174.49,83.09 -42.35,0 -98.38,-10.45 -145.34,-28.22 C 97.83,123.8 66.16,104.98 51.79,83.1 84.16,33.78 204.5,0 280.63,0 c 56.58,0 107.56,18.66 143.3,48.51 1.16,0.95 2.3,1.92 3.42,2.91 10.88,9.57 20.23,20.2 27.77,31.68 z"
       style="fill:#70d65b" />
    <path
       id="path2802"
       d="M 423.93,48.51 C 374.65,12.28 135.29,34.36 135.29,137.97 97.83,123.8 66.16,104.98 51.79,83.1 84.16,33.78 204.5,0 280.63,0 c 56.58,0 107.56,18.66 143.3,48.51 z"
       style="fill:#58b741" />
    <path
       id="path2804"
       d="M 466.836,90.597 H 156.041 c -4.143,0 -7.5,-3.358 -7.5,-7.5 0,-4.142 3.357,-7.5 7.5,-7.5 h 310.795 c 4.143,0 7.5,3.358 7.5,7.5 0,4.142 -3.357,7.5 -7.5,7.5 z"
       style="fill:#4aa032" />
    <path
       id="path2806"
       d="m 322.724,136.901 c -1.92,0 -3.839,-0.732 -5.304,-2.197 -2.929,-2.929 -2.929,-7.678 0,-10.606 L 358.422,83.097 317.42,42.096 c -2.929,-2.929 -2.929,-7.677 0,-10.606 2.93,-2.929 7.678,-2.929 10.607,0 l 46.305,46.304 c 1.406,1.406 2.196,3.314 2.196,5.303 0,1.989 -0.79,3.897 -2.196,5.303 l -46.305,46.304 c -1.464,1.465 -3.384,2.197 -5.303,2.197 z"
       style="fill:#4aa032" />
    <path
       id="path2808"
       d="m 248.499,129.186 c -1.92,0 -3.839,-0.732 -5.304,-2.197 -2.929,-2.929 -2.929,-7.678 0,-10.606 L 276.482,83.097 243.195,49.811 c -2.929,-2.929 -2.929,-7.677 0,-10.606 2.93,-2.929 7.678,-2.929 10.607,0 l 38.59,38.589 c 1.406,1.406 2.196,3.314 2.196,5.303 0,1.989 -0.79,3.897 -2.196,5.303 l -38.59,38.589 c -1.464,1.465 -3.384,2.197 -5.303,2.197 z"
       style="fill:#4aa032" />
    <path
       id="path2810"
       d="m 185.11,119.665 c -1.919,0 -3.839,-0.732 -5.304,-2.197 -2.929,-2.929 -2.929,-7.677 0,-10.606 L 203.572,83.097 179.806,59.332 c -2.929,-2.929 -2.929,-7.677 0,-10.606 2.93,-2.929 7.678,-2.929 10.607,0 l 29.068,29.068 c 2.929,2.929 2.929,7.677 0,10.606 l -29.068,29.068 c -1.464,1.465 -3.384,2.197 -5.303,2.197 z"
       style="fill:#4aa032" />
    <g
       id="g2818">
      <path
         id="path2812"
         d="m 223.83,463.123 c -3.188,0 -6.133,-2.12 -7.117,-5.152 -0.969,-2.986 0.026,-6.324 2.5,-8.263 5.338,-4.183 13.239,0.688 11.983,7.301 -0.661,3.486 -3.805,6.114 -7.366,6.114 z"
         style="fill:#ff933b" />
      <path
         id="path2814"
         d="m 234.13,438.123 c -3.137,0 -6.004,-2.035 -7.064,-4.981 -1.102,-3.065 -0.025,-6.611 2.592,-8.547 5.45,-4.033 13.306,1.035 11.78,7.668 -0.774,3.366 -3.829,5.86 -7.308,5.86 z"
         style="fill:#ff933b" />
      <path
         id="path2816"
         d="m 249.7,457.023 c -3.256,0 -6.239,-2.194 -7.173,-5.319 -0.858,-2.87 0.085,-6.074 2.415,-7.975 5.383,-4.393 13.634,0.61 12.067,7.443 -0.774,3.376 -3.836,5.851 -7.309,5.851 z"
         style="fill:#ff933b" />
    </g>
    <g
       id="g2826">
      <path
         id="path2820"
         d="m 69.82,178.333 c -3.066,0 -5.897,-1.94 -6.994,-4.801 -1.13,-2.948 -0.26,-6.338 2.121,-8.4 2.447,-2.119 6.155,-2.37 8.88,-0.636 2.584,1.644 3.95,4.797 3.344,7.807 -0.697,3.461 -3.815,6.03 -7.351,6.03 z"
         style="fill:#ff933b" />
      <path
         id="path2822"
         d="m 89.58,159.873 c -6.689,0 -9.974,-8.475 -5.092,-13.005 4.949,-4.592 13.237,-0.44 12.554,6.244 -0.387,3.788 -3.644,6.761 -7.462,6.761 z"
         style="fill:#ff933b" />
      <path
         id="path2824"
         d="m 95.88,183.543 c -6.663,0 -9.999,-8.474 -5.086,-13.005 2.326,-2.145 5.831,-2.586 8.621,-1.104 2.828,1.503 4.394,4.743 3.855,7.895 -0.608,3.553 -3.792,6.214 -7.39,6.214 z"
         style="fill:#ff933b" />
    </g>
  </g>
  <g
     transform="matrix(0.07731776,-0.00703313,0.00902579,0.06065636,189.56214,16.3531)"
     id="g2876">
    <path
       style="fill:#ffe239"
       d="m 393.327,425.054 c 71.69,-71.69 83.907,-180.325 36.663,-264.614 -4.407,-7.864 -3.071,-17.692 3.303,-24.066 v 0 c 17.746,-17.746 17.746,-46.518 0,-64.265 v 0 c -17.746,-17.746 -46.519,-17.746 -64.265,0 v 0 c -6.374,6.374 -16.203,7.71 -24.066,3.303 -84.29,-47.243 -192.924,-35.027 -264.614,36.663 -71.69,71.69 -83.907,180.324 -36.664,264.614 4.407,7.863 3.071,17.692 -3.303,24.066 v 0 c -17.746,17.746 -17.746,46.518 0,64.265 v 0 c 17.746,17.746 46.519,17.746 64.265,0 v 0 c 6.374,-6.374 16.203,-7.71 24.066,-3.303 84.29,47.243 192.925,35.027 264.615,-36.663 z"
       id="path2838" />
    <path
       style="fill:#ffb83b"
       d="m 294.208,482.34 c -55.06,14.72 -114.7,7.85 -165.49,-20.62 -3.09,-1.73 -6.48,-2.58 -9.85,-2.58 -5.21,0 -10.35,2.01 -14.22,5.88 -8.87,8.87 -20.5,13.31 -32.13,13.31 -11.63,0 -23.26,-4.44 -32.13,-13.31 -8.87,-8.87 -13.31,-20.51 -13.31,-32.13 0,-11.63 4.44,-23.26 13.31,-32.13 6.37,-6.38 7.71,-16.21 3.3,-24.07 -47.24,-84.29 -35.03,-192.93 36.66,-264.62 58.15,-58.15 140.62,-77.17 214.68,-57.06 -94.78,24.91 -164.68,111.18 -164.68,213.78 0,102.29 69.5,188.36 163.86,213.55 z"
       id="path2840" />
    <path
       style="fill:#ffb83b"
       d="M 140.767,336.008 C 133.064,303.467 148,252.021 230.321,235.779 312.642,219.537 79.154,205.806 79.154,205.806"
       id="path2842" />
    <path
       style="fill:#70d65b"
       d="m 403.99,80.12 c -1.19,31.59 -12.22,62.95 -31.99,89.46 -11.55,15.49 -26.07,29.33 -43.36,40.59 -29.21,19.03 -73.55,35.45 -115.63,41.66 -33.57,4.96 -65.68,3.42 -87.53,-8.45 -1.61,-19.53 5.22,-42.29 17.04,-65.11 21.99,-42.45 61.24,-85.09 95.39,-107.34 31.47,-20.5 67.05,-29.2 101.12,-27.09 8.17,0.5 16.26,1.62 24.18,3.35 1.32,0.27 2.63,0.57 3.94,0.9 12.73,3.13 24.98,7.84 36.45,14.07 0.49,5.98 0.62,11.97 0.39,17.96 z"
       id="path2844" />
    <path
       style="fill:#58b741"
       d="m 403.99,80.12 c -1.19,31.59 -12.22,62.95 -31.99,89.46 -31.78,17.3 -70.47,27.46 -112.22,27.46 -34.17,0 -77.23,-6.8 -117.26,-18.77 21.99,-42.45 61.24,-85.09 95.39,-107.34 31.47,-20.5 67.05,-29.2 101.12,-27.09 24.38,8.4 46.13,20.55 64.05,35.52 0.3,0.25 0.61,0.5 0.91,0.76 z"
       id="path2846" />
    <path
       style="fill:#70d65b"
       d="m 455.12,83.1 c -32.38,49.32 -98.36,83.09 -174.49,83.09 -42.35,0 -98.38,-10.45 -145.34,-28.22 C 97.83,123.8 66.16,104.98 51.79,83.1 84.16,33.78 204.5,0 280.63,0 c 56.58,0 107.56,18.66 143.3,48.51 1.16,0.95 2.3,1.92 3.42,2.91 10.88,9.57 20.23,20.2 27.77,31.68 z"
       id="path2848" />
    <path
       style="fill:#58b741"
       d="M 423.93,48.51 C 374.65,12.28 135.29,34.36 135.29,137.97 97.83,123.8 66.16,104.98 51.79,83.1 84.16,33.78 204.5,0 280.63,0 c 56.58,0 107.56,18.66 143.3,48.51 z"
       id="path2850" />
    <path
       style="fill:#4aa032"
       d="M 466.836,90.597 H 156.041 c -4.143,0 -7.5,-3.358 -7.5,-7.5 0,-4.142 3.357,-7.5 7.5,-7.5 h 310.795 c 4.143,0 7.5,3.358 7.5,7.5 0,4.142 -3.357,7.5 -7.5,7.5 z"
       id="path2852" />
    <path
       style="fill:#4aa032"
       d="m 322.724,136.901 c -1.92,0 -3.839,-0.732 -5.304,-2.197 -2.929,-2.929 -2.929,-7.678 0,-10.606 L 358.422,83.097 317.42,42.096 c -2.929,-2.929 -2.929,-7.677 0,-10.606 2.93,-2.929 7.678,-2.929 10.607,0 l 46.305,46.304 c 1.406,1.406 2.196,3.314 2.196,5.303 0,1.989 -0.79,3.897 -2.196,5.303 l -46.305,46.304 c -1.464,1.465 -3.384,2.197 -5.303,2.197 z"
       id="path2854" />
    <path
       style="fill:#4aa032"
       d="m 248.499,129.186 c -1.92,0 -3.839,-0.732 -5.304,-2.197 -2.929,-2.929 -2.929,-7.678 0,-10.606 L 276.482,83.097 243.195,49.811 c -2.929,-2.929 -2.929,-7.677 0,-10.606 2.93,-2.929 7.678,-2.929 10.607,0 l 38.59,38.589 c 1.406,1.406 2.196,3.314 2.196,5.303 0,1.989 -0.79,3.897 -2.196,5.303 l -38.59,38.589 c -1.464,1.465 -3.384,2.197 -5.303,2.197 z"
       id="path2856" />
    <path
       style="fill:#4aa032"
       d="m 185.11,119.665 c -1.919,0 -3.839,-0.732 -5.304,-2.197 -2.929,-2.929 -2.929,-7.677 0,-10.606 L 203.572,83.097 179.806,59.332 c -2.929,-2.929 -2.929,-7.677 0,-10.606 2.93,-2.929 7.678,-2.929 10.607,0 l 29.068,29.068 c 2.929,2.929 2.929,7.677 0,10.606 l -29.068,29.068 c -1.464,1.465 -3.384,2.197 -5.303,2.197 z"
       id="path2858" />
    <g
       id="g2866">
      <path
         style="fill:#ff933b"
         d="m 223.83,463.123 c -3.188,0 -6.133,-2.12 -7.117,-5.152 -0.969,-2.986 0.026,-6.324 2.5,-8.263 5.338,-4.183 13.239,0.688 11.983,7.301 -0.661,3.486 -3.805,6.114 -7.366,6.114 z"
         id="path2860" />
      <path
         style="fill:#ff933b"
         d="m 234.13,438.123 c -3.137,0 -6.004,-2.035 -7.064,-4.981 -1.102,-3.065 -0.025,-6.611 2.592,-8.547 5.45,-4.033 13.306,1.035 11.78,7.668 -0.774,3.366 -3.829,5.86 -7.308,5.86 z"
         id="path2862" />
      <path
         style="fill:#ff933b"
         d="m 249.7,457.023 c -3.256,0 -6.239,-2.194 -7.173,-5.319 -0.858,-2.87 0.085,-6.074 2.415,-7.975 5.383,-4.393 13.634,0.61 12.067,7.443 -0.774,3.376 -3.836,5.851 -7.309,5.851 z"
         id="path2864" />
    </g>
    <g
       id="g2874">
      <path
         style="fill:#ff933b"
         d="m 69.82,178.333 c -3.066,0 -5.897,-1.94 -6.994,-4.801 -1.13,-2.948 -0.26,-6.338 2.121,-8.4 2.447,-2.119 6.155,-2.37 8.88,-0.636 2.584,1.644 3.95,4.797 3.344,7.807 -0.697,3.461 -3.815,6.03 -7.351,6.03 z"
         id="path2868" />
      <path
         style="fill:#ff933b"
         d="m 89.58,159.873 c -6.689,0 -9.974,-8.475 -5.092,-13.005 4.949,-4.592 13.237,-0.44 12.554,6.244 -0.387,3.788 -3.644,6.761 -7.462,6.761 z"
         id="path2870" />
      <path
         style="fill:#ff933b"
         d="m 95.88,183.543 c -6.663,0 -9.999,-8.474 -5.086,-13.005 2.326,-2.145 5.831,-2.586 8.621,-1.104 2.828,1.503 4.394,4.743 3.855,7.895 -0.608,3.553 -3.792,6.214 -7.39,6.214 z"
         id="path2872" />
    </g>
  </g>
  <g
     id="g2916"
     transform="matrix(0.07731776,-0.00703313,0.00902579,0.06065636,227.94277,147.17158)">
    <path
       id="path2878"
       d="m 393.327,425.054 c 71.69,-71.69 83.907,-180.325 36.663,-264.614 -4.407,-7.864 -3.071,-17.692 3.303,-24.066 v 0 c 17.746,-17.746 17.746,-46.518 0,-64.265 v 0 c -17.746,-17.746 -46.519,-17.746 -64.265,0 v 0 c -6.374,6.374 -16.203,7.71 -24.066,3.303 -84.29,-47.243 -192.924,-35.027 -264.614,36.663 -71.69,71.69 -83.907,180.324 -36.664,264.614 4.407,7.863 3.071,17.692 -3.303,24.066 v 0 c -17.746,17.746 -17.746,46.518 0,64.265 v 0 c 17.746,17.746 46.519,17.746 64.265,0 v 0 c 6.374,-6.374 16.203,-7.71 24.066,-3.303 84.29,47.243 192.925,35.027 264.615,-36.663 z"
       style="fill:#ffe239" />
    <path
       id="path2880"
       d="m 294.208,482.34 c -55.06,14.72 -114.7,7.85 -165.49,-20.62 -3.09,-1.73 -6.48,-2.58 -9.85,-2.58 -5.21,0 -10.35,2.01 -14.22,5.88 -8.87,8.87 -20.5,13.31 -32.13,13.31 -11.63,0 -23.26,-4.44 -32.13,-13.31 -8.87,-8.87 -13.31,-20.51 -13.31,-32.13 0,-11.63 4.44,-23.26 13.31,-32.13 6.37,-6.38 7.71,-16.21 3.3,-24.07 -47.24,-84.29 -35.03,-192.93 36.66,-264.62 58.15,-58.15 140.62,-77.17 214.68,-57.06 -94.78,24.91 -164.68,111.18 -164.68,213.78 0,102.29 69.5,188.36 163.86,213.55 z"
       style="fill:#ffb83b" />
    <path
       id="path2882"
       d="M 140.767,336.008 C 133.064,303.467 148,252.021 230.321,235.779 312.642,219.537 79.154,205.806 79.154,205.806"
       style="fill:#ffb83b" />
    <path
       id="path2884"
       d="m 403.99,80.12 c -1.19,31.59 -12.22,62.95 -31.99,89.46 -11.55,15.49 -26.07,29.33 -43.36,40.59 -29.21,19.03 -73.55,35.45 -115.63,41.66 -33.57,4.96 -65.68,3.42 -87.53,-8.45 -1.61,-19.53 5.22,-42.29 17.04,-65.11 21.99,-42.45 61.24,-85.09 95.39,-107.34 31.47,-20.5 67.05,-29.2 101.12,-27.09 8.17,0.5 16.26,1.62 24.18,3.35 1.32,0.27 2.63,0.57 3.94,0.9 12.73,3.13 24.98,7.84 36.45,14.07 0.49,5.98 0.62,11.97 0.39,17.96 z"
       style="fill:#70d65b" />
    <path
       id="path2886"
       d="m 403.99,80.12 c -1.19,31.59 -12.22,62.95 -31.99,89.46 -31.78,17.3 -70.47,27.46 -112.22,27.46 -34.17,0 -77.23,-6.8 -117.26,-18.77 21.99,-42.45 61.24,-85.09 95.39,-107.34 31.47,-20.5 67.05,-29.2 101.12,-27.09 24.38,8.4 46.13,20.55 64.05,35.52 0.3,0.25 0.61,0.5 0.91,0.76 z"
       style="fill:#58b741" />
    <path
       id="path2888"
       d="m 455.12,83.1 c -32.38,49.32 -98.36,83.09 -174.49,83.09 -42.35,0 -98.38,-10.45 -145.34,-28.22 C 97.83,123.8 66.16,104.98 51.79,83.1 84.16,33.78 204.5,0 280.63,0 c 56.58,0 107.56,18.66 143.3,48.51 1.16,0.95 2.3,1.92 3.42,2.91 10.88,9.57 20.23,20.2 27.77,31.68 z"
       style="fill:#70d65b" />
    <path
       id="path2890"
       d="M 423.93,48.51 C 374.65,12.28 135.29,34.36 135.29,137.97 97.83,123.8 66.16,104.98 51.79,83.1 84.16,33.78 204.5,0 280.63,0 c 56.58,0 107.56,18.66 143.3,48.51 z"
       style="fill:#58b741" />
    <path
       id="path2892"
       d="M 466.836,90.597 H 156.041 c -4.143,0 -7.5,-3.358 -7.5,-7.5 0,-4.142 3.357,-7.5 7.5,-7.5 h 310.795 c 4.143,0 7.5,3.358 7.5,7.5 0,4.142 -3.357,7.5 -7.5,7.5 z"
       style="fill:#4aa032" />
    <path
       id="path2894"
       d="m 322.724,136.901 c -1.92,0 -3.839,-0.732 -5.304,-2.197 -2.929,-2.929 -2.929,-7.678 0,-10.606 L 358.422,83.097 317.42,42.096 c -2.929,-2.929 -2.929,-7.677 0,-10.606 2.93,-2.929 7.678,-2.929 10.607,0 l 46.305,46.304 c 1.406,1.406 2.196,3.314 2.196,5.303 0,1.989 -0.79,3.897 -2.196,5.303 l -46.305,46.304 c -1.464,1.465 -3.384,2.197 -5.303,2.197 z"
       style="fill:#4aa032" />
    <path
       id="path2896"
       d="m 248.499,129.186 c -1.92,0 -3.839,-0.732 -5.304,-2.197 -2.929,-2.929 -2.929,-7.678 0,-10.606 L 276.482,83.097 243.195,49.811 c -2.929,-2.929 -2.929,-7.677 0,-10.606 2.93,-2.929 7.678,-2.929 10.607,0 l 38.59,38.589 c 1.406,1.406 2.196,3.314 2.196,5.303 0,1.989 -0.79,3.897 -2.196,5.303 l -38.59,38.589 c -1.464,1.465 -3.384,2.197 -5.303,2.197 z"
       style="fill:#4aa032" />
    <path
       id="path2898"
       d="m 185.11,119.665 c -1.919,0 -3.839,-0.732 -5.304,-2.197 -2.929,-2.929 -2.929,-7.677 0,-10.606 L 203.572,83.097 179.806,59.332 c -2.929,-2.929 -2.929,-7.677 0,-10.606 2.93,-2.929 7.678,-2.929 10.607,0 l 29.068,29.068 c 2.929,2.929 2.929,7.677 0,10.606 l -29.068,29.068 c -1.464,1.465 -3.384,2.197 -5.303,2.197 z"
       style="fill:#4aa032" />
    <g
       id="g2906">
      <path
         id="path2900"
         d="m 223.83,463.123 c -3.188,0 -6.133,-2.12 -7.117,-5.152 -0.969,-2.986 0.026,-6.324 2.5,-8.263 5.338,-4.183 13.239,0.688 11.983,7.301 -0.661,3.486 -3.805,6.114 -7.366,6.114 z"
         style="fill:#ff933b" />
      <path
         id="path2902"
         d="m 234.13,438.123 c -3.137,0 -6.004,-2.035 -7.064,-4.981 -1.102,-3.065 -0.025,-6.611 2.592,-8.547 5.45,-4.033 13.306,1.035 11.78,7.668 -0.774,3.366 -3.829,5.86 -7.308,5.86 z"
         style="fill:#ff933b" />
      <path
         id="path2904"
         d="m 249.7,457.023 c -3.256,0 -6.239,-2.194 -7.173,-5.319 -0.858,-2.87 0.085,-6.074 2.415,-7.975 5.383,-4.393 13.634,0.61 12.067,7.443 -0.774,3.376 -3.836,5.851 -7.309,5.851 z"
         style="fill:#ff933b" />
    </g>
    <g
       id="g2914">
      <path
         id="path2908"
         d="m 69.82,178.333 c -3.066,0 -5.897,-1.94 -6.994,-4.801 -1.13,-2.948 -0.26,-6.338 2.121,-8.4 2.447,-2.119 6.155,-2.37 8.88,-0.636 2.584,1.644 3.95,4.797 3.344,7.807 -0.697,3.461 -3.815,6.03 -7.351,6.03 z"
         style="fill:#ff933b" />
      <path
         id="path2910"
         d="m 89.58,159.873 c -6.689,0 -9.974,-8.475 -5.092,-13.005 4.949,-4.592 13.237,-0.44 12.554,6.244 -0.387,3.788 -3.644,6.761 -7.462,6.761 z"
         style="fill:#ff933b" />
      <path
         id="path2912"
         d="m 95.88,183.543 c -6.663,0 -9.999,-8.474 -5.086,-13.005 2.326,-2.145 5.831,-2.586 8.621,-1.104 2.828,1.503 4.394,4.743 3.855,7.895 -0.608,3.553 -3.792,6.214 -7.39,6.214 z"
         style="fill:#ff933b" />
    </g>
  </g>
  <text
     id="text7702"
     y="67.14695"
     x="171.36162"
     style="font-style:normal;font-variant:normal;font-weight:bold;font-stretch:normal;font-size:11.28888988px;line-height:1.25;font-family:Arial;-inkscape-font-specification:'Arial, Bold';font-variant-ligatures:normal;font-variant-caps:normal;font-variant-numeric:normal;font-feature-settings:normal;text-align:start;letter-spacing:0px;word-spacing:0px;writing-mode:lr-tb;text-anchor:start;fill:#db9200;fill-opacity:1;stroke:none;stroke-width:0.26458335"
     xml:space="preserve"><tspan
       style="stroke-width:0.26458335"
       id="tspan7688"
       y="67.14695"
       x="171.36162"><tspan
         style="stroke-width:0.26458335"
         id="tspan7686"
         y="67.14695"
         x="171.36162">നിങ്ങൾ നാരങ്ങ വെള്ളം </tspan></tspan><tspan
       style="stroke-width:0.26458335"
       id="tspan7692"
       y="81.258064"
       x="171.36162"><tspan
         style="stroke-width:0.26458335"
         id="tspan7690"
         y="81.258064"
         x="171.36162"
         dx="0 0 0 0 0 0 0 0 0 0 -8.2461815 0 8.2461834">കുടിക്കുമ്പോൾ </tspan></tspan><tspan
       style="stroke-width:0.26458335"
       id="tspan7696"
       y="95.369179"
       x="171.36162"><tspan
         style="stroke-width:0.26458335"
         id="tspan7694"
         y="95.369179"
         x="171.36162">നിങ്ങളുടെ ശരീരത്തിന് </tspan></tspan><tspan
       style="stroke-width:0.26458335"
       id="tspan7700"
       y="109.48029"
       x="171.36162"><tspan
         style="stroke-width:0.26458335"
         id="tspan7698"
         y="109.48029"
         x="171.36162">എന്ത് സംഭവിക്കും</tspan></tspan></text>
</svg>
