<?xml version="1.0" encoding="UTF-8" standalone="no"?>
<svg
   xmlns:dc="http://purl.org/dc/elements/1.1/"
   xmlns:cc="http://creativecommons.org/ns#"
   xmlns:rdf="http://www.w3.org/1999/02/22-rdf-syntax-ns#"
   xmlns:svg="http://www.w3.org/2000/svg"
   xmlns="http://www.w3.org/2000/svg"
   id="svg8"
   version="1.1"
   viewBox="0 0 338.66666 190.50001"
   height="720"
   width="1280">
  <defs
     id="defs2" />
  <metadata
     id="metadata5">
    <rdf:RDF>
      <cc:Work
         rdf:about="">
        <dc:format>image/svg+xml</dc:format>
        <dc:type
           rdf:resource="http://purl.org/dc/dcmitype/StillImage" />
        <dc:title></dc:title>
      </cc:Work>
    </rdf:RDF>
  </metadata>
  <g
     style="display:inline"
     transform="translate(0,-106.49998)"
     id="layer1">
    <rect
       ry="20.127901"
       rx="21.43442"
       y="106.49237"
       x="-0.12426005"
       height="190.49762"
       width="338.85431"
       id="rect825"
       style="opacity:1;fill:#1d265f;fill-opacity:1;fill-rule:nonzero;stroke:none;stroke-width:0.16802698;stroke-linecap:round;stroke-linejoin:round;stroke-miterlimit:4;stroke-dasharray:none;stroke-opacity:1;paint-order:normal" />
    <g
       style="fill:#91a2ed;fill-opacity:1"
       transform="matrix(0.12692872,-0.04574237,0.04850328,0.13458986,57.255086,220.14323)"
       id="g1267">
      <g
         style="fill:#91a2ed;fill-opacity:1"
         id="g1235" />
      <path
         style="fill:#91a2ed;fill-opacity:1"
         d="m 150.20313,234.32031 c 3.83984,0 7.03906,4.48047 7.03906,10.08203 0,5.27735 -2.71875,9.91797 -7.03906,9.91797 H 98.84375 c -6.082031,0 -8.160156,-4.64062 -8.160156,-8.63672 0,-4 2.238281,-7.52343 4.320312,-10.24218 L 123.32422,198.16016 H 98.84375 c -3.839844,0 -7.039062,-4.48047 -7.039062,-10.07813 0,-5.28125 2.71875,-9.92187 7.039062,-9.92187 h 47.83984 c 4,0 7.67969,2.55859 7.67969,8.16015 0,3.51953 -1.4414,7.35938 -4,10.71875 l -28.48047,37.28125 z m 0,0"
         id="path1239" />
      <path
         style="fill:#91a2ed;fill-opacity:1"
         d="m 250.40625,175.07422 c 4.07813,0 7.48047,4.76172 7.48047,10.71094 0,5.60937 -2.89063,10.53906 -7.48047,10.53906 h -54.57031 c -6.45703,0 -8.66797,-4.92969 -8.66797,-9.17969 0,-4.25 2.37891,-7.98828 4.58984,-10.8789 l 30.08985,-39.60938 h -26.01172 c -4.07813,0 -7.47656,-4.76172 -7.47656,-10.71094 0,-5.60937 2.88671,-10.53906 7.47656,-10.53906 h 50.82812 c 4.25,0 8.16016,2.72266 8.16016,8.67187 0,3.73829 -1.52734,7.81641 -4.25,11.39063 l -30.25781,39.60547 z m 0,0"
         id="path1241" />
      <path
         style="fill:#91a2ed;fill-opacity:1"
         d="m 324.46094,232.86719 h 46.23828 c 5.09765,0 7.98828,6.12109 7.98828,11.55859 0,5.44141 -2.89063,11.5625 -7.98828,11.5625 h -72.41797 c -5.44141,0 -7.65234,-2.89062 -7.65234,-6.97265 0,-2.71875 1.01953,-6.11719 2.89062,-9.34766 l 47.9375,-84.82813 h -39.4375 c -5.09765,0 -7.98828,-5.4414 -7.98828,-11.5625 0,-5.60937 2.37891,-11.55859 7.98828,-11.55859 h 65.61719 c 5.10156,0 7.65234,2.89063 7.65234,6.96875 0,2.72266 -1.01953,5.94922 -2.89062,9.35156 z m 0,0"
         id="path1243" />
      <path
         style="fill:#91a2ed;fill-opacity:1"
         d="m 250.40625,175.07422 h -26.30078 v 21.25 h 26.30078 c 4.58984,0 7.48047,-4.92969 7.48047,-10.53906 0,-5.94922 -3.40234,-10.71094 -7.48047,-10.71094 z m 0,0"
         id="path1245" />
      <path
         style="fill:#91a2ed;fill-opacity:1"
         d="m 254.82422,124.07812 c 0,-5.94921 -3.91016,-8.67187 -8.16016,-8.67187 h -22.55859 v 54.71094 l 26.46875,-34.64844 c 2.72266,-3.57422 4.25,-7.65234 4.25,-11.39063 z m 0,0"
         id="path1247" />
    </g>
  </g>
  <g
     style="display:inline"
     id="layer2">
    <g
       transform="matrix(0.05571475,0.43083499,-0.65314915,0.02691259,308.80975,44.224681)"
       id="g971">
      <g
         id="layer6">
        <path
           style="fill:none;stroke:#000000;stroke-width:4.60422993;stroke-linecap:round;stroke-linejoin:miter;stroke-miterlimit:4;stroke-dasharray:none;stroke-opacity:1"
           d="m 79.9286,143.50618 c 0.02479,21.25333 11.556577,41.66542 11.548279,41.16682"
           id="path878" />
        <path
           id="path880"
           d="m 139.88897,127.42679 c 17.15072,22.31033 30.48013,-10.47 31.34105,-31.596859"
           style="fill:none;stroke:#000000;stroke-width:4.60422993;stroke-linecap:round;stroke-linejoin:miter;stroke-miterlimit:4;stroke-dasharray:none;stroke-opacity:1" />
        <path
           style="fill:none;stroke:#000000;stroke-width:5.86499977;stroke-linecap:round;stroke-linejoin:miter;stroke-miterlimit:4;stroke-dasharray:none;stroke-opacity:1"
           d="m 123.61411,181.95352 c 72.17777,-2.23045 25.96101,50.50608 40.41398,48.31127"
           id="path882" />
        <path
           id="path884"
           d="m 159.77785,176.47054 c 15.63472,17.83686 -7.51784,48.83008 4.54962,46.08715"
           style="fill:none;stroke:#000000;stroke-width:5.86499977;stroke-linecap:round;stroke-linejoin:miter;stroke-miterlimit:4;stroke-dasharray:none;stroke-opacity:1" />
      </g>
      <g
         transform="matrix(0.93589407,-0.21976863,0.39426683,0.97591444,-44.229019,22.925437)"
         id="layer4"
         style="display:inline">
        <rect
           style="opacity:1;fill:#fe7b6a;fill-opacity:1;stroke:none;stroke-width:0.07566334;stroke-linecap:round;stroke-linejoin:round;stroke-miterlimit:4;stroke-dasharray:none;stroke-opacity:1;paint-order:normal"
           id="rect2154"
           width="75.683777"
           height="49.587734"
           x="70.954491"
           y="138.45433"
           ry="2.5358722" />
        <path
           style="fill:#f0624e;fill-opacity:1;stroke:#f0624e;stroke-width:0.32813942;stroke-linecap:butt;stroke-linejoin:miter;stroke-miterlimit:4;stroke-dasharray:none;stroke-opacity:1"
           d="m 70.979827,154.98293 75.391303,-0.72834 5e-5,18.15658 -75.391305,0.11601 z"
           id="path2156" />
      </g>
      <g
         id="layer1-8">
        <g
           transform="translate(4.1038546,-103.99778)"
           id="layer1-4"
           style="fill:#a3e0c0;fill-opacity:1">
          <rect
             rx="49.514881"
             ry="50.081848"
             y="146.18748"
             x="33.261906"
             height="100.1637"
             width="132.66963"
             id="rect815"
             style="opacity:1;fill:#a3e0c0;fill-opacity:1;stroke:none;stroke-width:3.00399995;stroke-linecap:round;stroke-linejoin:round;stroke-miterlimit:4;stroke-dasharray:none;stroke-opacity:1;paint-order:normal" />
        </g>
        <path
           style="fill:#86d0ab;fill-opacity:1;fill-rule:evenodd;stroke-width:0.26458332"
           id="path2023"
           d="M 79.913584,104.69958 A 10.022608,10.557146 0 0 1 69.891632,115.25672 10.022608,10.557146 0 0 1 59.868368,104.70096 10.022608,10.557146 0 0 1 69.889008,94.142431 10.022608,10.557146 0 0 1 79.913583,104.69681 l -10.022607,0.003 z" />
        <path
           style="fill:#86d0ab;fill-opacity:1;fill-rule:evenodd;stroke-width:0.26458332"
           id="path2025"
           d="m 161.16352,101.75961 a 10.423512,11.358955 0 0 1 -10.42283,11.35896 10.423512,11.358955 0 0 1 -10.4242,-11.35747 10.423512,11.358955 0 0 1 10.42147,-11.360442 10.423512,11.358955 0 0 1 10.42556,11.355982 l -10.42351,0.003 z" />
        <path
           style="fill:#95d8af;fill-opacity:1;stroke:#95d8af;stroke-width:0.26458332px;stroke-linecap:butt;stroke-linejoin:miter;stroke-opacity:1"
           d="M 135.46234,139.90161 C 103.83913,141.25495 74.025655,141.06533 71.045524,115.05813 55.376425,115 57.726273,95.128724 69.412294,93.82613 65.298145,53.389322 79.393102,48.961318 88.864323,42.672194 59.562019,39.595249 37.185723,67.453189 37.809284,89.960016 c -1.76528,33.488194 25.446872,52.047174 47.118697,52.046414 23.662139,0.75924 42.395969,0.886 50.534359,-2.10482 z"
           id="path2029" />
        <path
           style="fill:#77c79f;fill-opacity:1;stroke:none;stroke-width:0.114;stroke-linecap:butt;stroke-linejoin:miter;stroke-miterlimit:4;stroke-dasharray:none;stroke-opacity:1"
           d="M 42.918268,69.134595 29.167873,57.475574 c -4.06867,-3.600109 1.797433,-10.284612 5.762783,-6.888703 l 13.041932,10.732934 c -2.588087,3.245779 -3.523411,5.121467 -5.05432,7.81479 z"
           id="path2031" />
        <path
           style="fill:#77c79f;fill-opacity:1;stroke:none;stroke-width:0.075;stroke-linecap:butt;stroke-linejoin:miter;stroke-miterlimit:4;stroke-dasharray:none;stroke-opacity:1"
           d="M 49.850716,58.986426 29.938228,41.293354 C 26.241189,38.140029 32.50453,32.234957 35.8028,34.8462 l 20.059955,18.236876 c -1.122746,1.030173 -4.87864,4.541005 -6.012039,5.90335 z"
           id="path2033" />
        <path
           id="path2044"
           d="M 58.093776,51.342742 44.461795,39.800021 c -4.06867,-3.600109 1.797433,-10.284612 5.762783,-6.888703 l 15.195652,13.90722 c -1.85391,0.869755 -5.856491,3.288176 -7.326454,4.524204 z"
           style="fill:#77c79f;fill-opacity:1;stroke:none;stroke-width:0.114;stroke-linecap:butt;stroke-linejoin:miter;stroke-miterlimit:4;stroke-dasharray:none;stroke-opacity:1" />
      </g>
      <g
         id="layer2-6"
         style="display:inline">
        <path
           d="M 108.76829,82.887405 A 13.607142,12.851191 0 0 1 95.162039,95.738596 13.607142,12.851191 0 0 1 81.554006,82.889088 13.607142,12.851191 0 0 1 95.158476,70.036215 13.607142,12.851191 0 0 1 108.76829,82.884041 l -13.607142,0.0034 z"
           id="path847"
           style="fill:#ffffff;fill-opacity:1;fill-rule:evenodd;stroke-width:0.26458332" />
        <path
           style="fill:#ffffff;fill-opacity:1;fill-rule:evenodd;stroke-width:0.26458332;paint-order:fill markers stroke"
           id="path2091"
           d="M 133.94442,83.118378 A 13.607142,12.851191 0 0 1 120.33816,95.969568 13.607142,12.851191 0 0 1 106.73013,83.12006 13.607142,12.851191 0 0 1 120.3346,70.267187 13.607142,12.851191 0 0 1 133.94441,83.115013 l -13.60714,0.0034 z" />
        <path
           style="fill:#000000;fill-opacity:1;fill-rule:evenodd;stroke:none;stroke-width:0.26458332;stroke-opacity:1"
           id="path2179"
           d="m 101.28195,82.887405 a 6.1208024,5.7743421 0 0 1 -6.120401,5.774342 6.1208024,5.7743421 0 0 1 -6.121203,-5.773586 6.1208024,5.7743421 0 0 1 6.1196,-5.775098 6.1208024,5.7743421 0 0 1 6.122004,5.772831 l -6.120802,0.0015 z" />
        <path
           d="m 126.45808,83.118378 a 6.1208024,5.7743421 0 0 1 -6.12041,5.774342 6.1208024,5.7743421 0 0 1 -6.1212,-5.773586 6.1208024,5.7743421 0 0 1 6.1196,-5.775098 6.1208024,5.7743421 0 0 1 6.122,5.77283 l -6.1208,0.0015 z"
           id="path2181"
           style="fill:#000000;fill-opacity:1;fill-rule:evenodd;stroke-width:0.26458332;paint-order:markers stroke fill" />
        <path
           style="fill:#a3e0c0;fill-opacity:1;stroke:#a3e0c0;stroke-width:0.065;stroke-linecap:butt;stroke-linejoin:miter;stroke-miterlimit:4;stroke-dasharray:none;stroke-opacity:1"
           d="m 81.47596,82.945154 c 1.738848,-17.658284 23.00856,-14.931422 26.27325,-4.965933 7.83267,-13.688767 26.00903,-7.572675 26.1952,5.13579 l 13.16761,-1.258019 -5.85786,-21.035023 -67.631584,4.659656 -1.464463,18.372362 z"
           id="path2201" />
        <path
           style="fill:#a3e0c0;fill-opacity:1;stroke:#a3e0c0;stroke-width:0.065;stroke-linecap:butt;stroke-linejoin:miter;stroke-miterlimit:4;stroke-dasharray:none;stroke-opacity:1"
           d="m 81.47596,82.945154 c 1.045872,13.684224 19.03344,18.034166 26.17231,5.112708 5.50008,11.980628 25.5048,10.051654 26.29614,-4.942853 l 13.16761,-1.258017 -9.33918,16.744471 -55.829213,5.144777 -6.559526,-11.403483 -3.128389,-0.201829 -0.0976,-8.286943 z"
           id="path2213" />
      </g>
      <g
         id="layer5" />
      <g
         id="layer3"
         style="display:inline">
        <path
           style="fill:none;stroke:#64a2d6;stroke-width:8.25;stroke-linecap:round;stroke-linejoin:miter;stroke-miterlimit:4;stroke-dasharray:none;stroke-opacity:1"
           d="m 91.369316,108.83786 c 34.845494,-3.27864 34.845494,-3.27864 34.845494,-3.27864"
           id="path895" />
        <path
           style="fill:none;stroke:#000000;stroke-width:2.06500006;stroke-linecap:round;stroke-linejoin:miter;stroke-miterlimit:4;stroke-dasharray:none;stroke-opacity:1"
           d="m 91.369316,108.83786 34.845494,-3.27864"
           id="path897" />
      </g>
    </g>
    <path
       id="path980"
       d="m 259.17361,81.559643 c 7.12427,-1.272542 14.63301,7.284003 4.7073,11.185788 -11.71458,3.489488 -18.80486,-9.557145 -4.7073,-11.185788 z"
       style="fill:#84c2ff;fill-opacity:1;stroke:none;stroke-width:0.08060475;stroke-linecap:butt;stroke-linejoin:miter;stroke-miterlimit:4;stroke-dasharray:none;stroke-opacity:1" />
    <path
       style="fill:#84c2ff;fill-opacity:1;stroke:none;stroke-width:0.08060475;stroke-linecap:butt;stroke-linejoin:miter;stroke-miterlimit:4;stroke-dasharray:none;stroke-opacity:1"
       d="m 260.26164,92.277054 c 7.12427,-1.272542 15.10549,8.323446 5.17978,12.225226 -11.0823,3.23347 -19.27733,-10.596581 -5.17978,-12.225226 z"
       id="path982" />
    <g
       transform="matrix(0.13012011,0.00833246,-0.01084332,0.10780723,247.5602,1.173831)"
       id="g1100">
      <g
         style="fill:#6ad9eb"
         id="g1068">
        <path
           style="fill:#475cc7;fill-opacity:1"
           d="m 169.45313,476.85547 c -26.46485,0 -47.9961,-21.53125 -47.9961,-48 0,-26.46484 21.53125,-47.99609 47.9961,-47.99609 26.46484,0 47.99609,21.53125 47.99609,47.99609 0,26.46875 -21.53125,48 -47.99609,48 z m 0,0"
           id="path1062" />
        <path
           style="fill:#475cc7;fill-opacity:1"
           d="m 82.117188,512 c -16.542969,0 -30,-13.45703 -30,-30 0,-16.54297 13.457031,-30 30,-30 16.539062,0 30.000002,13.45703 30.000002,30 0,16.54297 -13.46094,30 -30.000002,30 z m 0,0"
           id="path1064" />
        <path
           style="fill:#131953;fill-opacity:1"
           d="m 224.10547,362.14844 c -28.21484,0 -53.70313,-15.01563 -67.45703,-38.9961 H 113.63672 C 50.976562,323.15234 0,272.17188 0,209.51172 0,146.85156 50.976562,95.875 113.63672,95.875 c 5.17969,0 10.34375,0.347656 15.44922,1.042969 C 154.58984,38.445312 212.55469,0 277.20313,0 c 40.17187,0 78.68359,14.84375 108.43359,41.792969 26.62891,24.121093 44.33203,56.140625 50.60156,91.140621 19.23828,4.17188 36.78906,14.17578 50.31641,28.86328 16.39453,17.79688 25.42187,40.92969 25.42187,65.14063 0,53.05469 -43.16015,96.21484 -96.21094,96.21484 H 291.5625 c -13.75781,23.98047 -39.24609,38.9961 -67.45703,38.9961 z m 0,0"
           id="path1066" />
      </g>
      <path
         style="fill:#3a4fba;fill-opacity:1"
         d="M 436.23828,132.93359 C 429.96875,97.933594 412.26563,65.914062 385.63672,41.792969 355.88672,14.84375 317.375,0 277.20313,0 c -18.44532,0 -36.33985,3.140625 -53.09766,8.972656 -19.64007,85.18912 -53.18773,147.338664 0,353.175784 28.21094,0 53.69922,-15.01563 67.45703,-38.9961 h 124.19922 c 53.05469,0 96.21484,-43.16406 96.21484,-96.21484 0,-24.21094 -9.03125,-47.34375 -25.42187,-65.14453 -13.52735,-14.68359 -31.07813,-24.6875 -50.31641,-28.85938 z"
         id="path1070" />
      <path
         style="fill:#95a6fe;fill-opacity:1"
         d="m 150.20313,234.32031 c 3.83984,0 7.03906,4.48047 7.03906,10.08203 0,5.27735 -2.71875,9.91797 -7.03906,9.91797 H 98.84375 c -6.082031,0 -8.160156,-4.64062 -8.160156,-8.63672 0,-4 2.238281,-7.52343 4.320312,-10.24218 L 123.32422,198.16016 H 98.84375 c -3.839844,0 -7.039062,-4.48047 -7.039062,-10.07813 0,-5.28125 2.71875,-9.92187 7.039062,-9.92187 h 47.83984 c 4,0 7.67969,2.55859 7.67969,8.16015 0,3.51953 -1.4414,7.35938 -4,10.71875 l -28.48047,37.28125 z m 0,0"
         id="path1072" />
      <path
         style="fill:#95a6fe;fill-opacity:1"
         d="m 250.40625,175.07422 c 4.07813,0 7.48047,4.76172 7.48047,10.71094 0,5.60937 -2.89063,10.53906 -7.48047,10.53906 h -54.57031 c -6.45703,0 -8.66797,-4.92969 -8.66797,-9.17969 0,-4.25 2.37891,-7.98828 4.58984,-10.8789 l 30.08985,-39.60938 h -26.01172 c -4.07813,0 -7.47656,-4.76172 -7.47656,-10.71094 0,-5.60937 2.88671,-10.53906 7.47656,-10.53906 h 50.82812 c 4.25,0 8.16016,2.72266 8.16016,8.67187 0,3.73829 -1.52734,7.81641 -4.25,11.39063 l -30.25781,39.60547 z m 0,0"
         id="path1074" />
      <path
         style="fill:#95a6fe;fill-opacity:1"
         d="m 324.46094,232.86719 h 46.23828 c 5.09765,0 7.98828,6.12109 7.98828,11.55859 0,5.44141 -2.89063,11.5625 -7.98828,11.5625 h -72.41797 c -5.44141,0 -7.65234,-2.89062 -7.65234,-6.97265 0,-2.71875 1.01953,-6.11719 2.89062,-9.34766 l 47.9375,-84.82813 h -39.4375 c -5.09765,0 -7.98828,-5.4414 -7.98828,-11.5625 0,-5.60937 2.37891,-11.55859 7.98828,-11.55859 h 65.61719 c 5.10156,0 7.65234,2.89063 7.65234,6.96875 0,2.72266 -1.01953,5.94922 -2.89062,9.35156 z m 0,0"
         id="path1076" />
      <path
         style="fill:#95a6fe;fill-opacity:1"
         d="m 250.40625,175.07422 h -26.30078 v 21.25 h 26.30078 c 4.58984,0 7.48047,-4.92969 7.48047,-10.53906 0,-5.94922 -3.40234,-10.71094 -7.48047,-10.71094 z m 0,0"
         id="path1078" />
      <path
         style="fill:#95a6fe;fill-opacity:1"
         d="m 254.82422,124.07812 c 0,-5.94921 -3.91016,-8.67187 -8.16016,-8.67187 h -22.55859 v 54.71094 l 26.46875,-34.64844 c 2.72266,-3.57422 4.25,-7.65234 4.25,-11.39063 z m 0,0"
         id="path1080" />
    </g>
  </g>
  <g
     style="display:inline"
     id="layer7">
    <path
       id="path974"
       d="m 151.28028,127.47351 168.3798,-2.13816"
       style="fill:none;stroke:#3a4fba;stroke-width:10.06499958;stroke-linecap:round;stroke-linejoin:miter;stroke-miterlimit:4;stroke-dasharray:none;stroke-opacity:1" />
    <path
       style="fill:none;stroke:#3a4fba;stroke-width:5.45516253;stroke-linecap:round;stroke-linejoin:miter;stroke-miterlimit:4;stroke-dasharray:none;stroke-opacity:1"
       d="m 180.96197,177.74615 -1.09862,-49.49736"
       id="path976" />
    <path
       id="path978"
       d="m 292.14609,175.07345 -1.09862,-49.49736"
       style="fill:none;stroke:#3a4fba;stroke-width:5.45516253;stroke-linecap:round;stroke-linejoin:miter;stroke-miterlimit:4;stroke-dasharray:none;stroke-opacity:1" />
  </g>
  <g
     id="layer8">
    <text
       id="text1131"
       y="48.468422"
       x="16.252754"
       style="font-style:normal;font-variant:normal;font-weight:900;font-stretch:normal;font-size:13.40555573px;line-height:1.5;font-family:Arial;-inkscape-font-specification:'Arial Heavy';letter-spacing:0px;word-spacing:0px;fill:#91a2ed;fill-opacity:1;stroke:none;stroke-width:0.26458332;"
       xml:space="preserve"><tspan
         style="stroke-width:0.26458332;fill:#91a2ed;fill-opacity:1;"
         id="tspan1113"
         y="48.468422"
         x="16.252754"><tspan
           style="stroke-width:0.26458332;fill:#91a2ed;fill-opacity:1;"
           id="tspan1111"
           y="48.468422"
           x="16.252754">7 FASCINATING </tspan></tspan><tspan
         style="stroke-width:0.26458332;fill:#91a2ed;fill-opacity:1;"
         id="tspan1117"
         y="68.576759"
         x="16.252754"><tspan
           style="stroke-width:0.26458332;fill:#91a2ed;fill-opacity:1;"
           id="tspan1115"
           y="68.576759"
           x="16.252754">THINGS HAPPEN </tspan></tspan><tspan
         style="stroke-width:0.26458332;fill:#91a2ed;fill-opacity:1;"
         id="tspan1121"
         y="88.685089"
         x="16.252754"><tspan
           style="stroke-width:0.26458332;fill:#91a2ed;fill-opacity:1;"
           id="tspan1119"
           y="88.685089"
           x="16.252754">TO YOUR BODY </tspan></tspan><tspan
         style="stroke-width:0.26458332;fill:#91a2ed;fill-opacity:1;"
         id="tspan1125"
         y="108.79342"
         x="16.252754"><tspan
           style="stroke-width:0.26458332;fill:#91a2ed;fill-opacity:1;"
           id="tspan1123"
           y="108.79342"
           x="16.252754">WHILE YOU </tspan></tspan><tspan
         style="stroke-width:0.26458332;fill:#91a2ed;fill-opacity:1;"
         id="tspan1129"
         y="128.90175"
         x="16.252754"><tspan
           style="stroke-width:0.26458332;fill:#91a2ed;fill-opacity:1;"
           id="tspan1127"
           y="128.90175"
           x="16.252754">SLEEP</tspan></tspan></text>
  </g>
</svg>
