<?xml version="1.0" encoding="UTF-8" standalone="no"?>
<svg
   xmlns:dc="http://purl.org/dc/elements/1.1/"
   xmlns:cc="http://creativecommons.org/ns#"
   xmlns:rdf="http://www.w3.org/1999/02/22-rdf-syntax-ns#"
   xmlns:svg="http://www.w3.org/2000/svg"
   xmlns="http://www.w3.org/2000/svg"
   width="280mm"
   height="80mm"
   viewBox="0 0 280 80"
   version="1.1"
   id="svg8">
  <defs
     id="defs2" />
  <metadata
     id="metadata5">
    <rdf:RDF>
      <cc:Work
         rdf:about="">
        <dc:format>image/svg+xml</dc:format>
        <dc:type
           rdf:resource="http://purl.org/dc/dcmitype/StillImage" />
        <dc:title></dc:title>
      </cc:Work>
    </rdf:RDF>
  </metadata>
  <g
     id="layer1"
     transform="matrix(0.40659852,0,0,0.43831145,-5.2701498,-35.955523)"
     style="display:inline">
    <path
       style="fill:#f37b2a;fill-opacity:1;stroke:#f37b2a;stroke-width:0.16500001;stroke-linecap:butt;stroke-linejoin:miter;stroke-miterlimit:4;stroke-dasharray:none;stroke-opacity:1"
       d="m 254.18899,170.56696 2.55133,52.82218 c 3.12746,21.1363 15.52694,24.38599 27.45052,24.80468 9.13723,-0.25033 17.92374,-4.76694 25.37166,-8.07924 7.30294,3.15871 13.94009,6.57626 21.3337,4.79054 7.71146,-1.12443 6.05056,-10.25996 2.66778,-19.15364 -1.9779,-22.67857 -1.44514,-45.35714 -2.07888,-68.03571 -3.25277,-6.35548 -14.59202,-6.20557 -18.99329,-0.56696 1.02975,18.07986 0.41644,36.15972 -0.28348,54.23958 1.50703,23.6883 -37.88275,39.55646 -38.17559,1.13393 l -1.37015,-51.82999 c -0.96617,-7.53285 -6.1172,-8.90072 -11.69198,-8.63375 -13.50761,-0.0165 -9.14975,6.4827 -8.29353,11.70481 z"
       id="path833" />
    <path
       style="display:inline;fill:#f37b2a;fill-opacity:1;stroke:#f37b2a;stroke-width:0.16500001;stroke-linecap:butt;stroke-linejoin:miter;stroke-miterlimit:4;stroke-dasharray:none;stroke-opacity:1"
       d="m 77.824955,249.88207 c -7.15846,-1.28689 -8.69342,-5.33619 -10.47076,-9.55824 -12.43264,-35.1897 -22.55849,-73.20322 -37.297934,-105.56909 -2.494454,-2.88183 -5.376968,-8.94478 -6.534265,-13.09858 -0.72491,-5.14531 1.315278,-7.36057 6.381061,-8.58603 5.017083,-0.60562 10.046928,-0.85389 15.188098,2.015 3.31001,3.8191 6.17674,8.14192 6.7452,15.07641 9.342978,30.04489 17.991892,60.08979 28.98253,90.13468 14.337455,-28.67954 19.699655,-60.94919 29.549485,-91.42378 -0.93575,-9.5602 2.10018,-13.39627 6.02167,-16.97833 1.59166,-0.92947 11.75973,-2.49982 15.3761,0.1876 2.68396,2.80951 2.44356,7.4246 0.11072,12.09058 l -4.38703,9.24373 -39.254216,110.70829 c -3.27492,3.96509 -6.62588,6.21133 -10.410659,5.75776 z"
       id="path827" />
    <path
       style="fill:#f37b2a;fill-opacity:1;stroke:#f37b2a;stroke-width:0.065;stroke-linecap:butt;stroke-linejoin:miter;stroke-miterlimit:4;stroke-dasharray:none;stroke-opacity:1"
       d="M 362.41749,124.53288 V 240.8734 c 1.16611,7.23671 8.68138,7.06605 17.23887,5.67948 14.47776,3.37604 28.96878,6.80042 40.49133,-0.60136 28.80304,-15.58113 27.37034,-72.91451 2.13815,-90.06983 -9.3499,-5.76959 -19.39459,-4.53497 -31.07008,-1.00226 -6.28594,2.94923 -8.68535,0.43303 -9.28761,-4.6104 -0.92817,-12.0034 -0.33609,-24.05154 -1.73053,-35.81412 -0.80483,-7.158 -5.56843,-9.22614 -11.63294,-9.6217 -8.06872,-0.49246 -11.31342,3.04229 -8.80368,12.37268 0.92041,1.61678 1.76153,4.00293 2.65649,7.32699 z"
       id="path865" />
    <path
       style="fill:#f37b2a;fill-opacity:1;stroke:#f37b2a;stroke-width:0.26458332px;stroke-linecap:butt;stroke-linejoin:miter;stroke-opacity:1"
       d="m 400.27677,162.25149 c 33.07007,-2.01555 26.68077,78.83597 -1.70087,75.78422 -28.64959,5.58178 -26.73358,-81.06738 1.70087,-75.78422 z"
       id="path867" />
    <path
       style="fill:#f37b2a;fill-opacity:1;stroke:#f37b2a;stroke-width:0.065;stroke-linecap:butt;stroke-linejoin:miter;stroke-miterlimit:4;stroke-dasharray:none;stroke-opacity:1"
       d="m 467.72165,123.54208 c 0.5317,36.08138 0.90964,72.16277 -0.53453,108.24415 -2.35015,6.1244 -2.98492,11.826 3.7752,16.20322 5.5375,2.239 11.78757,1.41373 17.80682,0.33408 14.48616,-5.51063 3.62161,-13.75696 2.33051,-20.97017 -2.01718,-3.6005 -2.53417,-7.20099 -2.97102,-10.80149 -1.68536,-35.63594 -1.48376,-71.40339 0,-106.90781 -0.51104,-4.06374 -3.10285,-5.17061 -5.97441,-5.87993 -4.05742,-0.68737 -7.95395,-0.57026 -11.75985,0 -4.16758,1.59608 -7.16035,4.07327 -4.27633,10.95805 0.90297,2.93997 1.74934,5.87993 1.60361,8.8199 z"
       id="path841" />
    <path
       style="fill:#f37b2a;fill-opacity:1;stroke:#f37b2a;stroke-width:0.16500001;stroke-linecap:butt;stroke-linejoin:miter;stroke-miterlimit:4;stroke-dasharray:none;stroke-opacity:1"
       d="m 529.35565,171.70089 c 14.60137,-7.65445 28.39416,-13.06285 36.2857,-2.07887 3.84665,5.54365 3.18025,11.0873 0.75597,16.63095 -2.37467,3.40146 -7.17505,3.68796 -11.52828,3.87426 -11.03078,1.63108 -18.2602,4.6198 -25.89137,7.46503 -8.85403,4.72777 -12.45159,12.18111 -14.55209,20.41071 -0.81915,5.15297 -1.38148,10.44291 1.51191,17.5759 5.26079,9.98812 12.12636,14.89448 20.4107,15.30803 5.8897,0.61874 10.92972,-0.17866 15.30805,-2.07887 0.96825,-0.61895 4.51766,-1.35115 15.11904,-5.85863 8.22868,4.46191 14.78614,6.45996 21.63913,4.8192 10.12213,-2.00885 3.16575,-12.254 -0.28346,-20.5052 0.72743,-18.14286 -0.49412,-36.28572 -2.26787,-54.42858 -1.24133,-9.14957 -5.80702,-14.08829 -10.77232,-18.52083 -5.02911,-4.04278 -10.54214,-4.69809 -16.06399,-5.29167 -5.92162,-0.62564 -11.84325,-0.12122 -17.76487,0.75595 -5.1451,1.16822 -9.97349,2.86429 -14.36309,5.29167 -5.75948,4.08408 -6.07322,7.42557 -6.42562,10.77232 0.52355,7.25752 4.09372,7.88417 8.88246,5.85863 z"
       id="path843" />
    <path
       style="fill:#f37b2a;fill-opacity:1;stroke:#f37b2a;stroke-width:0.16500001;stroke-linecap:butt;stroke-linejoin:miter;stroke-miterlimit:4;stroke-dasharray:none;stroke-opacity:1"
       d="m 546.0811,202.31696 c -7.9669,1.9828 -12.95982,8.62191 -13.13468,19.0878 -0.23472,14.44135 7.64288,15.70019 15.78052,16.53646 9.52239,1.40992 15.64908,-4.30018 19.65475,-14.45759 0.66245,-5.98462 0.8899,-11.96925 0.66146,-17.95387 -0.13949,-3.26848 -1.79956,-3.92199 -2.92933,-4.06324 -9.14138,-0.64045 -15.14481,-0.10416 -20.03272,0.85044 z"
       id="path845" />
    <path
       style="display:inline;fill:#f37b2a;fill-opacity:1;stroke:#f37b2a;stroke-width:0.16500001;stroke-linecap:butt;stroke-linejoin:miter;stroke-miterlimit:4;stroke-dasharray:none;stroke-opacity:1"
       d="m 626.50441,171.64268 c 14.60137,-7.65445 28.39416,-13.06285 36.2857,-2.07887 3.84665,5.54365 3.18025,11.0873 0.75597,16.63095 -2.37467,3.40146 -7.17505,3.68796 -11.52828,3.87426 -11.03078,1.63108 -18.2602,4.6198 -25.89137,7.46503 -8.85403,4.72777 -12.45159,12.18111 -14.55209,20.41071 -0.81915,5.15297 -1.38148,10.44291 1.51191,17.5759 5.26079,9.98812 12.12636,14.89448 20.4107,15.30803 5.8897,0.61874 10.92972,-0.17866 15.30805,-2.07887 0.96825,-0.61895 4.51766,-1.35115 15.11904,-5.85863 8.22868,4.46191 14.78614,6.45996 21.63913,4.8192 10.12213,-2.00885 3.16575,-12.254 -0.28346,-20.5052 0.72743,-18.14286 -0.49412,-36.28572 -2.26787,-54.42858 -1.24133,-9.14957 -5.80702,-14.08829 -10.77232,-18.52083 -5.02911,-4.04278 -10.54214,-4.69809 -16.06399,-5.29167 -5.92162,-0.62564 -11.84325,-0.12122 -17.76487,0.75595 -5.1451,1.16822 -9.97349,2.86429 -14.36309,5.29167 -5.75948,4.08408 -6.07322,7.42557 -6.42562,10.77232 0.52355,7.25752 4.09372,7.88417 8.88246,5.85863 z"
       id="path843-9" />
    <path
       style="display:inline;fill:#f37b2a;fill-opacity:1;stroke:#f37b2a;stroke-width:0.16500001;stroke-linecap:butt;stroke-linejoin:miter;stroke-miterlimit:4;stroke-dasharray:none;stroke-opacity:1"
       d="m 643.22986,202.25875 c -7.9669,1.9828 -12.95982,8.62191 -13.13468,19.0878 -0.23472,14.44135 7.64288,15.70019 15.78052,16.53646 9.52239,1.40992 15.64908,-4.30018 19.65475,-14.45759 0.66245,-5.98462 0.8899,-11.96925 0.66146,-17.95387 -0.13949,-3.26848 -1.79956,-3.92199 -2.92933,-4.06324 -9.14138,-0.64045 -15.14481,-0.10416 -20.03272,0.85044 z"
       id="path845-3" />
  </g>
  <g
     transform="matrix(0.40659852,0,0,0.43831145,-5.2701498,-31.957355)"
     id="layer3"
     style="display:inline">
    <g
       id="g1010"
       transform="matrix(0.9494803,0,0,1.115082,99.540262,52.975832)">
      <g
         id="layer6">
        <path
           id="path862"
           d="m 41.530374,89.222178 c 0,0 -3.182588,11.240532 -4.15774,27.355442"
           style="fill:none;stroke:#000000;stroke-width:3.00399995;stroke-linecap:round;stroke-linejoin:round;stroke-miterlimit:4;stroke-dasharray:none;stroke-opacity:1" />
        <path
           id="path882"
           d="m 146.19861,89.285579 c 0,0 3.8989,11.059741 3.41398,27.713481"
           style="fill:none;stroke:#000000;stroke-width:3.06500006;stroke-linecap:round;stroke-linejoin:round;stroke-miterlimit:4;stroke-dasharray:none;stroke-opacity:1" />
        <path
           id="path884"
           d="m 80.251755,129.72281 c 4.288849,10.15159 5.336811,21.02828 3.245881,34.93268"
           style="fill:none;stroke:#000000;stroke-width:3.06500006;stroke-linecap:round;stroke-linejoin:round;stroke-miterlimit:4;stroke-dasharray:none;stroke-opacity:1" />
        <path
           id="path886"
           d="m 110.3278,130.33954 c 8.00698,7.04502 6.3373,35.28411 6.33722,35.2856"
           style="fill:none;stroke:#000000;stroke-width:3.06500006;stroke-linecap:round;stroke-linejoin:round;stroke-miterlimit:4;stroke-dasharray:none;stroke-opacity:1" />
      </g>
      <g
         transform="translate(0,-106.49998)"
         id="layer1-3">
        <path
           id="path3724"
           d="m 40.445546,195.70238 c 0,-10.20535 9.761556,-43.94905 44.979165,-42.71131 18.805869,0.66094 58.796349,3.57348 61.889939,42.71131 1.8154,22.96707 -25.3563,44.65874 -49.605716,43.84524 -8.57106,-0.28754 -60.665175,-1.13393 -57.263388,-43.84524 z"
           style="fill:#fb7c85;fill-opacity:1;stroke:none;stroke-width:0.26458332px;stroke-linecap:butt;stroke-linejoin:miter;stroke-opacity:1" />
        <path
           id="path3726"
           d="m 59.156936,163.19591 c -1.228422,-2.17336 -3.827274,-6.46471 -2.645832,-9.44941 1.795386,-4.53571 14.35465,-1.63738 15.686013,-4.44122 1.373734,-2.89306 2.624413,-15.60611 10.583333,-15.7805 8.392204,-0.18389 3.114245,14.90453 4.819198,13.60714 3.370416,-1.71488 9.271556,-4.48292 14.079602,-4.91369 3.59076,0.47247 5.82127,0.5898 6.70907,4.34673 0.96066,4.06528 -4.44175,8.50708 -4.44175,8.50708 -16.438202,-1.92965 -31.614828,-1.74498 -44.789634,8.12387 z"
           style="fill:#fb7c85;fill-opacity:1;stroke:none;stroke-width:0.26458332px;stroke-linecap:butt;stroke-linejoin:miter;stroke-opacity:1" />
        <g
           transform="translate(-16.105329,76.906318)"
           id="layer2-0"
           style="display:inline" />
      </g>
      <g
         id="layer3-0">
        <path
           d="M 97.114059,75.462433 A 10.205261,9.0032873 0 0 1 86.909481,84.46572 10.205261,9.0032873 0 0 1 76.703537,75.463638 10.205261,9.0032873 0 0 1 86.90675,66.459146 10.205261,9.0032873 0 0 1 97.114059,75.460024 l -10.205261,0.0024 z"
           id="path1026"
           style="fill:#ffffff;fill-opacity:1;fill-rule:evenodd;stroke-width:0.53492969" />
        <path
           style="fill:#ffffff;fill-opacity:1;fill-rule:evenodd;stroke-width:0.53492969"
           id="path1028"
           d="m 115.07457,75.836609 a 10.205261,9.0032873 0 0 1 -10.20458,9.003287 10.205261,9.0032873 0 0 1 -10.205943,-9.002082 10.205261,9.0032873 0 0 1 10.203213,-9.004492 10.205261,9.0032873 0 0 1 10.20731,9.000878 l -10.20526,0.0024 z" />
        <path
           d="m 90.557027,75.462433 a 3.6482289,3.7417734 0 0 1 -3.64799,3.741773 3.6482289,3.7417734 0 0 1 -3.648468,-3.741283 3.6482289,3.7417734 0 0 1 3.647513,-3.742263 3.6482289,3.7417734 0 0 1 3.648945,3.740793 l -3.648229,9.8e-4 z"
           id="path1030"
           style="fill:#000000;fill-opacity:0.96984923;fill-rule:evenodd;stroke-width:0.26458332" />
        <path
           style="fill:#000000;fill-opacity:0.96984923;fill-rule:evenodd;stroke-width:0.26458332"
           id="path1034"
           d="m 108.51754,75.836609 a 3.6482289,3.7417734 0 0 1 -3.64799,3.741773 3.6482289,3.7417734 0 0 1 -3.64847,-3.741283 3.6482289,3.7417734 0 0 1 3.64751,-3.742263 3.6482289,3.7417734 0 0 1 3.64895,3.740793 l -3.64823,9.8e-4 z" />
        <path
           id="path1036"
           d="m 76.66302,75.703905 c 0.214979,-3.187878 1.323704,-5.628946 3.978782,-7.352453 1.381309,-0.896657 3.113421,-1.794553 5.645436,-1.907963 3.094196,0.05116 6.361592,0.229091 9.723438,4.861718 v 0"
           style="fill:none;stroke:none;stroke-width:0.1;stroke-linecap:butt;stroke-linejoin:miter;stroke-miterlimit:4;stroke-dasharray:none;stroke-opacity:1" />
        <path
           id="path1038"
           d="m 96.010676,71.305205 c 2.286883,-2.991864 5.256074,-4.456663 8.852524,-4.517589 7.06639,0.565632 9.90392,4.601347 10.21137,9.046583 v 0"
           style="fill:none;stroke:none;stroke-width:0.1;stroke-linecap:butt;stroke-linejoin:miter;stroke-miterlimit:4;stroke-dasharray:none;stroke-opacity:1" />
      </g>
      <g
         id="layer4">
        <path
           id="path1082"
           d="m 76.72974,74.925975 c 0.810933,-5.3617 4.359082,-8.042189 10.196332,-8.465762 v 0 c 3.889787,0.02787 6.870231,1.730837 9.084604,4.844992 2.402437,-3.250785 5.632514,-4.391319 8.852524,-4.517589 5.87073,0.313218 9.81617,3.658861 10.21137,9.046583 l 7.42173,0.214308 -0.10523,-4.513514 -0.81503,-7.902702 -50.932291,-1.190625 1.190625,12.038541 z"
           style="fill:#fb7c85;fill-opacity:0.98994978;stroke:none;stroke-width:0.065;stroke-linecap:butt;stroke-linejoin:miter;stroke-miterlimit:4;stroke-dasharray:none;stroke-opacity:1" />
        <path
           id="path1084"
           d="m 76.72974,74.925975 c 0.0771,5.491221 3.696492,9.138065 10.360035,9.564907 4.076198,-0.246378 6.736854,-1.996769 8.676235,-4.513514 2.392054,3.308168 5.53782,5.186877 9.86893,4.817533 5.29249,-0.667928 9.27746,-3.743419 9.43963,-8.960702 l 7.42173,0.214308 0.10569,12.835426 -49.000631,1.556372 -1.766985,-15.9601 z"
           style="fill:#fb7c85;fill-opacity:1;stroke:none;stroke-width:0.065;stroke-linecap:butt;stroke-linejoin:miter;stroke-miterlimit:4;stroke-dasharray:none;stroke-opacity:1" />
      </g>
      <g
         id="layer5">
        <path
           id="path1087"
           d="m 81.083589,98.908205 c 15.82572,11.858045 29.369381,-0.12023 29.394571,-0.14201"
           style="fill:none;stroke:#000000;stroke-width:1.06500006;stroke-linecap:round;stroke-linejoin:miter;stroke-miterlimit:4;stroke-dasharray:none;stroke-opacity:1" />
      </g>
    </g>
  </g>
</svg>
