<?xml version="1.0" encoding="UTF-8" standalone="no"?>
<svg
   xmlns:dc="http://purl.org/dc/elements/1.1/"
   xmlns:cc="http://creativecommons.org/ns#"
   xmlns:rdf="http://www.w3.org/1999/02/22-rdf-syntax-ns#"
   xmlns:svg="http://www.w3.org/2000/svg"
   xmlns="http://www.w3.org/2000/svg"
   id="svg8"
   version="1.1"
   viewBox="0 0 338.66666 190.5"
   height="720"
   width="1280">
  <defs
     id="defs2" />
  <metadata
     id="metadata5">
    <rdf:RDF>
      <cc:Work
         rdf:about="">
        <dc:format>image/svg+xml</dc:format>
        <dc:type
           rdf:resource="http://purl.org/dc/dcmitype/StillImage" />
        <dc:title></dc:title>
      </cc:Work>
    </rdf:RDF>
  </metadata>
  <g
     transform="translate(0,-106.49998)"
     id="layer1">
    <rect
       y="106.50325"
       x="0.0027687326"
       height="190.48596"
       width="338.66174"
       id="rect815"
       style="opacity:1;fill:#ebce53;fill-opacity:1;fill-rule:nonzero;stroke:none;stroke-width:0.76434302;stroke-linecap:round;stroke-linejoin:round;stroke-miterlimit:4;stroke-dasharray:none;stroke-opacity:1;paint-order:normal" />
    <g
       transform="matrix(0.35225841,0,0,0.35225841,96.315576,113.81235)"
       id="g6219">
      <path
         style="fill:#f7caa5"
         d="m 308.94922,398.57813 70.19922,-33.15625 c 15.47656,-7.81641 34.36328,-2.08594 42.89062,13.00781 l -142.6914,92.30078 c -19.12891,8.82812 -40.59766,11.25781 -61.21875,6.92969 l -98.41016,-27.6211 C 110.66016,447.5 100.97266,448.55859 92.679688,453 l -20.582032,11.01172 2.769532,-100.37109 0.820312,0.0195 c 29.41016,-20.89453 68.03125,-23.59766 100.0625,-7 l 5.89063,3.05078 c 9.20703,4.76953 19.3789,7.39844 29.75,7.67969 l 57.84765,1.59765 c 18.15625,0.4961 34.04688,12.33594 39.71094,29.58985 z m 0,0"
         id="path6181" />
      <path
         style="fill:#fedb41"
         d="m 328.21094,222.5 c 0,59.65234 -48.35938,108.01172 -108.01172,108.01172 -59.65234,0 -108.01172,-48.35938 -108.01172,-108.01172 0,-59.65234 48.35938,-108.01172 108.01172,-108.01172 59.65234,0 108.01172,48.35938 108.01172,108.01172 z m 0,0"
         id="path6183" />
      <path
         style="fill:#00efd1"
         d="m 72.097656,464.01172 -0.308594,11.29687 -63.429687,-1.73828 3.828125,-139.21093 63.441406,1.74218 -0.761718,27.53907 z m 0,0"
         id="path6185" />
      <g
         style="fill:#083863"
         id="g6199">
        <path
           d="m 220.86328,266.17578 c -0.89453,-0.19531 -1.8164,-0.23047 -2.72656,-0.10156 -9.1875,-1.00391 -16.13281,-8.78516 -16.09766,-18.02735 0,-4.41796 -3.58203,-8 -8,-8 -4.41797,0 -8,3.58204 -8,8 -0.0547,15.42188 10.27344,28.94532 25.16016,32.96094 V 289 c 0,4.41797 3.58203,8 8,8 4.41797,0 8,-3.58203 8,-8 v -7.51563 c 17.13281,-3.58593 28.78125,-19.54687 26.97656,-36.95703 -1.80078,-17.41015 -16.47265,-30.64453 -33.97656,-30.64843 -10.03125,0 -18.16016,-8.12891 -18.16016,-18.16016 0,-10.02734 8.12891,-18.16016 18.16016,-18.16016 10.03125,0 18.16016,8.13282 18.16016,18.16016 0,4.41797 3.58203,8 8,8 4.41796,0 8,-3.58203 8,-8 -0.0234,-16.16016 -11.34766,-30.10156 -27.16016,-33.43359 V 155 c 0,-4.41797 -3.58203,-8 -8,-8 -4.41797,0 -8,3.58203 -8,8 v 7.77344 c -16.50781,4.5039 -27.13281,20.53125 -24.85938,37.48828 2.27735,16.96094 16.75,29.62109 33.85938,29.61719 9.95312,-0.0781 18.11719,7.87109 18.29687,17.82031 0.1836,9.95312 -7.67968,18.19531 -17.63281,18.48047 z m 0,0"
           id="path6187" />
        <path
           d="m 104.1875,222.5 c 0,64.07031 51.94141,116.01172 116.01172,116.01172 64.07031,0 116.01172,-51.94141 116.01172,-116.01172 0,-64.07031 -51.94141,-116.01172 -116.01172,-116.01172 C 156.16016,106.5625 104.26172,158.46094 104.1875,222.5 Z M 220.19922,122.48828 c 55.23437,0 100.01172,44.77735 100.01172,100.01172 0,55.23438 -44.77735,100.01172 -100.01172,100.01172 -55.23438,0 -100.01172,-44.77734 -100.01172,-100.01172 0.0625,-55.20703 44.80469,-99.94922 100.01172,-100.01172 z m 0,0"
           id="path6189" />
        <path
           d="m 375.64453,358.22656 -62.65234,29.59375 c -8.67969,-16.07422 -25.27344,-26.29687 -43.53125,-26.82812 l -57.85547,-1.59766 c -9.16016,-0.26562 -18.14453,-2.58203 -26.28906,-6.78906 l -5.88672,-3.04688 c -30.14063,-15.71484 -66.0625,-15.67578 -96.171878,0.0977 L 83.625,336.31641 c 0.125,-4.41407 -3.359375,-8.09375 -7.777344,-8.21485 L 12.40625,326.35937 c -2.121094,-0.0586 -4.179688,0.72657 -5.71875,2.1836 -1.542969,1.46094 -2.441406,3.47265 -2.496094,5.59375 L 0.363281,473.34766 c -0.121093,4.41797 3.359375,8.09375 7.777344,8.21484 l 63.429687,1.74219 h 0.222657 c 4.332031,-0.004 7.875,-3.45313 7.992187,-7.78125 l 0.183594,-6.65235 16.488281,-8.82421 c 6.464839,-3.47657 14.031249,-4.30469 21.097659,-2.3086 l 98.41406,27.61719 c 0.16797,0.0508 0.33984,0.0898 0.51562,0.1289 7.11719,1.48829 14.3711,2.23829 21.64063,2.23438 15.38672,0.008 30.59375,-3.30859 44.57422,-9.73047 0.34375,-0.16016 0.67578,-0.34375 0.99219,-0.54687 l 142.6914,-92.30079 c 3.55469,-2.29687 4.70313,-6.96484 2.6211,-10.65234 -10.59375,-18.79687 -34.08594,-25.95312 -53.35938,-16.26172 z m -311.445311,105.5625 -0.140625,3.30078 -47.457032,-1.30078 3.375,-123.21484 47.488282,1.30078 z m 211.292971,-0.0898 c -17.37891,7.84375 -36.78516,10.00781 -55.46485,6.18359 l -98.14843,-27.54687 c -11.04297,-3.11719 -22.867191,-1.82422 -32.97266,3.60937 l -8.429688,4.51172 2.261719,-81.92969 c 26.683589,-17.75 60.914059,-19.57421 89.332029,-4.76171 l 5.89063,3.04687 c 10.28515,5.3125 21.63672,8.24609 33.20703,8.57422 l 57.85156,1.60156 c 14.77734,0.42188 27.70703,10.0586 32.33203,24.09766 0.41406,1.26562 0.75781,2.55078 1.02735,3.85547 l -86.17969,-2.37891 c -4.41797,-0.12109 -8.09375,3.35938 -8.21875,7.77734 -0.1211,4.41797 3.36328,8.09375 7.77734,8.21875 l 95.08985,2.61719 h 0.22265 c 4.33203,0.004 7.87891,-3.44531 8,-7.78125 0.0938,-3.47656 -0.16797,-6.95312 -0.77734,-10.3789 l 64.27734,-30.36719 c 0.0625,-0.0274 0.125,-0.0586 0.1875,-0.0899 9.11719,-4.61328 20.14063,-3.07031 27.64063,3.8711 z m 0,0"
           id="path6191" />
        <path
           d="M 228.19922,84 V 8 c 0,-4.417969 -3.58203,-8 -8,-8 -4.41797,0 -8,3.582031 -8,8 v 76 c 0,4.417969 3.58203,8 8,8 4.41797,0 8,-3.582031 8,-8 z m 0,0"
           id="path6193" />
        <path
           d="M 288.19922,84 V 48 c 0,-4.417969 -3.58203,-8 -8,-8 -4.41797,0 -8,3.582031 -8,8 v 36 c 0,4.417969 3.58203,8 8,8 4.41797,0 8,-3.582031 8,-8 z m 0,0"
           id="path6195" />
        <path
           d="M 168.19922,84 V 48 c 0,-4.417969 -3.58203,-8 -8,-8 -4.41797,0 -8,3.582031 -8,8 v 36 c 0,4.417969 3.58203,8 8,8 4.41797,0 8,-3.582031 8,-8 z m 0,0"
           id="path6197" />
      </g>
    </g>
  </g>
</svg>
