<?xml version="1.0" encoding="UTF-8" standalone="no"?>
<svg
   xmlns:dc="http://purl.org/dc/elements/1.1/"
   xmlns:cc="http://creativecommons.org/ns#"
   xmlns:rdf="http://www.w3.org/1999/02/22-rdf-syntax-ns#"
   xmlns:svg="http://www.w3.org/2000/svg"
   xmlns="http://www.w3.org/2000/svg"
   id="svg8"
   version="1.1"
   viewBox="0 0 338.66666 190.5"
   height="720"
   width="1280">
  <defs
     id="defs2" />
  <metadata
     id="metadata5">
    <rdf:RDF>
      <cc:Work
         rdf:about="">
        <dc:format>image/svg+xml</dc:format>
        <dc:type
           rdf:resource="http://purl.org/dc/dcmitype/StillImage" />
        <dc:title></dc:title>
      </cc:Work>
    </rdf:RDF>
  </metadata>
  <g
     transform="translate(0,-106.49998)"
     id="layer1">
    <rect
       y="106.50325"
       x="0.0027687326"
       height="190.48596"
       width="338.66174"
       id="rect815"
       style="opacity:1;fill:#ebce53;fill-opacity:1;fill-rule:nonzero;stroke:none;stroke-width:0.76434302;stroke-linecap:round;stroke-linejoin:round;stroke-miterlimit:4;stroke-dasharray:none;stroke-opacity:1;paint-order:normal" />
    <g
       transform="matrix(0.47359601,0,0,0.43420134,55.74507,106.5184)"
       id="g4770">
      <path
         style="fill:#a5c8cd"
         d="m 202.415,244.898 -26.076,-49.534 c -2.488,-4.726 -0.674,-10.574 4.052,-13.062 4.725,-2.488 10.574,-0.674 13.062,4.053 l 26.076,49.534 c 2.488,4.726 0.674,10.574 -4.052,13.062 -4.737,2.494 -10.581,0.663 -13.062,-4.053 z"
         id="path4631" />
      <g
         id="g4637">
	<path
   style="fill:#73c8f0"
   d="m 258.201,226.18 c -0.627,20.994 16.214,38.044 36.9,38.044 20.673,0 37.528,-17.036 36.9,-38.044 z"
   id="path4633" />

	<path
   style="fill:#73c8f0"
   d="m 174.071,226.18 c -0.627,20.994 16.214,38.044 36.9,38.044 20.673,0 37.528,-17.036 36.9,-38.044 z"
   id="path4635" />

</g>
      <path
         style="fill:#69280f"
         d="m 260.622,435.241 c -7.974,0 -14.437,-6.464 -14.437,-14.437 V 272.143 c 0,-7.974 6.464,-14.437 14.437,-14.437 7.974,0 14.437,6.464 14.437,14.437 v 148.661 c 10e-4,7.973 -6.463,14.437 -14.437,14.437 z"
         id="path4639" />
      <g
         id="g4645">
	<path
   style="fill:#823214"
   d="M 343.815,286.581 H 177.431 c -7.974,0 -14.437,-6.464 -14.437,-14.437 0,-7.974 6.464,-14.437 14.437,-14.437 h 166.384 c 7.974,0 14.437,6.464 14.437,14.437 0,7.972 -6.464,14.437 -14.437,14.437 z"
   id="path4641" />

	<path
   style="fill:#823214"
   d="m 294.811,441.305 h -68.377 c -7.974,0 -14.437,-6.464 -14.437,-14.437 0,-7.974 6.464,-14.437 14.437,-14.437 h 68.377 c 7.974,0 14.437,6.464 14.437,14.437 0.001,7.973 -6.463,14.437 -14.437,14.437 z"
   id="path4643" />

</g>
      <g
         id="g4653">
	<path
   style="fill:#69280f"
   d="m 43.229,440.168 c -5.348,0 -9.683,-4.335 -9.683,-9.683 v -96.794 c 0,-5.348 4.335,-9.683 9.683,-9.683 5.348,0 9.683,4.335 9.683,9.683 v 96.794 c 0,5.347 -4.335,9.683 -9.683,9.683 z"
   id="path4647" />

	<path
   style="fill:#69280f"
   d="M 146.252,396.6 H 43.229 c -5.348,0 -9.683,-4.335 -9.683,-9.683 0,-5.348 4.335,-9.683 9.683,-9.683 h 103.024 c 5.348,0 9.683,4.335 9.683,9.683 0,5.348 -4.336,9.683 -9.684,9.683 z"
   id="path4649" />

	<path
   style="fill:#69280f"
   d="M 155.292,435.204 118.97,341.57 c -1.893,-4.908 0.552,-10.421 5.46,-12.314 4.907,-1.893 10.422,0.551 12.314,5.46 l 36.322,93.634 c 1.893,4.908 -0.552,10.421 -5.46,12.314 -4.877,1.882 -10.409,-0.519 -12.314,-5.46 z"
   id="path4651" />

</g>
      <path
         style="fill:#823214"
         d="M 143.492,342.512 H 40.508 c -6.152,0 -11.445,-4.353 -12.632,-10.39 L 0.244,191.551 c -1.371,-6.976 3.173,-13.744 10.149,-15.115 6.976,-1.368 13.743,3.172 15.115,10.149 l 25.59,130.181 h 92.394 c 7.11,0 12.873,5.764 12.873,12.873 0,7.109 -5.764,12.873 -12.873,12.873 z"
         id="path4655" />
      <path
         style="fill:#55879b"
         d="m 191.718,274.277 h -48.542 l 1.3,-82.551 c 0.213,-13.555 -10.716,-24.658 -24.273,-24.658 H 82.139 c -13.433,0 -24.312,10.909 -24.275,24.342 l 0.264,96.245 c 0.043,15.584 12.061,29.337 29.911,29.206 h 54.467 l 0.001,-0.031 h 18.321 l -37.99,95.363 c -4.324,10.926 1.029,23.289 11.955,27.613 10.928,4.324 23.29,-1.032 27.612,-11.956 l 49.507,-124.468 c 5.376,-13.588 -4.226,-29.105 -20.194,-29.105 z"
         id="path4657" />
      <circle
         style="fill:#ffb69e"
         cx="116.83"
         cy="110.187"
         r="39.130001"
         id="circle4659" />
      <path
         style="fill:#414b82"
         d="m 192.128,274.277 h -48.952 l -84.939,15.741 c 1.166,14.121 12.069,26.146 28.156,26.812 0,0 63.093,0 74.435,0 l -37.99,95.364 c -4.324,10.926 1.029,23.289 11.955,27.612 10.92,4.319 23.286,-1.023 27.612,-11.955 l 49.507,-124.469 c 5.527,-13.97 -4.807,-29.105 -19.784,-29.105 z"
         id="path4661" />
      <path
         style="fill:#ffb69e"
         d="M 126.547,257.146 86.353,201.038 c -5.644,-7.878 -3.832,-18.84 4.046,-24.484 7.878,-5.644 18.839,-3.832 24.484,4.046 l 29.937,41.79 44.589,-32.193 c 7.858,-5.673 18.827,-3.901 24.499,3.955 5.673,7.857 3.902,18.826 -3.955,24.499 l -58.869,42.503 c -7.876,5.686 -18.879,3.888 -24.537,-4.008 z"
         id="path4663" />
      <path
         style="fill:#87afb9"
         d="M 135.83,209.84 114.884,180.6 c -5.645,-7.878 -16.606,-9.69 -24.484,-4.046 -7.879,5.644 -9.69,16.605 -4.046,24.483 3.063,4.276 16.549,23.101 21.249,29.662 z"
         id="path4665" />
      <path
         style="fill:#a5c8cd"
         d="m 316.368,185.174 c -2.475,0 -4.951,-0.944 -6.838,-2.833 -3.777,-3.777 -3.777,-9.9 0.001,-13.676 l 45.752,-45.746 c 3.777,-3.776 9.901,-3.776 13.676,0.001 3.777,3.777 3.777,9.9 -10e-4,13.676 l -45.752,45.746 c -1.888,1.888 -4.363,2.832 -6.838,2.832 z"
         id="path4667" />
      <g
         id="g4675">
	<path
   style="fill:#69280f"
   d="m 468.433,440.159 c 5.39,0 9.759,-4.369 9.759,-9.759 v -97.551 c 0,-5.39 -4.369,-9.759 -9.759,-9.759 -5.39,0 -9.759,4.369 -9.759,9.759 V 430.4 c 0.001,5.39 4.37,9.759 9.759,9.759 z"
   id="path4669" />

	<path
   style="fill:#69280f"
   d="m 364.604,396.251 h 103.829 c 5.39,0 9.759,-4.369 9.759,-9.759 0,-5.39 -4.369,-9.759 -9.759,-9.759 H 364.604 c -5.39,0 -9.759,4.369 -9.759,9.759 0,5.39 4.37,9.759 9.759,9.759 z"
   id="path4671" />

	<path
   style="fill:#69280f"
   d="M 355.494,435.156 392.1,340.789 c 1.908,-4.946 -0.556,-10.503 -5.502,-12.41 -4.945,-1.908 -10.503,0.555 -12.41,5.502 l -36.606,94.367 c -1.908,4.946 0.556,10.503 5.502,12.41 4.914,1.897 10.49,-0.523 12.41,-5.502 z"
   id="path4673" />

</g>
      <path
         style="fill:#823214"
         d="m 367.387,341.74 h 103.789 c 6.201,0 11.535,-4.388 12.731,-10.471 l 27.848,-141.67 c 1.382,-7.031 -3.198,-13.851 -10.228,-15.233 -7.03,-1.379 -13.851,3.197 -15.233,10.228 l -25.79,131.199 h -93.116 c -7.165,0 -12.974,5.809 -12.974,12.974 0,7.165 5.807,12.973 12.973,12.973 z"
         id="path4677" />
      <path
         style="fill:#ff3c3c"
         d="m 318.783,272.971 h 48.922 l -1.31,-83.196 c -0.215,-13.661 10.8,-24.851 24.462,-24.851 h 38.362 c 13.538,0 24.502,10.994 24.465,24.532 l -0.266,96.998 c -0.043,15.706 -12.155,29.567 -30.145,29.434 H 368.38 l -10e-4,-0.032 h -18.465 l 38.287,96.109 c 4.358,11.012 -1.037,23.471 -12.049,27.829 -11.013,4.358 -23.472,-1.04 -27.828,-12.049 L 298.43,302.304 c -5.417,-13.695 4.26,-29.333 20.353,-29.333 z"
         id="path4679" />
      <circle
         style="fill:#ba6746"
         cx="400.59"
         cy="110.137"
         r="39.439999"
         id="circle4681" />
      <path
         style="fill:#414b82"
         d="m 318.37,272.971 h 49.335 l 85.603,15.864 c -1.176,14.232 -12.163,26.35 -28.376,27.021 H 368.38 v 0 h -18.465 v 0 0 l 38.287,96.109 c 4.358,11.011 -1.037,23.471 -12.049,27.828 -11.006,4.353 -23.468,-1.03 -27.828,-12.049 L 298.431,302.302 c -5.57,-14.077 4.844,-29.331 19.939,-29.331 z"
         id="path4683" />
      <path
         style="fill:#ba6746"
         d="m 342.349,241.931 -32.292,-69.256 c -4.096,-8.783 -0.295,-19.224 8.488,-23.319 8.784,-4.096 19.224,-0.295 23.319,8.488 l 22.746,48.783 37.29,-30.539 c 7.499,-6.141 18.553,-5.04 24.694,2.457 6.14,7.498 5.04,18.554 -2.457,24.694 l -54.766,44.852 c -8.819,7.222 -22.164,4.259 -27.022,-6.16 z"
         id="path4685" />
      <path
         style="fill:#ff6248"
         d="m 426.594,178.545 c -6.141,-7.497 -17.196,-8.598 -24.694,-2.457 l -26.782,21.934 21.178,28.018 27.84,-22.801 c 7.498,-6.141 8.598,-17.196 2.458,-24.694 z"
         id="path4687" />
      <g
         id="g4689">
</g>
      <g
         id="g4691">
</g>
      <g
         id="g4693">
</g>
      <g
         id="g4695">
</g>
      <g
         id="g4697">
</g>
      <g
         id="g4699">
</g>
      <g
         id="g4701">
</g>
      <g
         id="g4703">
</g>
      <g
         id="g4705">
</g>
      <g
         id="g4707">
</g>
      <g
         id="g4709">
</g>
      <g
         id="g4711">
</g>
      <g
         id="g4713">
</g>
      <g
         id="g4715">
</g>
      <g
         id="g4717">
</g>
    </g>
  </g>
</svg>
