<?xml version="1.0" encoding="UTF-8" standalone="no"?>
<svg
   xmlns:dc="http://purl.org/dc/elements/1.1/"
   xmlns:cc="http://creativecommons.org/ns#"
   xmlns:rdf="http://www.w3.org/1999/02/22-rdf-syntax-ns#"
   xmlns:svg="http://www.w3.org/2000/svg"
   xmlns="http://www.w3.org/2000/svg"
   id="svg8"
   version="1.1"
   viewBox="0 0 338.66666 190.5"
   height="720"
   width="1280">
  <defs
     id="defs2" />
  <metadata
     id="metadata5">
    <rdf:RDF>
      <cc:Work
         rdf:about="">
        <dc:format>image/svg+xml</dc:format>
        <dc:type
           rdf:resource="http://purl.org/dc/dcmitype/StillImage" />
        <dc:title></dc:title>
      </cc:Work>
    </rdf:RDF>
  </metadata>
  <g
     transform="translate(0,-106.49998)"
     id="layer1">
    <rect
       y="106.50325"
       x="0.0027687326"
       height="190.48596"
       width="338.66174"
       id="rect815"
       style="opacity:1;fill:#ebce53;fill-opacity:1;fill-rule:nonzero;stroke:none;stroke-width:0.76434302;stroke-linecap:round;stroke-linejoin:round;stroke-miterlimit:4;stroke-dasharray:none;stroke-opacity:1;paint-order:normal" />
    <g
       transform="matrix(0.50884463,0,0,0.40281984,36.029311,121.07182)"
       id="g4342">
      <path
         style="fill:#f0b97d"
         d="m 217.526,257.219 c 22.498,0 45.001,0 67.503,0 l 5.473,56.894 16.512,12.124 98.292,31.154 c 0,0 12.886,7.094 16.674,26.923 0.785,4.097 1.483,36.682 2.125,64.751 -44.978,39.19 -103.765,62.931 -168.105,62.931 -69.046,0 -131.695,-27.343 -177.74,-71.78 0.402,-24.036 0.998,-49.001 2.319,-55.901 2.55,-13.367 16.674,-26.923 16.674,-26.923 l 98.962,-31.583 15.847,-11.695 5.464,-56.899 z"
         id="path4250" />
      <path
         style="fill:#20d0c2"
         d="m 196.21,325.813 -98.962,31.583 c 0,0 -14.124,13.556 -16.674,26.923 -1.321,6.9 -1.917,31.865 -2.319,55.901 46.045,44.437 108.699,71.78 177.74,71.78 64.339,0 123.132,-23.74 168.105,-62.931 -0.642,-28.064 -1.344,-60.649 -2.125,-64.751 -3.787,-19.828 -16.674,-26.923 -16.674,-26.923 l -98.292,-31.154 c -16.285,47.764 -95.275,45.773 -110.799,-0.428 z"
         id="path4252" />
      <path
         style="fill:#fed198"
         d="m 166.992,170.811 c -21.172,-3.755 -3.122,59.471 12.337,50.044 l 8.3,24.369 c 7.478,21.953 26.332,41.938 40.682,57.767 5.603,6.171 39.911,6.069 45.458,0.236 15.889,-16.711 34.766,-35.481 41.855,-58.123 l 7.593,-24.244 c 15.487,9.413 33.495,-53.795 12.341,-50.044 1.464,-49.213 -33.334,-96.962 -84.283,-97.179 -50.95,0.217 -85.747,47.966 -84.283,97.179 z"
         id="path4254" />
      <path
         style="fill:#666666"
         d="m 312.044,83.327 c 5.986,-0.693 27.583,19.039 30.174,41.888 2.591,22.854 -1.349,46.409 -1.349,46.409 -10.572,2.291 -12.789,26.419 -12.789,26.419 l -4.582,0.199 -3.265,-16.461 c -18.932,-11.866 7.469,-58.751 -11.468,-62.861 -32.415,26.697 -80.501,36.576 -122.457,29.722 -11.778,1.57 5.353,16.452 0.383,33.574 -3.663,6.392 -1.478,16.48 -1.478,16.48 l -5.478,0.684 c 0,0 -3.39,-28.641 -13.953,-28.521 -4.882,-13.196 -3.88,-21.556 -2.984,-33.348 4.965,-65.337 87.978,-106.347 149.242,-54.183 h 0.004 z"
         id="path4256" />
      <path
         style="fill:#ffffff"
         d="m 319.291,330.131 c -21.205,61.254 -115.114,61.019 -136.092,-0.166 l 13.011,-4.152 c 15.524,46.197 94.514,48.188 110.8,0.43 l 12.281,3.894 z"
         id="path4258" />
      <path
         style="fill:#15bdb1"
         d="m 147.838,488.075 1.076,-14.235 3.469,16.309 c -1.525,-0.675 -3.04,-1.368 -4.545,-2.074 z m 207.179,4.064 v 0 c -1.917,0.804 -3.838,1.584 -5.778,2.342 l 4.392,-20.641 1.381,18.3 h 0.005 z"
         id="path4260" />
      <path
         style="fill:#fbb429"
         d="m 448.224,35.735 c 31.463,0 56.968,26.068 56.968,58.224 0,21.759 -11.676,40.724 -28.978,50.714 v 26.692 c 0,3.182 -2.54,5.787 -5.663,5.787 h -41.758 c -3.122,0 -5.663,-2.6 -5.663,-5.787 v -25.131 c -18.882,-9.482 -31.874,-29.325 -31.874,-52.275 0,-32.155 25.505,-58.224 56.968,-58.224 z"
         id="path4262" />
      <g
         id="g4268">
	<path
   style="fill:#ffffff"
   d="m 430.899,93.96 9.833,72.214 h 7.487 7.487 l 10.221,-73.669 3.857,-0.494 -10.591,76.297 -0.226,1.626 h -1.63 -9.122 -9.122 -1.63 l -0.231,-1.626 -10.06,-73.84 3.718,-0.517 z"
   id="path4264" />

	<path
   style="fill:#ffffff"
   d="m 453.628,83.129 -1.206,8.24 30.946,-4.623 -41.943,17.505 1.543,-11.334 -27.519,5.219 z"
   id="path4266" />

</g>
      <path
         style="fill:#0e7886"
         d="m 445.531,212.579 v 1.044 h -3.45 v -1.044 h -1.326 c -1.316,0 -2.462,-0.827 -2.998,-2.023 h -0.102 c -1.829,0 -3.321,-1.607 -3.321,-3.57 0,-1.256 0.6,-2.356 1.515,-2.988 h -5.099 c -1.829,0 -3.316,-1.603 -3.316,-3.57 0,-1.279 0.633,-2.406 1.58,-3.035 -1.621,-0.545 -2.762,-1.806 -2.762,-3.261 0,-1.954 2.051,-3.547 4.559,-3.547 -2.508,0 -4.559,-1.598 -4.559,-3.552 0,-1.954 2.051,-3.543 4.559,-3.543 -2.508,0 -4.559,-1.598 -4.559,-3.552 0,-1.949 2.051,-3.547 4.559,-3.547 h 34.83 c 2.508,0 4.559,1.598 4.559,3.547 0,1.954 -2.051,3.552 -4.559,3.552 2.508,0 4.559,1.593 4.559,3.543 0,1.954 -2.051,3.552 -4.559,3.552 2.508,0 4.559,1.598 4.559,3.547 0,1.455 -1.145,2.716 -2.762,3.261 0.947,0.628 1.58,1.755 1.58,3.035 0,1.968 -1.487,3.57 -3.321,3.57 h -5.099 c 0.915,0.633 1.515,1.732 1.515,2.988 0,1.963 -1.492,3.57 -3.312,3.57 h -0.102 c -0.54,1.196 -1.681,2.023 -2.998,2.023 h -1.39 v 1.044 h -3.45 v -1.044 h -5.325 z"
         id="path4270" />
      <path
         style="fill:#ffffff"
         d="m 319.674,408.877 h 13.256 v 3.898 h -13.256 z"
         id="path4272" />
      <path
         style="fill:#ff5b61"
         d="m 326.302,408.877 h 6.628 v 3.898 h -6.628 z"
         id="path4274" />
      <g
         id="g4276">
</g>
      <g
         id="g4278">
</g>
      <g
         id="g4280">
</g>
      <g
         id="g4282">
</g>
      <g
         id="g4284">
</g>
      <g
         id="g4286">
</g>
      <g
         id="g4288">
</g>
      <g
         id="g4290">
</g>
      <g
         id="g4292">
</g>
      <g
         id="g4294">
</g>
      <g
         id="g4296">
</g>
      <g
         id="g4298">
</g>
      <g
         id="g4300">
</g>
      <g
         id="g4302">
</g>
      <g
         id="g4304">
</g>
    </g>
  </g>
</svg>
