<?xml version="1.0" encoding="UTF-8" standalone="no"?>
<svg
   xmlns:dc="http://purl.org/dc/elements/1.1/"
   xmlns:cc="http://creativecommons.org/ns#"
   xmlns:rdf="http://www.w3.org/1999/02/22-rdf-syntax-ns#"
   xmlns:svg="http://www.w3.org/2000/svg"
   xmlns="http://www.w3.org/2000/svg"
   id="svg8"
   version="1.1"
   viewBox="0 0 338.66666 190.5"
   height="720"
   width="1280">
  <defs
     id="defs2" />
  <metadata
     id="metadata5">
    <rdf:RDF>
      <cc:Work
         rdf:about="">
        <dc:format>image/svg+xml</dc:format>
        <dc:type
           rdf:resource="http://purl.org/dc/dcmitype/StillImage" />
        <dc:title></dc:title>
      </cc:Work>
    </rdf:RDF>
  </metadata>
  <g
     transform="translate(0,-106.49998)"
     id="layer1">
    <rect
       y="106.50325"
       x="0.0027687326"
       height="190.48596"
       width="338.66174"
       id="rect815"
       style="opacity:1;fill:#ebce53;fill-opacity:1;fill-rule:nonzero;stroke:none;stroke-width:0.76434302;stroke-linecap:round;stroke-linejoin:round;stroke-miterlimit:4;stroke-dasharray:none;stroke-opacity:1;paint-order:normal" />
    <g
       transform="matrix(0.40607181,0,0,0.37712909,76.399296,111.77507)"
       id="g6179">
      <path
         style="fill:#aa321e"
         d="m 292.493,72.193 c 0,0 -8.7,-8.348 -3.219,-43.838 l 1.799,-9.434 c 0,0 0.427,-7.638 -10.13,-7.592 l -7.088,-1.513 c -4.457,-0.951 -8.787,2.07 -9.434,6.582 l -6.565,45.846 z"
         id="path6059" />
      <path
         style="fill:#78140a"
         d="m 273.376,16.402 c 0.362,-2.583 1.953,-4.69 4.07,-5.816 l -3.595,-0.764 c -4.453,-0.961 -8.781,2.066 -9.432,6.581 l -6.066,42.388 c -0.283,1.977 0.936,3.861 2.855,4.412 v 0 c 2.293,0.659 4.649,-0.823 5.049,-3.176 2.018,-11.874 7.119,-43.625 7.119,-43.625 z"
         id="path6061" />
      <path
         style="fill:#aa321e"
         d="m 272.762,64.053 c 0,0 -11.192,-23.784 -14.204,-49.49 C 257.86,8.6 252.772,4.136 246.772,4.365 242.436,4.53 237.12,5.139 231.361,6.69 c -4.839,1.304 -8.21,5.69 -8.342,10.7 l -1.308,49.695 z"
         id="path6063" />
      <path
         style="fill:#78140a"
         d="m 250.784,4.935 c -2.748,0.362 -5.713,0.919 -8.802,1.756 -4.845,1.302 -8.213,5.692 -8.347,10.703 l -1.185,45.388 c -0.054,2.076 -1.689,3.767 -3.762,3.89 l -2.624,0.155 c -2.34,0.138 -4.298,-1.755 -4.236,-4.098 l 1.188,-45.335 c 0.134,-5.01 3.512,-9.401 8.347,-10.703 5.754,-1.55 11.075,-2.159 15.414,-2.324 1.402,-0.052 2.745,0.145 4.007,0.568 z"
         id="path6065" />
      <path
         style="fill:#aa321e"
         d="m 305.951,106.26 c -2.022,-37.405 -16.124,-45.492 -16.124,-45.492 0,0 -31.107,-14.041 -61.707,-16.983 -3.293,-10.038 -6.508,-22.364 -8.647,-36.609 -0.558,-3.714 -3.593,-6.546 -7.332,-6.91 -5.941,-0.58 -15.377,-0.507 -25.962,3.321 -3.524,1.275 -5.737,4.783 -5.367,8.513 0.81,8.167 2.553,23.523 5.46,38.943 -3.772,2.507 -7.07,5.7 -9.721,9.725 -21.796,33.129 -33.098,109.788 7.39,127.651 h 0.01 c 7.693,3.386 17.267,4.66 28.993,3.093 1.092,-0.142 5.843,-1.153 12.243,-2.558 6.196,-1.365 13.961,-3.103 21.431,-4.791 21.583,-4.863 40.114,-18.955 49.991,-38.759 5.743,-11.514 10.1,-25.112 9.342,-39.144 z"
         id="path6067" />
      <path
         id="SVGCleanerId_0"
         style="fill:#78140a"
         d="m 195.318,188.421 c 4.091,1.798 8.709,3.006 13.905,3.502 -10.052,0.857 -18.399,-0.475 -25.269,-3.502 h -0.01 c -40.486,-17.862 -29.185,-94.527 -7.387,-127.647 2.645,-4.029 5.94,-7.221 9.721,-9.732 -2.913,-15.414 -4.659,-30.775 -5.465,-38.947 -0.372,-3.729 1.839,-7.232 5.362,-8.502 10.639,-3.85 20.119,-3.906 26.054,-3.318 0,0.006 0,-0.004 0,0.002 -4.411,0.424 -9.401,1.405 -14.68,3.316 -3.523,1.271 -5.734,4.773 -5.372,8.502 0.691,6.916 2.048,18.985 4.209,31.876 0.664,3.963 -0.56,8.07 -3.475,10.837 -1.842,1.748 -3.515,3.728 -4.99,5.967 -21.798,33.121 -33.1,109.785 7.387,127.647 h 0.01 z" />
      <path
         style="fill:#78140a"
         d="m 225.188,188.955 c -6.399,1.405 -11.151,2.416 -12.242,2.558 -11.727,1.567 -21.3,0.293 -28.993,-3.093 10.303,-4.519 48.99,-40.732 63.159,-75.382 1.708,-4.175 7.963,-2.963 8.02,1.547 0.288,22.844 -4.544,54.806 -29.944,74.37 z"
         id="path6070" />
      <g
         id="g6073">
	<path
   id="SVGCleanerId_0_1_"
   style="fill:#78140a"
   d="m 195.318,188.421 c 4.091,1.798 8.709,3.006 13.905,3.502 -10.052,0.857 -18.399,-0.475 -25.269,-3.502 h -0.01 c -40.486,-17.862 -29.185,-94.527 -7.387,-127.647 2.645,-4.029 5.94,-7.221 9.721,-9.732 -2.913,-15.414 -4.659,-30.775 -5.465,-38.947 -0.372,-3.729 1.839,-7.232 5.362,-8.502 10.639,-3.85 20.119,-3.906 26.054,-3.318 0,0.006 0,-0.004 0,0.002 -4.411,0.424 -9.401,1.405 -14.68,3.316 -3.523,1.271 -5.734,4.773 -5.372,8.502 0.691,6.916 2.048,18.985 4.209,31.876 0.664,3.963 -0.56,8.07 -3.475,10.837 -1.842,1.748 -3.515,3.728 -4.99,5.967 -21.798,33.121 -33.1,109.785 7.387,127.647 h 0.01 z" />

</g>
      <g
         id="g6083">
	<path
   style="fill:#ff6e55"
   d="m 208.116,62.147 -22.118,19.112 c -5.031,4.349 -8.254,10.455 -8.884,17.077 -4.112,43.069 8.668,118.877 8.668,118.877 L 127.64,231.945 C 119.879,116.614 122.999,103.895 114.572,76.446 L 103.043,38.925 c -0.992,-3.884 1.085,-7.882 4.814,-9.329 l 27.862,-10.775 c 4.081,-1.57 8.668,0.455 10.238,4.535 1.055,2.74 8.295,21.54 9.349,24.277 L 184.553,29.74 c 3.203,-1.953 7.366,-1.126 9.566,1.911 20.401,28.123 13.76,18.966 15.124,20.848 2.179,3.026 1.695,7.21 -1.127,9.648 z"
   id="path6075" />

	<path
   style="fill:#ff6e55"
   d="m 370.256,149.701 c -0.838,-0.321 -1.026,-0.903 -2.141,-0.988 -6.557,-0.534 -37.874,-2.606 -71.222,3.757 3.446,6.549 15.584,39.621 19.577,49.016 67.393,-8.551 62.877,-7.55 63.232,-8.943 1.222,-4.442 8.418,-35.989 -9.446,-42.842 z"
   id="path6077" />

	<path
   style="fill:#ff6e55"
   d="m 384.441,224.755 c -0.97,3.103 -2.257,1.666 -43.015,16.296 l -9.381,-37.91 c 0,0 36.656,0.766 46.007,0.171 0.529,-0.033 1.016,-0.12 1.759,0.243 2.638,1.316 9.391,6.289 4.63,21.2 z"
   id="path6079" />

	<path
   style="fill:#ff6e55"
   d="m 395.449,260.141 c -0.203,0.86 -0.758,1.587 -1.506,2.002 -1.308,0.731 -19.013,3.057 -28.317,20.522 l -13.688,-44.39 c 36.643,-3.778 35.656,-4.92 37.738,-3.114 2.882,2.548 9.251,10.109 5.773,24.98 z"
   id="path6081" />

</g>
      <path
         style="fill:#c8462d"
         d="m 217.049,176.744 c -39.057,-39.057 -113.965,-1.207 -129.78,54.116 -14.984,52.414 -0.749,163.114 84.919,153.207 85.667,-9.909 83.917,-168.268 44.861,-207.323 z"
         id="path6085" />
      <path
         style="fill:#aa321e"
         d="m 172.187,384.066 c -74.816,8.657 -95.147,-74.692 -89.114,-130.86 5.083,49.061 30.218,99.258 89.114,92.45 44.577,-5.155 65.487,-50.497 69.785,-98.318 5.236,58.906 -13.214,130.188 -69.785,136.728 z"
         id="path6087" />
      <path
         style="fill:#ff876e"
         d="M 325.968,482.622 C 267.49,480.693 197.88,468.796 158.304,425.969 130.179,395.56 123.629,356.316 130.513,316.768 c 1.001,-5.792 2.294,-11.595 3.851,-17.368 22.546,-83.633 101.051,-164.456 156.169,-156.937 48.565,6.42 35.403,20.755 88.881,125.882 59.286,80.093 11.51,216.344 -53.446,214.277 z"
         id="path6089" />
      <g
         id="g6095">
	<path
   style="fill:#ff6e55"
   d="m 314.646,445.146 c -10.685,-14.386 -11.302,-31.349 -1.819,-50.426 14.497,-29.166 10.676,-65.963 -11.059,-106.411 -12.752,-23.737 -27.929,-42.003 -33.963,-48.856 l 18.668,-97.365 c -5.065,-0.283 -10.302,0.142 -15.67,1.193 l -21.906,114.215 c -2.879,15.043 -8.929,29.262 -17.563,41.779 -6.691,-6.525 -16.298,-10.379 -28.727,-11.47 -12.738,-1.112 -28.63,0.718 -47.261,5.439 -7.269,1.84 -14.356,3.973 -20.977,6.157 -1.557,5.773 -2.851,11.575 -3.851,17.368 32.578,-11.571 76.601,-22.075 91.244,-5.47 -3.423,3.732 -7.1,7.25 -11.035,10.505 -19.289,15.943 -33.533,33.745 -42.338,52.892 -7.582,16.488 -10.949,33.644 -10.079,51.275 5.045,5.459 10.786,10.635 17.277,15.478 -10.463,-49.505 17.914,-85.717 44.805,-107.958 22.513,-18.621 37.931,-44.593 43.409,-73.131 l 0.302,-1.574 c 19.366,24.611 58.2,82.799 35.152,129.185 -15.235,30.641 -6.652,52.923 3.225,66.227 8.917,12 22.069,21.099 35.635,27.204 6.824,-1.597 13.374,-4.701 19.531,-9.058 -15.18,-4.412 -32.791,-13.449 -43,-27.198 z"
   id="path6091" />

	<path
   style="fill:#ff6e55"
   d="m 325.97,482.622 c -58.518,-1.93 -128.086,-13.833 -167.669,-56.654 -26.994,-29.185 -34.112,-66.53 -28.544,-104.455 14.303,86.484 107.825,112.6 196.213,115.509 11.425,0.372 22.158,-3.54 31.674,-10.279 24.05,-17.025 42.108,-53.152 47.243,-93.215 9.647,72.491 -29.48,150.705 -78.917,149.094 z"
   id="path6093" />

</g>
      <g
         id="g6103">
</g>
      <g
         id="g6105">
</g>
      <g
         id="g6107">
</g>
      <g
         id="g6109">
</g>
      <g
         id="g6111">
</g>
      <g
         id="g6113">
</g>
      <g
         id="g6115">
</g>
      <g
         id="g6117">
</g>
      <g
         id="g6119">
</g>
      <g
         id="g6121">
</g>
      <g
         id="g6123">
</g>
      <g
         id="g6125">
</g>
      <g
         id="g6127">
</g>
      <g
         id="g6129">
</g>
      <g
         id="g6131">
</g>
    </g>
  </g>
</svg>
