<?xml version="1.0" encoding="UTF-8" standalone="no"?>
<svg
   xmlns:dc="http://purl.org/dc/elements/1.1/"
   xmlns:cc="http://creativecommons.org/ns#"
   xmlns:rdf="http://www.w3.org/1999/02/22-rdf-syntax-ns#"
   xmlns:svg="http://www.w3.org/2000/svg"
   xmlns="http://www.w3.org/2000/svg"
   id="svg8"
   version="1.1"
   viewBox="0 0 338.66666 190.5"
   height="720"
   width="1280">
  <defs
     id="defs2" />
  <metadata
     id="metadata5">
    <rdf:RDF>
      <cc:Work
         rdf:about="">
        <dc:format>image/svg+xml</dc:format>
        <dc:type
           rdf:resource="http://purl.org/dc/dcmitype/StillImage" />
        <dc:title></dc:title>
      </cc:Work>
    </rdf:RDF>
  </metadata>
  <g
     transform="translate(0,-106.49998)"
     id="layer1">
    <rect
       y="106.50325"
       x="0.0027687326"
       height="190.48596"
       width="338.66174"
       id="rect815"
       style="opacity:1;fill:#ebce53;fill-opacity:1;fill-rule:nonzero;stroke:none;stroke-width:0.76434302;stroke-linecap:round;stroke-linejoin:round;stroke-miterlimit:4;stroke-dasharray:none;stroke-opacity:1;paint-order:normal" />
    <g
       transform="matrix(0.37472424,0,0,0.34002231,76.570723,118.38176)"
       id="g6055">
      <circle
         style="fill:#fb5968"
         cx="248"
         cy="248"
         r="240"
         id="circle5898" />
      <circle
         style="fill:#fcd770"
         cx="248"
         cy="248"
         r="200"
         id="circle5900" />
      <g
         id="g5908">
	<path
   style="fill:#92e0c0"
   d="m 262.824,288 c -0.984,5.704 -2.528,11.328 -4.376,16.856 -2.704,8.112 -3.304,17.184 -1.12,26.584 4.096,17.648 18.536,31.744 36.264,35.464 13.72,2.88 26.712,-0.104 36.944,-6.904 l 20.792,-32 c 0.448,-2.6 0.672,-5.272 0.672,-8 0,-5.8 -1.032,-11.352 -2.92,-16.496 C 345.704,294.32 344,284.616 344,274.84 v -9.848 c 0,-13.2 2.68,-26.448 9.064,-38 6.072,-10.992 8.56,-24.248 5.848,-38.192 -4.248,-21.856 -21.848,-39.464 -43.704,-43.704 C 279.36,138.144 248,165.408 248,200 c 0,9.368 2.312,18.2 6.384,25.952 z"
   id="path5902" />

	<path
   style="fill:#92e0c0"
   d="m 176,312 c -1.224,0 -2.384,0.224 -3.576,0.36 C 174.68,307.352 176,301.84 176,296 c 0,-22.088 -17.912,-40 -40,-40 -22.088,0 -40,17.912 -40,40 0,22.088 17.912,40 40,40 3.296,0 6.456,-0.512 9.528,-1.264 -0.904,2.952 -1.528,6.016 -1.528,9.264 0,17.672 14.328,32 32,32 17.672,0 32,-14.328 32,-32 0,-17.672 -14.328,-32 -32,-32 z"
   id="path5904" />

	<circle
   style="fill:#92e0c0"
   cx="168"
   cy="168"
   r="40"
   id="circle5906" />

</g>
      <path
         style="fill:#fb5968"
         d="m 94.528,119.792 281.68,281.68 c 9.152,-7.656 17.608,-16.112 25.264,-25.264 L 119.792,94.528 c -9.152,7.656 -17.608,16.112 -25.264,25.264 z"
         id="path5910" />
      <path
         d="M 248,40 C 133.312,40 40,133.312 40,248 40,362.696 133.312,456 248,456 362.688,456 456,362.696 456,248 456,133.312 362.688,40 248,40 Z M 56,248 c 0,-43.952 14.88,-84.472 39.816,-116.872 l 25.76,25.76 c -0.256,1.032 -0.648,2.08 -0.84,3.104 H 112 v 16 h 8.72 c 1.232,7.272 4.08,13.992 8.2,19.768 l -6.176,6.176 11.312,11.312 6.176,-6.176 c 5.776,4.128 12.496,6.976 19.768,8.208 V 224 h 16 v -8.744 c 1.032,-0.184 2.072,-0.584 3.104,-0.84 l 75.184,75.184 c -0.832,3.976 -1.904,8.128 -3.432,12.728 -1.048,3.144 -1.704,6.392 -2.168,9.672 H 240 v 16 h 8.68 c 0.24,1.752 0.448,3.512 0.856,5.256 1.744,7.504 5.064,14.384 9.528,20.36 l -5.976,5.984 11.32,11.312 5.952,-5.96 c 6.304,4.704 13.632,8.104 21.584,9.776 1.352,0.28 2.704,0.448 4.048,0.64 V 384 h 16 v -8.584 c 7.288,-1.04 14.256,-3.616 20.656,-7.456 l 32.216,32.216 C 332.472,425.12 291.952,440 248,440 142.136,440 56,353.864 56,248 Z m 80.376,-76.312 27.944,27.944 c -14.672,-1.712 -26.24,-13.28 -27.944,-27.944 z M 295.24,359.08 C 280.6,356 268.496,344.176 265.12,329.64 c -1.768,-7.64 -1.464,-15.128 0.92,-22.256 0.536,-1.616 0.92,-3.104 1.384,-4.648 l 53.392,53.392 c -7.864,3.664 -16.712,4.8 -25.576,2.952 z m 81.968,30.816 -271.104,-271.104 c 4.032,-4.424 8.264,-8.656 12.688,-12.688 L 389.888,377.2 c -4.024,4.432 -8.256,8.664 -12.68,12.696 z M 199.624,164.312 171.68,136.368 c 14.672,1.712 26.24,13.28 27.944,27.944 z m 61.84,57.928 C 257.84,215.336 256,207.848 256,200 c 0,-14.384 6.368,-27.888 17.48,-37.048 11.104,-9.168 25.752,-12.824 40.2,-10.008 18.712,3.624 33.736,18.648 37.376,37.376 2.232,11.496 0.504,22.832 -5,32.8 C 339.48,235.032 336,249.512 336,264.984 v 9.848 c 0,10.792 1.872,21.36 5.568,31.424 L 264.816,229.504 Z M 400.184,364.872 363.312,328 H 368 v -16 h -8.704 c -0.552,-3.832 -1.376,-7.608 -2.712,-11.256 C 353.544,292.456 352,283.736 352,274.832 v -9.848 c 0,-12.776 2.792,-24.576 8.064,-34.136 3.968,-7.176 6.408,-14.888 7.408,-22.848 H 384 v -16 h -16.52 c -0.192,-1.576 -0.408,-3.16 -0.72,-4.736 -1.912,-9.824 -6.224,-18.84 -12.192,-26.52 l 11.656,-11.656 -11.312,-11.312 -11.656,11.656 c -7.688,-5.976 -16.704,-10.296 -26.536,-12.2 -1.576,-0.304 -3.144,-0.456 -4.72,-0.648 V 120 h -16 v 16.568 c -11.312,1.424 -22.056,5.848 -31.192,12.936 l -11.728,-11.728 -11.312,11.312 11.664,11.664 C 244.792,171.872 240,185.608 240,200 c 0,1.672 0.168,3.328 0.304,4.992 l -25.88,-25.88 c 0.256,-1.032 0.648,-2.08 0.84,-3.104 H 224 v -16 h -8.72 c -1.232,-7.272 -4.08,-13.992 -8.2,-19.768 l 6.176,-6.176 -11.312,-11.312 -6.176,6.176 C 189.992,124.8 183.272,121.952 176,120.72 V 112 h -16 v 8.744 c -1.032,0.184 -2.072,0.584 -3.104,0.84 l -25.76,-25.76 C 163.528,70.88 204.048,56 248,56 c 105.864,0 192,86.136 192,192 0,43.952 -14.88,84.472 -39.816,116.872 z"
         id="path5912" />
      <rect
         y="0"
         x="232"
         width="32"
         height="16"
         id="rect5914" />
      <rect
         x="140.15199"
         y="18.261"
         transform="matrix(-0.9238,0.3828,-0.3828,-0.9238,310.4608,-9.2555)"
         width="31.999001"
         height="16"
         id="rect5916" />
      <rect
         x="62.296001"
         y="70.295998"
         transform="matrix(-0.7071,0.7071,-0.7071,-0.7071,189.0229,78.2961)"
         width="32"
         height="16"
         id="rect5918" />
      <rect
         x="10.267"
         y="148.15601"
         transform="matrix(-0.3828,0.9238,-0.9238,-0.3828,180.5824,191.6687)"
         width="31.999001"
         height="16"
         id="rect5920" />
      <rect
         x="0"
         y="232"
         width="16"
         height="32"
         id="rect5922" />
      <rect
         x="18.266001"
         y="323.85599"
         transform="matrix(-0.9239,0.3827,-0.3827,-0.9239,180.592,643.7892)"
         width="16"
         height="32.000999"
         id="rect5924" />
      <rect
         x="70.292"
         y="401.68701"
         transform="matrix(-0.707,0.7072,-0.7072,-0.707,429.0365,657.6262)"
         width="16"
         height="32"
         id="rect5926" />
      <rect
         x="148.149"
         y="453.728"
         transform="matrix(-0.3826,0.9239,-0.9239,-0.3826,649.8784,505.1798)"
         width="16"
         height="32"
         id="rect5928" />
      <rect
         x="232"
         y="480"
         width="32"
         height="16"
         id="rect5930" />
      <rect
         x="323.83301"
         y="461.689"
         transform="matrix(-0.9238,0.3828,-0.3828,-0.9238,833.5804,773.5085)"
         width="31.999001"
         height="16"
         id="rect5932" />
      <rect
         x="401.677"
         y="409.67999"
         transform="matrix(-0.7071,0.7071,-0.7071,-0.7071,1008.3629,417.6824)"
         width="32"
         height="16"
         id="rect5934" />
      <rect
         x="453.716"
         y="331.82101"
         transform="matrix(-0.3828,0.9238,-0.9238,-0.3828,963.4637,35.9717)"
         width="31.999001"
         height="16"
         id="rect5936" />
      <rect
         x="480"
         y="232"
         width="16"
         height="32"
         id="rect5938" />
      <rect
         x="461.74799"
         y="140.16499"
         transform="matrix(-0.9239,0.3827,-0.3827,-0.9239,963.501,120.6757)"
         width="16"
         height="32.000999"
         id="rect5940" />
      <rect
         x="409.68201"
         y="62.318001"
         transform="matrix(-0.7071,0.7071,-0.7071,-0.7071,768.407,-161.6495)"
         width="16"
         height="32"
         id="rect5942" />
      <rect
         x="331.84601"
         y="10.258"
         transform="matrix(-0.3827,0.9239,-0.9239,-0.3827,494.1618,-277.6686)"
         width="16"
         height="32.000999"
         id="rect5944" />
      <path
         d="M 183.192,304.648 C 183.728,301.8 184,298.912 184,296 c 0,-26.472 -21.528,-48 -48,-48 -26.472,0 -48,21.528 -48,48 0,26.472 21.528,48 48,48 0,22.056 17.944,40 40,40 22.056,0 40,-17.944 40,-40 0,-19.6 -14.168,-35.952 -32.808,-39.352 z M 176,368 c -13.232,0 -24,-10.768 -24,-24 0,-2.096 0.376,-4.296 1.176,-6.936 0.84,-2.752 0.136,-5.736 -1.84,-7.832 -1.528,-1.616 -3.64,-2.496 -5.816,-2.496 -0.632,0 -1.272,0.08 -1.904,0.224 -2.888,0.712 -5.304,1.04 -7.616,1.04 -17.648,0 -32,-14.352 -32,-32 0,-17.648 14.352,-32 32,-32 17.648,0 32,14.352 32,32 0,4.456 -0.968,8.848 -2.864,13.08 -1.176,2.616 -0.856,5.672 0.832,7.992 1.688,2.32 4.464,3.536 7.352,3.24 l 1.224,-0.16 c 0.48,-0.064 0.96,-0.152 1.456,-0.152 13.232,0 24,10.768 24,24 0,13.232 -10.768,24 -24,24 z"
         id="path5946" />
      <path
         d="m 384,280 c 17.648,0 32,-14.352 32,-32 h -16 c 0,8.824 -7.176,16 -16,16 z"
         id="path5948" />
      <path
         d="m 216,408 v 16 c 17.648,0 32,-14.352 32,-32 h -16 c 0,8.824 -7.176,16 -16,16 z"
         id="path5950" />
      <path
         d="m 104,224 c -8.824,0 -16,-7.176 -16,-16 H 72 c 0,17.648 14.352,32 32,32 z"
         id="path5952" />
      <path
         d="m 240,80 h -16 c 0,17.648 14.352,32 32,32 V 96 c -8.824,0 -16,-7.176 -16,-16 z"
         id="path5954" />
      <circle
         cx="136"
         cy="296"
         r="8"
         id="circle5956" />
      <circle
         cx="176"
         cy="344"
         r="8"
         id="circle5958" />
      <rect
         x="296"
         y="168"
         width="16"
         height="16"
         id="rect5960" />
      <rect
         x="320"
         y="200"
         width="16"
         height="16"
         id="rect5962" />
      <rect
         x="272"
         y="208"
         width="16"
         height="16"
         id="rect5964" />
      <rect
         x="304"
         y="240"
         width="16"
         height="16"
         id="rect5966" />
      <g
         id="g5968">
</g>
      <g
         id="g5970">
</g>
      <g
         id="g5972">
</g>
      <g
         id="g5974">
</g>
      <g
         id="g5976">
</g>
      <g
         id="g5978">
</g>
      <g
         id="g5980">
</g>
      <g
         id="g5982">
</g>
      <g
         id="g5984">
</g>
      <g
         id="g5986">
</g>
      <g
         id="g5988">
</g>
      <g
         id="g5990">
</g>
      <g
         id="g5992">
</g>
      <g
         id="g5994">
</g>
      <g
         id="g5996">
</g>
    </g>
  </g>
</svg>
