<?xml version="1.0" encoding="UTF-8" standalone="no"?>
<svg
   xmlns:dc="http://purl.org/dc/elements/1.1/"
   xmlns:cc="http://creativecommons.org/ns#"
   xmlns:rdf="http://www.w3.org/1999/02/22-rdf-syntax-ns#"
   xmlns:svg="http://www.w3.org/2000/svg"
   xmlns="http://www.w3.org/2000/svg"
   id="svg8"
   version="1.1"
   viewBox="0 0 338.66666 190.5"
   height="720"
   width="1280">
  <defs
     id="defs2" />
  <metadata
     id="metadata5">
    <rdf:RDF>
      <cc:Work
         rdf:about="">
        <dc:format>image/svg+xml</dc:format>
        <dc:type
           rdf:resource="http://purl.org/dc/dcmitype/StillImage" />
        <dc:title></dc:title>
      </cc:Work>
    </rdf:RDF>
  </metadata>
  <g
     transform="translate(0,-106.49998)"
     id="layer1">
    <rect
       y="106.50325"
       x="0.0027687326"
       height="190.48596"
       width="338.66174"
       id="rect815"
       style="opacity:1;fill:#ebce53;fill-opacity:1;fill-rule:nonzero;stroke:none;stroke-width:0.76434302;stroke-linecap:round;stroke-linejoin:round;stroke-miterlimit:4;stroke-dasharray:none;stroke-opacity:1;paint-order:normal" />
    <g
       transform="matrix(0.38681738,0,0,0.32889493,61.870813,115.51661)"
       id="g4198">
      <path
         style="fill:#ffc98c"
         d="m 176.46,270.938 c -0.065,1.227 -0.104,2.457 -0.095,3.692 v 65.589 c 0,17.068 13.836,30.905 30.905,30.905 h 14.328 V 260.635 Z"
         id="path4101" />
      <path
         style="fill:#f7a16e"
         d="m 221.598,260.635 v 110.489 h 83.132 c 17.069,0 30.905,-13.837 30.905,-30.905 v -65.846 c 0,-1.149 -0.036,-2.294 -0.098,-3.435 z"
         id="path4103" />
      <path
         style="fill:#1a3e6e"
         d="M 305.138,484.996 V 270.938 h 30.4 c -0.98,-18.155 -9.709,-35.217 -24.838,-48.364 -15.081,-13.106 -34.933,-20.659 -54.47,-20.723 h -0.25 c -11.605,0 -23.411,2.654 -34.38,7.685 l 34.477,184.769 c 10.028,0 18.157,8.129 18.157,18.157 v 91.812 h 0.21 c -0.13,0.994 -0.205,2.004 -0.209,3.027 -0.011,2.581 2.034,4.7 4.614,4.7 h 37.147 c 2.538,0 4.596,-2.057 4.596,-4.596 v -0.555 c -0.002,-10.093 -6.453,-18.672 -15.454,-21.854 z"
         id="path4105" />
      <path
         style="fill:#315588"
         d="m 221.598,209.425 -3.535,1.819 c -24.672,12.696 -40.325,35.339 -41.604,59.693 h 30.552 v 214.085 c -9.084,3.3 -15.468,12.25 -15.453,22.418 0.004,2.522 2.073,4.56 4.596,4.56 h 37.167 c 2.538,0 4.596,-2.057 4.596,-4.596 v -0.555 c 0,-0.872 -0.052,-1.73 -0.145,-2.575 h 0.145 v -91.812 c 0,-10.028 8.129,-18.157 18.157,-18.157 V 219.944 Z"
         id="path4107" />
      <rect
         x="207.015"
         y="339.95999"
         style="fill:#1a3e6e"
         width="67.219002"
         height="15.453"
         id="rect4109" />
      <path
         style="fill:#ffc98c"
         d="M 305.251,51.765 C 290.835,41.507 274.089,35.284 256.227,35.284 c -48.729,0 -89.131,46.313 -96.631,94.488 -2.762,-1.162 -5.8,-1.805 -8.985,-1.805 -12.801,0 -23.179,10.378 -23.179,23.179 0,12.801 10.378,23.179 23.179,23.179 4.156,0 8.052,-1.099 11.425,-3.014 2.831,9.673 7.177,18.716 12.707,26.981 2.71,4.052 18.241,16.204 40.381,20.837 l 52.758,11.04 47.346,-46.432 C 353.663,146.046 349.21,83.042 305.251,51.765 Z"
         id="path4111" />
      <path
         style="fill:#f7a16e"
         d="m 361.39,127.968 c -2.977,0 -5.825,0.569 -8.44,1.592 -0.103,-0.691 -0.208,-1.383 -0.325,-2.071 -5.189,-30.565 -22.141,-58.41 -47.374,-75.723 14.376,19.829 21.638,42.475 21.638,66.179 0,53.311 -43.827,96.528 -97.89,96.528 -20.07,0 -38.726,-5.96 -54.257,-16.177 14.928,22.064 38.828,37.717 66.557,41.903 9.829,1.483 19.991,1.472 29.82,-0.009 37.949,-5.721 68.773,-32.931 79.193,-68.692 3.293,1.797 7.062,2.831 11.078,2.831 12.802,0 23.179,-10.378 23.179,-23.179 0,-12.801 -10.378,-23.182 -23.179,-23.182 z"
         id="path4113" />
      <g
         id="g4121">
	<circle
   style="fill:#35404a"
   cx="220.66499"
   cy="152.106"
   r="7.7259998"
   id="circle4115" />

	<circle
   style="fill:#35404a"
   cx="289.883"
   cy="152.106"
   r="7.7259998"
   id="circle4117" />

	<path
   style="fill:#35404a"
   d="m 261.667,153.369 c -1.459,1.46 -3.4,2.263 -5.463,2.263 -2.063,0 -4.004,-0.804 -5.463,-2.263 -3.017,-3.016 -7.91,-3.017 -10.926,0 -3.018,3.017 -3.018,7.91 -0.001,10.927 4.378,4.378 10.199,6.789 16.39,6.789 6.191,0 12.012,-2.412 16.39,-6.789 3.017,-3.017 3.017,-7.91 -10e-4,-10.927 -3.015,-3.017 -7.908,-3.017 -10.926,0 z"
   id="path4119" />

</g>
      <circle
         style="fill:#f7a16e"
         cx="150.612"
         cy="151.179"
         r="7.7259998"
         id="circle4123" />
      <circle
         style="fill:#ce795f"
         cx="362.54099"
         cy="151.179"
         r="7.7259998"
         id="circle4125" />
      <path
         style="fill:#315588"
         d="M 360.769,80.644 C 340.209,39.676 302.056,0 256.361,0 c -8.435,0 -19.377,1.233 -29.256,3.131 -12.33,2.367 -21.277,13.096 -21.277,25.652 -14.033,-0.007 -27.255,6.588 -35.678,17.811 -2.524,3.364 -4.9,6.731 -7.093,10.126 -14.138,21.885 -15.477,49.668 -3.734,72.928 v 0 l 66.917,-53.457 94.906,40.157 41.685,-8.789 c 1.689,-8.926 1.021,-18.222 -2.062,-26.915 z"
         id="path4127" />
      <path
         style="fill:#1a3e6e"
         d="m 356.008,70.706 c -9.254,-14.95 -20.85,-29.137 -27.823,-36.257 8.206,10.827 11.721,31.12 11.721,44.505 0,19.767 -8.168,26.187 -26.362,22.246 -25.111,-5.439 -63.007,-25.565 -87.873,-62.267 -4.609,-6.802 -12.197,-10.358 -19.843,-10.15 0,12.684 1.779,15.612 -2.221,42.421 -4.508,20.507 -23.016,35.391 -44.007,35.391 -0.633,0 -3.351,0.026 -7.483,0.075 1.113,7.888 3.51,15.654 7.204,22.972 0.08,0.046 0.146,0.084 0.227,0.132 32.657,0.022 59.956,-22.957 66.693,-53.585 32.96,33.901 78.156,53.372 126.711,53.372 v 0 c 13.171,-17.069 14.403,-40.522 3.056,-58.855 z"
         id="path4129" />
      <g
         id="g4131">
</g>
      <g
         id="g4133">
</g>
      <g
         id="g4135">
</g>
      <g
         id="g4137">
</g>
      <g
         id="g4139">
</g>
      <g
         id="g4141">
</g>
      <g
         id="g4143">
</g>
      <g
         id="g4145">
</g>
      <g
         id="g4147">
</g>
      <g
         id="g4149">
</g>
      <g
         id="g4151">
</g>
      <g
         id="g4153">
</g>
      <g
         id="g4155">
</g>
      <g
         id="g4157">
</g>
      <g
         id="g4159">
</g>
    </g>
    <g
       transform="matrix(0.11420486,0,0,0.08452472,131.53654,199.29483)"
       id="g4246">
      <path
         style="fill:#b9dd39"
         d="m 271,15 c 0,8.399 -6.599,15 -15,15 -124.2,0 -226,101.8 -226,226 0,45.599 14.5,89.399 40,126.899 4.801,6.601 3.001,15.901 -3.9,20.7 -6.899,4.799 -16.199,2.999 -20.7,-3.9 C 16.3,357.4 0,307.599 0,256 0,115.3 115.3,0 256,0 c 8.401,0 15,6.599 15,15 z"
         id="path4200" />
      <path
         style="fill:#90cc1c"
         d="M 256,30 V 0 c 8.401,0 15,6.599 15,15 0,8.399 -6.599,15 -15,15 z"
         id="path4202" />
      <path
         style="fill:#b9dd39"
         d="m 512,256 c 0,140.7 -115.3,256 -256,256 -8.401,0 -15,-6.601 -15,-15 0,-8.401 6.599,-15 15,-15 124.2,0 226,-101.8 226,-226 0,-47.401 -15.399,-93.701 -43.001,-131.8 -4.799,-6.901 -3.3,-16.201 3.301,-21 6.899,-4.801 16.199,-3.301 20.999,3.3 C 494.5,150 512,202.299 512,256 Z"
         id="path4204" />
      <path
         style="fill:#90cc1c"
         d="m 512,256 c 0,140.7 -115.3,256 -256,256 v -30 c 124.2,0 226,-101.8 226,-226 0,-47.401 -15.399,-93.701 -43.001,-131.8 -4.799,-6.901 -3.3,-16.201 3.301,-21 6.899,-4.801 16.199,-3.301 20.999,3.3 C 494.5,150 512,202.299 512,256 Z"
         id="path4206" />
      <path
         style="fill:#ff637b"
         d="m 361,135 c 0,41.4 -33.6,75 -75,75 -10.499,0 -20.7,-2.1 -30,-6.301 -26.4,-11.4 -45,-37.8 -45,-68.699 0,-30.901 18.6,-57.301 45,-68.701 C 265.3,62.1 275.501,60 286,60 c 41.4,0 75,33.6 75,75 z"
         id="path4208" />
      <path
         style="fill:#e63950"
         d="m 361,135 c 0,41.4 -33.6,75 -75,75 -10.499,0 -20.7,-2.1 -30,-6.301 V 66.299 C 265.3,62.1 275.501,60 286,60 c 41.4,0 75,33.6 75,75 z"
         id="path4210" />
      <path
         style="fill:#ff8e8e"
         d="m 391,256 c 0,74.7 -60.3,135 -135,135 -74.7,0 -135,-60.3 -135,-135 0,-74.7 60.3,-136 135,-136 74.7,0 135,61.3 135,136 z"
         id="path4212" />
      <path
         style="fill:#ff637b"
         d="M 256,391 V 120 c 74.7,0 135,61.3 135,136 0,74.7 -60.3,135 -135,135 z"
         id="path4214" />
      <path
         style="fill:#90cc1c"
         d="m 414.364,163.286 c -5.068,-1.201 -9.141,-4.937 -10.781,-9.858 L 371.767,57.964 c -1.802,-5.391 -0.396,-11.338 3.618,-15.352 3.999,-4.014 9.946,-5.449 15.352,-3.618 L 486.2,70.811 c 4.922,1.641 8.657,5.713 9.858,10.781 1.187,5.054 -0.322,10.371 -3.999,14.048 l -63.647,63.647 c -3.544,3.544 -8.778,5.215 -14.048,3.999 z"
         id="path4216" />
      <path
         style="fill:#b9dd39"
         d="M 116.708,468.959 21.244,437.143 c -4.922,-1.641 -8.657,-5.713 -9.858,-10.781 -1.187,-5.054 0.322,-10.371 3.999,-14.048 l 63.633,-63.633 c 3.662,-3.662 8.979,-5.186 14.048,-3.999 5.068,1.201 9.141,4.922 10.781,9.858 l 31.831,95.449 c 1.802,5.391 0.396,11.338 -3.618,15.352 -4.059,4.059 -10.063,5.414 -15.352,3.618 z"
         id="path4218" />
      <path
         style="fill:#ff637b"
         d="m 166,210 c -24.814,0 -45,-20.186 -45,-45 0,-24.814 20.186,-45 45,-45 24.814,0 45,20.186 45,45 0,24.814 -20.186,45 -45,45 z"
         id="path4220" />
      <path
         style="fill:#e63950"
         d="m 331,391 c -33.091,0 -60,-26.909 -60,-60 0,-33.091 26.909,-60 60,-60 33.091,0 60,26.909 60,60 0,33.091 -26.909,60 -60,60 z"
         id="path4222" />
      <path
         style="fill:#ff637b"
         d="m 166,361 c -24.814,0 -45,-20.186 -45,-45 0,-24.814 20.186,-45 45,-45 24.814,0 45,20.186 45,45 0,24.814 -20.186,45 -45,45 z"
         id="path4224" />
    </g>
  </g>
</svg>
