<?xml version="1.0" encoding="UTF-8" standalone="no"?>
<svg
   xmlns:dc="http://purl.org/dc/elements/1.1/"
   xmlns:cc="http://creativecommons.org/ns#"
   xmlns:rdf="http://www.w3.org/1999/02/22-rdf-syntax-ns#"
   xmlns:svg="http://www.w3.org/2000/svg"
   xmlns="http://www.w3.org/2000/svg"
   id="svg8"
   version="1.1"
   viewBox="0 0 317.49999 238.12501"
   height="900"
   width="1200">
  <defs
     id="defs2" />
  <metadata
     id="metadata5">
    <rdf:RDF>
      <cc:Work
         rdf:about="">
        <dc:format>image/svg+xml</dc:format>
        <dc:type
           rdf:resource="http://purl.org/dc/dcmitype/StillImage" />
        <dc:title></dc:title>
      </cc:Work>
    </rdf:RDF>
  </metadata>
  <g
     style="opacity:1"
     transform="matrix(0.97184514,0,0,1.3122724,-2.3835559,-144.55363)"
     id="layer1">
    <rect
       rx="0"
       ry="0"
       y="106.34677"
       x="0.05045712"
       height="190.93718"
       width="338.8371"
       id="rect1676"
       style="opacity:1;fill:#ebce53;fill-opacity:1;fill-rule:nonzero;stroke:none;stroke-width:4.00330305;stroke-linecap:round;stroke-linejoin:round;stroke-miterlimit:4;stroke-dasharray:none;stroke-opacity:1;paint-order:normal" />
  </g>
  <g
     transform="translate(-22.657277,30.930164)"
     id="layer2">
    <g
       transform="translate(-8.5361495,5.7343111)"
       id="g887">
      <g
         id="layer6">
        <path
           style="fill:none;stroke:#000000;stroke-width:3.00399995;stroke-linecap:round;stroke-linejoin:round;stroke-miterlimit:4;stroke-dasharray:none;stroke-opacity:1"
           d="m 41.530374,89.222178 c 0,0 -3.182588,11.240532 -4.15774,27.355442"
           id="path862" />
        <path
           style="fill:none;stroke:#000000;stroke-width:3.06500006;stroke-linecap:round;stroke-linejoin:round;stroke-miterlimit:4;stroke-dasharray:none;stroke-opacity:1"
           d="m 146.19861,89.285579 c 11.56499,6.432152 32.6835,8.981779 30.05132,16.132291"
           id="path882" />
        <path
           style="fill:none;stroke:#000000;stroke-width:3.06500006;stroke-linecap:round;stroke-linejoin:round;stroke-miterlimit:4;stroke-dasharray:none;stroke-opacity:1"
           d="m 80.251755,129.72281 c 4.288849,10.15159 5.336811,21.02828 3.245881,34.93268"
           id="path884" />
        <path
           style="fill:none;stroke:#000000;stroke-width:3.06500006;stroke-linecap:round;stroke-linejoin:round;stroke-miterlimit:4;stroke-dasharray:none;stroke-opacity:1"
           d="m 110.3278,130.33954 c 8.00698,7.04502 6.3373,35.28411 6.33722,35.2856"
           id="path886" />
      </g>
      <g
         id="layer1-5"
         transform="translate(0,-106.49998)">
        <path
           style="fill:#fb7c85;fill-opacity:1;stroke:none;stroke-width:0.26458332px;stroke-linecap:butt;stroke-linejoin:miter;stroke-opacity:1"
           d="m 40.445546,195.70238 c 0,-10.20535 9.761556,-43.94905 44.979165,-42.71131 18.805869,0.66094 58.796349,3.57348 61.889939,42.71131 1.8154,22.96707 -25.3563,44.65874 -49.605716,43.84524 -8.57106,-0.28754 -60.665175,-1.13393 -57.263388,-43.84524 z"
           id="path3724" />
        <path
           style="fill:#fb7c85;fill-opacity:1;stroke:none;stroke-width:0.26458332px;stroke-linecap:butt;stroke-linejoin:miter;stroke-opacity:1"
           d="m 59.156936,163.19591 c -1.228422,-2.17336 -3.827274,-6.46471 -2.645832,-9.44941 1.795386,-4.53571 14.35465,-1.63738 15.686013,-4.44122 1.373734,-2.89306 2.624413,-15.60611 10.583333,-15.7805 8.392204,-0.18389 3.114245,14.90453 4.819198,13.60714 3.370416,-1.71488 9.271556,-4.48292 14.079602,-4.91369 3.59076,0.47247 5.82127,0.5898 6.70907,4.34673 0.96066,4.06528 -4.44175,8.50708 -4.44175,8.50708 -16.438202,-1.92965 -31.614828,-1.74498 -44.789634,8.12387 z"
           id="path3726" />
        <g
           style="display:inline"
           id="layer2-0"
           transform="translate(-16.105329,76.906318)" />
      </g>
      <g
         id="layer3">
        <path
           style="fill:#ffffff;fill-opacity:1;fill-rule:evenodd;stroke-width:0.53492969"
           id="path1026"
           d="M 97.114059,75.462433 A 10.205261,9.0032873 0 0 1 86.909481,84.46572 10.205261,9.0032873 0 0 1 76.703537,75.463638 10.205261,9.0032873 0 0 1 86.90675,66.459146 10.205261,9.0032873 0 0 1 97.114059,75.460024 l -10.205261,0.0024 z" />
        <path
           d="m 115.07457,75.836609 a 10.205261,9.0032873 0 0 1 -10.20458,9.003287 10.205261,9.0032873 0 0 1 -10.205943,-9.002082 10.205261,9.0032873 0 0 1 10.203213,-9.004492 10.205261,9.0032873 0 0 1 10.20731,9.000878 l -10.20526,0.0024 z"
           id="path1028"
           style="fill:#ffffff;fill-opacity:1;fill-rule:evenodd;stroke-width:0.53492969" />
        <path
           style="fill:#000000;fill-opacity:0.96984923;fill-rule:evenodd;stroke-width:0.26458332"
           id="path1030"
           d="m 93.761487,81.080833 a 3.6482289,3.7417734 0 0 1 -3.64799,3.741774 3.6482289,3.7417734 0 0 1 -3.648467,-3.741284 3.6482289,3.7417734 0 0 1 3.647512,-3.742263 3.6482289,3.7417734 0 0 1 3.648945,3.740794 l -3.648229,9.79e-4 z" />
        <path
           d="m 114.31019,79.85215 a 3.6482289,3.7417734 0 0 1 -3.64799,3.741773 3.6482289,3.7417734 0 0 1 -3.64847,-3.741283 3.6482289,3.7417734 0 0 1 3.64751,-3.742263 3.6482289,3.7417734 0 0 1 3.64895,3.740793 l -3.64823,9.8e-4 z"
           id="path1034"
           style="fill:#000000;fill-opacity:0.96984923;fill-rule:evenodd;stroke-width:0.26458332" />
        <path
           style="fill:none;stroke:none;stroke-width:0.1;stroke-linecap:butt;stroke-linejoin:miter;stroke-miterlimit:4;stroke-dasharray:none;stroke-opacity:1"
           d="m 76.66302,75.703905 c 0.214979,-3.187878 1.323704,-5.628946 3.978782,-7.352453 1.381309,-0.896657 3.113421,-1.794553 5.645436,-1.907963 3.094196,0.05116 6.361592,0.229091 9.723438,4.861718 v 0"
           id="path1036" />
        <path
           style="fill:none;stroke:none;stroke-width:0.1;stroke-linecap:butt;stroke-linejoin:miter;stroke-miterlimit:4;stroke-dasharray:none;stroke-opacity:1"
           d="m 96.010676,71.305205 c 2.286883,-2.991864 5.256074,-4.456663 8.852524,-4.517589 7.06639,0.565632 9.90392,4.601347 10.21137,9.046583 v 0"
           id="path1038" />
      </g>
      <g
         id="layer4">
        <path
           style="fill:#fb7c85;fill-opacity:0.98994978;stroke:none;stroke-width:0.065;stroke-linecap:butt;stroke-linejoin:miter;stroke-miterlimit:4;stroke-dasharray:none;stroke-opacity:1"
           d="m 76.72974,74.925975 c 0.810933,-5.3617 4.359082,-8.042189 10.196332,-8.465762 v 0 c 3.889787,0.02787 6.870231,1.730837 9.084604,4.844992 2.402437,-3.250785 5.632514,-4.391319 8.852524,-4.517589 5.87073,0.313218 9.81617,3.658861 10.21137,9.046583 l 7.42173,0.214308 -0.10523,-4.513514 -0.81503,-7.902702 -50.932291,-1.190625 1.190625,12.038541 z"
           id="path1082" />
        <path
           style="fill:#fb7c85;fill-opacity:1;stroke:none;stroke-width:0.065;stroke-linecap:butt;stroke-linejoin:miter;stroke-miterlimit:4;stroke-dasharray:none;stroke-opacity:1"
           d="m 76.72974,74.925975 c 0.0771,5.491221 3.696492,9.138065 10.360035,9.564907 4.076198,-0.246378 6.736854,-1.996769 8.676235,-4.513514 2.392054,3.308168 5.53782,5.186877 9.86893,4.817533 5.29249,-0.667928 9.27746,-3.743419 9.43963,-8.960702 l 7.42173,0.214308 0.10569,12.835426 -49.000631,1.556372 -1.766985,-15.9601 z"
           id="path1084" />
      </g>
      <g
         id="layer5">
        <path
           style="fill:none;stroke:#000000;stroke-width:1.06500006;stroke-linecap:round;stroke-linejoin:miter;stroke-miterlimit:4;stroke-dasharray:none;stroke-opacity:1"
           d="m 81.083589,98.908205 c 15.82572,11.858045 29.369381,-0.12023 29.394571,-0.14201"
           id="path1087" />
      </g>
    </g>
  </g>
  <g
     transform="translate(-22.657277,30.930164)"
     id="layer7">
    <g
       transform="matrix(1.0375114,-0.13324442,0.09393407,0.93668089,125.98989,86.593153)"
       id="g1019">
      <g
         id="g957">
        <path
           style="fill:#dae7ef"
           d="m 39.216,40.149 c -0.212,-2.626 -0.967,-5.153 -1.917,-7.611 -1.163,-3.009 -0.925,-7.264 0.799,-9.495 0.878,-1.136 1.264,-2.591 1.257,-4.027 C 39.306,9.713 34.252,7.493 32.843,7.055 32.545,6.962 32.293,6.77 32.138,6.498 31.82,5.944 31.637,5.197 31.532,4.486 31.436,3.835 30.868,3.374 30.212,3.429 29.824,3.462 29.419,3.48 29,3.48 c -0.419,0 -0.824,-0.018 -1.212,-0.051 -0.656,-0.055 -1.224,0.406 -1.32,1.057 -0.105,0.711 -0.288,1.458 -0.606,2.012 -0.155,0.271 -0.407,0.464 -0.705,0.557 -1.409,0.438 -6.464,2.659 -6.512,11.961 -0.007,1.436 0.378,2.891 1.257,4.027 1.725,2.231 1.962,6.486 0.799,9.495 -0.95,2.457 -1.704,4.985 -1.917,7.611 -0.35,4.324 -0.674,10.335 -0.226,14.37 0,1.922 2.814,3.48 9.862,3.48 7.048,0 11.022,-1.558 11.022,-3.48 0.448,-4.034 0.124,-10.045 -0.226,-14.37 z"
           id="path943" />
        <path
           style="fill:#3dabef"
           d="m 18.664,18.548 c -0.004,0.159 -0.018,0.305 -0.019,0.468 -0.008,1.436 0.379,2.891 1.257,4.027 1.725,2.231 1.962,6.486 0.799,9.495 -0.95,2.457 -1.704,4.985 -1.917,7.611 -0.012,0.147 -0.023,0.31 -0.035,0.461 2.624,0.709 6.242,1.15 10.251,1.15 4.009,0 7.627,-0.441 10.251,-1.149 -0.012,-0.151 -0.023,-0.314 -0.035,-0.461 -0.212,-2.626 -0.967,-5.154 -1.917,-7.611 -1.163,-3.009 -0.926,-7.264 0.799,-9.495 0.878,-1.136 1.264,-2.591 1.257,-4.027 -10e-4,-0.164 -0.015,-0.309 -0.019,-0.468 -2.63,0.72 -6.284,1.171 -10.336,1.171 -4.052,0 -7.707,-0.451 -10.336,-1.172 z"
           id="path945" />
        <path
           style="fill:#ffffff"
           d="m 26.742,54.36 c -2.038,0 -3.504,-0.469 -4.363,-1.396 C 21.634,52.16 21.607,51.285 21.62,51 v -1.12 c 0,-0.553 0.447,-1 1,-1 0.553,0 1,0.447 1,1 l -0.007,1.264 v 0 c 0.003,0 0.011,0.244 0.269,0.499 0.306,0.301 1.152,0.801 3.34,0.708 0.563,-0.035 1.018,0.408 1.038,0.96 0.021,0.552 -0.408,1.017 -0.96,1.038 -0.191,0.007 -0.377,0.011 -0.558,0.011 z"
           id="path947" />
        <path
           style="fill:#ffffff"
           d="m 22.619,47.399 c -0.553,0 -1,-0.447 -1,-1 v -1.17 c 0,-0.553 0.447,-1 1,-1 0.553,0 1,0.447 1,1 v 1.17 c 0,0.553 -0.447,1 -1,1 z"
           id="path949" />
        <path
           style="fill:#ffffff"
           d="m 23.781,16.08 c -0.059,0 -0.117,-0.005 -0.178,-0.016 -0.543,-0.098 -0.905,-0.617 -0.808,-1.161 0.662,-3.697 3.893,-5.298 4.029,-5.364 0.502,-0.238 1.096,-0.03 1.336,0.465 0.239,0.496 0.033,1.093 -0.462,1.334 -0.049,0.024 -2.458,1.259 -2.935,3.919 -0.086,0.483 -0.507,0.823 -0.982,0.823 z"
           id="path951" />
        <path
           style="fill:#003879"
           d="m 29,0 c -1.794,0 -3.248,0.485 -3.248,1.083 v 3.248 c 0,0.598 1.454,1.083 3.248,1.083 1.794,0 3.248,-0.485 3.248,-1.083 V 1.083 C 32.248,0.485 30.794,0 29,0 Z"
           id="path953" />
        <path
           style="fill:#1a69b7"
           d="m 28.848,2.83 h -0.813 c -0.276,0 -0.5,-0.224 -0.5,-0.5 0,-0.276 0.224,-0.5 0.5,-0.5 h 0.813 c 0.276,0 0.5,0.224 0.5,0.5 0,0.276 -0.224,0.5 -0.5,0.5 z"
           id="path955" />
      </g>
      <g
         id="g959" />
      <g
         id="g961" />
      <g
         id="g963" />
      <g
         id="g965" />
      <g
         id="g967" />
      <g
         id="g969" />
      <g
         id="g971" />
      <g
         id="g973" />
      <g
         id="g975" />
      <g
         id="g977" />
      <g
         id="g979" />
      <g
         id="g981" />
      <g
         id="g983" />
      <g
         id="g985" />
      <g
         id="g987" />
    </g>
    <path
       style="fill:none;stroke:#000000;stroke-width:3.06500006;stroke-linecap:round;stroke-linejoin:round;stroke-miterlimit:4;stroke-dasharray:none;stroke-opacity:1"
       d="m 149.40857,112.10418 c -1.8342,4.07436 17.98133,0.80471 18.30521,-0.952"
       id="path882-0" />
    <g
       transform="matrix(0.11358706,0,0,0.11580444,193.21801,116.91155)"
       id="g1329">
      <path
         style="fill:#a06414"
         d="m 228.40234,435.01953 -9.92578,-52.94922 C 214.09766,358.71875 213.74219,335.22266 217.36719,312 l -0.91797,-150 c -2.18359,-6.72266 -4.66016,-13.35547 -7.45313,-19.86719 L 178.55078,71.089844 C 176.1875,65.574219 170.76172,62 164.76172,62 H 64.761719 c -6,0 -11.421875,3.574219 -13.785157,9.089844 L 20.53125,142.13281 C 17.738281,148.64453 15.261719,155.27734 13.078125,162 L 12.15625,312 c 3.625,23.22656 3.273438,46.71875 -1.105469,70.07422 l -9.929687,52.94922 c -3.574219,19.0664 1.480468,38.5625 13.871094,53.48828 C 27.378906,503.4375 45.613281,512 65.007812,512 h 99.507818 c 19.39843,0 37.63281,-8.5625 50.01953,-23.48828 12.38672,-14.92578 17.44531,-34.42188 13.86718,-53.49219 z m 0,0"
         id="path1273" />
      <path
         style="fill:#825014"
         d="m 214.53516,488.51172 c 12.39062,-14.92578 17.44531,-34.42188 13.86718,-53.49219 l -9.92578,-52.94922 C 214.09766,358.71875 213.74219,335.22266 217.36719,312 l -0.91797,-150 c -2.18359,-6.72266 -4.66016,-13.35547 -7.45313,-19.86719 L 178.55078,71.089844 C 176.1875,65.574219 170.76172,62 164.76172,62 h -50 v 450 h 49.75391 c 19.39843,0 37.63281,-8.5625 50.01953,-23.48828 z m 0,0"
         id="path1291" />
      <path
         style="fill:#aa783e"
         d="M 159.75391,80 H 69.761719 c -22.089844,0 -40,-17.910156 -40,-40 0,-22.089844 17.910156,-40 40,-40 h 89.992191 c 22.09375,0 40,17.910156 40,40 0,22.089844 -17.90625,40 -40,40 z m 0,0"
         id="path1293" />
      <path
         style="fill:#a06414"
         d="m 159.75391,0 h -44.9961 v 80 h 44.9961 c 22.09375,0 40,-17.910156 40,-40 0,-22.089844 -17.90625,-40 -40,-40 z m 0,0"
         id="path1295" />
      <path
         style="fill:#5f380e"
         d="m 147.75,447 c -7.90625,0 -14.52734,-6.1875 -14.96484,-14.17969 l -4,-73 c -0.45313,-8.27343 5.88672,-15.34375 14.16015,-15.79687 8.30469,-0.45313 15.34375,5.88281 15.79688,14.15625 l 4,73 c 0.45312,8.26953 -5.88672,15.34375 -14.15625,15.79687 -0.28125,0.0156 -0.5586,0.0234 -0.83594,0.0234 z m 0,0"
         id="path1297" />
      <path
         style="fill:#825014"
         d="M 81.777344,447 C 81.5,447 81.222656,446.992 80.945312,446.9766 72.671875,446.52348 66.332031,439.44926 66.785156,431.17973 l 4,-73 c 0.453125,-8.27344 7.542969,-14.60938 15.800782,-14.15625 8.269531,0.45312 14.609372,7.52344 14.156252,15.79687 l -4.000002,73 C 96.304688,440.8125 89.683594,447 81.777344,447 Z m 0,0"
         id="path1299" />
      <path
         style="fill:#fb5036"
         d="m 8.40625,293.42188 c 1.542969,6.16796 2.78125,12.36328 3.75,18.57812 h 205.21094 c 0.97265,-6.21484 2.21094,-12.41016 3.75,-18.57812 C 231.92578,250.19922 230.19141,204.27344 216.44922,162 H 13.078125 C -0.664062,204.27344 -2.398438,250.19531 8.40625,293.42188 Z m 0,0"
         id="path1301" />
      <path
         style="fill:#d92300"
         d="m 216.44922,162 h -101.6875 v 150 h 102.60547 c 0.97265,-6.21484 2.21094,-12.41016 3.75,-18.57812 C 231.92578,250.19922 230.19141,204.27344 216.44922,162 Z m 0,0"
         id="path1303" />
    </g>
    <g
       transform="matrix(0.10225049,0,0,0.11059046,221.37114,119.02487)"
       id="g1477">
      <path
         style="fill:#912c2c"
         d="M 233.45313,72.160156 H 21.886719 c -3.246094,0 -6.171875,1.953125 -7.394531,4.957032 -5.722657,14.058593 -16.941407,60.273442 16.789062,166.828122 31.351562,99.04688 20.140625,195.4375 12.449219,237.91797 -2.136719,11.78516 6.933593,22.6211 18.910156,22.6211 H 192.69922 c 11.97656,0 21.04687,-10.83594 18.91016,-22.6211 -7.69141,-42.48047 -18.90235,-138.87109 12.44921,-237.91797 33.73047,-106.55859 22.51172,-152.769529 16.78907,-166.828122 -1.22266,-3.003907 -4.14844,-4.957032 -7.39453,-4.957032 z m 0,0"
         id="path1415" />
      <path
         style="fill:#7c1e1e"
         d="m 240.84766,77.117188 c -1.22266,-3.003907 -4.14844,-4.957032 -7.39453,-4.957032 h -52.98829 c 0,0 27.67579,39.128904 -14.3125,171.785154 -33.87109,106.9961 -18.07031,210.89063 -10.6914,247.07813 1.41797,6.95703 -3.89844,13.46094 -11,13.46094 h 48.23828 c 11.97656,0 21.04687,-10.83204 18.91016,-22.6211 -7.69141,-42.48047 -18.90235,-138.86719 12.44921,-237.91797 33.73047,-106.55468 22.51172,-152.769529 16.78907,-166.828122 z m 0,0"
         id="path1417" />
      <path
         style="fill:#dfede7"
         d="m 207.67969,456.32813 c -3.4961,4.34375 -8.85547,7.18359 -14.98047,7.18359 H 62.640625 c -6.125,0 -11.484375,-2.83984 -14.980469,-7.18359 -1.269531,9.85937 -2.648437,18.46093 -3.933594,25.55078 -2.132812,11.78125 6.941407,22.60547 18.914063,22.60547 H 192.69922 c 11.97266,0 21.04687,-10.82422 18.91406,-22.60547 -1.28515,-7.08985 -2.66797,-15.69141 -3.93359,-25.55078 z m 0,0"
         id="path1419" />
      <path
         style="fill:#d7e0dc"
         d="m 194.90625,504.35938 c 0.0195,0 0.0391,-0.004 0.0586,-0.008 10.82813,-1.26172 18.64063,-11.45703 16.64454,-22.48828 -0.14454,-0.80859 -0.29297,-1.64453 -0.44141,-2.49219 -0.0352,-0.1914 -0.0703,-0.38671 -0.10156,-0.58203 -0.125,-0.70703 -0.25,-1.42968 -0.3711,-2.16406 -0.0312,-0.17969 -0.0625,-0.35937 -0.0938,-0.53906 -0.3125,-1.86719 -0.6289,-3.82031 -0.94531,-5.84766 -0.0156,-0.082 -0.0273,-0.16406 -0.0391,-0.24609 -0.15235,-0.99219 -0.3086,-2 -0.46094,-3.02344 -0.008,-0.0508 -0.0156,-0.0977 -0.0195,-0.14453 -0.32813,-2.19922 -0.65234,-4.48047 -0.97266,-6.83984 -0.004,-0.0156 -0.004,-0.0274 -0.008,-0.043 -0.16016,-1.17578 -0.31641,-2.36719 -0.47266,-3.58203 0,-0.008 0,-0.0195 -0.004,-0.0312 -3.4961,4.34375 -8.85547,7.18359 -14.98047,7.18359 h -41.95703 c 1.61328,11.31641 3.3164,20.63672 4.71875,27.50781 1.41797,6.96094 -3.89844,13.46485 -11,13.46485 h 48.23828 c 0.56641,0 1.12109,-0.0312 1.67578,-0.0781 0.17578,-0.0156 0.35547,-0.0273 0.53125,-0.0469 z m 0,0"
         id="path1421" />
      <path
         style="fill:#dfede7"
         d="m 21.886719,72.160156 c -3.246094,0 -6.171875,1.953125 -7.394531,4.957032 C 12.121094,82.941406 8.8125,94.28125 8.140625,113.13281 H 247.19922 c -0.67578,-18.85156 -3.98438,-30.191404 -6.35156,-36.015622 -1.22266,-3.003907 -4.14844,-4.957032 -7.39453,-4.957032 z m 0,0"
         id="path1423" />
      <path
         style="fill:#d7e0dc"
         d="m 180.46484,72.160156 c 0.004,0 7.75782,10.972656 8.82422,40.972654 h 57.91016 v -0.004 c -0.37891,-10.59375 -1.58984,-18.812504 -3,-25.015629 0,-0.01172 -0.004,-0.02344 -0.008,-0.03906 -0.30469,-1.355469 -0.625,-2.609375 -0.94532,-3.777344 -0.004,-0.02344 -0.0117,-0.04688 -0.0195,-0.07031 -0.15234,-0.558593 -0.30859,-1.097656 -0.46484,-1.617187 -0.0156,-0.04688 -0.0273,-0.09375 -0.043,-0.140625 -0.30859,-1.015625 -0.61328,-1.949219 -0.91016,-2.800781 -0.0195,-0.05859 -0.0391,-0.113281 -0.0586,-0.171875 -0.14453,-0.398438 -0.28516,-0.785156 -0.42187,-1.152344 -0.0234,-0.05859 -0.0469,-0.113281 -0.0664,-0.171875 -0.14063,-0.367187 -0.28125,-0.722656 -0.41406,-1.054687 -0.61328,-1.503907 -1.64844,-2.742188 -2.94141,-3.605469 -0.32031,-0.214844 -0.66016,-0.410157 -1.01172,-0.574219 -1.05469,-0.503906 -2.22656,-0.777344 -3.4414,-0.777344 z m 0,0"
         id="path1425" />
      <path
         style="fill:#9e4949"
         d="M 122.52734,210.99219 87.539062,182.01172 c -1.371093,-1.13672 -1.558593,-3.17188 -0.425781,-4.54297 l 28.984379,-34.98437 c 1.13671,-1.375 3.16796,-1.5625 4.53906,-0.42579 l 34.98828,28.98047 c 1.37109,1.13672 1.5625,3.16797 0.42578,4.53907 l -28.98437,34.98828 c -1.13282,1.37109 -3.16797,1.5625 -4.53907,0.42578 z m 0,0"
         id="path1427" />
      <path
         style="fill:#9e4949"
         d="m 126.82422,268.35547 29.55859,-39.5 c 1.15625,-1.54688 3.35157,-1.86328 4.89844,-0.70313 l 39.50391,29.55469 c 1.54687,1.16016 1.86328,3.35547 0.70312,4.90235 l -29.55859,39.5 c -1.15625,1.55078 -3.35156,1.86718 -4.89844,0.70703 l -39.50391,-29.5586 c -1.54687,-1.15625 -1.86328,-3.35156 -0.70312,-4.90234 z m 0,0"
         id="path1429" />
      <path
         style="fill:#912c2c"
         d="m 200.78516,257.70703 -31.59375,-23.63672 c -0.97266,3.23828 -1.98047,6.51563 -3.04297,9.875 -5.21485,16.48047 -9.25,32.89063 -12.32422,48.98828 l 13.20703,9.88282 c 1.54688,1.15625 3.74219,0.83984 4.90234,-0.70703 l 29.55469,-39.5 c 1.16016,-1.54688 0.84375,-3.74219 -0.70312,-4.90235 z m 0,0"
         id="path1431" />
      <path
         style="fill:#9e4949"
         d="m 181.35938,134.98438 30.39453,-1.20313 c 1.1914,-0.0469 2.19531,0.88281 2.24218,2.07422 l 1.20313,30.39453 c 0.0469,1.19141 -0.88281,2.19531 -2.07422,2.24219 l -30.39453,1.19922 c -1.19141,0.0469 -2.19531,-0.87891 -2.24219,-2.07032 l -1.19922,-30.39453 c -0.0469,-1.1914 0.87891,-2.19531 2.07032,-2.24218 z m 0,0"
         id="path1433" />
      <path
         style="fill:#912c2c"
         d="m 211.75391,133.78125 -22.8086,0.90234 c -0.63281,10.14454 -1.9414,21.73829 -4.19922,34.92969 l 28.37891,-1.12109 c 1.19141,-0.0469 2.12109,-1.05078 2.07422,-2.24219 l -1.20313,-30.39453 c -0.0469,-1.19141 -1.05078,-2.12109 -2.24218,-2.07422 z m 0,0"
         id="path1435" />
      <path
         style="fill:#9e4949"
         d="m 48.097656,113.49219 32.546875,18.78906 c 1.273438,0.73828 1.710938,2.36719 0.976563,3.64453 l -18.792969,32.54297 c -0.734375,1.27734 -2.367187,1.71484 -3.640625,0.97656 L 26.640625,150.65625 c -1.273437,-0.73828 -1.714844,-2.36719 -0.976563,-3.64453 l 18.792969,-32.54297 c 0.734375,-1.27734 2.363281,-1.71484 3.640625,-0.97656 z m 0,0"
         id="path1437" />
      <path
         style="fill:#9e4949"
         d="m 66.253906,229.17969 31.9375,-3.24219 c 1.253906,-0.12891 2.371094,0.78125 2.500004,2.03516 l 3.24218,31.9414 c 0.125,1.25 -0.78515,2.36719 -2.03906,2.4961 l -31.937499,3.24218 c -1.253906,0.12891 -2.371093,-0.78125 -2.5,-2.03515 l -3.242187,-31.94141 c -0.125,-1.25 0.785156,-2.36719 2.039062,-2.49609 z m 0,0"
         id="path1439" />
      <path
         d="m 280.28906,6.285156 c -0.67968,-4.09375 -4.54297,-6.863281 -8.64843,-6.183594 l -63.42188,10.546876 c -4.8125,0.800781 -8.73047,4.183593 -10.22656,8.824218 L 183.42188,64.644531 H 21.886719 c -6.339844,0 -11.972657,3.785157 -14.355469,9.640625 -3.558594,8.746094 -7.65625,24.828125 -6.953125,51.753904 0.867187,33.14063 8.785156,73.57032 23.535156,120.17188 28.75,90.82031 20.765625,180.48437 14.011719,223.66015 -0.199219,1.27344 -0.402344,2.53907 -0.609375,3.79688 -0.0625,0.38281 -0.125,0.76953 -0.1875,1.14062 -0.324219,1.92969 -0.65625,3.84375 -0.996094,5.73047 -1.414062,7.80078 0.691407,15.76953 5.777344,21.85938 2.839844,3.39843 6.425781,5.99218 10.417969,7.61718 C 55.695312,511.30859 59.121094,512 62.640625,512 H 192.69922 c 3.34375,0 6.60156,-0.62891 9.63281,-1.79688 4.1836,-1.61328 7.94531,-4.26953 10.89844,-7.80859 5.08203,-6.08594 7.19141,-14.05469 5.77734,-21.85547 -0.3125,-1.71875 -0.61328,-3.46484 -0.91015,-5.21875 -0.0508,-0.30469 -0.10547,-0.60547 -0.15625,-0.91015 -1.03516,-6.19141 -1.97657,-12.57032 -2.8086,-19.03907 0,-0.004 0,-0.004 0,-0.008 -1.17968,-9.19531 -2.14062,-18.5625 -2.85937,-28.04297 -0.3125,-4.14062 -3.9336,-7.23437 -8.0625,-6.92578 -4.14063,0.3125 -7.24219,3.92578 -6.92578,8.0625 0.64453,8.48438 1.48047,16.875 2.48437,25.14844 -2.01172,1.53125 -4.47656,2.38672 -7.07031,2.38672 H 62.640625 c -2.582031,0 -5.03125,-0.84766 -7.039063,-2.36328 C 62,401.62109 64.148438,322.87891 38.445312,241.67578 20.628906,185.39453 15.660156,146.46484 15.589844,120.64844 H 32.207031 L 19.15625,143.25391 c -2.804688,4.86328 -1.136719,11.10156 3.726562,13.91015 l 32.546876,18.79297 c 1.597656,0.92188 3.347656,1.35938 5.074218,1.35938 3.519532,0 6.949219,-1.82422 8.835938,-5.08985 l 18.789062,-32.54297 c 2.808594,-4.86328 1.136719,-11.10547 -3.726562,-13.91406 l -8.875,-5.12109 H 123.8125 c 4.15234,0 7.51563,-3.36328 7.51563,-7.51563 0,-4.15234 -3.36329,-7.51562 -7.51563,-7.51562 H 16.164062 c 1.132813,-13.597659 3.6875,-21.730471 5.289063,-25.667971 0.06641,-0.167969 0.238281,-0.273438 0.433594,-0.273438 H 178.57031 l -8.36718,25.941409 h -11.42188 c -4.14844,0 -7.51562,3.36328 -7.51562,7.51562 0,4.15235 3.36718,7.51563 7.51562,7.51563 h 16.87109 c 0.008,0 0.0156,0.004 0.0234,0.004 0.008,0 0.0156,-0.004 0.0273,-0.004 h 64.10546 c -0.008,1.61718 -0.0273,3.28125 -0.0742,5 -0.82813,31.73047 -8.51172,70.76953 -22.83985,116.02734 -14.67187,46.34766 -21.79687,97.0586 -21.1875,150.73438 0.0508,4.11718 3.40625,7.42578 7.51563,7.42578 h 0.0859 c 4.15235,-0.0469 7.47657,-3.44922 7.42969,-7.59766 -0.59375,-52.07422 6.29688,-101.20312 20.48438,-146.02734 19.78906,-62.50782 24.36718,-104.99219 23.47265,-132.73828 0.004,-0.11329 0.0195,-0.22657 0.0195,-0.33985 0,-0.32031 -0.0273,-0.63281 -0.0664,-0.9414 -0.75781,-19.421879 -4.20313,-31.425785 -6.83985,-37.906254 -2.38281,-5.859375 -8.01953,-9.640625 -14.35546,-9.640625 H 199.2147 l 12.69922,-39.371093 62.19532,-10.34375 c 4.09375,-0.679688 6.85937,-4.550782 6.17968,-8.644532 z M 51.125,483.20313 c 0.765625,-4.23829 1.542969,-8.85547 2.300781,-13.80469 2.910157,1.0664 6.019531,1.625 9.214844,1.625 H 192.69922 c 3.19531,0 6.30859,-0.5625 9.22266,-1.62891 0.70703,4.66016 1.47265,9.26563 2.29296,13.8086 0.61719,3.41406 -0.30468,6.89843 -2.52734,9.5625 -1.11719,1.33593 -2.49219,2.38671 -4.02734,3.10546 -1.53125,0.71485 -3.22266,1.09766 -4.96094,1.09766 H 62.640625 c -1.304687,0 -2.582031,-0.21484 -3.789063,-0.625 -2.003906,-0.68359 -3.804687,-1.91016 -5.199218,-3.57812 -2.226563,-2.66407 -3.148438,-6.14844 -2.527344,-9.5625 z M 48.539062,122.42187 72.6875,136.36328 58.746094,160.51563 34.597656,146.57422 Z M 233.45313,79.675781 c 0.19531,0 0.36718,0.105469 0.43359,0.273438 1.73047,4.25 4.22656,12.394531 5.34375,25.667971 h -53.23438 l 8.36719,-25.941409 z m 0,0"
         id="path1441" />
      <path
         d="m 117.73437,216.78125 c 2,1.65625 4.42579,2.46094 6.83985,2.46094 3.08984,0 6.16016,-1.32031 8.28125,-3.88281 L 161.83594,180.375 c 1.83203,-2.21094 2.69531,-5 2.42578,-7.85547 -0.26953,-2.85937 -1.63281,-5.4375 -3.84375,-7.26953 l -34.98828,-28.98047 c -4.5586,-3.78125 -11.34375,-3.14062 -15.1211,1.41797 l -28.980465,34.98828 c -1.832031,2.20703 -2.691406,4.9961 -2.421875,7.85547 0.265625,2.85547 1.632812,5.4375 3.839844,7.26563 z m 1.41407,-66.19922 28.375,23.50781 -23.50391,28.37891 -28.378905,-23.50781 z m 0,0"
         id="path1443" />
      <path
         d="m 123.02734,279.27734 39.5,29.55469 c 1.92579,1.44141 4.21485,2.19922 6.57813,2.19922 0.52734,0 1.05859,-0.0391 1.59375,-0.11719 2.91016,-0.41797 5.48828,-1.94531 7.25,-4.30078 l 29.55859,-39.5039 c 1.76172,-2.35547 2.5,-5.25782 2.08203,-8.16797 -0.42187,-2.91407 -1.94921,-5.49219 -4.30468,-7.25 l -39.50391,-29.5586 C 160.91797,218.49609 154,219.49219 150.36328,224.35547 l -29.55859,39.5 c -3.63672,4.86328 -2.64063,11.78125 2.22265,15.42187 z m 36.96875,-42.70312 33.07422,24.74609 -24.75,33.07422 -33.07422,-24.74609 z m 0,0"
         id="path1445" />
      <path
         d="m 182.64063,177.21094 c 0.1289,0 0.25781,-0.004 0.38671,-0.008 L 213.42188,176 c 5.33203,-0.21094 9.49609,-4.71484 9.28515,-10.04687 l -1.19922,-30.40235 c -0.21484,-5.32422 -4.74609,-9.48047 -10.04687,-9.27734 l -30.39453,1.19922 c -5.33203,0.21093 -9.4961,4.71875 -9.28907,10.04687 l 1.20313,30.39453 c 0.20312,5.20313 4.5,9.29688 9.66016,9.29688 z m 24.05859,-35.70703 0.77734,19.6875 -19.6914,0.78125 -0.77735,-19.69141 z m 0,0"
         id="path1447" />
      <path
         d="m 97.433594,218.45703 -31.941406,3.2461 c -2.601563,0.26562 -4.945313,1.52343 -6.601563,3.55468 -1.652344,2.02735 -2.417969,4.57422 -2.152344,7.17969 l 3.242188,31.9375 c 0.265625,2.60547 1.527343,4.94922 3.554687,6.60156 1.765625,1.44141 3.925782,2.20703 6.171875,2.20703 0.335938,0 0.671875,-0.0195 1.007813,-0.0508 l 31.941406,-3.24609 c 2.60547,-0.26563 4.94922,-1.52734 6.60156,-3.55469 1.65235,-2.02734 2.41797,-4.57812 2.15235,-7.17969 l -3.24219,-31.9414 c -0.54688,-5.3711 -5.36328,-9.28125 -10.734376,-8.75391 z m -23.027344,39.19141 -2.1875,-21.51953 21.523438,-2.1875 2.1875,21.52343 z m 0,0"
         id="path1449" />
    </g>
    <g
       transform="matrix(0.15325838,0,0,0.16943611,253.26768,90.239643)"
       id="g1672">
      <path
         style="fill:#deecf1"
         d="M 396.30078,242 315,272 l -81.30078,-30 8.10156,-60 h 146.39844 z m 0,0"
         id="path1616" />
      <path
         style="fill:#c6e2e7"
         d="M 396.30078,242 315,272 v -90 h 73.19922 z m 0,0"
         id="path1618" />
      <path
         style="fill:#c6e2e7"
         d="m 300,377 h 30 v 120 h -30 z m 0,0"
         id="path1620" />
      <path
         style="fill:#a8d3d8"
         d="m 315,377 h 15 v 120 h -15 z m 0,0"
         id="path1622" />
      <path
         style="fill:#deecf1"
         d="m 240,482 h 150 v 30 H 240 Z m 0,0"
         id="path1624" />
      <path
         style="fill:#c6e2e7"
         d="m 315,482 h 75 v 30 h -75 z m 0,0"
         id="path1626" />
      <path
         style="fill:#cf5668"
         d="m 315,392 c -56.10156,0 -98.10156,-51.30078 -87,-106.19922 L 233.69922,242 h 162.60156 l 6,44.69922 C 412.80078,339.80078 371.69922,392 315,392 Z m 0,0"
         id="path1628" />
      <path
         style="fill:#c83c50"
         d="M 315,392 V 242 h 81.30078 l 6,44.69922 C 412.80078,339.80078 371.69922,392 315,392 Z m 0,0"
         id="path1630" />
      <path
         style="fill:#5a5a5a"
         d="m 60,0 v 152 h 90 V 0 Z m 0,0"
         id="path1632" />
      <path
         style="fill:#444444"
         d="m 105,0 h 45 v 152 h -45 z m 0,0"
         id="path1634" />
      <path
         style="fill:#b03244"
         d="M 210,234.19922 V 512 H 0 V 452 L 30,422 V 272 L 0,242 v -7.80078 C 0,173.89844 41.699219,144.80078 60,122 h 90 c 18.30078,22.80078 60,51.89844 60,112.19922 z m 0,0"
         id="path1636" />
      <path
         style="fill:#962a3a"
         d="M 210,234.19922 V 512 H 105 V 122 h 45 c 18.30078,22.80078 60,51.89844 60,112.19922 z m 0,0"
         id="path1638" />
      <path
         style="fill:#c6e2e7"
         d="m 150,362 v 90 H 0 v -90 l 75,-30 z m 0,0"
         id="path1640" />
      <path
         style="fill:#a8d3d8"
         d="m 150,362 v 90 H 105 V 344 Z m 0,0"
         id="path1642" />
      <path
         style="fill:#deecf1"
         d="M 0,242 H 150 V 362 H 0 Z m 0,0"
         id="path1644" />
      <path
         style="fill:#c6e2e7"
         d="m 105,242 h 45 v 120 h -45 z m 0,0"
         id="path1646" />
    </g>
  </g>
  <g
     id="layer8"
     transform="translate(-19.981581,51.189006)">
    <g
       transform="matrix(0.06694241,0,0,0.06571884,141.84222,92.493011)"
       id="g2692">
      <path
         style="fill:#68ccea"
         d="m 2578.8187,-195.30393 c -0.043,-0.10343 -0.091,-0.20161 -0.1457,-0.29857 l -121.8733,-215.40603 c -0.5061,-0.89305 -1.4669,-1.43027 -2.4952,-1.39049 -1.0283,0.0398 -1.9482,0.64978 -2.3894,1.57948 l -106.2238,224.23132 c -0.048,0.10098 -0.09,0.20358 -0.1241,0.309 -10.8741,32.64792 -8.4004,67.53527 6.9682,98.235167 15.3678,30.70194 41.7904,53.54104 74.4,64.31362 13.3561,4.41263 27.2672,6.59226 41.3508,6.47565 0.028,-1.1e-4 0.056,-0.001 0.084,-0.002 0.028,-0.001 0.056,-0.002 0.084,-0.004 14.052,-0.97399 27.7709,-4.22165 40.7747,-9.65317 31.753,-13.26283 56.4802,-38.08196 69.6239,-69.88604 13.1428,-31.802967 13.1314,-66.785587 -0.034,-98.503377 z"
         id="path2619" />
      <g
         transform="matrix(0.99931208,-0.03866434,0.03557192,0.99931208,2284.6933,-405.8366)"
         id="g2625">
        <path
           style="fill:#5abce2"
           d="m 178.528,373.344 c -27.357,-26.958 -42.578,-62.959 -42.861,-101.371 -0.001,-0.123 0.006,-0.248 0.021,-0.371 L 166.361,3.266 53.157,221.456 c -0.052,0.099 -0.097,0.2 -0.135,0.304 -12.028,32.205 -10.797,67.164 3.469,98.437 14.265,31.275 39.857,55.12 72.061,67.146 13.19,4.926 27.014,7.642 41.092,8.07 0.028,10e-4 0.056,10e-4 0.084,10e-4 0.028,0 0.056,0 0.084,-10e-4 10.263,-0.313 20.389,-1.856 30.235,-4.57 -7.635,-5.078 -14.841,-10.921 -21.519,-17.499 z"
           id="path2621" />
        <path
           style="fill:#5abce2"
           d="m 463.084,280.78 c -0.039,-0.104 -0.084,-0.205 -0.135,-0.304 L 406.676,172.015 c -0.474,-0.912 -1.415,-1.486 -2.444,-1.486 -1.029,0 -1.97,0.573 -2.444,1.486 l -56.273,108.461 c -0.052,0.099 -0.097,0.2 -0.135,0.304 -6.061,16.228 -5.44,33.844 1.749,49.602 7.187,15.759 20.083,27.775 36.313,33.836 6.646,2.481 13.613,3.849 20.706,4.066 0.028,0.001 0.056,0.001 0.084,0.001 0.028,0 0.056,0 0.084,-0.001 7.091,-0.217 14.058,-1.585 20.705,-4.066 33.495,-12.509 50.571,-49.94 38.063,-83.438 z"
           id="path2623" />
      </g>
      <path
         style="fill:#68ccea"
         d="m 2757.4466,-143.15459 c -0.043,-0.10242 -0.091,-0.2016 -0.1457,-0.29857 l -60.0925,-106.21063 c -0.5061,-0.89305 -1.4669,-1.43027 -2.4951,-1.39049 -0.01,2.8e-4 -0.011,0.003 -0.017,0.003 l -17.5544,129.58887 c -0.017,0.12171 -0.025,0.24415 -0.026,0.36626 -0.2591,19.09115 6.929,37.113627 20.2412,50.751287 5.7038,5.84349 12.2445,10.57185 19.3548,14.09736 1.9141,-0.59841 3.8053,-1.276 5.6659,-2.05348 33.0269,-13.79645 48.7597,-51.861937 35.0687,-84.853277 z"
         id="path2627" />
      <path
         style="fill:#5abce2"
         d="m 2651.4456,32.429657 -40.0401,-70.77156 c -0.5061,-0.89305 -1.4669,-1.43027 -2.4951,-1.39048 -1.0283,0.0398 -1.9483,0.64977 -2.3895,1.57947 l -34.9034,73.6712 c -0.048,0.10098 -0.09,0.20565 -0.124,0.31001 -7.6943,23.10938 4.8228,48.11462 27.906,55.74237 4.5799,1.50996 9.3508,2.25802 14.1787,2.22032 0.029,-1.5e-4 0.057,-0.001 0.085,-0.002 0.028,-0.001 0.056,-0.002 0.085,-0.004 4.8134,-0.33534 9.5171,-1.44796 13.9809,-3.31084 22.4765,-9.3885 33.1814,-35.29321 23.8633,-57.74538 -0.043,-0.10341 -0.092,-0.20255 -0.1467,-0.29854 z"
         id="path2629" />
      <path
         style="fill:#68ccea"
         d="m 2651.5913,32.728227 c -0.043,-0.10341 -0.091,-0.20258 -0.1457,-0.29857 l -40.0401,-70.77156 c -0.5061,-0.89305 -1.4669,-1.43027 -2.4951,-1.39048 -0.2928,0.0113 -0.5716,0.0791 -0.8383,0.17753 l -12.1618,91.0989 c -0.018,0.12276 -0.025,0.25015 -0.028,0.37532 -0.196,17.15338 8.3376,32.38191 21.4608,41.46676 3.5592,-0.54099 7.0409,-1.51627 10.3856,-2.91156 22.4764,-9.39049 33.1813,-35.2952 23.8622,-57.74634 z"
         id="path2631" />
      <g
         id="g2633" />
      <g
         id="g2635" />
      <g
         id="g2637" />
      <g
         id="g2639" />
      <g
         id="g2641" />
      <g
         id="g2643" />
      <g
         id="g2645" />
      <g
         id="g2647" />
      <g
         id="g2649" />
      <g
         id="g2651" />
      <g
         id="g2653" />
      <g
         id="g2655" />
      <g
         id="g2657" />
      <g
         id="g2659" />
      <g
         id="g2661" />
    </g>
    <g
       transform="matrix(0.02843461,-0.0432395,0.03743806,0.0200016,167.59999,110.70918)"
       id="g2822">
      <g
         id="g2759">
        <g
           id="Guides_For_Artboard_35_" />
        <g
           id="Artwork_34_" />
        <g
           id="Layer_2_34_">
          <g
             id="g2756">
            <path
               style="fill:#62a5a2"
               d="M 160.713,6.974 C 153.782,0.953 137.324,-8.725 134.63,16.341 124.957,81.17 55.306,126.477 55.306,190.395 c 0,53.879 43.678,97.557 97.558,97.557 53.879,0 97.557,-43.678 97.557,-97.557 C 250.42,141.51 230.799,67.858 160.713,6.974 Z m -46.006,235.164 c -1.511,2.022 -3.824,3.092 -6.164,3.092 -1.584,0 -3.181,-0.489 -4.554,-1.505 -0.858,-0.636 -21.076,-15.899 -25.434,-44.748 -4.357,-28.843 15.175,-55.873 16.009,-57.01 2.51,-3.423 7.322,-4.166 10.748,-1.652 3.42,2.51 4.162,7.314 1.659,10.739 -0.253,0.349 -16.599,23.194 -13.209,45.627 3.378,22.368 19.246,34.584 19.406,34.705 3.378,2.552 4.074,7.363 1.539,10.752 z"
               id="path2748" />
            <path
               style="fill:#f7f1e6"
               d="m 113.169,231.386 c -0.16,-0.121 -16.028,-12.337 -19.406,-34.705 -3.39,-22.433 12.956,-45.278 13.209,-45.627 2.503,-3.425 1.761,-8.229 -1.659,-10.739 -3.426,-2.513 -8.238,-1.771 -10.748,1.652 -0.834,1.137 -20.366,28.167 -16.009,57.01 4.357,28.849 24.575,44.112 25.434,44.748 1.373,1.016 2.97,1.505 4.554,1.505 2.34,0 4.653,-1.069 6.164,-3.092 2.534,-3.389 1.838,-8.2 -1.539,-10.752 z"
               id="path2750" />
            <path
               style="fill:#62a5a2"
               d="m 295.623,241.773 c -3.956,-3.437 -13.348,-8.96 -14.885,5.346 -5.52,36.996 -45.27,62.852 -45.27,99.328 0,30.748 24.927,55.675 55.676,55.675 30.747,0 55.672,-24.927 55.672,-55.675 0,-27.897 -11.197,-69.929 -51.193,-104.674 z m -26.255,134.203 c -0.862,1.154 -2.181,1.765 -3.518,1.765 -0.903,0 -1.815,-0.279 -2.599,-0.859 -0.49,-0.363 -12.028,-9.074 -14.514,-25.537 -2.486,-16.46 8.66,-31.886 9.135,-32.534 1.433,-1.954 4.18,-2.377 6.134,-0.943 1.952,1.433 2.376,4.174 0.948,6.128 -0.146,0.2 -9.474,13.237 -7.539,26.039 1.929,12.765 10.982,19.737 11.075,19.806 1.927,1.455 2.324,4.201 0.878,6.135 z"
               id="path2752" />
            <path
               style="fill:#f7f1e6"
               d="m 268.491,369.84 c -0.093,-0.069 -9.146,-7.041 -11.075,-19.806 -1.935,-12.801 7.393,-25.839 7.539,-26.039 1.428,-1.954 1.004,-4.696 -0.948,-6.128 -1.954,-1.434 -4.701,-1.011 -6.134,0.943 -0.475,0.648 -11.621,16.074 -9.135,32.534 2.485,16.463 14.023,25.174 14.514,25.537 0.783,0.58 1.695,0.859 2.599,0.859 1.337,0 2.655,-0.61 3.518,-1.765 1.445,-1.933 1.048,-4.679 -0.878,-6.135 z"
               id="path2754" />
          </g>
        </g>
      </g>
      <g
         id="g2761" />
      <g
         id="g2763" />
      <g
         id="g2765" />
      <g
         id="g2767" />
      <g
         id="g2769" />
      <g
         id="g2771" />
      <g
         id="g2773" />
      <g
         id="g2775" />
      <g
         id="g2777" />
      <g
         id="g2779" />
      <g
         id="g2781" />
      <g
         id="g2783" />
      <g
         id="g2785" />
      <g
         id="g2787" />
      <g
         id="g2789" />
    </g>
    <g
       id="g2872"
       transform="matrix(0.02771286,-0.0349766,0.02875488,0.01771249,168.78378,134.99115)">
      <g
         id="g2840">
        <g
           id="g2824" />
        <g
           id="g2826" />
        <g
           id="g2838">
          <g
             id="g2836">
            <path
               id="path2828"
               d="M 160.713,6.974 C 153.782,0.953 137.324,-8.725 134.63,16.341 124.957,81.17 55.306,126.477 55.306,190.395 c 0,53.879 43.678,97.557 97.558,97.557 53.879,0 97.557,-43.678 97.557,-97.557 C 250.42,141.51 230.799,67.858 160.713,6.974 Z m -46.006,235.164 c -1.511,2.022 -3.824,3.092 -6.164,3.092 -1.584,0 -3.181,-0.489 -4.554,-1.505 -0.858,-0.636 -21.076,-15.899 -25.434,-44.748 -4.357,-28.843 15.175,-55.873 16.009,-57.01 2.51,-3.423 7.322,-4.166 10.748,-1.652 3.42,2.51 4.162,7.314 1.659,10.739 -0.253,0.349 -16.599,23.194 -13.209,45.627 3.378,22.368 19.246,34.584 19.406,34.705 3.378,2.552 4.074,7.363 1.539,10.752 z"
               style="fill:#62a5a2" />
            <path
               id="path2830"
               d="m 113.169,231.386 c -0.16,-0.121 -16.028,-12.337 -19.406,-34.705 -3.39,-22.433 12.956,-45.278 13.209,-45.627 2.503,-3.425 1.761,-8.229 -1.659,-10.739 -3.426,-2.513 -8.238,-1.771 -10.748,1.652 -0.834,1.137 -20.366,28.167 -16.009,57.01 4.357,28.849 24.575,44.112 25.434,44.748 1.373,1.016 2.97,1.505 4.554,1.505 2.34,0 4.653,-1.069 6.164,-3.092 2.534,-3.389 1.838,-8.2 -1.539,-10.752 z"
               style="fill:#f7f1e6" />
            <path
               id="path2832"
               d="m 295.623,241.773 c -3.956,-3.437 -13.348,-8.96 -14.885,5.346 -5.52,36.996 -45.27,62.852 -45.27,99.328 0,30.748 24.927,55.675 55.676,55.675 30.747,0 55.672,-24.927 55.672,-55.675 0,-27.897 -11.197,-69.929 -51.193,-104.674 z m -26.255,134.203 c -0.862,1.154 -2.181,1.765 -3.518,1.765 -0.903,0 -1.815,-0.279 -2.599,-0.859 -0.49,-0.363 -12.028,-9.074 -14.514,-25.537 -2.486,-16.46 8.66,-31.886 9.135,-32.534 1.433,-1.954 4.18,-2.377 6.134,-0.943 1.952,1.433 2.376,4.174 0.948,6.128 -0.146,0.2 -9.474,13.237 -7.539,26.039 1.929,12.765 10.982,19.737 11.075,19.806 1.927,1.455 2.324,4.201 0.878,6.135 z"
               style="fill:#62a5a2" />
            <path
               id="path2834"
               d="m 268.491,369.84 c -0.093,-0.069 -9.146,-7.041 -11.075,-19.806 -1.935,-12.801 7.393,-25.839 7.539,-26.039 1.428,-1.954 1.004,-4.696 -0.948,-6.128 -1.954,-1.434 -4.701,-1.011 -6.134,0.943 -0.475,0.648 -11.621,16.074 -9.135,32.534 2.485,16.463 14.023,25.174 14.514,25.537 0.783,0.58 1.695,0.859 2.599,0.859 1.337,0 2.655,-0.61 3.518,-1.765 1.445,-1.933 1.048,-4.679 -0.878,-6.135 z"
               style="fill:#f7f1e6" />
          </g>
        </g>
      </g>
      <g
         id="g2842" />
      <g
         id="g2844" />
      <g
         id="g2846" />
      <g
         id="g2848" />
      <g
         id="g2850" />
      <g
         id="g2852" />
      <g
         id="g2854" />
      <g
         id="g2856" />
      <g
         id="g2858" />
      <g
         id="g2860" />
      <g
         id="g2862" />
      <g
         id="g2864" />
      <g
         id="g2866" />
      <g
         id="g2868" />
      <g
         id="g2870" />
    </g>
  </g>
  <text
     xml:space="preserve"
     style="font-style:normal;font-variant:normal;font-weight:bold;font-stretch:normal;font-size:14.11111069px;line-height:1.25;font-family:Arial;-inkscape-font-specification:'Arial Bold';font-variant-ligatures:normal;font-variant-caps:normal;font-variant-numeric:normal;font-feature-settings:normal;text-align:start;letter-spacing:0.39687502px;word-spacing:0px;writing-mode:lr-tb;text-anchor:start;fill:#794300;fill-opacity:1;stroke:none;stroke-width:0.26458335"
     x="124.12399"
     y="46.077438"
     id="text3275"><tspan
       x="124.12399"
       y="46.077438"
       id="tspan3257"
       style="stroke-width:0.26458335"><tspan
         dx="0 0 0 0 -0.39687502 0.39687502 0 0 0 0 0 0 0 -0.39687502 0 0.39687803"
         x="124.12399"
         y="46.077438"
         id="tspan3255"
         style="stroke-width:0.26458335">നിങ്ങളുടെ എല്ലാ </tspan></tspan><tspan
       x="124.12399"
       y="63.716328"
       id="tspan3261"
       style="stroke-width:0.26458335"><tspan
         dx="0 0 0 0 0 0 0 -0.39687502 0.39687905"
         x="124.12399"
         y="63.716328"
         id="tspan3259"
         style="stroke-width:0.26458335">പാനീയങ്ങളും </tspan></tspan><tspan
       x="124.12399"
       y="81.355209"
       id="tspan3265"
       style="stroke-width:0.26458335"><tspan
         dx="0 0 0 0 -0.39687502 0.396873 0 -0.39687502 0 0.39687401"
         x="124.12399"
         y="81.355209"
         id="tspan3263"
         style="stroke-width:0.26458335">വെള്ളത്തിൽ </tspan></tspan><tspan
       x="124.12399"
       y="98.994087"
       id="tspan3269"
       style="stroke-width:0.26458335"><tspan
         dx="0 0 0 0 -0.39687502 0 0.39687502 0 -0.39687502 0 0.39687401 0 0 0 -0.39687502 0 0.396873"
         x="124.12399"
         y="98.994087"
         id="tspan3267"
         style="stroke-width:0.26458335">മാറ്റിസ്ഥാപിച്ചാൽ </tspan></tspan><tspan
       x="124.12399"
       y="116.63298"
       id="tspan3273"
       style="stroke-width:0.26458335"><tspan
         dx="0 0 0 -0.39687502 0 0.39687502 0 0 0 0 0 0 0 -0.39687502"
         x="124.12399"
         y="116.63298"
         id="tspan3271"
         style="stroke-width:0.26458335">എന്ത് സംഭവിക്കും</tspan></tspan></text>
</svg>
