<?xml version="1.0" encoding="UTF-8" standalone="no"?>
<svg
   xmlns:dc="http://purl.org/dc/elements/1.1/"
   xmlns:cc="http://creativecommons.org/ns#"
   xmlns:rdf="http://www.w3.org/1999/02/22-rdf-syntax-ns#"
   xmlns:svg="http://www.w3.org/2000/svg"
   xmlns="http://www.w3.org/2000/svg"
   width="1280"
   height="720"
   viewBox="0 0 338.66666 190.50001"
   version="1.1"
   id="svg8">
  <defs
     id="defs2" />
  <metadata
     id="metadata5">
    <rdf:RDF>
      <cc:Work
         rdf:about="">
        <dc:format>image/svg+xml</dc:format>
        <dc:type
           rdf:resource="http://purl.org/dc/dcmitype/StillImage" />
        <dc:title></dc:title>
      </cc:Work>
    </rdf:RDF>
  </metadata>
  <g
     id="layer1"
     transform="translate(0,-106.49998)">
    <rect
       style="opacity:1;fill:#ddc3c2;fill-opacity:1;fill-rule:nonzero;stroke:none;stroke-width:4.08746386;stroke-linecap:round;stroke-linejoin:round;stroke-miterlimit:4;stroke-dasharray:none;stroke-opacity:1;paint-order:normal"
       id="rect815"
       width="338.89777"
       height="190.2959"
       x="-1.7837904e-08"
       y="107.23862"
       rx="21.60977"
       ry="20.459337" />
  </g>
  <g
     id="layer2">
    <g
       id="g892"
       transform="matrix(1.761252,0,0,1.5069637,-95.307863,-59.384584)">
      <g
         id="layer5">
        <path
           id="path931"
           d="m 113.45591,108.30771 c 8.84929,2.10694 6.90144,7.60554 6.90144,7.60554"
           style="fill:none;stroke:#f3c374;stroke-width:3.2650001;stroke-linecap:round;stroke-linejoin:round;stroke-miterlimit:4;stroke-dasharray:none;stroke-opacity:1;paint-order:stroke markers fill" />
        <path
           style="fill:none;stroke:#f3c374;stroke-width:3.2650001;stroke-linecap:round;stroke-linejoin:round;stroke-miterlimit:4;stroke-dasharray:none;stroke-opacity:1;paint-order:stroke markers fill"
           d="m 82.336357,115.21464 c -3.622096,-1.78826 0.606289,-3.66055 8.668922,-7.30783"
           id="path933" />
        <path
           id="path935"
           d="m 92.320683,134.47023 0.09449,22.96205"
           style="fill:none;stroke:#65a3d9;stroke-width:4.66499996;stroke-linecap:round;stroke-linejoin:miter;stroke-miterlimit:4;stroke-dasharray:none;stroke-opacity:1" />
        <path
           style="fill:none;stroke:#65a3d9;stroke-width:4.66499996;stroke-linecap:round;stroke-linejoin:miter;stroke-miterlimit:4;stroke-dasharray:none;stroke-opacity:1"
           d="m 111.59747,135.22618 0.0945,22.96205"
           id="path937" />
      </g>
      <g
         id="layer4">
        <path
           id="path912"
           d="M 102.28842,83.821433 78.003447,131.82439 c -0.631919,1.21463 -1.693481,3.42587 -0.0945,3.40179 l 46.774553,-0.28349 c 1.65651,-0.0523 0.47637,-2.44847 -0.0945,-3.73251 z"
           style="fill:#64a4d9;fill-opacity:1;stroke:none;stroke-width:0.26458332px;stroke-linecap:butt;stroke-linejoin:miter;stroke-opacity:1" />
      </g>
      <g
         transform="translate(0,1.9704834e-5)"
         id="layer1-7">
        <rect
           rx="21.544643"
           ry="22.300594"
           y="60.386894"
           x="74.083336"
           height="44.601189"
           width="55.940475"
           id="rect887"
           style="opacity:1;fill:#f5c372;fill-opacity:1;stroke:none;stroke-width:0.065;stroke-linecap:round;stroke-linejoin:round;stroke-miterlimit:4;stroke-dasharray:none;stroke-opacity:1;paint-order:fill markers stroke" />
        <rect
           ry="9.766675"
           rx="5.6541333"
           y="53.92931"
           x="83.530937"
           height="9.766675"
           width="37.612225"
           id="rect891"
           style="opacity:1;fill:#74b5ed;fill-opacity:1;stroke:none;stroke-width:0.09139692;stroke-linecap:round;stroke-linejoin:round;stroke-miterlimit:4;stroke-dasharray:none;stroke-opacity:1;paint-order:fill markers stroke" />
        <rect
           style="opacity:1;fill:#74b5ed;fill-opacity:1;stroke:none;stroke-width:0.06145968;stroke-linecap:round;stroke-linejoin:round;stroke-miterlimit:4;stroke-dasharray:none;stroke-opacity:1;paint-order:fill markers stroke"
           id="rect893"
           width="28.042297"
           height="5.9235139"
           x="87.862022"
           y="49.527447"
           rx="4.2155147"
           ry="5.9235139" />
        <path
           transform="matrix(0.99980413,-0.01979139,0,1,0,0)"
           d="m 115.70281,54.176216 a 13.835407,5.728909 0 0 1 -13.8345,5.728909 13.835407,5.728909 0 0 1 -13.836316,-5.728159 13.835407,5.728909 0 0 1 13.832686,-5.729659 13.835407,5.728909 0 0 1 13.83813,5.727409 l -13.83541,0.0015 z"
           id="path895"
           style="fill:#74b5ed;fill-opacity:1;fill-rule:evenodd;stroke:none;stroke-width:0.48082644" />
      </g>
      <g
         id="layer2-0">
        <path
           d="m 102.09696,77.03717 a 7.0826426,6.4144688 0 0 1 -7.082176,6.414469 7.0826426,6.4144688 0 0 1 -7.083106,-6.413629 7.0826426,6.4144688 0 0 1 7.081252,-6.415308 7.0826426,6.4144688 0 0 1 7.08403,6.412789 l -7.08264,0.0017 z"
           id="path898"
           style="fill:#ffffff;fill-opacity:1;fill-rule:evenodd;stroke:none;stroke-width:0.26458332" />
        <path
           style="fill:#ffffff;fill-opacity:1;fill-rule:evenodd;stroke:none;stroke-width:0.26458332"
           id="path900"
           d="m 115.72772,76.235359 a 7.0826426,6.4144688 0 0 1 -7.08218,6.414469 7.0826426,6.4144688 0 0 1 -7.08311,-6.413629 7.0826426,6.4144688 0 0 1 7.08125,-6.415308 7.0826426,6.4144688 0 0 1 7.08404,6.412789 l -7.08265,0.0017 z" />
        <path
           d="m 98.488824,77.03717 a 3.4745038,3.6081386 0 0 1 -3.474276,3.608139 3.4745038,3.6081386 0 0 1 -3.474731,-3.607666 3.4745038,3.6081386 0 0 1 3.473821,-3.608611 3.4745038,3.6081386 0 0 1 3.475186,3.607194 l -3.474504,9.44e-4 z"
           id="path939"
           style="fill:#000000;fill-opacity:1;fill-rule:evenodd;stroke:none;stroke-width:0.26458332" />
        <path
           style="fill:#000000;fill-opacity:1;fill-rule:evenodd;stroke:none;stroke-width:0.26458332"
           id="path941"
           d="m 112.11958,76.235359 a 3.4745038,3.6081386 0 0 1 -3.47428,3.608139 3.4745038,3.6081386 0 0 1 -3.47473,-3.607666 3.4745038,3.6081386 0 0 1 3.47382,-3.608611 3.4745038,3.6081386 0 0 1 3.47519,3.607194 l -3.47451,9.44e-4 z" />
      </g>
      <g
         id="layer6">
        <path
           id="path944"
           d="m 87.931674,77.605116 c 0.206054,-9.397584 12.364326,-8.048915 13.764376,-2.77292 3.01919,-8.520227 13.82575,-4.828188 13.96484,0.701582 l 5.81311,-0.06682 -4.30972,-9.588293 -31.838484,1.069078 -1.23612,11.091685 z"
           style="fill:#f5c372;fill-opacity:1;stroke:none;stroke-width:0.1;stroke-linecap:butt;stroke-linejoin:miter;stroke-miterlimit:4;stroke-dasharray:none;stroke-opacity:1" />
        <path
           id="path946"
           d="m 87.931674,77.605114 c 1.510867,7.753588 12.062671,7.464916 13.980156,0.87739 2.93612,6.407451 14.02669,5.259541 13.74906,-2.948726 l 5.81311,-0.06682 -1.65555,10.386083 -35.482514,0.661459 -0.24626,-8.475073 z"
           style="fill:#f5c372;fill-opacity:1;stroke:none;stroke-width:0.065;stroke-linecap:butt;stroke-linejoin:miter;stroke-miterlimit:4;stroke-dasharray:none;stroke-opacity:1" />
      </g>
      <g
         id="layer3"
         transform="translate(0.83521728)">
        <path
           id="path903"
           d="m 98.087915,92.375523 c -0.03018,-4.43709 7.968225,-4.407946 8.089655,-0.09449"
           style="fill:none;stroke:#000000;stroke-width:1.66499996;stroke-linecap:round;stroke-linejoin:miter;stroke-miterlimit:4;stroke-dasharray:none;stroke-opacity:1" />
      </g>
    </g>
    <path
       style="fill:#ffffff;fill-opacity:1;stroke:none;stroke-width:0.10589501;stroke-linecap:butt;stroke-linejoin:miter;stroke-miterlimit:4;stroke-dasharray:none;stroke-opacity:1"
       d="m 53.848813,119.35861 c 19.210904,4.28637 37.219457,-12.64989 59.343237,-0.89621 L 102.14409,98.319154 c -4.145338,0.59575 -33.101497,0.68017 -35.837895,-0.0286 z"
       id="path899" />
  </g>
  <g
     id="layer7">
    <g
       id="g1594"
       transform="matrix(-0.01703442,0.00674364,-0.0066234,-0.01224834,76.811283,115.67709)">
      <g
         id="g1531">
        <g
           id="Guides_For_Artboard_35_" />
        <g
           id="Artwork_34_" />
        <g
           id="Layer_2_34_">
          <g
             id="g1528">
            <path
               id="path1520"
               d="M 160.713,6.974 C 153.782,0.953 137.324,-8.725 134.63,16.341 124.957,81.17 55.306,126.477 55.306,190.395 c 0,53.879 43.678,97.557 97.558,97.557 53.879,0 97.557,-43.678 97.557,-97.557 C 250.42,141.51 230.799,67.858 160.713,6.974 Z m -46.006,235.164 c -1.511,2.022 -3.824,3.092 -6.164,3.092 -1.584,0 -3.181,-0.489 -4.554,-1.505 -0.858,-0.636 -21.076,-15.899 -25.434,-44.748 -4.357,-28.843 15.175,-55.873 16.009,-57.01 2.51,-3.423 7.322,-4.166 10.748,-1.652 3.42,2.51 4.162,7.314 1.659,10.739 -0.253,0.349 -16.599,23.194 -13.209,45.627 3.378,22.368 19.246,34.584 19.406,34.705 3.378,2.552 4.074,7.363 1.539,10.752 z"
               style="fill:#62a5a2" />
            <path
               id="path1522"
               d="m 113.169,231.386 c -0.16,-0.121 -16.028,-12.337 -19.406,-34.705 -3.39,-22.433 12.956,-45.278 13.209,-45.627 2.503,-3.425 1.761,-8.229 -1.659,-10.739 -3.426,-2.513 -8.238,-1.771 -10.748,1.652 -0.834,1.137 -20.366,28.167 -16.009,57.01 4.357,28.849 24.575,44.112 25.434,44.748 1.373,1.016 2.97,1.505 4.554,1.505 2.34,0 4.653,-1.069 6.164,-3.092 2.534,-3.389 1.838,-8.2 -1.539,-10.752 z"
               style="fill:#f7f1e6" />
            <path
               id="path1524"
               d="m 295.623,241.773 c -3.956,-3.437 -13.348,-8.96 -14.885,5.346 -5.52,36.996 -45.27,62.852 -45.27,99.328 0,30.748 24.927,55.675 55.676,55.675 30.747,0 55.672,-24.927 55.672,-55.675 0,-27.897 -11.197,-69.929 -51.193,-104.674 z m -26.255,134.203 c -0.862,1.154 -2.181,1.765 -3.518,1.765 -0.903,0 -1.815,-0.279 -2.599,-0.859 -0.49,-0.363 -12.028,-9.074 -14.514,-25.537 -2.486,-16.46 8.66,-31.886 9.135,-32.534 1.433,-1.954 4.18,-2.377 6.134,-0.943 1.952,1.433 2.376,4.174 0.948,6.128 -0.146,0.2 -9.474,13.237 -7.539,26.039 1.929,12.765 10.982,19.737 11.075,19.806 1.927,1.455 2.324,4.201 0.878,6.135 z"
               style="fill:#62a5a2" />
            <path
               id="path1526"
               d="m 268.491,369.84 c -0.093,-0.069 -9.146,-7.041 -11.075,-19.806 -1.935,-12.801 7.393,-25.839 7.539,-26.039 1.428,-1.954 1.004,-4.696 -0.948,-6.128 -1.954,-1.434 -4.701,-1.011 -6.134,0.943 -0.475,0.648 -11.621,16.074 -9.135,32.534 2.485,16.463 14.023,25.174 14.514,25.537 0.783,0.58 1.695,0.859 2.599,0.859 1.337,0 2.655,-0.61 3.518,-1.765 1.445,-1.933 1.048,-4.679 -0.878,-6.135 z"
               style="fill:#f7f1e6" />
          </g>
        </g>
      </g>
      <g
         id="g1533" />
      <g
         id="g1535" />
      <g
         id="g1537" />
      <g
         id="g1539" />
      <g
         id="g1541" />
      <g
         id="g1543" />
      <g
         id="g1545" />
      <g
         id="g1547" />
      <g
         id="g1549" />
      <g
         id="g1551" />
      <g
         id="g1553" />
      <g
         id="g1555" />
      <g
         id="g1557" />
      <g
         id="g1559" />
      <g
         id="g1561" />
    </g>
    <g
       transform="matrix(-0.016186,-0.00813085,0.00798587,-0.01163828,80.124858,118.17993)"
       id="g1644">
      <g
         id="g1612">
        <g
           id="g1596" />
        <g
           id="g1598" />
        <g
           id="g1610">
          <g
             id="g1608">
            <path
               style="fill:#62a5a2"
               d="M 160.713,6.974 C 153.782,0.953 137.324,-8.725 134.63,16.341 124.957,81.17 55.306,126.477 55.306,190.395 c 0,53.879 43.678,97.557 97.558,97.557 53.879,0 97.557,-43.678 97.557,-97.557 C 250.42,141.51 230.799,67.858 160.713,6.974 Z m -46.006,235.164 c -1.511,2.022 -3.824,3.092 -6.164,3.092 -1.584,0 -3.181,-0.489 -4.554,-1.505 -0.858,-0.636 -21.076,-15.899 -25.434,-44.748 -4.357,-28.843 15.175,-55.873 16.009,-57.01 2.51,-3.423 7.322,-4.166 10.748,-1.652 3.42,2.51 4.162,7.314 1.659,10.739 -0.253,0.349 -16.599,23.194 -13.209,45.627 3.378,22.368 19.246,34.584 19.406,34.705 3.378,2.552 4.074,7.363 1.539,10.752 z"
               id="path1600" />
            <path
               style="fill:#f7f1e6"
               d="m 113.169,231.386 c -0.16,-0.121 -16.028,-12.337 -19.406,-34.705 -3.39,-22.433 12.956,-45.278 13.209,-45.627 2.503,-3.425 1.761,-8.229 -1.659,-10.739 -3.426,-2.513 -8.238,-1.771 -10.748,1.652 -0.834,1.137 -20.366,28.167 -16.009,57.01 4.357,28.849 24.575,44.112 25.434,44.748 1.373,1.016 2.97,1.505 4.554,1.505 2.34,0 4.653,-1.069 6.164,-3.092 2.534,-3.389 1.838,-8.2 -1.539,-10.752 z"
               id="path1602" />
            <path
               style="fill:#62a5a2"
               d="m 295.623,241.773 c -3.956,-3.437 -13.348,-8.96 -14.885,5.346 -5.52,36.996 -45.27,62.852 -45.27,99.328 0,30.748 24.927,55.675 55.676,55.675 30.747,0 55.672,-24.927 55.672,-55.675 0,-27.897 -11.197,-69.929 -51.193,-104.674 z m -26.255,134.203 c -0.862,1.154 -2.181,1.765 -3.518,1.765 -0.903,0 -1.815,-0.279 -2.599,-0.859 -0.49,-0.363 -12.028,-9.074 -14.514,-25.537 -2.486,-16.46 8.66,-31.886 9.135,-32.534 1.433,-1.954 4.18,-2.377 6.134,-0.943 1.952,1.433 2.376,4.174 0.948,6.128 -0.146,0.2 -9.474,13.237 -7.539,26.039 1.929,12.765 10.982,19.737 11.075,19.806 1.927,1.455 2.324,4.201 0.878,6.135 z"
               id="path1604" />
            <path
               style="fill:#f7f1e6"
               d="m 268.491,369.84 c -0.093,-0.069 -9.146,-7.041 -11.075,-19.806 -1.935,-12.801 7.393,-25.839 7.539,-26.039 1.428,-1.954 1.004,-4.696 -0.948,-6.128 -1.954,-1.434 -4.701,-1.011 -6.134,0.943 -0.475,0.648 -11.621,16.074 -9.135,32.534 2.485,16.463 14.023,25.174 14.514,25.537 0.783,0.58 1.695,0.859 2.599,0.859 1.337,0 2.655,-0.61 3.518,-1.765 1.445,-1.933 1.048,-4.679 -0.878,-6.135 z"
               id="path1606" />
          </g>
        </g>
      </g>
      <g
         id="g1614" />
      <g
         id="g1616" />
      <g
         id="g1618" />
      <g
         id="g1620" />
      <g
         id="g1622" />
      <g
         id="g1624" />
      <g
         id="g1626" />
      <g
         id="g1628" />
      <g
         id="g1630" />
      <g
         id="g1632" />
      <g
         id="g1634" />
      <g
         id="g1636" />
      <g
         id="g1638" />
      <g
         id="g1640" />
      <g
         id="g1642" />
    </g>
    <g
       id="g1694"
       transform="matrix(-0.00972359,-0.01551428,0.01637776,-0.00650491,84.217466,116.92743)">
      <g
         id="g1662">
        <g
           id="g1646" />
        <g
           id="g1648" />
        <g
           id="g1660">
          <g
             id="g1658">
            <path
               id="path1650"
               d="M 160.713,6.974 C 153.782,0.953 137.324,-8.725 134.63,16.341 124.957,81.17 55.306,126.477 55.306,190.395 c 0,53.879 43.678,97.557 97.558,97.557 53.879,0 97.557,-43.678 97.557,-97.557 C 250.42,141.51 230.799,67.858 160.713,6.974 Z m -46.006,235.164 c -1.511,2.022 -3.824,3.092 -6.164,3.092 -1.584,0 -3.181,-0.489 -4.554,-1.505 -0.858,-0.636 -21.076,-15.899 -25.434,-44.748 -4.357,-28.843 15.175,-55.873 16.009,-57.01 2.51,-3.423 7.322,-4.166 10.748,-1.652 3.42,2.51 4.162,7.314 1.659,10.739 -0.253,0.349 -16.599,23.194 -13.209,45.627 3.378,22.368 19.246,34.584 19.406,34.705 3.378,2.552 4.074,7.363 1.539,10.752 z"
               style="fill:#62a5a2" />
            <path
               id="path1652"
               d="m 113.169,231.386 c -0.16,-0.121 -16.028,-12.337 -19.406,-34.705 -3.39,-22.433 12.956,-45.278 13.209,-45.627 2.503,-3.425 1.761,-8.229 -1.659,-10.739 -3.426,-2.513 -8.238,-1.771 -10.748,1.652 -0.834,1.137 -20.366,28.167 -16.009,57.01 4.357,28.849 24.575,44.112 25.434,44.748 1.373,1.016 2.97,1.505 4.554,1.505 2.34,0 4.653,-1.069 6.164,-3.092 2.534,-3.389 1.838,-8.2 -1.539,-10.752 z"
               style="fill:#f7f1e6" />
            <path
               id="path1654"
               d="m 295.623,241.773 c -3.956,-3.437 -13.348,-8.96 -14.885,5.346 -5.52,36.996 -45.27,62.852 -45.27,99.328 0,30.748 24.927,55.675 55.676,55.675 30.747,0 55.672,-24.927 55.672,-55.675 0,-27.897 -11.197,-69.929 -51.193,-104.674 z m -26.255,134.203 c -0.862,1.154 -2.181,1.765 -3.518,1.765 -0.903,0 -1.815,-0.279 -2.599,-0.859 -0.49,-0.363 -12.028,-9.074 -14.514,-25.537 -2.486,-16.46 8.66,-31.886 9.135,-32.534 1.433,-1.954 4.18,-2.377 6.134,-0.943 1.952,1.433 2.376,4.174 0.948,6.128 -0.146,0.2 -9.474,13.237 -7.539,26.039 1.929,12.765 10.982,19.737 11.075,19.806 1.927,1.455 2.324,4.201 0.878,6.135 z"
               style="fill:#62a5a2" />
            <path
               id="path1656"
               d="m 268.491,369.84 c -0.093,-0.069 -9.146,-7.041 -11.075,-19.806 -1.935,-12.801 7.393,-25.839 7.539,-26.039 1.428,-1.954 1.004,-4.696 -0.948,-6.128 -1.954,-1.434 -4.701,-1.011 -6.134,0.943 -0.475,0.648 -11.621,16.074 -9.135,32.534 2.485,16.463 14.023,25.174 14.514,25.537 0.783,0.58 1.695,0.859 2.599,0.859 1.337,0 2.655,-0.61 3.518,-1.765 1.445,-1.933 1.048,-4.679 -0.878,-6.135 z"
               style="fill:#f7f1e6" />
          </g>
        </g>
      </g>
      <g
         id="g1664" />
      <g
         id="g1666" />
      <g
         id="g1668" />
      <g
         id="g1670" />
      <g
         id="g1672" />
      <g
         id="g1674" />
      <g
         id="g1676" />
      <g
         id="g1678" />
      <g
         id="g1680" />
      <g
         id="g1682" />
      <g
         id="g1684" />
      <g
         id="g1686" />
      <g
         id="g1688" />
      <g
         id="g1690" />
      <g
         id="g1692" />
    </g>
    <path
       style="fill:#78b4dc;fill-opacity:1;stroke:none;stroke-width:0.065;stroke-linecap:butt;stroke-linejoin:miter;stroke-miterlimit:4;stroke-dasharray:none;stroke-opacity:1"
       d="m 52.733247,121.25485 c 9.948121,2.40425 21.171143,-2.96223 28.56784,-4.87762 -5.776607,0.86615 -14.950967,1.11573 -23.49717,-3.75111 z"
       id="path1696" />
    <path
       style="fill:none;stroke:#f8f4f3;stroke-width:8.54357719;stroke-linecap:round;stroke-linejoin:miter;stroke-miterlimit:4;stroke-dasharray:none;stroke-opacity:1"
       d="M 144.85547,130.82933 251.198,130.56475"
       id="path1698" />
    <path
       style="fill:none;stroke:#f8f4f3;stroke-width:7.78583241;stroke-linecap:round;stroke-linejoin:miter;stroke-miterlimit:4;stroke-dasharray:none;stroke-opacity:1"
       d="m 223.76839,132.41683 -0.42199,30.95625"
       id="path1702" />
    <path
       id="path1704"
       d="m 171.4411,131.62308 -0.42199,30.95625"
       style="fill:none;stroke:#f8f4f3;stroke-width:7.78583241;stroke-linecap:round;stroke-linejoin:miter;stroke-miterlimit:4;stroke-dasharray:none;stroke-opacity:1" />
    <g
       id="g2819"
       transform="matrix(0.05352994,0,0,0.04841145,137.59618,101.90602)">
      <polygon
         id="polygon2692"
         points="152.063,151.296 232.219,47.092 280.313,47.092 360.47,151.296 "
         style="fill:#baf0ff" />
      <g
         id="g2702">
        <polygon
           id="polygon2694"
           points="232.219,47.092 152.063,151.296 173.104,151.296 253.26,47.092 "
           style="fill:#8adeff" />
        <polygon
           id="polygon2696"
           points="219.887,63.123 232.219,47.092 280.313,47.092 292.645,63.124 "
           style="fill:#8adeff" />
        <polygon
           id="polygon2698"
           points="360.47,151.296 152.063,151.296 164.397,135.264 348.135,135.264 "
           style="fill:#8adeff" />
        <path
           id="path2700"
           d="M 360.47,223.436 V 151.295 H 152.062 v 72.141 c 0,17.708 14.355,32.063 32.063,32.063 h -4.008 c -15.494,0 -28.055,12.561 -28.055,28.055 v 0 c 0,15.494 12.561,28.055 28.055,28.055 -15.494,0 -28.055,12.561 -28.055,28.055 v 0 c 0,15.494 12.561,28.055 28.055,28.055 h 4.008 c -17.708,0 -32.063,14.355 -32.063,32.063 v 64.125 c 0,17.708 14.355,32.063 32.063,32.063 h 42.929 c 5.651,4.985 13.068,8.016 21.196,8.016 h 16.031 c 8.128,0 15.544,-3.031 21.196,-8.016 h 42.929 c 17.708,0 32.063,-14.355 32.063,-32.063 v -64.125 c 0,-17.708 -14.355,-32.063 -32.063,-32.063 h 4.008 c 15.494,0 28.055,-12.561 28.055,-28.055 v 0 c 0,-15.494 -12.561,-28.055 -28.055,-28.055 15.494,0 28.055,-12.561 28.055,-28.055 v 0 c 0,-15.494 -12.561,-28.055 -28.055,-28.055 h -4.008 c 17.709,0 32.064,-14.355 32.064,-32.063 z"
           style="fill:#8adeff" />
      </g>
      <g
         id="g2712">
        <path
           id="path2704"
           d="m 172.102,463.906 v -64.125 c 0,-17.708 14.355,-32.063 32.063,-32.063 h -4.008 c -15.494,0 -28.055,-12.561 -28.055,-28.055 0,-15.494 12.561,-28.055 28.055,-28.055 -15.494,0 -28.055,-12.561 -28.055,-28.055 0,-15.494 12.561,-28.055 28.055,-28.055 h 4.008 c -17.708,0 -32.063,-14.355 -32.063,-32.063 v -72.141 h -20.039 v 72.141 c 0,17.708 14.355,32.063 32.063,32.063 h -4.008 c -15.494,0 -28.055,12.561 -28.055,28.055 0,15.494 12.561,28.055 28.055,28.055 -15.494,0 -28.055,12.561 -28.055,28.055 0,15.494 12.561,28.055 28.055,28.055 h 4.008 c -17.708,0 -32.063,14.355 -32.063,32.063 v 64.125 c 0,17.708 14.355,32.063 32.063,32.063 h 20.039 c -17.709,0 -32.063,-14.355 -32.063,-32.063 z"
           style="fill:#2fb6eb" />
        <path
           id="path2706"
           d="m 247.093,495.969 h -20.039 c 5.651,4.985 13.068,8.016 21.196,8.016 h 16.031 c 0.673,0 1.341,-0.028 2.004,-0.069 -7.34,-0.455 -14.009,-3.375 -19.192,-7.947 z"
           style="fill:#2fb6eb" />
        <path
           id="path2708"
           d="M 328.407,367.718 H 184.125 c -17.708,0 -32.063,14.355 -32.063,32.063 v 64.125 c 0,17.708 14.355,32.063 32.063,32.063 h 42.929 c 5.651,4.985 13.068,8.016 21.196,8.016 h 16.031 c 8.128,0 15.544,-3.031 21.196,-8.016 h 42.929 c 17.708,0 32.063,-14.355 32.063,-32.063 v -64.125 c 0.001,-17.708 -14.354,-32.063 -32.062,-32.063 z"
           style="fill:#2fb6eb" />
        <path
           id="path2710"
           d="M 332.415,311.609 H 180.117 c -15.494,0 -28.055,-12.561 -28.055,-28.055 v 0 c 0,-15.494 12.561,-28.055 28.055,-28.055 h 152.297 c 15.494,0 28.055,12.561 28.055,28.055 v 0 c 0.001,15.494 -12.56,28.055 -28.054,28.055 z"
           style="fill:#2fb6eb" />
      </g>
      <path
         id="path2714"
         d="m 172.102,463.906 v -64.125 c 0,-17.708 14.355,-32.063 32.063,-32.063 h -20.039 c -17.708,0 -32.063,14.355 -32.063,32.063 v 64.125 c 0,17.708 14.355,32.063 32.063,32.063 h 20.039 c -17.709,0 -32.063,-14.355 -32.063,-32.063 z"
         style="fill:#0097c6" />
      <path
         id="path2716"
         d="m 247.093,495.969 h -20.039 c 5.651,4.985 13.068,8.016 21.196,8.016 h 16.031 c 0.673,0 1.341,-0.028 2.004,-0.069 -7.34,-0.455 -14.009,-3.375 -19.192,-7.947 z"
         style="fill:#00a1d3" />
      <path
         id="path2718"
         d="m 172.102,283.554 c 0,-15.494 12.561,-28.055 28.055,-28.055 h -20.039 c -15.494,0 -28.055,12.561 -28.055,28.055 0,15.494 12.561,28.055 28.055,28.055 h 20.039 c -15.495,0 -28.055,-12.561 -28.055,-28.055 z"
         style="fill:#0097c6" />
      <rect
         id="rect2720"
         height="40.077999"
         width="96.188004"
         style="fill:#ff6243"
         y="7.0139999"
         x="208.17599" />
      <g
         id="g2726">
        <rect
           id="rect2722"
           height="40.077999"
           width="16.031"
           style="fill:#d80027"
           y="7.0139999"
           x="208.17599" />
        <rect
           id="rect2724"
           height="16.031"
           width="96.188004"
           style="fill:#d80027"
           y="31.061001"
           x="208.17599" />
      </g>
      <path
         id="path2728"
         d="m 367.859,339.663 c 0,-11.391 -5.325,-21.54 -13.68,-28.055 8.354,-6.515 13.774,-16.664 13.774,-28.055 0,-11.993 -6.207,-22.611 -15.328,-29.058 9.183,-7.254 14.858,-18.476 14.858,-31.06 V 148.74 L 295.574,55.108 h 15.8 V 0 H 200.156 v 55.108 h 16.801 l -72.91,93.632 v 74.697 c 0,12.584 6.161,23.805 15.344,31.06 -9.121,6.447 -14.968,17.064 -14.968,29.058 0,11.391 5.451,21.54 13.805,28.055 -8.354,6.515 -13.711,16.664 -13.711,28.055 0,11.993 5.737,22.611 14.858,29.058 -9.183,7.254 -15.328,18.476 -15.328,31.06 v 64.125 c 0,21.823 18.256,40.078 40.078,40.078 h 40.078 v -0.659 c 6.671,5.12 15.007,8.675 24.047,8.675 h 16.031 c 9.04,0 17.376,-3.554 24.047,-8.675 v 0.659 h 40.078 c 21.823,0 39.076,-18.256 39.076,-40.078 v -64.125 c 0,-12.584 -5.66,-23.806 -14.843,-31.06 9.122,-6.448 15.22,-17.066 15.22,-29.06 z M 215.186,40.078 V 15.029 h 81.159 v 25.049 z m 20.733,15.03 h 40.692 l 68.596,89.174 H 167.323 m 165.092,175.342 c 11.326,0 20.54,9.214 20.54,20.54 0,11.326 -9.214,20.54 -20.54,20.54 h -20.039 v 15.029 h 16.031 c 13.536,0 24.047,10.511 24.047,24.047 v 64.125 c 0,13.536 -10.511,25.049 -24.047,25.049 h -28.18 c 2.325,-6.012 3.632,-11.134 3.632,-17.033 H 288.83 c 0,13.536 -11.012,25.049 -24.548,25.049 H 248.25 c -13.535,0 -24.548,-11.512 -24.548,-25.049 h -15.029 c 0,5.9 1.308,11.022 3.632,17.033 h -28.18 c -13.535,0 -25.049,-11.512 -25.049,-25.049 V 399.78 c 0,-13.536 11.513,-24.047 25.049,-24.047 h 80.157 v -15.029 h -84.164 c -11.326,0 -20.54,-9.214 -20.54,-20.54 0,-11.326 9.214,-20.54 20.54,-20.54 h 84.164 v -15.029 h -84.164 c -11.326,0 -20.54,-9.214 -20.54,-20.54 0,-11.326 9.214,-20.54 20.54,-20.54 h 84.164 v -15.029 h -80.157 c -13.535,0 -25.049,-11.512 -25.049,-25.049 v -64.125 h 193.378 v 64.125 c 0,13.536 -10.511,25.049 -24.047,25.049 h -16.031 v 15.029 h 20.039 c 11.326,0 20.54,9.214 20.54,20.54 0,11.326 -9.214,20.54 -20.54,20.54 h -20.039 v 15.029 z" />
      <g
         id="g2740">
        <rect
           id="rect2730"
           height="15.029"
           width="16.031"
           style="fill:#ffffff"
           y="111.718"
           x="200.16" />
        <rect
           id="rect2732"
           height="15.029"
           width="16.031"
           style="fill:#ffffff"
           y="95.686996"
           x="216.192" />
        <rect
           id="rect2734"
           height="15.029"
           width="16.031"
           style="fill:#ffffff"
           y="304.09399"
           x="280.31699" />
        <rect
           id="rect2736"
           height="15.029"
           width="16.031"
           style="fill:#ffffff"
           y="247.98399"
           x="280.31699" />
        <rect
           id="rect2738"
           height="15.029"
           width="16.031"
           style="fill:#ffffff"
           y="360.20401"
           x="280.31699" />
      </g>
      <g
         id="g2742" />
      <g
         id="g2744" />
      <g
         id="g2746" />
      <g
         id="g2748" />
      <g
         id="g2750" />
      <g
         id="g2752" />
      <g
         id="g2754" />
      <g
         id="g2756" />
      <g
         id="g2758" />
      <g
         id="g2760" />
      <g
         id="g2762" />
      <g
         id="g2764" />
      <g
         id="g2766" />
      <g
         id="g2768" />
      <g
         id="g2770" />
    </g>
    <g
       id="g2950"
       transform="matrix(0.49967444,-0.24138358,0.21473741,0.44451571,143.92558,106.19386)">
      <g
         id="g2888">
        <path
           id="path2874"
           d="m 39.216,40.149 c -0.212,-2.626 -0.967,-5.153 -1.917,-7.611 -1.163,-3.009 -0.925,-7.264 0.799,-9.495 0.878,-1.136 1.264,-2.591 1.257,-4.027 C 39.306,9.713 34.252,7.493 32.843,7.055 32.545,6.962 32.293,6.77 32.138,6.498 31.82,5.944 31.637,5.197 31.532,4.486 31.436,3.835 30.868,3.374 30.212,3.429 29.824,3.462 29.419,3.48 29,3.48 c -0.419,0 -0.824,-0.018 -1.212,-0.051 -0.656,-0.055 -1.224,0.406 -1.32,1.057 -0.105,0.711 -0.288,1.458 -0.606,2.012 -0.155,0.271 -0.407,0.464 -0.705,0.557 -1.409,0.438 -6.464,2.659 -6.512,11.961 -0.007,1.436 0.378,2.891 1.257,4.027 1.725,2.231 1.962,6.486 0.799,9.495 -0.95,2.457 -1.704,4.985 -1.917,7.611 -0.35,4.324 -0.674,10.335 -0.226,14.37 0,1.922 2.814,3.48 9.862,3.48 7.048,0 11.022,-1.558 11.022,-3.48 0.448,-4.034 0.124,-10.045 -0.226,-14.37 z"
           style="fill:#dae7ef" />
        <path
           id="path2876"
           d="m 18.664,18.548 c -0.004,0.159 -0.018,0.305 -0.019,0.468 -0.008,1.436 0.379,2.891 1.257,4.027 1.725,2.231 1.962,6.486 0.799,9.495 -0.95,2.457 -1.704,4.985 -1.917,7.611 -0.012,0.147 -0.023,0.31 -0.035,0.461 2.624,0.709 6.242,1.15 10.251,1.15 4.009,0 7.627,-0.441 10.251,-1.149 -0.012,-0.151 -0.023,-0.314 -0.035,-0.461 -0.212,-2.626 -0.967,-5.154 -1.917,-7.611 -1.163,-3.009 -0.926,-7.264 0.799,-9.495 0.878,-1.136 1.264,-2.591 1.257,-4.027 -10e-4,-0.164 -0.015,-0.309 -0.019,-0.468 -2.63,0.72 -6.284,1.171 -10.336,1.171 -4.052,0 -7.707,-0.451 -10.336,-1.172 z"
           style="fill:#3dabef" />
        <path
           id="path2878"
           d="m 26.742,54.36 c -2.038,0 -3.504,-0.469 -4.363,-1.396 C 21.634,52.16 21.607,51.285 21.62,51 v -1.12 c 0,-0.553 0.447,-1 1,-1 0.553,0 1,0.447 1,1 l -0.007,1.264 v 0 c 0.003,0 0.011,0.244 0.269,0.499 0.306,0.301 1.152,0.801 3.34,0.708 0.563,-0.035 1.018,0.408 1.038,0.96 0.021,0.552 -0.408,1.017 -0.96,1.038 -0.191,0.007 -0.377,0.011 -0.558,0.011 z"
           style="fill:#ffffff" />
        <path
           id="path2880"
           d="m 22.619,47.399 c -0.553,0 -1,-0.447 -1,-1 v -1.17 c 0,-0.553 0.447,-1 1,-1 0.553,0 1,0.447 1,1 v 1.17 c 0,0.553 -0.447,1 -1,1 z"
           style="fill:#ffffff" />
        <path
           id="path2882"
           d="m 23.781,16.08 c -0.059,0 -0.117,-0.005 -0.178,-0.016 -0.543,-0.098 -0.905,-0.617 -0.808,-1.161 0.662,-3.697 3.893,-5.298 4.029,-5.364 0.502,-0.238 1.096,-0.03 1.336,0.465 0.239,0.496 0.033,1.093 -0.462,1.334 -0.049,0.024 -2.458,1.259 -2.935,3.919 -0.086,0.483 -0.507,0.823 -0.982,0.823 z"
           style="fill:#ffffff" />
        <path
           id="path2884"
           d="m 29,0 c -1.794,0 -3.248,0.485 -3.248,1.083 v 3.248 c 0,0.598 1.454,1.083 3.248,1.083 1.794,0 3.248,-0.485 3.248,-1.083 V 1.083 C 32.248,0.485 30.794,0 29,0 Z"
           style="fill:#003879" />
        <path
           id="path2886"
           d="m 28.848,2.83 h -0.813 c -0.276,0 -0.5,-0.224 -0.5,-0.5 0,-0.276 0.224,-0.5 0.5,-0.5 h 0.813 c 0.276,0 0.5,0.224 0.5,0.5 0,0.276 -0.224,0.5 -0.5,0.5 z"
           style="fill:#1a69b7" />
      </g>
      <g
         id="g2890" />
      <g
         id="g2892" />
      <g
         id="g2894" />
      <g
         id="g2896" />
      <g
         id="g2898" />
      <g
         id="g2900" />
      <g
         id="g2902" />
      <g
         id="g2904" />
      <g
         id="g2906" />
      <g
         id="g2908" />
      <g
         id="g2910" />
      <g
         id="g2912" />
      <g
         id="g2914" />
      <g
         id="g2916" />
      <g
         id="g2918" />
    </g>
    <g
       transform="matrix(0.0261053,-0.05178602,0.04918246,0.02304186,164.80078,122.78586)"
       id="g3032">
      <polygon
         style="fill:#baf0ff"
         points="360.47,151.296 152.063,151.296 232.219,47.092 280.313,47.092 "
         id="polygon2952" />
      <g
         id="g2962">
        <polygon
           style="fill:#8adeff"
           points="253.26,47.092 232.219,47.092 152.063,151.296 173.104,151.296 "
           id="polygon2954" />
        <polygon
           style="fill:#8adeff"
           points="292.645,63.124 219.887,63.123 232.219,47.092 280.313,47.092 "
           id="polygon2956" />
        <polygon
           style="fill:#8adeff"
           points="348.135,135.264 360.47,151.296 152.063,151.296 164.397,135.264 "
           id="polygon2958" />
        <path
           style="fill:#8adeff"
           d="M 360.47,223.436 V 151.295 H 152.062 v 72.141 c 0,17.708 14.355,32.063 32.063,32.063 h -4.008 c -15.494,0 -28.055,12.561 -28.055,28.055 v 0 c 0,15.494 12.561,28.055 28.055,28.055 -15.494,0 -28.055,12.561 -28.055,28.055 v 0 c 0,15.494 12.561,28.055 28.055,28.055 h 4.008 c -17.708,0 -32.063,14.355 -32.063,32.063 v 64.125 c 0,17.708 14.355,32.063 32.063,32.063 h 42.929 c 5.651,4.985 13.068,8.016 21.196,8.016 h 16.031 c 8.128,0 15.544,-3.031 21.196,-8.016 h 42.929 c 17.708,0 32.063,-14.355 32.063,-32.063 v -64.125 c 0,-17.708 -14.355,-32.063 -32.063,-32.063 h 4.008 c 15.494,0 28.055,-12.561 28.055,-28.055 v 0 c 0,-15.494 -12.561,-28.055 -28.055,-28.055 15.494,0 28.055,-12.561 28.055,-28.055 v 0 c 0,-15.494 -12.561,-28.055 -28.055,-28.055 h -4.008 c 17.709,0 32.064,-14.355 32.064,-32.063 z"
           id="path2960" />
      </g>
      <g
         id="g2972">
        <path
           style="fill:#2fb6eb"
           d="m 172.102,463.906 v -64.125 c 0,-17.708 14.355,-32.063 32.063,-32.063 h -4.008 c -15.494,0 -28.055,-12.561 -28.055,-28.055 0,-15.494 12.561,-28.055 28.055,-28.055 -15.494,0 -28.055,-12.561 -28.055,-28.055 0,-15.494 12.561,-28.055 28.055,-28.055 h 4.008 c -17.708,0 -32.063,-14.355 -32.063,-32.063 v -72.141 h -20.039 v 72.141 c 0,17.708 14.355,32.063 32.063,32.063 h -4.008 c -15.494,0 -28.055,12.561 -28.055,28.055 0,15.494 12.561,28.055 28.055,28.055 -15.494,0 -28.055,12.561 -28.055,28.055 0,15.494 12.561,28.055 28.055,28.055 h 4.008 c -17.708,0 -32.063,14.355 -32.063,32.063 v 64.125 c 0,17.708 14.355,32.063 32.063,32.063 h 20.039 c -17.709,0 -32.063,-14.355 -32.063,-32.063 z"
           id="path2964" />
        <path
           style="fill:#2fb6eb"
           d="m 247.093,495.969 h -20.039 c 5.651,4.985 13.068,8.016 21.196,8.016 h 16.031 c 0.673,0 1.341,-0.028 2.004,-0.069 -7.34,-0.455 -14.009,-3.375 -19.192,-7.947 z"
           id="path2966" />
        <path
           style="fill:#2fb6eb"
           d="M 328.407,367.718 H 184.125 c -17.708,0 -32.063,14.355 -32.063,32.063 v 64.125 c 0,17.708 14.355,32.063 32.063,32.063 h 42.929 c 5.651,4.985 13.068,8.016 21.196,8.016 h 16.031 c 8.128,0 15.544,-3.031 21.196,-8.016 h 42.929 c 17.708,0 32.063,-14.355 32.063,-32.063 v -64.125 c 0.001,-17.708 -14.354,-32.063 -32.062,-32.063 z"
           id="path2968" />
        <path
           style="fill:#2fb6eb"
           d="M 332.415,311.609 H 180.117 c -15.494,0 -28.055,-12.561 -28.055,-28.055 v 0 c 0,-15.494 12.561,-28.055 28.055,-28.055 h 152.297 c 15.494,0 28.055,12.561 28.055,28.055 v 0 c 0.001,15.494 -12.56,28.055 -28.054,28.055 z"
           id="path2970" />
      </g>
      <path
         style="fill:#0097c6"
         d="m 172.102,463.906 v -64.125 c 0,-17.708 14.355,-32.063 32.063,-32.063 h -20.039 c -17.708,0 -32.063,14.355 -32.063,32.063 v 64.125 c 0,17.708 14.355,32.063 32.063,32.063 h 20.039 c -17.709,0 -32.063,-14.355 -32.063,-32.063 z"
         id="path2974" />
      <path
         style="fill:#00a1d3"
         d="m 247.093,495.969 h -20.039 c 5.651,4.985 13.068,8.016 21.196,8.016 h 16.031 c 0.673,0 1.341,-0.028 2.004,-0.069 -7.34,-0.455 -14.009,-3.375 -19.192,-7.947 z"
         id="path2976" />
      <path
         style="fill:#0097c6"
         d="m 172.102,283.554 c 0,-15.494 12.561,-28.055 28.055,-28.055 h -20.039 c -15.494,0 -28.055,12.561 -28.055,28.055 0,15.494 12.561,28.055 28.055,28.055 h 20.039 c -15.495,0 -28.055,-12.561 -28.055,-28.055 z"
         id="path2978" />
      <rect
         x="208.17599"
         y="7.0139999"
         style="fill:#ff6243"
         width="96.188004"
         height="40.077999"
         id="rect2980" />
      <g
         id="g2986">
        <rect
           x="208.17599"
           y="7.0139999"
           style="fill:#d80027"
           width="16.031"
           height="40.077999"
           id="rect2982" />
        <rect
           x="208.17599"
           y="31.061001"
           style="fill:#d80027"
           width="96.188004"
           height="16.031"
           id="rect2984" />
      </g>
      <path
         d="m 367.859,339.663 c 0,-11.391 -5.325,-21.54 -13.68,-28.055 8.354,-6.515 13.774,-16.664 13.774,-28.055 0,-11.993 -6.207,-22.611 -15.328,-29.058 9.183,-7.254 14.858,-18.476 14.858,-31.06 V 148.74 L 295.574,55.108 h 15.8 V 0 H 200.156 v 55.108 h 16.801 l -72.91,93.632 v 74.697 c 0,12.584 6.161,23.805 15.344,31.06 -9.121,6.447 -14.968,17.064 -14.968,29.058 0,11.391 5.451,21.54 13.805,28.055 -8.354,6.515 -13.711,16.664 -13.711,28.055 0,11.993 5.737,22.611 14.858,29.058 -9.183,7.254 -15.328,18.476 -15.328,31.06 v 64.125 c 0,21.823 18.256,40.078 40.078,40.078 h 40.078 v -0.659 c 6.671,5.12 15.007,8.675 24.047,8.675 h 16.031 c 9.04,0 17.376,-3.554 24.047,-8.675 v 0.659 h 40.078 c 21.823,0 39.076,-18.256 39.076,-40.078 v -64.125 c 0,-12.584 -5.66,-23.806 -14.843,-31.06 9.122,-6.448 15.22,-17.066 15.22,-29.06 z M 215.186,40.078 V 15.029 h 81.159 v 25.049 z m 20.733,15.03 h 40.692 l 68.596,89.174 H 167.323 m 165.092,175.342 c 11.326,0 20.54,9.214 20.54,20.54 0,11.326 -9.214,20.54 -20.54,20.54 h -20.039 v 15.029 h 16.031 c 13.536,0 24.047,10.511 24.047,24.047 v 64.125 c 0,13.536 -10.511,25.049 -24.047,25.049 h -28.18 c 2.325,-6.012 3.632,-11.134 3.632,-17.033 H 288.83 c 0,13.536 -11.012,25.049 -24.548,25.049 H 248.25 c -13.535,0 -24.548,-11.512 -24.548,-25.049 h -15.029 c 0,5.9 1.308,11.022 3.632,17.033 h -28.18 c -13.535,0 -25.049,-11.512 -25.049,-25.049 V 399.78 c 0,-13.536 11.513,-24.047 25.049,-24.047 h 80.157 v -15.029 h -84.164 c -11.326,0 -20.54,-9.214 -20.54,-20.54 0,-11.326 9.214,-20.54 20.54,-20.54 h 84.164 v -15.029 h -84.164 c -11.326,0 -20.54,-9.214 -20.54,-20.54 0,-11.326 9.214,-20.54 20.54,-20.54 h 84.164 v -15.029 h -80.157 c -13.535,0 -25.049,-11.512 -25.049,-25.049 v -64.125 h 193.378 v 64.125 c 0,13.536 -10.511,25.049 -24.047,25.049 h -16.031 v 15.029 h 20.039 c 11.326,0 20.54,9.214 20.54,20.54 0,11.326 -9.214,20.54 -20.54,20.54 h -20.039 v 15.029 z"
         id="path2988" />
      <g
         id="g3000">
        <rect
           x="200.16"
           y="111.718"
           style="fill:#ffffff"
           width="16.031"
           height="15.029"
           id="rect2990" />
        <rect
           x="216.192"
           y="95.686996"
           style="fill:#ffffff"
           width="16.031"
           height="15.029"
           id="rect2992" />
        <rect
           x="280.31699"
           y="304.09399"
           style="fill:#ffffff"
           width="16.031"
           height="15.029"
           id="rect2994" />
        <rect
           x="280.31699"
           y="247.98399"
           style="fill:#ffffff"
           width="16.031"
           height="15.029"
           id="rect2996" />
        <rect
           x="280.31699"
           y="360.20401"
           style="fill:#ffffff"
           width="16.031"
           height="15.029"
           id="rect2998" />
      </g>
      <g
         id="g3002" />
      <g
         id="g3004" />
      <g
         id="g3006" />
      <g
         id="g3008" />
      <g
         id="g3010" />
      <g
         id="g3012" />
      <g
         id="g3014" />
      <g
         id="g3016" />
      <g
         id="g3018" />
      <g
         id="g3020" />
      <g
         id="g3022" />
      <g
         id="g3024" />
      <g
         id="g3026" />
      <g
         id="g3028" />
      <g
         id="g3030" />
    </g>
    <g
       transform="matrix(0.04817124,0,0,0.05155156,218.77858,100.24478)"
       id="g3114">
      <polygon
         style="fill:#baf0ff"
         points="360.47,151.296 152.063,151.296 232.219,47.092 280.313,47.092 "
         id="polygon3034" />
      <g
         id="g3044">
        <polygon
           style="fill:#8adeff"
           points="253.26,47.092 232.219,47.092 152.063,151.296 173.104,151.296 "
           id="polygon3036" />
        <polygon
           style="fill:#8adeff"
           points="292.645,63.124 219.887,63.123 232.219,47.092 280.313,47.092 "
           id="polygon3038" />
        <polygon
           style="fill:#8adeff"
           points="348.135,135.264 360.47,151.296 152.063,151.296 164.397,135.264 "
           id="polygon3040" />
        <path
           style="fill:#8adeff"
           d="M 360.47,223.436 V 151.295 H 152.062 v 72.141 c 0,17.708 14.355,32.063 32.063,32.063 h -4.008 c -15.494,0 -28.055,12.561 -28.055,28.055 v 0 c 0,15.494 12.561,28.055 28.055,28.055 -15.494,0 -28.055,12.561 -28.055,28.055 v 0 c 0,15.494 12.561,28.055 28.055,28.055 h 4.008 c -17.708,0 -32.063,14.355 -32.063,32.063 v 64.125 c 0,17.708 14.355,32.063 32.063,32.063 h 42.929 c 5.651,4.985 13.068,8.016 21.196,8.016 h 16.031 c 8.128,0 15.544,-3.031 21.196,-8.016 h 42.929 c 17.708,0 32.063,-14.355 32.063,-32.063 v -64.125 c 0,-17.708 -14.355,-32.063 -32.063,-32.063 h 4.008 c 15.494,0 28.055,-12.561 28.055,-28.055 v 0 c 0,-15.494 -12.561,-28.055 -28.055,-28.055 15.494,0 28.055,-12.561 28.055,-28.055 v 0 c 0,-15.494 -12.561,-28.055 -28.055,-28.055 h -4.008 c 17.709,0 32.064,-14.355 32.064,-32.063 z"
           id="path3042" />
      </g>
      <g
         id="g3054">
        <path
           style="fill:#2fb6eb"
           d="m 172.102,463.906 v -64.125 c 0,-17.708 14.355,-32.063 32.063,-32.063 h -4.008 c -15.494,0 -28.055,-12.561 -28.055,-28.055 0,-15.494 12.561,-28.055 28.055,-28.055 -15.494,0 -28.055,-12.561 -28.055,-28.055 0,-15.494 12.561,-28.055 28.055,-28.055 h 4.008 c -17.708,0 -32.063,-14.355 -32.063,-32.063 v -72.141 h -20.039 v 72.141 c 0,17.708 14.355,32.063 32.063,32.063 h -4.008 c -15.494,0 -28.055,12.561 -28.055,28.055 0,15.494 12.561,28.055 28.055,28.055 -15.494,0 -28.055,12.561 -28.055,28.055 0,15.494 12.561,28.055 28.055,28.055 h 4.008 c -17.708,0 -32.063,14.355 -32.063,32.063 v 64.125 c 0,17.708 14.355,32.063 32.063,32.063 h 20.039 c -17.709,0 -32.063,-14.355 -32.063,-32.063 z"
           id="path3046" />
        <path
           style="fill:#2fb6eb"
           d="m 247.093,495.969 h -20.039 c 5.651,4.985 13.068,8.016 21.196,8.016 h 16.031 c 0.673,0 1.341,-0.028 2.004,-0.069 -7.34,-0.455 -14.009,-3.375 -19.192,-7.947 z"
           id="path3048" />
        <path
           style="fill:#2fb6eb"
           d="M 328.407,367.718 H 184.125 c -17.708,0 -32.063,14.355 -32.063,32.063 v 64.125 c 0,17.708 14.355,32.063 32.063,32.063 h 42.929 c 5.651,4.985 13.068,8.016 21.196,8.016 h 16.031 c 8.128,0 15.544,-3.031 21.196,-8.016 h 42.929 c 17.708,0 32.063,-14.355 32.063,-32.063 v -64.125 c 0.001,-17.708 -14.354,-32.063 -32.062,-32.063 z"
           id="path3050" />
        <path
           style="fill:#2fb6eb"
           d="M 332.415,311.609 H 180.117 c -15.494,0 -28.055,-12.561 -28.055,-28.055 v 0 c 0,-15.494 12.561,-28.055 28.055,-28.055 h 152.297 c 15.494,0 28.055,12.561 28.055,28.055 v 0 c 0.001,15.494 -12.56,28.055 -28.054,28.055 z"
           id="path3052" />
      </g>
      <path
         style="fill:#0097c6"
         d="m 172.102,463.906 v -64.125 c 0,-17.708 14.355,-32.063 32.063,-32.063 h -20.039 c -17.708,0 -32.063,14.355 -32.063,32.063 v 64.125 c 0,17.708 14.355,32.063 32.063,32.063 h 20.039 c -17.709,0 -32.063,-14.355 -32.063,-32.063 z"
         id="path3056" />
      <path
         style="fill:#00a1d3"
         d="m 247.093,495.969 h -20.039 c 5.651,4.985 13.068,8.016 21.196,8.016 h 16.031 c 0.673,0 1.341,-0.028 2.004,-0.069 -7.34,-0.455 -14.009,-3.375 -19.192,-7.947 z"
         id="path3058" />
      <path
         style="fill:#0097c6"
         d="m 172.102,283.554 c 0,-15.494 12.561,-28.055 28.055,-28.055 h -20.039 c -15.494,0 -28.055,12.561 -28.055,28.055 0,15.494 12.561,28.055 28.055,28.055 h 20.039 c -15.495,0 -28.055,-12.561 -28.055,-28.055 z"
         id="path3060" />
      <rect
         x="208.17599"
         y="7.0139999"
         style="fill:#ff6243"
         width="96.188004"
         height="40.077999"
         id="rect3062" />
      <g
         id="g3068">
        <rect
           x="208.17599"
           y="7.0139999"
           style="fill:#d80027"
           width="16.031"
           height="40.077999"
           id="rect3064" />
        <rect
           x="208.17599"
           y="31.061001"
           style="fill:#d80027"
           width="96.188004"
           height="16.031"
           id="rect3066" />
      </g>
      <path
         d="m 367.859,339.663 c 0,-11.391 -5.325,-21.54 -13.68,-28.055 8.354,-6.515 13.774,-16.664 13.774,-28.055 0,-11.993 -6.207,-22.611 -15.328,-29.058 9.183,-7.254 14.858,-18.476 14.858,-31.06 V 148.74 L 295.574,55.108 h 15.8 V 0 H 200.156 v 55.108 h 16.801 l -72.91,93.632 v 74.697 c 0,12.584 6.161,23.805 15.344,31.06 -9.121,6.447 -14.968,17.064 -14.968,29.058 0,11.391 5.451,21.54 13.805,28.055 -8.354,6.515 -13.711,16.664 -13.711,28.055 0,11.993 5.737,22.611 14.858,29.058 -9.183,7.254 -15.328,18.476 -15.328,31.06 v 64.125 c 0,21.823 18.256,40.078 40.078,40.078 h 40.078 v -0.659 c 6.671,5.12 15.007,8.675 24.047,8.675 h 16.031 c 9.04,0 17.376,-3.554 24.047,-8.675 v 0.659 h 40.078 c 21.823,0 39.076,-18.256 39.076,-40.078 v -64.125 c 0,-12.584 -5.66,-23.806 -14.843,-31.06 9.122,-6.448 15.22,-17.066 15.22,-29.06 z M 215.186,40.078 V 15.029 h 81.159 v 25.049 z m 20.733,15.03 h 40.692 l 68.596,89.174 H 167.323 m 165.092,175.342 c 11.326,0 20.54,9.214 20.54,20.54 0,11.326 -9.214,20.54 -20.54,20.54 h -20.039 v 15.029 h 16.031 c 13.536,0 24.047,10.511 24.047,24.047 v 64.125 c 0,13.536 -10.511,25.049 -24.047,25.049 h -28.18 c 2.325,-6.012 3.632,-11.134 3.632,-17.033 H 288.83 c 0,13.536 -11.012,25.049 -24.548,25.049 H 248.25 c -13.535,0 -24.548,-11.512 -24.548,-25.049 h -15.029 c 0,5.9 1.308,11.022 3.632,17.033 h -28.18 c -13.535,0 -25.049,-11.512 -25.049,-25.049 V 399.78 c 0,-13.536 11.513,-24.047 25.049,-24.047 h 80.157 v -15.029 h -84.164 c -11.326,0 -20.54,-9.214 -20.54,-20.54 0,-11.326 9.214,-20.54 20.54,-20.54 h 84.164 v -15.029 h -84.164 c -11.326,0 -20.54,-9.214 -20.54,-20.54 0,-11.326 9.214,-20.54 20.54,-20.54 h 84.164 v -15.029 h -80.157 c -13.535,0 -25.049,-11.512 -25.049,-25.049 v -64.125 h 193.378 v 64.125 c 0,13.536 -10.511,25.049 -24.047,25.049 h -16.031 v 15.029 h 20.039 c 11.326,0 20.54,9.214 20.54,20.54 0,11.326 -9.214,20.54 -20.54,20.54 h -20.039 v 15.029 z"
         id="path3070" />
      <g
         id="g3082">
        <rect
           x="200.16"
           y="111.718"
           style="fill:#ffffff"
           width="16.031"
           height="15.029"
           id="rect3072" />
        <rect
           x="216.192"
           y="95.686996"
           style="fill:#ffffff"
           width="16.031"
           height="15.029"
           id="rect3074" />
        <rect
           x="280.31699"
           y="304.09399"
           style="fill:#ffffff"
           width="16.031"
           height="15.029"
           id="rect3076" />
        <rect
           x="280.31699"
           y="247.98399"
           style="fill:#ffffff"
           width="16.031"
           height="15.029"
           id="rect3078" />
        <rect
           x="280.31699"
           y="360.20401"
           style="fill:#ffffff"
           width="16.031"
           height="15.029"
           id="rect3080" />
      </g>
      <g
         id="g3084" />
      <g
         id="g3086" />
      <g
         id="g3088" />
      <g
         id="g3090" />
      <g
         id="g3092" />
      <g
         id="g3094" />
      <g
         id="g3096" />
      <g
         id="g3098" />
      <g
         id="g3100" />
      <g
         id="g3102" />
      <g
         id="g3104" />
      <g
         id="g3106" />
      <g
         id="g3108" />
      <g
         id="g3110" />
      <g
         id="g3112" />
    </g>
    <g
       transform="matrix(0.55463913,-0.01777687,0.01581449,0.49341288,227.46885,99.032963)"
       id="g3162">
      <g
         id="g3130">
        <path
           style="fill:#dae7ef"
           d="m 39.216,40.149 c -0.212,-2.626 -0.967,-5.153 -1.917,-7.611 -1.163,-3.009 -0.925,-7.264 0.799,-9.495 0.878,-1.136 1.264,-2.591 1.257,-4.027 C 39.306,9.713 34.252,7.493 32.843,7.055 32.545,6.962 32.293,6.77 32.138,6.498 31.82,5.944 31.637,5.197 31.532,4.486 31.436,3.835 30.868,3.374 30.212,3.429 29.824,3.462 29.419,3.48 29,3.48 c -0.419,0 -0.824,-0.018 -1.212,-0.051 -0.656,-0.055 -1.224,0.406 -1.32,1.057 -0.105,0.711 -0.288,1.458 -0.606,2.012 -0.155,0.271 -0.407,0.464 -0.705,0.557 -1.409,0.438 -6.464,2.659 -6.512,11.961 -0.007,1.436 0.378,2.891 1.257,4.027 1.725,2.231 1.962,6.486 0.799,9.495 -0.95,2.457 -1.704,4.985 -1.917,7.611 -0.35,4.324 -0.674,10.335 -0.226,14.37 0,1.922 2.814,3.48 9.862,3.48 7.048,0 11.022,-1.558 11.022,-3.48 0.448,-4.034 0.124,-10.045 -0.226,-14.37 z"
           id="path3116" />
        <path
           style="fill:#3dabef"
           d="m 18.664,18.548 c -0.004,0.159 -0.018,0.305 -0.019,0.468 -0.008,1.436 0.379,2.891 1.257,4.027 1.725,2.231 1.962,6.486 0.799,9.495 -0.95,2.457 -1.704,4.985 -1.917,7.611 -0.012,0.147 -0.023,0.31 -0.035,0.461 2.624,0.709 6.242,1.15 10.251,1.15 4.009,0 7.627,-0.441 10.251,-1.149 -0.012,-0.151 -0.023,-0.314 -0.035,-0.461 -0.212,-2.626 -0.967,-5.154 -1.917,-7.611 -1.163,-3.009 -0.926,-7.264 0.799,-9.495 0.878,-1.136 1.264,-2.591 1.257,-4.027 -10e-4,-0.164 -0.015,-0.309 -0.019,-0.468 -2.63,0.72 -6.284,1.171 -10.336,1.171 -4.052,0 -7.707,-0.451 -10.336,-1.172 z"
           id="path3118" />
        <path
           style="fill:#ffffff"
           d="m 26.742,54.36 c -2.038,0 -3.504,-0.469 -4.363,-1.396 C 21.634,52.16 21.607,51.285 21.62,51 v -1.12 c 0,-0.553 0.447,-1 1,-1 0.553,0 1,0.447 1,1 l -0.007,1.264 v 0 c 0.003,0 0.011,0.244 0.269,0.499 0.306,0.301 1.152,0.801 3.34,0.708 0.563,-0.035 1.018,0.408 1.038,0.96 0.021,0.552 -0.408,1.017 -0.96,1.038 -0.191,0.007 -0.377,0.011 -0.558,0.011 z"
           id="path3120" />
        <path
           style="fill:#ffffff"
           d="m 22.619,47.399 c -0.553,0 -1,-0.447 -1,-1 v -1.17 c 0,-0.553 0.447,-1 1,-1 0.553,0 1,0.447 1,1 v 1.17 c 0,0.553 -0.447,1 -1,1 z"
           id="path3122" />
        <path
           style="fill:#ffffff"
           d="m 23.781,16.08 c -0.059,0 -0.117,-0.005 -0.178,-0.016 -0.543,-0.098 -0.905,-0.617 -0.808,-1.161 0.662,-3.697 3.893,-5.298 4.029,-5.364 0.502,-0.238 1.096,-0.03 1.336,0.465 0.239,0.496 0.033,1.093 -0.462,1.334 -0.049,0.024 -2.458,1.259 -2.935,3.919 -0.086,0.483 -0.507,0.823 -0.982,0.823 z"
           id="path3124" />
        <path
           style="fill:#003879"
           d="m 29,0 c -1.794,0 -3.248,0.485 -3.248,1.083 v 3.248 c 0,0.598 1.454,1.083 3.248,1.083 1.794,0 3.248,-0.485 3.248,-1.083 V 1.083 C 32.248,0.485 30.794,0 29,0 Z"
           id="path3126" />
        <path
           style="fill:#1a69b7"
           d="m 28.848,2.83 h -0.813 c -0.276,0 -0.5,-0.224 -0.5,-0.5 0,-0.276 0.224,-0.5 0.5,-0.5 h 0.813 c 0.276,0 0.5,0.224 0.5,0.5 0,0.276 -0.224,0.5 -0.5,0.5 z"
           id="path3128" />
      </g>
      <g
         id="g3132" />
      <g
         id="g3134" />
      <g
         id="g3136" />
      <g
         id="g3138" />
      <g
         id="g3140" />
      <g
         id="g3142" />
      <g
         id="g3144" />
      <g
         id="g3146" />
      <g
         id="g3148" />
      <g
         id="g3150" />
      <g
         id="g3152" />
      <g
         id="g3154" />
      <g
         id="g3156" />
      <g
         id="g3158" />
      <g
         id="g3160" />
    </g>
    <g
       id="g3540"
       transform="matrix(0.00448767,0,0,0.00376535,157.36465,112.4374)">
      <path
         id="path3467"
         d="m 286.434,221.76 c -0.039,-0.105 -0.084,-0.205 -0.135,-0.304 L 172.172,1.486 C 171.698,0.574 170.757,0 169.728,0 c -1.029,0 -1.97,0.574 -2.444,1.486 L 53.157,221.456 c -0.052,0.099 -0.097,0.2 -0.135,0.304 -12.028,32.205 -10.797,67.164 3.469,98.437 14.265,31.275 39.857,55.12 72.061,67.146 13.19,4.926 27.014,7.642 41.092,8.07 0.028,10e-4 0.056,10e-4 0.084,10e-4 0.028,0 0.056,0 0.084,-10e-4 14.077,-0.43 27.902,-3.145 41.09,-8.07 32.203,-12.026 57.796,-35.872 72.062,-67.146 14.265,-31.273 15.498,-66.232 3.47,-98.437 z"
         style="fill:#68ccea" />
      <g
         id="g3473">
        <path
           id="path3469"
           d="m 178.528,373.344 c -27.357,-26.958 -42.578,-62.959 -42.861,-101.371 -0.001,-0.123 0.006,-0.248 0.021,-0.371 L 166.361,3.266 53.157,221.456 c -0.052,0.099 -0.097,0.2 -0.135,0.304 -12.028,32.205 -10.797,67.164 3.469,98.437 14.265,31.275 39.857,55.12 72.061,67.146 13.19,4.926 27.014,7.642 41.092,8.07 0.028,10e-4 0.056,10e-4 0.084,10e-4 0.028,0 0.056,0 0.084,-10e-4 10.263,-0.313 20.389,-1.856 30.235,-4.57 -7.635,-5.078 -14.841,-10.921 -21.519,-17.499 z"
           style="fill:#5abce2" />
        <path
           id="path3471"
           d="m 463.084,280.78 c -0.039,-0.104 -0.084,-0.205 -0.135,-0.304 L 406.676,172.015 c -0.474,-0.912 -1.415,-1.486 -2.444,-1.486 -1.029,0 -1.97,0.573 -2.444,1.486 l -56.273,108.461 c -0.052,0.099 -0.097,0.2 -0.135,0.304 -6.061,16.228 -5.44,33.844 1.749,49.602 7.187,15.759 20.083,27.775 36.313,33.836 6.646,2.481 13.613,3.849 20.706,4.066 0.028,0.001 0.056,0.001 0.084,0.001 0.028,0 0.056,0 0.084,-0.001 7.091,-0.217 14.058,-1.585 20.705,-4.066 33.495,-12.509 50.571,-49.94 38.063,-83.438 z"
           style="fill:#5abce2" />
      </g>
      <path
         id="path3475"
         d="m 463.084,280.78 c -0.039,-0.104 -0.084,-0.205 -0.135,-0.304 L 406.676,172.015 c -0.474,-0.912 -1.415,-1.486 -2.444,-1.486 -0.005,0 -0.011,0.002 -0.017,0.002 l -22.152,128.821 c -0.021,0.121 -0.034,0.243 -0.039,0.365 -0.938,19.068 5.604,37.356 18.422,51.499 5.492,6.06 11.86,11.038 18.84,14.836 1.934,-0.524 3.848,-1.128 5.735,-1.833 33.495,-12.51 50.571,-49.941 38.063,-83.439 z"
         style="fill:#68ccea" />
      <path
         id="path3477"
         d="m 350.91,452.145 -37.495,-72.271 c -0.474,-0.912 -1.415,-1.486 -2.444,-1.486 -1.029,0 -1.97,0.574 -2.444,1.486 l -37.5,72.271 c -0.052,0.099 -0.097,0.202 -0.135,0.305 -8.511,22.796 3.108,48.268 25.904,56.783 4.523,1.686 9.264,2.618 14.09,2.767 0.029,10e-4 0.057,10e-4 0.085,10e-4 0.028,0 0.056,0 0.085,-10e-4 4.822,-0.149 9.562,-1.079 14.089,-2.768 22.795,-8.513 34.414,-33.986 25.901,-56.783 -0.039,-0.105 -0.085,-0.206 -0.136,-0.304 z"
         style="fill:#5abce2" />
      <path
         id="path3479"
         d="m 351.045,452.449 c -0.039,-0.105 -0.084,-0.206 -0.135,-0.304 l -37.495,-72.271 c -0.474,-0.912 -1.415,-1.486 -2.444,-1.486 -0.293,0 -0.574,0.057 -0.844,0.145 l -15.394,90.566 c -0.022,0.122 -0.034,0.249 -0.041,0.374 -0.806,17.134 7.18,32.682 19.971,42.268 3.576,-0.403 7.09,-1.243 10.482,-2.508 22.795,-8.515 34.414,-33.988 25.9,-56.784 z"
         style="fill:#68ccea" />
      <g
         id="g3481" />
      <g
         id="g3483" />
      <g
         id="g3485" />
      <g
         id="g3487" />
      <g
         id="g3489" />
      <g
         id="g3491" />
      <g
         id="g3493" />
      <g
         id="g3495" />
      <g
         id="g3497" />
      <g
         id="g3499" />
      <g
         id="g3501" />
      <g
         id="g3503" />
      <g
         id="g3505" />
      <g
         id="g3507" />
      <g
         id="g3509" />
    </g>
    <g
       transform="matrix(0.00448767,0,0,0.00376535,158.72064,114.58714)"
       id="g3586">
      <path
         style="fill:#68ccea"
         d="m 286.434,221.76 c -0.039,-0.105 -0.084,-0.205 -0.135,-0.304 L 172.172,1.486 C 171.698,0.574 170.757,0 169.728,0 c -1.029,0 -1.97,0.574 -2.444,1.486 L 53.157,221.456 c -0.052,0.099 -0.097,0.2 -0.135,0.304 -12.028,32.205 -10.797,67.164 3.469,98.437 14.265,31.275 39.857,55.12 72.061,67.146 13.19,4.926 27.014,7.642 41.092,8.07 0.028,10e-4 0.056,10e-4 0.084,10e-4 0.028,0 0.056,0 0.084,-10e-4 14.077,-0.43 27.902,-3.145 41.09,-8.07 32.203,-12.026 57.796,-35.872 72.062,-67.146 14.265,-31.273 15.498,-66.232 3.47,-98.437 z"
         id="path3542" />
      <g
         id="g3548">
        <path
           style="fill:#5abce2"
           d="m 178.528,373.344 c -27.357,-26.958 -42.578,-62.959 -42.861,-101.371 -0.001,-0.123 0.006,-0.248 0.021,-0.371 L 166.361,3.266 53.157,221.456 c -0.052,0.099 -0.097,0.2 -0.135,0.304 -12.028,32.205 -10.797,67.164 3.469,98.437 14.265,31.275 39.857,55.12 72.061,67.146 13.19,4.926 27.014,7.642 41.092,8.07 0.028,10e-4 0.056,10e-4 0.084,10e-4 0.028,0 0.056,0 0.084,-10e-4 10.263,-0.313 20.389,-1.856 30.235,-4.57 -7.635,-5.078 -14.841,-10.921 -21.519,-17.499 z"
           id="path3544" />
        <path
           style="fill:#5abce2"
           d="m 463.084,280.78 c -0.039,-0.104 -0.084,-0.205 -0.135,-0.304 L 406.676,172.015 c -0.474,-0.912 -1.415,-1.486 -2.444,-1.486 -1.029,0 -1.97,0.573 -2.444,1.486 l -56.273,108.461 c -0.052,0.099 -0.097,0.2 -0.135,0.304 -6.061,16.228 -5.44,33.844 1.749,49.602 7.187,15.759 20.083,27.775 36.313,33.836 6.646,2.481 13.613,3.849 20.706,4.066 0.028,0.001 0.056,0.001 0.084,0.001 0.028,0 0.056,0 0.084,-0.001 7.091,-0.217 14.058,-1.585 20.705,-4.066 33.495,-12.509 50.571,-49.94 38.063,-83.438 z"
           id="path3546" />
      </g>
      <path
         style="fill:#68ccea"
         d="m 463.084,280.78 c -0.039,-0.104 -0.084,-0.205 -0.135,-0.304 L 406.676,172.015 c -0.474,-0.912 -1.415,-1.486 -2.444,-1.486 -0.005,0 -0.011,0.002 -0.017,0.002 l -22.152,128.821 c -0.021,0.121 -0.034,0.243 -0.039,0.365 -0.938,19.068 5.604,37.356 18.422,51.499 5.492,6.06 11.86,11.038 18.84,14.836 1.934,-0.524 3.848,-1.128 5.735,-1.833 33.495,-12.51 50.571,-49.941 38.063,-83.439 z"
         id="path3550" />
      <path
         style="fill:#5abce2"
         d="m 350.91,452.145 -37.495,-72.271 c -0.474,-0.912 -1.415,-1.486 -2.444,-1.486 -1.029,0 -1.97,0.574 -2.444,1.486 l -37.5,72.271 c -0.052,0.099 -0.097,0.202 -0.135,0.305 -8.511,22.796 3.108,48.268 25.904,56.783 4.523,1.686 9.264,2.618 14.09,2.767 0.029,10e-4 0.057,10e-4 0.085,10e-4 0.028,0 0.056,0 0.085,-10e-4 4.822,-0.149 9.562,-1.079 14.089,-2.768 22.795,-8.513 34.414,-33.986 25.901,-56.783 -0.039,-0.105 -0.085,-0.206 -0.136,-0.304 z"
         id="path3552" />
      <path
         style="fill:#68ccea"
         d="m 351.045,452.449 c -0.039,-0.105 -0.084,-0.206 -0.135,-0.304 l -37.495,-72.271 c -0.474,-0.912 -1.415,-1.486 -2.444,-1.486 -0.293,0 -0.574,0.057 -0.844,0.145 l -15.394,90.566 c -0.022,0.122 -0.034,0.249 -0.041,0.374 -0.806,17.134 7.18,32.682 19.971,42.268 3.576,-0.403 7.09,-1.243 10.482,-2.508 22.795,-8.515 34.414,-33.988 25.9,-56.784 z"
         id="path3554" />
      <g
         id="g3556" />
      <g
         id="g3558" />
      <g
         id="g3560" />
      <g
         id="g3562" />
      <g
         id="g3564" />
      <g
         id="g3566" />
      <g
         id="g3568" />
      <g
         id="g3570" />
      <g
         id="g3572" />
      <g
         id="g3574" />
      <g
         id="g3576" />
      <g
         id="g3578" />
      <g
         id="g3580" />
      <g
         id="g3582" />
      <g
         id="g3584" />
    </g>
    <g
       id="g3632"
       transform="matrix(0.00448767,0,0,0.00376535,157.4308,116.40615)">
      <path
         id="path3588"
         d="m 286.434,221.76 c -0.039,-0.105 -0.084,-0.205 -0.135,-0.304 L 172.172,1.486 C 171.698,0.574 170.757,0 169.728,0 c -1.029,0 -1.97,0.574 -2.444,1.486 L 53.157,221.456 c -0.052,0.099 -0.097,0.2 -0.135,0.304 -12.028,32.205 -10.797,67.164 3.469,98.437 14.265,31.275 39.857,55.12 72.061,67.146 13.19,4.926 27.014,7.642 41.092,8.07 0.028,10e-4 0.056,10e-4 0.084,10e-4 0.028,0 0.056,0 0.084,-10e-4 14.077,-0.43 27.902,-3.145 41.09,-8.07 32.203,-12.026 57.796,-35.872 72.062,-67.146 14.265,-31.273 15.498,-66.232 3.47,-98.437 z"
         style="fill:#68ccea" />
      <g
         id="g3594">
        <path
           id="path3590"
           d="m 178.528,373.344 c -27.357,-26.958 -42.578,-62.959 -42.861,-101.371 -0.001,-0.123 0.006,-0.248 0.021,-0.371 L 166.361,3.266 53.157,221.456 c -0.052,0.099 -0.097,0.2 -0.135,0.304 -12.028,32.205 -10.797,67.164 3.469,98.437 14.265,31.275 39.857,55.12 72.061,67.146 13.19,4.926 27.014,7.642 41.092,8.07 0.028,10e-4 0.056,10e-4 0.084,10e-4 0.028,0 0.056,0 0.084,-10e-4 10.263,-0.313 20.389,-1.856 30.235,-4.57 -7.635,-5.078 -14.841,-10.921 -21.519,-17.499 z"
           style="fill:#5abce2" />
        <path
           id="path3592"
           d="m 463.084,280.78 c -0.039,-0.104 -0.084,-0.205 -0.135,-0.304 L 406.676,172.015 c -0.474,-0.912 -1.415,-1.486 -2.444,-1.486 -1.029,0 -1.97,0.573 -2.444,1.486 l -56.273,108.461 c -0.052,0.099 -0.097,0.2 -0.135,0.304 -6.061,16.228 -5.44,33.844 1.749,49.602 7.187,15.759 20.083,27.775 36.313,33.836 6.646,2.481 13.613,3.849 20.706,4.066 0.028,0.001 0.056,0.001 0.084,0.001 0.028,0 0.056,0 0.084,-0.001 7.091,-0.217 14.058,-1.585 20.705,-4.066 33.495,-12.509 50.571,-49.94 38.063,-83.438 z"
           style="fill:#5abce2" />
      </g>
      <path
         id="path3596"
         d="m 463.084,280.78 c -0.039,-0.104 -0.084,-0.205 -0.135,-0.304 L 406.676,172.015 c -0.474,-0.912 -1.415,-1.486 -2.444,-1.486 -0.005,0 -0.011,0.002 -0.017,0.002 l -22.152,128.821 c -0.021,0.121 -0.034,0.243 -0.039,0.365 -0.938,19.068 5.604,37.356 18.422,51.499 5.492,6.06 11.86,11.038 18.84,14.836 1.934,-0.524 3.848,-1.128 5.735,-1.833 33.495,-12.51 50.571,-49.941 38.063,-83.439 z"
         style="fill:#68ccea" />
      <path
         id="path3598"
         d="m 350.91,452.145 -37.495,-72.271 c -0.474,-0.912 -1.415,-1.486 -2.444,-1.486 -1.029,0 -1.97,0.574 -2.444,1.486 l -37.5,72.271 c -0.052,0.099 -0.097,0.202 -0.135,0.305 -8.511,22.796 3.108,48.268 25.904,56.783 4.523,1.686 9.264,2.618 14.09,2.767 0.029,10e-4 0.057,10e-4 0.085,10e-4 0.028,0 0.056,0 0.085,-10e-4 4.822,-0.149 9.562,-1.079 14.089,-2.768 22.795,-8.513 34.414,-33.986 25.901,-56.783 -0.039,-0.105 -0.085,-0.206 -0.136,-0.304 z"
         style="fill:#5abce2" />
      <path
         id="path3600"
         d="m 351.045,452.449 c -0.039,-0.105 -0.084,-0.206 -0.135,-0.304 l -37.495,-72.271 c -0.474,-0.912 -1.415,-1.486 -2.444,-1.486 -0.293,0 -0.574,0.057 -0.844,0.145 l -15.394,90.566 c -0.022,0.122 -0.034,0.249 -0.041,0.374 -0.806,17.134 7.18,32.682 19.971,42.268 3.576,-0.403 7.09,-1.243 10.482,-2.508 22.795,-8.515 34.414,-33.988 25.9,-56.784 z"
         style="fill:#68ccea" />
      <g
         id="g3602" />
      <g
         id="g3604" />
      <g
         id="g3606" />
      <g
         id="g3608" />
      <g
         id="g3610" />
      <g
         id="g3612" />
      <g
         id="g3614" />
      <g
         id="g3616" />
      <g
         id="g3618" />
      <g
         id="g3620" />
      <g
         id="g3622" />
      <g
         id="g3624" />
      <g
         id="g3626" />
      <g
         id="g3628" />
      <g
         id="g3630" />
    </g>
    <g
       transform="matrix(0.02353465,0,0,0.02057406,41.883016,146.21032)"
       id="g3678">
      <path
         style="fill:#68ccea"
         d="m 286.434,221.76 c -0.039,-0.105 -0.084,-0.205 -0.135,-0.304 L 172.172,1.486 C 171.698,0.574 170.757,0 169.728,0 c -1.029,0 -1.97,0.574 -2.444,1.486 L 53.157,221.456 c -0.052,0.099 -0.097,0.2 -0.135,0.304 -12.028,32.205 -10.797,67.164 3.469,98.437 14.265,31.275 39.857,55.12 72.061,67.146 13.19,4.926 27.014,7.642 41.092,8.07 0.028,10e-4 0.056,10e-4 0.084,10e-4 0.028,0 0.056,0 0.084,-10e-4 14.077,-0.43 27.902,-3.145 41.09,-8.07 32.203,-12.026 57.796,-35.872 72.062,-67.146 14.265,-31.273 15.498,-66.232 3.47,-98.437 z"
         id="path3634" />
      <g
         id="g3640">
        <path
           style="fill:#5abce2"
           d="m 178.528,373.344 c -27.357,-26.958 -42.578,-62.959 -42.861,-101.371 -0.001,-0.123 0.006,-0.248 0.021,-0.371 L 166.361,3.266 53.157,221.456 c -0.052,0.099 -0.097,0.2 -0.135,0.304 -12.028,32.205 -10.797,67.164 3.469,98.437 14.265,31.275 39.857,55.12 72.061,67.146 13.19,4.926 27.014,7.642 41.092,8.07 0.028,10e-4 0.056,10e-4 0.084,10e-4 0.028,0 0.056,0 0.084,-10e-4 10.263,-0.313 20.389,-1.856 30.235,-4.57 -7.635,-5.078 -14.841,-10.921 -21.519,-17.499 z"
           id="path3636" />
        <path
           style="fill:#5abce2"
           d="m 463.084,280.78 c -0.039,-0.104 -0.084,-0.205 -0.135,-0.304 L 406.676,172.015 c -0.474,-0.912 -1.415,-1.486 -2.444,-1.486 -1.029,0 -1.97,0.573 -2.444,1.486 l -56.273,108.461 c -0.052,0.099 -0.097,0.2 -0.135,0.304 -6.061,16.228 -5.44,33.844 1.749,49.602 7.187,15.759 20.083,27.775 36.313,33.836 6.646,2.481 13.613,3.849 20.706,4.066 0.028,0.001 0.056,0.001 0.084,0.001 0.028,0 0.056,0 0.084,-0.001 7.091,-0.217 14.058,-1.585 20.705,-4.066 33.495,-12.509 50.571,-49.94 38.063,-83.438 z"
           id="path3638" />
      </g>
      <path
         style="fill:#68ccea"
         d="m 463.084,280.78 c -0.039,-0.104 -0.084,-0.205 -0.135,-0.304 L 406.676,172.015 c -0.474,-0.912 -1.415,-1.486 -2.444,-1.486 -0.005,0 -0.011,0.002 -0.017,0.002 l -22.152,128.821 c -0.021,0.121 -0.034,0.243 -0.039,0.365 -0.938,19.068 5.604,37.356 18.422,51.499 5.492,6.06 11.86,11.038 18.84,14.836 1.934,-0.524 3.848,-1.128 5.735,-1.833 33.495,-12.51 50.571,-49.941 38.063,-83.439 z"
         id="path3642" />
      <path
         style="fill:#5abce2"
         d="m 350.91,452.145 -37.495,-72.271 c -0.474,-0.912 -1.415,-1.486 -2.444,-1.486 -1.029,0 -1.97,0.574 -2.444,1.486 l -37.5,72.271 c -0.052,0.099 -0.097,0.202 -0.135,0.305 -8.511,22.796 3.108,48.268 25.904,56.783 4.523,1.686 9.264,2.618 14.09,2.767 0.029,10e-4 0.057,10e-4 0.085,10e-4 0.028,0 0.056,0 0.085,-10e-4 4.822,-0.149 9.562,-1.079 14.089,-2.768 22.795,-8.513 34.414,-33.986 25.901,-56.783 -0.039,-0.105 -0.085,-0.206 -0.136,-0.304 z"
         id="path3644" />
      <path
         style="fill:#68ccea"
         d="m 351.045,452.449 c -0.039,-0.105 -0.084,-0.206 -0.135,-0.304 l -37.495,-72.271 c -0.474,-0.912 -1.415,-1.486 -2.444,-1.486 -0.293,0 -0.574,0.057 -0.844,0.145 l -15.394,90.566 c -0.022,0.122 -0.034,0.249 -0.041,0.374 -0.806,17.134 7.18,32.682 19.971,42.268 3.576,-0.403 7.09,-1.243 10.482,-2.508 22.795,-8.515 34.414,-33.988 25.9,-56.784 z"
         id="path3646" />
      <g
         id="g3648" />
      <g
         id="g3650" />
      <g
         id="g3652" />
      <g
         id="g3654" />
      <g
         id="g3656" />
      <g
         id="g3658" />
      <g
         id="g3660" />
      <g
         id="g3662" />
      <g
         id="g3664" />
      <g
         id="g3666" />
      <g
         id="g3668" />
      <g
         id="g3670" />
      <g
         id="g3672" />
      <g
         id="g3674" />
      <g
         id="g3676" />
    </g>
    <g
       id="g3724"
       transform="matrix(0.01976442,-0.01277683,0.01116955,0.01727811,122.86907,142.28015)">
      <path
         id="path3680"
         d="m 286.434,221.76 c -0.039,-0.105 -0.084,-0.205 -0.135,-0.304 L 172.172,1.486 C 171.698,0.574 170.757,0 169.728,0 c -1.029,0 -1.97,0.574 -2.444,1.486 L 53.157,221.456 c -0.052,0.099 -0.097,0.2 -0.135,0.304 -12.028,32.205 -10.797,67.164 3.469,98.437 14.265,31.275 39.857,55.12 72.061,67.146 13.19,4.926 27.014,7.642 41.092,8.07 0.028,10e-4 0.056,10e-4 0.084,10e-4 0.028,0 0.056,0 0.084,-10e-4 14.077,-0.43 27.902,-3.145 41.09,-8.07 32.203,-12.026 57.796,-35.872 72.062,-67.146 14.265,-31.273 15.498,-66.232 3.47,-98.437 z"
         style="fill:#68ccea" />
      <g
         id="g3686">
        <path
           id="path3682"
           d="m 178.528,373.344 c -27.357,-26.958 -42.578,-62.959 -42.861,-101.371 -0.001,-0.123 0.006,-0.248 0.021,-0.371 L 166.361,3.266 53.157,221.456 c -0.052,0.099 -0.097,0.2 -0.135,0.304 -12.028,32.205 -10.797,67.164 3.469,98.437 14.265,31.275 39.857,55.12 72.061,67.146 13.19,4.926 27.014,7.642 41.092,8.07 0.028,10e-4 0.056,10e-4 0.084,10e-4 0.028,0 0.056,0 0.084,-10e-4 10.263,-0.313 20.389,-1.856 30.235,-4.57 -7.635,-5.078 -14.841,-10.921 -21.519,-17.499 z"
           style="fill:#5abce2" />
        <path
           id="path3684"
           d="m 463.084,280.78 c -0.039,-0.104 -0.084,-0.205 -0.135,-0.304 L 406.676,172.015 c -0.474,-0.912 -1.415,-1.486 -2.444,-1.486 -1.029,0 -1.97,0.573 -2.444,1.486 l -56.273,108.461 c -0.052,0.099 -0.097,0.2 -0.135,0.304 -6.061,16.228 -5.44,33.844 1.749,49.602 7.187,15.759 20.083,27.775 36.313,33.836 6.646,2.481 13.613,3.849 20.706,4.066 0.028,0.001 0.056,0.001 0.084,0.001 0.028,0 0.056,0 0.084,-0.001 7.091,-0.217 14.058,-1.585 20.705,-4.066 33.495,-12.509 50.571,-49.94 38.063,-83.438 z"
           style="fill:#5abce2" />
      </g>
      <path
         id="path3688"
         d="m 463.084,280.78 c -0.039,-0.104 -0.084,-0.205 -0.135,-0.304 L 406.676,172.015 c -0.474,-0.912 -1.415,-1.486 -2.444,-1.486 -0.005,0 -0.011,0.002 -0.017,0.002 l -22.152,128.821 c -0.021,0.121 -0.034,0.243 -0.039,0.365 -0.938,19.068 5.604,37.356 18.422,51.499 5.492,6.06 11.86,11.038 18.84,14.836 1.934,-0.524 3.848,-1.128 5.735,-1.833 33.495,-12.51 50.571,-49.941 38.063,-83.439 z"
         style="fill:#68ccea" />
      <path
         id="path3690"
         d="m 350.91,452.145 -37.495,-72.271 c -0.474,-0.912 -1.415,-1.486 -2.444,-1.486 -1.029,0 -1.97,0.574 -2.444,1.486 l -37.5,72.271 c -0.052,0.099 -0.097,0.202 -0.135,0.305 -8.511,22.796 3.108,48.268 25.904,56.783 4.523,1.686 9.264,2.618 14.09,2.767 0.029,10e-4 0.057,10e-4 0.085,10e-4 0.028,0 0.056,0 0.085,-10e-4 4.822,-0.149 9.562,-1.079 14.089,-2.768 22.795,-8.513 34.414,-33.986 25.901,-56.783 -0.039,-0.105 -0.085,-0.206 -0.136,-0.304 z"
         style="fill:#5abce2" />
      <path
         id="path3692"
         d="m 351.045,452.449 c -0.039,-0.105 -0.084,-0.206 -0.135,-0.304 l -37.495,-72.271 c -0.474,-0.912 -1.415,-1.486 -2.444,-1.486 -0.293,0 -0.574,0.057 -0.844,0.145 l -15.394,90.566 c -0.022,0.122 -0.034,0.249 -0.041,0.374 -0.806,17.134 7.18,32.682 19.971,42.268 3.576,-0.403 7.09,-1.243 10.482,-2.508 22.795,-8.515 34.414,-33.988 25.9,-56.784 z"
         style="fill:#68ccea" />
      <g
         id="g3694" />
      <g
         id="g3696" />
      <g
         id="g3698" />
      <g
         id="g3700" />
      <g
         id="g3702" />
      <g
         id="g3704" />
      <g
         id="g3706" />
      <g
         id="g3708" />
      <g
         id="g3710" />
      <g
         id="g3712" />
      <g
         id="g3714" />
      <g
         id="g3716" />
      <g
         id="g3718" />
      <g
         id="g3720" />
      <g
         id="g3722" />
    </g>
  </g>
  <text
     id="text5338"
     y="24.961264"
     x="79.166924"
     style="font-style:normal;font-variant:normal;font-weight:bold;font-stretch:normal;font-size:12.70000076px;line-height:1.25;font-family:Arial;-inkscape-font-specification:'Arial, Bold';font-variant-ligatures:normal;font-variant-caps:normal;font-variant-numeric:normal;font-feature-settings:normal;text-align:start;letter-spacing:0.61647916px;word-spacing:0px;writing-mode:lr-tb;text-anchor:start;fill:#e47ab9;fill-opacity:1;stroke:none;stroke-width:0.26458335"
     xml:space="preserve"><tspan
       style="text-align:start;text-anchor:start;fill:#e47ab9;fill-opacity:1;stroke-width:0.26458335"
       id="tspan5318"
       y="24.961264"
       x="194.17758"><tspan
         style="text-align:start;text-anchor:start;fill:#e47ab9;fill-opacity:1;stroke-width:0.26458335"
         id="tspan5316"
         y="24.961264"
         x="194.17758"
         dx="0 0 0 0 -0.61647916 0.61648017"> </tspan></tspan><tspan
       style="text-align:start;text-anchor:start;fill:#e47ab9;fill-opacity:1;stroke-width:0.26458335"
       id="tspan5322"
       y="40.836269"
       x="167.40637"><tspan
         style="text-align:start;text-anchor:start;fill:#e47ab9;fill-opacity:1;stroke-width:0.26458335"
         id="tspan5320"
         y="40.836269"
         x="167.40637"
         dx="0 0 0 0 0 0 0 -0.61647916 0 0.61648017"> </tspan></tspan><tspan
       style="text-align:start;text-anchor:start;fill:#e47ab9;fill-opacity:1;stroke-width:0.26458335"
       id="tspan5326"
       y="56.711269"
       x="137.8483"><tspan
         style="text-align:start;text-anchor:start;fill:#e47ab9;fill-opacity:1;stroke-width:0.26458335"
         id="tspan5324"
         y="56.711269"
         x="137.8483"
         dx="0 0 0 0 -0.61647916 0 0.61648017 0 0 0 0 0 0 -0.61647916 0 0.61648017 0 -0.61647916 0 0.61647213 0 -0.61647916 0.61648822">  </tspan></tspan><tspan
       style="text-align:start;text-anchor:start;fill:#e47ab9;fill-opacity:1;stroke-width:0.26458335"
       id="tspan5332"
       y="88.461266"
       x="259.69519"><tspan
         style="text-align:start;text-anchor:start;fill:#e47ab9;fill-opacity:1;stroke-width:0.26458335"
         id="tspan5328"
         y="72.586266"
         x="183.51703"
         dx="0 0 0 -0.61647916 0 0.61648017 0 -0.61647916 0.61647612"> </tspan><tspan
         style="text-align:start;text-anchor:start;fill:#e47ab9;fill-opacity:1;stroke-width:0.26458335"
         id="tspan5330"
         y="72.586266"
         x="259.69519">6 </tspan></tspan><tspan
       style="text-align:start;text-anchor:start;fill:#e47ab9;fill-opacity:1;stroke-width:0.26458335"
       id="tspan5336"
       y="1.5289692"
       x="169.81244"><tspan
         style="text-align:start;text-anchor:start;fill:#e47ab9;fill-opacity:1;stroke-width:0.26458335"
         id="tspan5334"
         y="88.461266"
         x="169.81244"
         dx="0 0 0 0 0 0 0 -0.61647916 0.61648017"></tspan></tspan></text>
</svg>
