<?xml version="1.0" encoding="UTF-8" standalone="no"?>
<svg
   xmlns:dc="http://purl.org/dc/elements/1.1/"
   xmlns:cc="http://creativecommons.org/ns#"
   xmlns:rdf="http://www.w3.org/1999/02/22-rdf-syntax-ns#"
   xmlns:svg="http://www.w3.org/2000/svg"
   xmlns="http://www.w3.org/2000/svg"
   xmlns:xlink="http://www.w3.org/1999/xlink"
   width="1280"
   height="720"
   viewBox="0 0 338.66666 190.50001"
   version="1.1"
   id="svg956">
  <defs
     id="defs950">
    <linearGradient
       id="linearGradient2692">
      <stop
         style="stop-color:#65a4d9;stop-opacity:1;"
         offset="0"
         id="stop2688" />
      <stop
         style="stop-color:#65a4d9;stop-opacity:0;"
         offset="1"
         id="stop2690" />
    </linearGradient>
    <linearGradient
       xlink:href="#linearGradient2692"
       id="linearGradient2704"
       gradientUnits="userSpaceOnUse"
       x1="781.53845"
       y1="149.23077"
       x2="1096.9231"
       y2="393.84613" />
  </defs>
  <metadata
     id="metadata953">
    <rdf:RDF>
      <cc:Work
         rdf:about="">
        <dc:format>image/svg+xml</dc:format>
        <dc:type
           rdf:resource="http://purl.org/dc/dcmitype/StillImage" />
        <dc:title></dc:title>
      </cc:Work>
    </rdf:RDF>
  </metadata>
  <g
     id="layer1"
     style="display:inline;fill:#db933e;fill-opacity:1"
     transform="translate(-0.76448416,-106.49998)">
    <rect
       style="opacity:1;fill:#db933e;fill-opacity:1;stroke:none;stroke-width:0.06496903;stroke-linecap:round;stroke-linejoin:round;stroke-miterlimit:4;stroke-dasharray:none;stroke-opacity:1;paint-order:stroke markers fill"
       id="rect1501"
       width="338.66473"
       height="190.47913"
       x="0.0010536164"
       y="106.52"
       rx="0"
       ry="17.279589" />
    <rect
       style="opacity:1;fill:#db933e;fill-opacity:1;stroke:none;stroke-width:0.065;stroke-linecap:round;stroke-linejoin:round;stroke-miterlimit:4;stroke-dasharray:none;stroke-opacity:1;paint-order:stroke markers fill"
       id="rect2622"
       width="70.870537"
       height="8.1264877"
       x="33.072918"
       y="234.06694" />
  </g>
  <g
     id="g1784"
     transform="matrix(2.2897655,0,0,2.3498072,20.747412,18.203086)">
    <path
       id="path1720"
       d="M 57,47.42 V 59 c 0,0.83 -0.34,1.58 -0.88,2.12 C 55.58,61.66 54.83,62 54,62 52.34,62 51,60.66 51,59 V 48 c 2.23,0 4.46,-0.31 6,-0.58 z"
       style="fill:#f0d0b4" />
    <path
       id="path1722"
       d="m 51,48 v 11 c 0,1.66 -1.34,3 -3,3 -0.83,0 -1.58,-0.34 -2.12,-0.88 C 45.34,60.58 45,59.83 45,59 V 47.41 c 1.53,0.28 3.77,0.59 6,0.59 z"
       style="fill:#f0d0b4" />
    <path
       id="path1724"
       d="M 58.25,37.99 59,47 c 0,0 -0.78,0.2 -2,0.42 C 55.46,47.69 53.23,48 51,48 48.77,48 46.53,47.69 45,47.41 V 47.2 c 0.64,-1.61 1,-3.36 1,-5.2 0,-2.63 -0.73,-5.08 -1.99,-7.19 L 44.08,34 h 13.84 z"
       style="fill:#838f9b" />
    <path
       id="path1726"
       d="M 56.98,17.77 C 60,19.72 62,23.13 62,27 v 7 c 0,2.13 -1.66,3.86 -3.75,3.99 L 57.92,34 H 44.08 l -0.07,0.81 C 42.99,33.11 41.62,31.64 40,30.51 V 27 c 0,-3.04 1.23,-5.79 3.22,-7.78 0.55,-0.55 1.15,-1.03 1.8,-1.45 L 45.17,18 c 0.41,1.17 1.52,2 2.83,2 1.66,0 3,-1.34 3,-3 0,1.66 1.34,3 3,3 1.31,0 2.42,-0.83 2.83,-2 z"
       style="fill:#ff826e" />
    <path
       id="path1728"
       d="m 13,34 v 25 c 0,1.66 -1.34,3 -3,3 C 9.17,62 8.42,61.66 7.88,61.12 7.34,60.58 7,59.83 7,59 V 38 34 Z"
       style="fill:#cf9e76" />
    <path
       id="path1730"
       d="m 19,36.79 h 0.01 C 18.36,38.4 18,40.16 18,42 c 0,1.84 0.36,3.59 1,5.2 V 59 c 0,0.83 -0.34,1.58 -0.88,2.12 C 17.58,61.66 16.83,62 16,62 14.34,62 13,60.66 13,59 V 34 h 6 z"
       style="fill:#cf9e76" />
    <path
       id="path1732"
       d="m 24,30.51 c -2.22,1.55 -3.97,3.73 -4.99,6.28 H 19 V 34 H 13 7 v 4 H 6 C 3.79,38 2,36.21 2,34 V 27 C 2,21.37 6.21,16.74 11.66,16.09 L 11,26 l 2,2 2,-2 -0.66,-9.91 c 2.5,0.29 4.75,1.44 6.44,3.13 C 22.77,21.21 24,23.96 24,27 Z"
       style="fill:#4fc1e9" />
    <path
       id="path1734"
       d="M 14.34,16.09 15,26 13,28 11,26 11.66,16.09 C 12.1,16.03 12.55,16 13,16 c 0.45,0 0.9,0.03 1.34,0.09 z"
       style="fill:#e6e9ed" />
    <path
       id="path1736"
       d="m 40,30.51 c 1.62,1.13 2.99,2.6 4.01,4.3 1.26,2.11 1.99,4.56 1.99,7.19 0,1.84 -0.36,3.59 -1,5.2 -0.03,0.07 -0.06,0.14 -0.08,0.2 C 42.8,52.45 37.81,56 32,56 26.11,56 21.07,52.36 19,47.2 18.36,45.59 18,43.84 18,42 c 0,-1.84 0.36,-3.6 1.01,-5.21 1.02,-2.55 2.77,-4.73 4.99,-6.28 2.27,-1.58 5.03,-2.51 8,-2.51 2.97,0 5.73,0.93 8,2.51 z"
       style="fill:#e6e9ed" />
    <g
       id="g1744"
       style="fill:#fcd770" />
    <path
       id="path1746"
       d="M 56.98,17.77 56.83,18 c -0.41,1.17 -1.52,2 -2.83,2 -1.66,0 -3,-1.34 -3,-3 0,-0.35 0.06,-0.69 0.17,-1 2.14,0.03 4.13,0.68 5.81,1.77 z"
       style="fill:#e6e9ed" />
    <path
       id="path1748"
       d="m 50.83,16 c 0.11,0.31 0.17,0.65 0.17,1 0,1.66 -1.34,3 -3,3 -1.31,0 -2.42,-0.83 -2.83,-2 L 45.02,17.77 C 46.7,16.68 48.69,16.03 50.83,16 Z"
       style="fill:#e6e9ed" />
    <circle
       id="circle1750"
       r="7"
       cy="9"
       cx="13"
       style="fill:#f0d0b4" />
    <circle
       id="circle1752"
       r="7"
       cy="9"
       cx="51"
       style="fill:#f0d0b4" />
    <path
       id="path1754"
       d="M 55.223,15.782 C 57.486,14.367 59,11.86 59,9 59,4.589 55.411,1 51,1 c -4.411,0 -8,3.589 -8,8 0,2.86 1.514,5.367 3.777,6.782 C 42.241,17.496 39,21.871 39,27 v 1.744 C 36.908,27.635 34.528,27 32,27 c -2.528,0 -4.908,0.635 -7,1.744 V 27 C 25,21.871 21.759,17.496 17.223,15.782 19.486,14.367 21,11.86 21,9 21,4.589 17.411,1 13,1 8.589,1 5,4.589 5,9 5,11.86 6.514,14.367 8.777,15.782 4.241,17.496 1,21.871 1,27 v 7 c 0,2.757 2.243,5 5,5 v 20 c 0,2.206 1.794,4 4,4 1.2,0 2.266,-0.542 3,-1.382 0.734,0.84 1.8,1.382 3,1.382 2.206,0 4,-1.794 4,-4 V 50.962 C 22.738,54.619 27.091,57 32,57 c 4.909,0 9.262,-2.381 12,-6.038 V 59 c 0,2.206 1.794,4 4,4 1.2,0 2.266,-0.542 3,-1.382 0.734,0.84 1.8,1.382 3,1.382 2.206,0 4,-1.794 4,-4 V 48.242 c 0.729,-0.146 1.188,-0.259 1.243,-0.273 L 60.067,47.763 59.32,38.8 C 61.434,38.217 63,36.297 63,34 v -7 c 0,-5.129 -3.241,-9.504 -7.777,-11.218 z m 0.405,2.362 C 55.26,18.667 54.661,19 54,19 c -1.086,0 -1.967,-0.87 -1.995,-1.949 1.297,0.13 2.519,0.514 3.623,1.093 z M 45,9 c 0,-3.309 2.691,-6 6,-6 3.309,0 6,2.691 6,6 0,3.309 -2.691,6 -6,6 -3.309,0 -6,-2.691 -6,-6 z m 4.995,8.051 C 49.967,18.13 49.086,19 48,19 c -0.661,0 -1.26,-0.333 -1.628,-0.856 1.104,-0.579 2.326,-0.963 3.623,-1.093 z M 13.972,25.613 13,26.586 12.028,25.613 12.598,17.02 C 12.732,17.015 12.864,17 13,17 c 0.136,0 0.268,0.015 0.402,0.02 z M 7,9 c 0,-3.309 2.691,-6 6,-6 3.309,0 6,2.691 6,6 0,3.309 -2.691,6 -6,6 C 9.691,15 7,12.309 7,9 Z M 3,34 v -7 c 0,-4.676 3.23,-8.601 7.574,-9.69 L 9.972,26.387 13,29.414 16.028,26.387 15.426,17.31 C 19.77,18.399 23,22.324 23,27 v 3.028 c -1.137,0.857 -2.146,1.869 -3,3.01 V 23 H 18 V 33 H 8 V 23 H 6 V 37 C 4.346,37 3,35.654 3,34 Z m 7,27 C 8.897,61 8,60.103 8,59 V 35 h 4 v 24 c 0,1.103 -0.897,2 -2,2 z m 8,-2 c 0,1.103 -0.897,2 -2,2 -1.103,0 -2,-0.897 -2,-2 V 35 h 4 v 1.659 c -0.636,1.662 -1,3.458 -1,5.341 0,1.883 0.364,3.679 1,5.341 z m 14,-4 c -7.168,0 -13,-5.832 -13,-13 0,-7.168 5.832,-13 13,-13 7.168,0 13,5.832 13,13 0,7.168 -5.832,13 -13,13 z M 57.931,46.215 C 56.582,46.496 53.777,47 51,47 49.315,47 47.628,46.815 46.268,46.609 46.739,45.155 47,43.608 47,42 47,39.472 46.365,37.092 45.256,35 h 11.74 z M 48,61 c -1.103,0 -2,-0.897 -2,-2 V 48.591 c 1.165,0.175 2.558,0.334 4,0.388 V 59 c 0,1.103 -0.897,2 -2,2 z m 8,-2 c 0,1.103 -0.897,2 -2,2 -1.103,0 -2,-0.897 -2,-2 V 48.979 c 1.439,-0.053 2.829,-0.21 4,-0.386 z m 5,-25 c 0,1.247 -0.765,2.316 -1.849,2.769 L 57.997,22.917 56.004,23.083 56.83,33 H 45.17 l 0.826,-9.917 -1.993,-0.166 -0.765,9.182 C 42.564,31.335 41.814,30.643 41,30.029 V 27 c 0,-3.127 1.445,-5.922 3.701,-7.757 C 45.434,20.319 46.657,21 48,21 c 1.2,0 2.266,-0.542 3,-1.382 0.734,0.84 1.8,1.382 3,1.382 1.343,0 2.566,-0.681 3.299,-1.757 C 59.555,21.078 61,23.873 61,27 Z" />
  </g>
  <g
     id="g1880"
     transform="matrix(1.1537286,0,0,1.2237549,69.583291,91.266426)">
    <path
       id="path1825"
       d="M 37.059,16 H 26 V 4.941 C 26,2.224 23.718,0 21,0 18.282,0 16,2.224 16,4.941 V 16 H 4.941 C 2.224,16 0,18.282 0,21 c 0,2.718 2.224,5 4.941,5 H 16 v 11.059 c 0,2.717 2.282,4.941 5,4.941 2.718,0 5,-2.224 5,-4.941 V 26 H 37.059 C 39.776,26 42,23.718 42,21 42,18.282 39.776,16 37.059,16 Z"
       style="fill:#e40000;fill-opacity:1" />
    <g
       id="g1827" />
    <g
       id="g1829" />
    <g
       id="g1831" />
    <g
       id="g1833" />
    <g
       id="g1835" />
    <g
       id="g1837" />
    <g
       id="g1839" />
    <g
       id="g1841" />
    <g
       id="g1843" />
    <g
       id="g1845" />
    <g
       id="g1847" />
    <g
       id="g1849" />
    <g
       id="g1851" />
    <g
       id="g1853" />
    <g
       id="g1855" />
  </g>
  <text
     id="text3618"
     y="65.204247"
     x="195.68729"
     style="font-style:normal;font-variant:normal;font-weight:bold;font-stretch:normal;font-size:16.93333435px;line-height:1.25;font-family:Arial;-inkscape-font-specification:'Arial, Bold';font-variant-ligatures:normal;font-variant-caps:normal;font-variant-numeric:normal;font-feature-settings:normal;text-align:start;letter-spacing:0px;word-spacing:0px;writing-mode:lr-tb;text-anchor:start;fill:#ffca4f;fill-opacity:1;stroke:none;stroke-width:0.26458335"
     xml:space="preserve"><tspan
       style="stroke-width:0.26458335"
       id="tspan3604"
       y="65.204247"
       x="195.68729"><tspan
         style="stroke-width:0.26458335"
         id="tspan3602"
         y="65.204247"
         x="195.68729">10 BODY SIGN </tspan></tspan><tspan
       style="stroke-width:0.26458335"
       id="tspan3608"
       y="86.370918"
       x="195.68729"><tspan
         style="stroke-width:0.26458335"
         id="tspan3606"
         y="86.370918"
         x="195.68729">YOU SHOULD </tspan></tspan><tspan
       style="stroke-width:0.26458335"
       id="tspan3612"
       y="107.53758"
       x="195.68729"><tspan
         style="stroke-width:0.26458335"
         id="tspan3610"
         y="107.53758"
         x="195.68729">TAKE </tspan></tspan><tspan
       style="stroke-width:0.26458335"
       id="tspan3616"
       y="128.70425"
       x="195.68729"><tspan
         style="stroke-width:0.26458335"
         id="tspan3614"
         y="128.70425"
         x="195.68729">SERIOUSLY</tspan></tspan></text>
</svg>
