<?xml version="1.0" encoding="UTF-8" standalone="no"?>
<svg
   xmlns:dc="http://purl.org/dc/elements/1.1/"
   xmlns:cc="http://creativecommons.org/ns#"
   xmlns:rdf="http://www.w3.org/1999/02/22-rdf-syntax-ns#"
   xmlns:svg="http://www.w3.org/2000/svg"
   xmlns="http://www.w3.org/2000/svg"
   xmlns:xlink="http://www.w3.org/1999/xlink"
   xmlns:sodipodi="http://sodipodi.sourceforge.net/DTD/sodipodi-0.dtd"
   xmlns:inkscape="http://www.inkscape.org/namespaces/inkscape"
   width="1280"
   height="720"
   viewBox="0 0 338.66666 190.50001"
   version="1.1"
   id="svg956"
   sodipodi:docname="one.svg"
   inkscape:version="0.92.4 (5da689c313, 2019-01-14)">
  <sodipodi:namedview
     pagecolor="#ffffff"
     bordercolor="#666666"
     borderopacity="1"
     objecttolerance="10"
     gridtolerance="10"
     guidetolerance="10"
     inkscape:pageopacity="0"
     inkscape:pageshadow="2"
     inkscape:window-width="1366"
     inkscape:window-height="745"
     id="namedview3861"
     showgrid="false"
     inkscape:zoom="0.48945048"
     inkscape:cx="443.76367"
     inkscape:cy="463.61004"
     inkscape:window-x="-8"
     inkscape:window-y="-8"
     inkscape:window-maximized="1"
     inkscape:current-layer="svg956" />
  <defs
     id="defs950">
    <linearGradient
       id="linearGradient2692">
      <stop
         style="stop-color:#65a4d9;stop-opacity:1;"
         offset="0"
         id="stop2688" />
      <stop
         style="stop-color:#65a4d9;stop-opacity:0;"
         offset="1"
         id="stop2690" />
    </linearGradient>
    <linearGradient
       xlink:href="#linearGradient2692"
       id="linearGradient2704"
       gradientUnits="userSpaceOnUse"
       x1="781.53845"
       y1="149.23077"
       x2="1096.9231"
       y2="393.84613" />
  </defs>
  <metadata
     id="metadata953">
    <rdf:RDF>
      <cc:Work
         rdf:about="">
        <dc:format>image/svg+xml</dc:format>
        <dc:type
           rdf:resource="http://purl.org/dc/dcmitype/StillImage" />
        <dc:title />
      </cc:Work>
    </rdf:RDF>
  </metadata>
  <g
     id="layer1"
     style="display:inline;fill:#2da777;fill-opacity:1"
     transform="translate(-0.76448416,-106.49998)">
    <rect
       style="opacity:1;fill:#2da777;fill-opacity:1;stroke:none;stroke-width:0.06496903;stroke-linecap:round;stroke-linejoin:round;stroke-miterlimit:4;stroke-dasharray:none;stroke-opacity:1;paint-order:stroke markers fill"
       id="rect1501"
       width="338.66473"
       height="190.47913"
       x="0.0010536164"
       y="106.52"
       rx="0"
       ry="17.279589" />
    <rect
       style="opacity:1;fill:#2da777;fill-opacity:1;stroke:none;stroke-width:0.065;stroke-linecap:round;stroke-linejoin:round;stroke-miterlimit:4;stroke-dasharray:none;stroke-opacity:1;paint-order:stroke markers fill"
       id="rect2622"
       width="70.870537"
       height="8.1264877"
       x="33.072918"
       y="234.06694" />
  </g>
  <g
     id="g4182"
     transform="matrix(0.21456345,0,0,0.23680553,27.32611,0.46332757)">
    <path
       id="path3992"
       d="m 388.414,57.379 v 0 0 0 0 c 53.629,0 97.104,43.475 97.104,97.103 v 0 c 0,61.793 8.828,123.586 8.828,123.586 0,0 -44.138,26.483 -105.931,35.31 -61.793,-8.828 -105.931,-35.31 -105.931,-35.31 0,0 8.828,-61.793 8.828,-123.586 v 0 c -0.002,-53.628 43.473,-97.103 97.102,-97.103 z"
       style="fill:#d59f63"
       inkscape:connector-curvature="0" />
    <path
       id="path3994"
       d="m 353.103,145.655 v -26.483 c 0,-30.008 21.396,-55 49.76,-60.602 -4.726,-0.707 -9.525,-1.191 -14.449,-1.191 h -10e-4 c -53.629,0 -97.103,43.475 -97.103,97.103 0,61.793 -8.828,123.586 -8.828,123.586 0,0 44.138,26.483 105.931,35.31 V 180.966 Z"
       style="fill:#cd915a"
       inkscape:connector-curvature="0" />
    <path
       id="path3996"
       d="m 495.353,342.031 -60.531,-24.212 c -6.703,-2.681 -11.098,-9.173 -11.098,-16.392 v -32.185 h -70.621 v 32.185 c 0,7.219 -4.395,13.711 -11.098,16.392 l -60.531,24.212 c -10.054,4.022 -16.647,13.76 -16.647,24.588 v 35.036 c 0,4.875 3.952,8.828 8.828,8.828 v 0 79.448 h 220.69 c 4.875,0 8.828,-3.952 8.828,-8.828 v -70.621 0 c 4.875,0 8.828,-3.952 8.828,-8.828 V 366.618 C 512,355.79 505.407,346.052 495.353,342.031 Z"
       style="fill:#fad7a5"
       inkscape:connector-curvature="0" />
    <g
       id="g4002">
      <path
         id="path3998"
         d="m 503.172,401.655 v 26.483 h -8.828 c -4.875,0 -8.828,3.952 -8.828,8.828 v 52.966 h -26.483 v -88.276 h 44.139 z"
         style="fill:#f0c891"
         inkscape:connector-curvature="0" />
      <path
         id="path4000"
         d="m 353.103,297.809 c 10.96,4.299 22.844,6.744 35.31,6.744 12.466,0 24.35,-2.445 35.31,-6.744 v -28.566 h -70.621 v 28.566 z"
         style="fill:#f0c891"
         inkscape:connector-curvature="0" />
    </g>
    <path
       id="path4004"
       d="m 388.414,286.897 v 0 c -43.878,0 -79.448,-35.57 -79.448,-79.448 v -27.215 c 0,-4.338 3.198,-7.992 7.484,-8.658 20.268,-3.149 30.084,-18.77 34.175,-27.96 1.378,-3.096 5.22,-4.1 7.925,-2.059 37.4,28.216 109.313,7.103 109.313,65.893 v 0 c -10e-4,43.876 -35.571,79.447 -79.449,79.447 z"
       style="fill:#ffe1b4"
       inkscape:connector-curvature="0" />
    <path
       id="path4006"
       d="m 353.103,207.448 v -66.282 c -1.032,0.521 -1.957,1.277 -2.479,2.449 -4.091,9.19 -13.907,24.811 -34.175,27.96 -4.287,0.666 -7.484,4.321 -7.484,8.658 v 27.215 c 0,43.878 35.57,79.448 79.448,79.448 7.667,0 15.055,-1.145 22.069,-3.171 -33.128,-9.571 -57.379,-40.065 -57.379,-76.277 z"
       style="fill:#fad098"
       inkscape:connector-curvature="0" />
    <path
       id="path4008"
       d="m 388.414,251.586 c -9.345,0 -18.276,-4.409 -24.509,-12.095 -3.078,-3.789 -2.491,-9.345 1.293,-12.418 3.802,-3.069 9.353,-2.483 12.414,1.297 5.828,7.172 15.776,7.172 21.603,0 3.06,-3.78 8.621,-4.366 12.414,-1.297 3.784,3.073 4.371,8.629 1.293,12.418 -6.232,7.686 -15.163,12.095 -24.508,12.095 z"
       style="fill:#d7af7d"
       inkscape:connector-curvature="0" />
    <g
       id="g4014">
      <path
         id="path4010"
         d="m 423.724,207.448 c -4.879,0 -8.828,-3.953 -8.828,-8.828 v -8.828 c 0,-4.875 3.948,-8.828 8.828,-8.828 4.879,0 8.828,3.953 8.828,8.828 v 8.828 c 0,4.876 -3.949,8.828 -8.828,8.828 z"
         style="fill:#64463c"
         inkscape:connector-curvature="0" />
      <path
         id="path4012"
         d="m 353.103,207.448 c -4.879,0 -8.828,-3.953 -8.828,-8.828 v -8.828 c 0,-4.875 3.948,-8.828 8.828,-8.828 4.88,0 8.828,3.953 8.828,8.828 v 8.828 c 0,4.876 -3.948,8.828 -8.828,8.828 z"
         style="fill:#64463c"
         inkscape:connector-curvature="0" />
    </g>
    <path
       id="path4016"
       d="M 495.353,342.031 457.698,326.969 C 451.359,359.464 422.765,384 388.414,384 354.063,384 325.469,359.464 319.13,326.969 l -37.655,15.062 c -10.054,4.022 -16.647,13.76 -16.647,24.588 v 123.312 h 44.138 158.897 v -79.448 h 35.31 c 4.875,0 8.828,-3.952 8.828,-8.828 V 366.62 C 512,355.79 505.407,346.052 495.353,342.031 Z"
       style="fill:#ff507d"
       inkscape:connector-curvature="0" />
    <g
       id="g4022">
      <path
         id="path4018"
         d="M 457.698,326.969 C 451.359,359.464 422.765,384 388.414,384 354.063,384 325.469,359.464 319.13,326.969 l -16.574,6.629 c 9.153,38.992 44.073,68.057 85.858,68.057 41.785,0 76.705,-29.065 85.858,-68.057 z"
         style="fill:#d23c69"
         inkscape:connector-curvature="0" />
      <path
         id="path4020"
         d="m 467.862,400.141 c 0,-4.682 1.86,-9.173 5.171,-12.484 l 34.951,-34.951 c 2.539,4.101 4.016,8.874 4.016,13.913 v 35.036 c 0,4.875 -3.952,8.828 -8.828,8.828 h -35.31 z"
         style="fill:#d23c69"
         inkscape:connector-curvature="0" />
    </g>
    <path
       id="path4024"
       d="M 61.793,489.931 H 17.655 c -4.875,0 -8.828,-3.952 -8.828,-8.828 V 375.172 h 52.966 z"
       style="fill:#b48764"
       inkscape:connector-curvature="0" />
    <g
       id="g4030">
      <path
         id="path4026"
         d="m 8.828,392.828 v 17.655 h 17.655 c 4.875,0 8.828,3.952 8.828,8.828 v 70.621 H 61.794 V 392.829 H 8.828 Z"
         style="fill:#966d50"
         inkscape:connector-curvature="0" />
      <rect
         id="rect4028"
         height="114.76"
         width="52.966"
         style="fill:#966d50"
         y="375.17099"
         x="203.03" />
    </g>
    <path
       id="path4032"
       d="M 245.313,281.574 167.724,260.413 H 97.103 L 19.514,281.574 C 7.993,284.717 0,295.181 0,307.124 V 384 c 0,4.875 3.952,8.828 8.828,8.828 h 44.138 v 97.103 H 211.863 V 372.966 h 52.965 v -65.842 c 0,-11.943 -7.993,-22.407 -19.515,-25.55 z"
       style="fill:#00aaf0"
       inkscape:connector-curvature="0" />
    <path
       id="path4034"
       d="M 167.724,260.414 H 97.103 l -34.607,9.438 c 4.624,34.529 34.123,61.183 69.918,61.183 35.795,0 65.294,-26.654 69.918,-61.183 z"
       style="fill:#0096dc"
       inkscape:connector-curvature="0" />
    <path
       id="path4036"
       d="m 88.276,229.517 v 30.897 c 0,24.377 19.761,44.138 44.138,44.138 24.377,0 44.138,-19.761 44.138,-44.138 v -30.897 z"
       style="fill:#b48764"
       inkscape:connector-curvature="0" />
    <path
       id="path4038"
       d="m 88.276,249.723 c 13.258,6.801 28.242,10.691 44.138,10.691 15.896,0 30.88,-3.89 44.138,-10.691 V 229.517 H 88.276 Z"
       style="fill:#966d50"
       inkscape:connector-curvature="0" />
    <path
       id="path4040"
       d="M 211.862,128 V 75.034 H 52.966 V 128 c -9.751,0 -17.655,7.904 -17.655,17.655 0,9.751 7.905,17.655 17.655,17.655 0,43.878 35.57,79.448 79.448,79.448 43.878,0 79.448,-35.57 79.448,-79.448 9.751,0 17.655,-7.905 17.655,-17.655 0,-9.751 -7.904,-17.655 -17.655,-17.655 z"
       style="fill:#c39772"
       inkscape:connector-curvature="0" />
    <path
       id="path4042"
       d="M 97.103,163.31 V 75.034 H 52.966 V 128 c -9.751,0 -17.655,7.904 -17.655,17.655 0,9.751 7.905,17.655 17.655,17.655 0,43.878 35.57,79.448 79.448,79.448 7.666,0 15.055,-1.145 22.069,-3.171 -33.129,-9.571 -57.38,-40.065 -57.38,-76.277 z"
       style="fill:#b48764"
       inkscape:connector-curvature="0" />
    <path
       id="path4044"
       d="m 132.414,207.448 c -9.345,0 -18.276,-4.409 -24.509,-12.095 -3.078,-3.789 -2.491,-9.345 1.293,-12.418 3.802,-3.065 9.353,-2.478 12.414,1.297 5.828,7.172 15.776,7.172 21.603,0 3.069,-3.776 8.621,-4.362 12.414,-1.297 3.784,3.073 4.371,8.629 1.293,12.418 -6.232,7.686 -15.163,12.095 -24.508,12.095 z"
       style="fill:#966d50"
       inkscape:connector-curvature="0" />
    <g
       id="g4050">
      <path
         id="path4046"
         d="m 97.103,163.31 c -4.879,0 -8.828,-3.953 -8.828,-8.828 v -8.828 c 0,-4.875 3.948,-8.828 8.828,-8.828 4.88,0 8.828,3.953 8.828,8.828 v 8.828 c 0,4.876 -3.948,8.828 -8.828,8.828 z"
         style="fill:#553732"
         inkscape:connector-curvature="0" />
      <path
         id="path4048"
         d="m 167.724,163.31 c -4.879,0 -8.828,-3.953 -8.828,-8.828 v -8.828 c 0,-4.875 3.948,-8.828 8.828,-8.828 4.879,0 8.828,3.953 8.828,8.828 v 8.828 c 0,4.876 -3.949,8.828 -8.828,8.828 z"
         style="fill:#553732"
         inkscape:connector-curvature="0" />
    </g>
    <path
       id="path4052"
       d="m 191.837,119.598 c 2.578,6.827 9.875,9.92 17.063,8.659 0.961,-0.169 1.95,-0.257 2.962,-0.257 3.232,0 6.222,0.932 8.828,2.449 V 75.034 c 0,-13.207 -7.336,-24.585 -18.074,-30.641 C 200.61,31.756 189.754,22.068 176.552,22.068 h -70.621 c -34.127,0 -61.793,27.666 -61.793,61.793 v 46.587 c 2.606,-1.517 5.595,-2.449 8.828,-2.449 1.135,0 2.242,0.11 3.312,0.321 8.597,1.693 17.206,-3.059 19.359,-11.553 v 0 l 2.171,-8.683 c 0.959,-3.838 4.324,-6.574 8.278,-6.681 16.424,-0.443 59.779,-2.621 89.34,-13.321 5.234,-1.894 10.874,1.293 11.789,6.783 l 3.305,19.832 c 0.283,1.704 0.728,3.341 1.317,4.901 z"
       style="fill:#64463c"
       inkscape:connector-curvature="0" />
    <path
       id="path4054"
       d="m 97.103,75.034 c 0,-29.252 23.713,-52.966 52.966,-52.966 h -44.138 c -34.127,0 -61.793,27.665 -61.793,61.793 v 46.587 c 2.606,-1.517 5.595,-2.449 8.828,-2.449 1.135,0 2.241,0.11 3.311,0.321 8.598,1.692 17.206,-3.059 19.359,-11.553 l 2.171,-8.683 c 0.959,-3.838 4.323,-6.574 8.278,-6.681 2.898,-0.078 6.668,-0.215 11.019,-0.439 z"
       style="fill:#553732"
       inkscape:connector-curvature="0" />
    <path
       id="path4056"
       d="M 0,307.123 V 384 c 0,4.875 3.952,8.828 8.828,8.828 h 44.138 v -28.994 c 0,-9.815 -3.272,-19.35 -9.298,-27.098 L 6.883,289.441 C 2.604,294.186 0,300.392 0,307.123 Z"
       style="fill:#0096dc"
       inkscape:connector-curvature="0" />
    <path
       id="path4058"
       d="m 326.168,439.757 -28.821,-9.607 c -3.605,-1.202 -6.036,-4.575 -6.036,-8.374 v -20.12 h -52.965 v 20.12 c 0,3.8 -2.431,7.173 -6.036,8.374 l -28.821,9.607 c -10.814,3.605 -18.108,13.725 -18.108,25.124 v 16.223 c 0,4.875 3.952,8.828 8.828,8.828 H 335.45 c 4.875,0 8.828,-3.952 8.828,-8.828 v -16.223 c -0.002,-11.399 -7.296,-21.519 -18.11,-25.124 z"
       style="fill:#e6af78"
       inkscape:connector-curvature="0" />
    <path
       id="path4060"
       d="m 238.345,401.655 v 20.12 c 0,0.504 -0.149,0.969 -0.231,1.454 7.647,2.869 15.79,4.617 24.283,4.872 0.81,0.024 1.626,0.036 2.431,0.036 9.393,0 18.372,-1.719 26.743,-4.726 -0.104,-0.542 -0.26,-1.07 -0.26,-1.636 v -20.12 z"
       style="fill:#d29b6e"
       inkscape:connector-curvature="0" />
    <path
       id="path4062"
       d="m 264.828,216.276 v 0 c -43.878,0 -79.448,35.57 -79.448,79.448 v 26.483 h 158.897 v -26.483 c -10e-4,-43.878 -35.571,-79.448 -79.449,-79.448 z"
       style="fill:#64463c"
       inkscape:connector-curvature="0" />
    <path
       id="path4064"
       d="m 291.31,220.893 c -8.294,-2.936 -17.182,-4.617 -26.483,-4.617 -43.878,0 -79.448,35.57 -79.448,79.448 v 26.483 h 52.966 v -26.483 c 0,-34.577 22.129,-63.913 52.965,-74.831 z"
       style="fill:#553732"
       inkscape:connector-curvature="0" />
    <path
       id="path4066"
       d="m 326.621,304.552 v -7.644 c 0,-13.026 -13.602,-21.199 -25.363,-15.598 -48.693,23.189 -98.223,23.242 -98.223,23.242 -9.751,0 -17.655,7.904 -17.655,17.655 0,9.751 7.905,17.655 17.655,17.655 v 6.236 c 0,33.835 26.072,63.34 59.892,64.356 34.995,1.051 63.694,-27.006 63.694,-61.764 v -8.828 c 9.751,0 17.655,-7.905 17.655,-17.655 0,-9.751 -7.905,-17.655 -17.655,-17.655 z"
       style="fill:#f0c087"
       inkscape:connector-curvature="0" />
    <path
       id="path4068"
       d="m 311.641,201.257 -46.813,20.063 -46.813,-20.063 c -2.913,-1.248 -6.152,0.888 -6.152,4.057 v 39.578 c 0,3.169 3.24,5.305 6.152,4.057 l 46.813,-20.063 46.813,20.063 c 2.913,1.248 6.152,-0.888 6.152,-4.057 v -39.578 c 0,-3.168 -3.24,-5.305 -6.152,-4.057 z"
       style="fill:#ffdc64"
       inkscape:connector-curvature="0" />
    <path
       id="path4070"
       d="m 238.345,348.69 v -47.827 c -20.874,3.64 -35.31,3.689 -35.31,3.689 -9.751,0 -17.655,7.904 -17.655,17.655 0,9.751 7.905,17.655 17.655,17.655 v 6.236 c 0,33.835 26.072,63.341 59.892,64.356 6.817,0.205 13.382,-0.725 19.556,-2.564 -25.519,-7.601 -44.138,-31.213 -44.138,-59.2 z"
       style="fill:#e6af78"
       inkscape:connector-curvature="0" />
    <path
       id="path4072"
       d="m 264.828,384 c -9.345,0 -18.276,-4.409 -24.509,-12.095 -3.078,-3.789 -2.491,-9.345 1.293,-12.418 3.793,-3.065 9.353,-2.478 12.414,1.297 5.828,7.172 15.776,7.172 21.603,0 3.06,-3.776 8.612,-4.362 12.414,-1.297 3.784,3.073 4.371,8.629 1.293,12.418 C 283.103,379.591 274.172,384 264.828,384 Z"
       style="fill:#d29b6e"
       inkscape:connector-curvature="0" />
    <g
       id="g4078">
      <path
         id="path4074"
         d="m 238.345,339.862 c -2.293,0 -4.595,-0.974 -6.267,-2.56 -1.595,-1.677 -2.56,-3.974 -2.56,-6.267 0,-2.297 0.966,-4.591 2.56,-6.267 3.267,-3.267 9.267,-3.267 12.534,0 1.586,1.677 2.56,3.97 2.56,6.267 0,2.293 -0.974,4.591 -2.56,6.267 -1.681,1.586 -3.974,2.56 -6.267,2.56 z"
         style="fill:#553732"
         inkscape:connector-curvature="0" />
      <path
         id="path4076"
         d="m 291.31,339.862 c -2.293,0 -4.595,-0.974 -6.267,-2.56 -0.793,-0.797 -1.414,-1.767 -1.853,-2.914 -0.44,-1.06 -0.707,-2.207 -0.707,-3.353 0,-1.151 0.267,-2.297 0.707,-3.358 0.44,-1.147 1.06,-2.116 1.853,-2.909 3.267,-3.267 9.181,-3.267 12.534,0 0.793,0.879 1.414,1.763 1.853,2.909 0.44,1.06 0.707,2.207 0.707,3.358 0,2.293 -0.974,4.591 -2.56,6.267 -1.68,1.586 -3.974,2.56 -6.267,2.56 z"
         style="fill:#553732"
         inkscape:connector-curvature="0" />
    </g>
    <path
       id="path4080"
       d="m 326.168,439.757 -14.395,-4.798 c -8.842,16.922 -26.529,28.49 -46.945,28.49 -20.416,0 -38.103,-11.567 -46.944,-28.49 l -14.395,4.798 c -10.814,3.605 -18.108,13.725 -18.108,25.124 v 16.223 c 0,4.875 3.952,8.828 8.828,8.828 H 335.45 c 4.875,0 8.828,-3.952 8.828,-8.828 v -16.223 c -0.002,-11.399 -7.296,-21.519 -18.11,-25.124 z"
       style="fill:#ffdc64"
       inkscape:connector-curvature="0" />
    <circle
       id="circle4082"
       r="13.241"
       cy="225.10001"
       cx="264.82999"
       style="fill:#ffc850" />
    <g
       id="g4084" />
    <g
       id="g4086" />
    <g
       id="g4088" />
    <g
       id="g4090" />
    <g
       id="g4092" />
    <g
       id="g4094" />
    <g
       id="g4096" />
    <g
       id="g4098" />
    <g
       id="g4100" />
    <g
       id="g4102" />
    <g
       id="g4104" />
    <g
       id="g4106" />
    <g
       id="g4108" />
    <g
       id="g4110" />
    <g
       id="g4112" />
  </g>
  <g
     id="g4430"
     transform="matrix(0.23258051,0,0,0.22063543,192.84893,9.5974652)">
    <path
       id="path4284"
       d="m 146.28516,414.47656 -8.125,-40.63672 -40.636722,16.25391 8.128902,32.50781 17.00782,56.70313 31.7539,-7.94141 z m 0,0"
       inkscape:connector-curvature="0"
       style="fill:#ff9874" />
    <path
       id="path4286"
       d="m 154.41406,471.36328 -31.7539,7.94141 7.37109,24.57031 56.88672,-8.12891 -0.41406,-1.25 c -4.60547,-13.8125 -17.53125,-23.13281 -32.08985,-23.13281 z m 0,0"
       inkscape:connector-curvature="0"
       style="fill:#099491" />
    <path
       id="path4288"
       d="M 140.51563,75.5 130.03125,65.015625 V 48.761719 H 89.398438 V 73.144531 H 77.207031 c -6.746093,0 -12.191406,5.441407 -12.191406,12.1875 0,6.746094 5.445313,12.191407 12.191406,12.191407 h 4.0625 v 16.253902 l -16.253906,8.125 40.636715,16.25391 v -16.25391 c 6.7461,0 12.83985,-2.76172 17.22657,-7.15234 4.39062,-4.38672 7.15234,-10.48438 7.15234,-17.226562 v -8.125 h 4.79688 c 7.23046,0 10.80859,-8.777344 5.6875,-13.898438 z m 0,0"
       inkscape:connector-curvature="0"
       style="fill:#ff9874" />
    <path
       id="path4290"
       d="m 406.34766,235.68359 v -26.65625 l -23.56641,15.6836 -0.082,19.09765 h -8.85938 v -16.2539 h -8.125 c 6.7461,0 12.83985,-2.76172 17.23047,-7.14844 4.38672,-4.39062 7.15235,-10.48437 7.15235,-17.23047 h -16.25391 c 0,-8.9414 -7.31641,-16.2539 -16.25391,-16.2539 h -16.2539 c -4.47266,0 -8.53516,1.78906 -11.46094,4.79296 -3.00781,2.92579 -4.79297,6.99219 -4.79297,11.46094 -6.74609,0 -12.84375,2.76172 -17.23047,7.15235 -4.38672,4.38671 -7.15234,10.48437 -7.15234,17.22656 h -16.25391 v 8.1289 c 0,4.46875 1.78906,8.53125 4.79688,11.46094 2.92578,3.00391 6.98828,4.79297 11.45703,4.79297 0,6.74609 2.76562,12.83984 7.15234,17.23047 4.38672,4.38672 10.48438,7.15234 17.23047,7.15234 h 8.125 v 6.90625 c -1.46094,-1.46094 -3.25,-2.60156 -5.28125,-3.25 -1.46484,-0.48828 -2.92578,-0.73047 -4.38672,-0.73047 -4.96094,0 -9.7539,2.67969 -12.35547,7.14844 l -12.83984,22.51563 c -6.17578,10.80468 1.625,24.29687 14.14062,24.29687 h -28.03906 l -23,-57.45703 -0.73047,-1.78906 5.69141,-19.91016 0.0781,-0.24219 9.83594,-34.3789 -1.625,-0.97656 -0.082,0.16406 -38.92969,-19.50391 -8.125,-4.0625 31.28907,-35.76172 10.89062,-12.43359 39.08984,15.6875 v -37.95313 l 48.10938,-10.64843 v 0.082 l -23.73047,7.88281 v 32.50781 l 56.89063,16.25391 15.03515,-37.54688 17.47266,13.16797 -16.25391,40.63282 h 29.74219 l 10.89062,32.50781 z m 0,0"
       inkscape:connector-curvature="0"
       style="fill:#ef4983" />
    <path
       id="path4292"
       d="m 471.36328,463.23828 h -16.2539 v -13.35937 l -63.76172,-78.94922 12.60547,-10.26953 65.58593,81.1875 c 1.1836,1.45312 1.82422,3.26562 1.82422,5.13671 z m 0,0"
       inkscape:connector-curvature="0"
       style="fill:#12acab" />
    <path
       id="path4294"
       d="m 312.48438,325.07813 h 20.72265 v 16.2539 h -20.72265 z m 0,0"
       inkscape:connector-curvature="0" />
    <path
       id="path4296"
       d="m 308.82422,381.96875 -5.44531,8.125 -19.82813,29.82813 -6.98828,-19.91016 v -0.082 l -3.49609,-9.83594 -23.32422,-66.64062 -30.3125,-87.76954 24.3789,-8.1289 16.90625,46.40625 0.73047,1.78906 23,57.45703 z m 0,0"
       inkscape:connector-curvature="0"
       style="fill:#12acab" />
    <path
       id="path4298"
       d="m 276.31641,219.42969 -9.83203,34.375 -0.082,0.24609 -5.6875,19.91016 -8.77734,-22.02344 -4.14453,-10.40234 v -0.082 c 0.16016,-0.97657 0.24219,-2.03125 0.24219,-3.08985 0,-1.46094 -0.16407,-3.00781 -0.57032,-4.46875 -1.54296,-5.85156 -4.55078,-11.13281 -8.85546,-15.28125 v -0.0781 l -2.92969,-7.23438 v -12.1914 l 38.92969,19.5039 z m 0,0"
       inkscape:connector-curvature="0"
       style="fill:#f8a398" />
    <path
       id="path4300"
       d="m 333.20703,333.20703 v 24.37891 l -24.38281,24.38281 -24.37891,-48.76172 z m 0,0"
       inkscape:connector-curvature="0"
       style="fill:#12acab" />
    <path
       id="path4302"
       d="m 430.16016,406.42969 -52.17578,5.76953 -38.51954,4.30859 -55.01953,6.09375 -0.89453,-2.67969 19.82813,-29.82812 5.44531,-8.125 73.22656,-13.32813 15.11328,-2.76562 1.0586,-0.16016 16.2539,20.31641 2.11328,2.76172 h 0.082 z m 0,0"
       inkscape:connector-curvature="0"
       style="fill:#12acab" />
    <path
       id="path4304"
       d="m 373.83984,321.01563 c 0,6.74609 -5.4414,12.1914 -12.1875,12.1914 h -49.16796 c -12.51563,0 -20.32032,-13.49219 -14.14063,-24.30078 l 12.83984,-22.51172 c 2.59766,-4.46875 7.39453,-7.15234 12.35157,-7.15234 1.46484,0 2.92578,0.24219 4.38672,0.73047 2.03515,0.65234 3.82031,1.78906 5.28515,3.2539 1.94922,1.78516 3.33203,4.14453 3.89844,6.7461 0.65234,2.51953 0.65234,5.28125 -0.24219,7.88281 l -3.65625,10.96875 h 28.44531 c 6.74219,0 12.1875,5.44531 12.1875,12.19141 z m 0,0"
       inkscape:connector-curvature="0"
       style="fill:#ff9874" />
    <path
       id="path4306"
       d="m 455.10938,365.71484 -38.4375,23.07813 -18.44922,-23.07813 -24.38282,-32.50781 h 32.50782 l 24.38281,24.37891 c 2.60156,-1.29688 5.36328,-1.86719 8.04687,-1.86719 6.7461,0 13.16407,3.65625 16.33204,9.99609 z m 0,0"
       inkscape:connector-curvature="0"
       style="fill:#ff9874" />
    <path
       id="path4308"
       d="m 471.36328,333.20703 -48.76172,16.25391 -16.2539,-16.25391 32.51171,-16.2539 c 0,-9.9961 5.60547,-19.09766 14.54688,-23.48829 l 1.70312,-0.89453 z m 0,0"
       inkscape:connector-curvature="0"
       style="fill:#fe8053" />
    <path
       id="path4310"
       d="m 248.03516,238.36328 c 0,1.0586 -0.082,2.11328 -0.24219,3.08985 v 0.082 c -1.21875,7.07031 -6.42188,13.08203 -13.89844,14.87109 -1.54297,0.40625 -3.00781,0.57031 -4.55078,0.57031 -6.90625,0 -13.41016,-3.82031 -16.57812,-10.24218 l -1.46485,-2.92579 -81.26953,-8.125 -2.84375,-1.30078 -9.91406,-4.55078 5.6875,-9.50781 15.19531,-25.27734 89.39844,16.2539 2.92578,1.46485 c 3.00781,1.54296 5.76953,3.49218 8.12891,5.76953 v 0.0781 c 4.30468,4.14844 7.3125,9.42969 8.85546,15.28125 0.40625,1.46094 0.57032,3.00781 0.57032,4.46875 z m 0,0"
       inkscape:connector-curvature="0"
       style="fill:#ff9874" />
    <path
       id="path4312"
       d="M 125.96875,176.11328 81.269531,146.28516 h 32.507809 v -8.125 l 8.12891,24.3789 z m 0,0"
       inkscape:connector-curvature="0"
       style="fill:#7cdfe0" />
    <path
       id="path4314"
       d="M 138.16016,316.95313 H 89.398438 L 73.144531,292.57031 56.890625,316.95313 H 24.382812 l 16.253907,-130.03125 73.140621,48.76171 3.4961,-5.85156 9.91406,4.55078 2.84375,9.42578 z m 0,0"
       inkscape:connector-curvature="0"
       style="fill:#7cdfe0" />
    <path
       id="path4316"
       d="m 113.77734,138.16016 v 8.125 H 48.761719 l 16.253906,-24.37891 16.253906,5.44531 24.382809,8.125 z m 0,0"
       inkscape:connector-curvature="0"
       style="fill:#7cdfe0" />
    <path
       id="path4318"
       d="m 32.507812,316.95313 v 73.14062 h 65.015626 v -73.14062 h -8.125 L 73.144531,292.57031 56.890625,316.95313 Z m 0,0"
       inkscape:connector-curvature="0"
       style="fill:#12acab" />
    <path
       id="path4320"
       d="m 130.03125,316.95313 16.25391,56.88671 -48.761722,16.25391 v -73.14062 z m 0,0"
       inkscape:connector-curvature="0"
       style="fill:#099491" />
    <g
       id="g4330"
       style="fill:#12acab">
      <path
         id="path4322"
         d="M 89.398438,48.761719 H 40.636719 c -8.976563,0 -16.253907,7.277343 -16.253907,16.253906 0,8.976563 7.277344,16.253906 16.253907,16.253906 0,10.40625 4.132812,20.386719 11.492187,27.746089 l 12.886719,12.88672 16.253906,-8.125 V 97.523438 h -4.0625 c -6.734375,0 -12.191406,-5.457032 -12.191406,-12.191407 0,-6.730469 5.457031,-12.1875 12.191406,-12.1875 h 12.191407 z m 0,0"
         inkscape:connector-curvature="0" />
      <path
         id="path4324"
         d="M 32.507812,0 H 138.16016 V 48.761719 H 32.507812 Z m 0,0"
         inkscape:connector-curvature="0" />
      <path
         id="path4326"
         d="M 0,40.636719 H 186.92188 V 56.890625 H 0 Z m 0,0"
         inkscape:connector-curvature="0" />
      <path
         id="path4328"
         d="m 138.16016,195.04688 -15.19922,25.27734 -5.6875,9.50781 -3.4961,5.85156 -73.140621,-48.76171 8.125,-40.63672 h 32.507812 l 44.699219,29.82812 z m 0,0"
         inkscape:connector-curvature="0" />
    </g>
    <path
       id="path4332"
       d="M 32.507812,16.253906 H 138.16016 V 32.507812 H 32.507812 Z m 0,0"
       inkscape:connector-curvature="0"
       style="fill:#7cdfe0" />
    <path
       id="path4334"
       d="m 8.125,487.61719 48.765625,16.2539 c 4.851563,-9.70703 2.949219,-21.42968 -4.722656,-29.10156 l -3.40625,-3.40625 -31.578125,-7.89453 z m 0,0"
       inkscape:connector-curvature="0"
       style="fill:#12acab" />
    <path
       id="path4336"
       d="m 32.507812,390.09375 v 32.50781 l -15.324218,40.86719 31.578125,7.89453 40.636719,-81.26953 z m 0,0"
       inkscape:connector-curvature="0"
       style="fill:#ff9874" />
    <path
       id="path4338"
       d="m 430.73047,274.44922 c 0,5.85156 -4.0625,10.89062 -9.75391,12.1875 l -38.51953,8.53516 -24.87109,5.52734 v 8.125 h -24.37891 l 3.65625,-10.96875 3.33203,-9.91406 17.39063,-11.625 h 16.2539 v -8.125 l 8.69532,-1.21875 33.97265,-4.87891 c 7.47656,-1.05469 14.22266,4.79688 14.22266,12.35547 z m 0,0"
       inkscape:connector-curvature="0"
       style="fill:#fe8053" />
    <path
       id="path4340"
       d="m 273.06641,390.09375 h -45.51172 l 22.1875,-66.64062 z m 0,0"
       inkscape:connector-curvature="0"
       style="fill:#ef4983" />
    <path
       id="path4342"
       d="m 398.22266,365.71484 -16.17188,2.92579 -73.22656,13.32812 24.38281,-24.38281 v -24.37891 h 40.63281 z m 0,0"
       inkscape:connector-curvature="0"
       style="fill:#7cdfe0" />
    <path
       id="path4344"
       d="m 390.09375,243.80859 -16.25391,16.25391 v 16.25391 h -16.2539 l -17.39063,11.62109 -3.33203,9.91406 c 0.89453,-2.59765 0.89453,-5.36328 0.2461,-7.88281 -0.57032,-2.59766 -1.95313,-4.95703 -3.90235,-6.74609 v -6.90625 h -8.125 v -24.38282 h 24.37891 v -24.3789 h 24.38281 v 16.2539 z m 0,0"
       inkscape:connector-curvature="0"
       style="fill:#ff9874" />
    <path
       id="path4346"
       d="m 390.09375,203.17578 c 0,6.74219 -2.76172,12.83985 -7.15234,17.22656 -4.38672,4.39063 -10.48047,7.15235 -17.22657,7.15235 h -16.2539 v 24.38281 h -24.38282 v 24.38281 c -6.74609,0 -12.83984,-2.76562 -17.23046,-7.15234 -4.38672,-4.39063 -7.15235,-10.48438 -7.15235,-17.23047 -4.46875,0 -8.53125,-1.78906 -11.45703,-4.79687 -3.00781,-2.92579 -4.79687,-6.98829 -4.79687,-11.45704 v -8.1289 h 16.2539 c 0,-6.7461 2.76563,-12.83985 7.15235,-17.22656 4.39062,-4.39063 10.48437,-7.15235 17.23047,-7.15235 0,-4.47265 1.78515,-8.53515 4.79296,-11.46094 2.92969,-3.00781 6.99219,-4.79296 11.46094,-4.79296 h 16.25391 c 8.9414,0 16.2539,7.3125 16.2539,16.2539 z m 0,0"
       inkscape:connector-curvature="0"
       style="fill:#e01a63" />
    <path
       id="path4348"
       d="m 512,215.36719 c 0,6.74219 -5.44531,12.1875 -12.19141,12.1875 h -12.1914 v 16.2539 h -4.79297 c -7.31641,0 -14.38672,-2.92578 -19.58594,-8.125 l -28.69141,16.41407 c -12.51562,7.15234 -28.19921,-1.94922 -28.19921,-16.41407 l 40.63671,-16.2539 24.37891,-16.25391 h 28.44531 c 6.7461,0 12.19141,5.44531 12.19141,12.19141 z m 0,0"
       inkscape:connector-curvature="0"
       style="fill:#f8a398" />
    <path
       id="path4350"
       d="m 424.87891,113.28906 c -3.65625,6.09766 -10.07813,9.42969 -16.66016,9.42969 -3.98437,0 -8.12891,-1.30078 -11.62109,-3.98438 l -6.50391,-4.95703 -2.35547,6.98828 c -0.082,0.16407 -0.082,0.32422 -0.16406,0.48829 l 2.51953,0.64843 15.03516,11.21875 -15.03516,37.54688 -56.88672,-16.25391 v -32.51172 l 23.73047,-7.88281 v -0.0781 c 0.24219,-2.35938 1.05469,-4.79688 2.51953,-6.99219 l 6.25781,-9.425782 -9.99609,-6.664063 c -7.47656,-4.957031 -8.53516,-15.441406 -2.19531,-21.78125 2.76562,-2.761719 6.42187,-4.144531 9.99609,-4.144531 4.55078,0 9.02344,2.195312 11.78516,6.339844 l 6.66406,9.996093 0.32422,-0.488281 c 14.71094,7.316406 32.50781,2.601562 41.60937,-11.050781 12.4336,6.257812 16.98829,21.699219 0.97657,43.558591 z m 0,0"
       inkscape:connector-curvature="0"
       style="fill:#f8a398" />
    <path
       id="path4352"
       d="m 466.73047,124.75 -32.99219,49.49219 -1.22265,1.87109 -9.91407,-29.82812 -17.47265,-13.16407 -15.03125,-11.21484 -2.51953,-0.65234 c 0.0781,-0.16016 0.0781,-0.32422 0.16015,-0.48438 l 2.35938,-6.99219 6.5,4.95703 c 3.49218,2.6836 7.64062,3.98438 11.62109,3.98438 6.58203,0 13.00391,-3.33203 16.66016,-9.42969 16.01172,-21.859372 11.46093,-37.300779 -0.97657,-43.558591 -9.10156,13.652343 -26.89843,18.367187 -41.60937,11.050781 l -0.32422,0.488281 -6.66406,-9.996093 c -2.76172,-4.144532 -7.23047,-6.339844 -11.78125,-6.339844 -3.57813,0 -7.23438,1.382812 -9.9961,4.148437 -6.33984,6.335938 -5.28515,16.820313 2.19141,21.777344 l 9.99609,6.664063 -6.25781,9.429682 c -1.46094,2.19141 -2.27344,4.63282 -2.51953,6.98829 l -48.10937,10.64453 -24.38282,5.44531 -14.71093,16.82422 -10.89063,12.43359 c -18.28516,-6.98828 -31.28906,-24.78515 -31.28906,-45.51172 v -8.125 h 40.63672 V 89.398438 c 0,-6.746094 2.76172,-12.84375 7.15234,-17.230469 4.38672,-4.390625 10.48438,-7.152344 17.23047,-7.152344 0,-8.941406 3.65625,-17.066406 9.50781,-23 5.9336,-5.851563 14.0586,-9.507813 23,-9.507813 0,-8.941406 3.65625,-17.066406 9.50781,-23 C 340.51953,3.65625 348.64844,0 357.58594,0 h 40.63672 c 11.21484,0 21.375,4.550781 28.76953,11.863281 7.3164,7.398438 11.86719,17.554688 11.86719,28.769531 16.98437,0 29.98828,15.28125 27.14453,32.101563 l -2.76563,16.660156 c 9.42578,9.429688 10.89063,24.218749 3.49219,35.355469 z m 0,0"
       inkscape:connector-curvature="0"
       style="fill:#e01a63" />
    <path
       id="path4354"
       d="m 308.82422,124.58594 v 37.95312 l -39.08984,-15.68359 14.71093,-16.82422 z m 0,0"
       inkscape:connector-curvature="0"
       style="fill:#f8a398" />
    <path
       id="path4356"
       d="m 436.09375,186.92188 h -29.74609 l 16.2539,-40.63672 9.91407,29.82812 z m 0,0"
       inkscape:connector-curvature="0"
       style="fill:#f8a398" />
    <path
       id="path4358"
       d="m 377.98438,412.19922 -38.51954,4.30859 -4.51172,62.98438 h 30.76172 z m 0,0"
       inkscape:connector-curvature="0"
       style="fill:#f8a398" />
    <path
       id="path4360"
       d="m 374.67578,482.48047 -8.96094,-2.98828 h -30.76171 l -1.7461,24.38281 h 56.89063 c -0.004,-9.71094 -6.21485,-18.32812 -15.42188,-21.39453 z m 0,0"
       inkscape:connector-curvature="0"
       style="fill:#e01a63" />
    <path
       id="path4362"
       d="m 186.92188,479.49219 24.3789,24.38281 5.25781,-3.50391 c 9.89454,-6.59765 11.28125,-20.59765 2.8711,-29.0039 L 197.31641,456.625 Z m 0,0"
       inkscape:connector-curvature="0"
       style="fill:#e01a63" />
    <path
       id="path4364"
       d="m 276.5625,399.92969 -3.49609,-9.83594 h -45.51172 l -30.23828,66.52734 22.11328,14.74219 57.13281,-71.35156 z m 0,0"
       inkscape:connector-curvature="0"
       style="fill:#f8a398" />
    <path
       id="path4366"
       d="m 463.23828,479.49219 c 0,8.97656 -7.27734,16.2539 -16.2539,16.2539 -8.97657,0 -16.25391,-7.27734 -16.25391,-16.2539 0,-8.97657 7.27734,-16.25391 16.25391,-16.25391 8.97656,0 16.2539,7.27734 16.2539,16.25391 z m 0,0"
       inkscape:connector-curvature="0"
       style="fill:#7cdfe0" />
    <path
       id="path4368"
       d="m 446.98438,446.98438 c -17.92969,0 -32.50782,14.57812 -32.50782,32.50781 0,17.92969 14.57813,32.50781 32.50782,32.50781 17.92968,0 32.50781,-14.57812 32.50781,-32.50781 0,-17.92969 -14.57813,-32.50781 -32.50781,-32.50781 z m 0,48.76171 c -8.96094,0 -16.25391,-7.29297 -16.25391,-16.2539 0,-8.96094 7.29297,-16.25391 16.25391,-16.25391 8.96093,0 16.2539,7.29297 16.2539,16.25391 0,8.96093 -7.29297,16.2539 -16.2539,16.2539 z m 0,0"
       inkscape:connector-curvature="0"
       style="fill:#028f8b" />
    <path
       id="path4370"
       d="m 292.57031,479.49219 c 0,8.97656 -7.27734,16.2539 -16.2539,16.2539 -8.97657,0 -16.25391,-7.27734 -16.25391,-16.2539 0,-8.97657 7.27734,-16.25391 16.25391,-16.25391 8.97656,0 16.2539,7.27734 16.2539,16.25391 z m 0,0"
       inkscape:connector-curvature="0"
       style="fill:#7cdfe0" />
    <path
       id="path4372"
       d="m 268.44141,453.14063 16.23828,-65.01954 15.76172,3.9375 -16.23828,65.01954 z m 0,0"
       inkscape:connector-curvature="0"
       style="fill:#12acab" />
    <path
       id="path4374"
       d="m 276.31641,446.98438 c -17.92578,0 -32.50782,14.57812 -32.50782,32.50781 0,17.92969 14.58204,32.50781 32.50782,32.50781 17.92968,0 32.50781,-14.57812 32.50781,-32.50781 0,-17.92969 -14.57813,-32.50781 -32.50781,-32.50781 z m 0,48.76171 c -8.96094,0 -16.25391,-7.29297 -16.25391,-16.2539 0,-8.96094 7.29297,-16.25391 16.25391,-16.25391 8.96093,0 16.2539,7.29297 16.2539,16.25391 0,8.96093 -7.29297,16.2539 -16.2539,16.2539 z m 0,0"
       inkscape:connector-curvature="0"
       style="fill:#028f8b" />
  </g>
  <text
     xml:space="preserve"
     style="font-style:normal;font-variant:normal;font-weight:bold;font-stretch:normal;font-size:16.93333435px;line-height:1.25;font-family:Arial;-inkscape-font-specification:'Arial, Bold';font-variant-ligatures:normal;font-variant-caps:normal;font-variant-numeric:normal;font-feature-settings:normal;text-align:center;letter-spacing:0px;word-spacing:0px;writing-mode:lr-tb;text-anchor:middle;fill:#98cdff;fill-opacity:1;stroke:none;stroke-width:0.26458335"
     x="167.38326"
     y="148.99278"
     id="text5239"><tspan
       sodipodi:role="line"
       x="169.73143"
       y="148.99278"
       id="tspan5233"
       style="stroke-width:0.26458335"><tspan
         x="167.38326"
         y="148.99278"
         id="tspan5231"
         style="stroke-width:0.26458335">8 PARENTING MISTAKES THAT CAN </tspan></tspan><tspan
       sodipodi:role="line"
       x="186.25134"
       y="170.15945"
       id="tspan5237"
       style="stroke-width:0.26458335"><tspan
         x="186.25136"
         y="170.15945"
         id="tspan5235"
         style="stroke-width:0.26458335">AFFECT A CHILD'S ADULT LIFE</tspan></tspan></text>
</svg>
