<?xml version="1.0" encoding="UTF-8" standalone="no"?>
<svg
   xmlns:dc="http://purl.org/dc/elements/1.1/"
   xmlns:cc="http://creativecommons.org/ns#"
   xmlns:rdf="http://www.w3.org/1999/02/22-rdf-syntax-ns#"
   xmlns:svg="http://www.w3.org/2000/svg"
   xmlns="http://www.w3.org/2000/svg"
   id="svg8"
   version="1.1"
   viewBox="0 0 338.66666 190.50001"
   height="720"
   width="1280">
  <defs
     id="defs2" />
  <metadata
     id="metadata5">
    <rdf:RDF>
      <cc:Work
         rdf:about="">
        <dc:format>image/svg+xml</dc:format>
        <dc:type
           rdf:resource="http://purl.org/dc/dcmitype/StillImage" />
        <dc:title></dc:title>
      </cc:Work>
    </rdf:RDF>
  </metadata>
  <g
     style="display:inline"
     transform="translate(0,-106.49998)"
     id="layer1">
    <rect
       ry="19.709719"
       rx="21.374636"
       y="106.49998"
       x="-0.094494119"
       height="190.27464"
       width="338.94067"
       id="rect816"
       style="opacity:1;fill:#84c2ff;fill-opacity:1;fill-rule:nonzero;stroke:none;stroke-width:6.20386839;stroke-linecap:round;stroke-linejoin:round;stroke-miterlimit:4;stroke-dasharray:none;stroke-opacity:1;paint-order:normal" />
  </g>
  <g
     style="display:inline"
     id="layer2">
    <g
       transform="matrix(0.79273525,0,0,0.74164962,7.3884157,-0.68902043)"
       id="g961">
      <g
         id="layer6">
        <path
           style="fill:none;stroke:#000000;stroke-width:4.60422993;stroke-linecap:round;stroke-linejoin:miter;stroke-miterlimit:4;stroke-dasharray:none;stroke-opacity:1"
           d="M 66.768157,139.81035 C 51.893233,146.9178 32.246079,178.46662 40.013915,173.24137"
           id="path878" />
        <path
           id="path880"
           d="m 139.53994,141.79213 c 9.68927,12.94143 25.35237,46.78746 17.95995,40.3533"
           style="fill:none;stroke:#000000;stroke-width:4.60422993;stroke-linecap:round;stroke-linejoin:miter;stroke-miterlimit:4;stroke-dasharray:none;stroke-opacity:1" />
        <path
           style="fill:none;stroke:#000000;stroke-width:5.86499977;stroke-linecap:round;stroke-linejoin:miter;stroke-miterlimit:4;stroke-dasharray:none;stroke-opacity:1"
           d="m 82.131923,185.30806 c 11.483861,17.80912 -11.928366,48.16385 -0.374176,45.46254"
           id="path882" />
        <path
           id="path884"
           d="m 116.18207,184.93389 c 11.48386,17.80912 -11.92837,48.16385 -0.37418,45.46254"
           style="fill:none;stroke:#000000;stroke-width:5.86499977;stroke-linecap:round;stroke-linejoin:miter;stroke-miterlimit:4;stroke-dasharray:none;stroke-opacity:1" />
      </g>
      <g
         id="layer4"
         style="display:inline">
        <rect
           style="opacity:1;fill:#fe7b6a;fill-opacity:1;stroke:none;stroke-width:0.07566334;stroke-linecap:round;stroke-linejoin:round;stroke-miterlimit:4;stroke-dasharray:none;stroke-opacity:1;paint-order:normal"
           id="rect2154"
           width="75.683777"
           height="49.587734"
           x="64.645958"
           y="136.27773"
           ry="2.5358722" />
        <path
           style="fill:#f0624e;fill-opacity:1;stroke:#f0624e;stroke-width:0.32813942;stroke-linecap:butt;stroke-linejoin:miter;stroke-miterlimit:4;stroke-dasharray:none;stroke-opacity:1"
           d="m 64.791873,156.17051 75.391307,-0.72834 5e-5,18.15658 -75.391309,0.11601 z"
           id="path2156" />
      </g>
      <g
         id="layer1-7">
        <g
           transform="translate(4.1038546,-103.99778)"
           id="layer1-4"
           style="fill:#a3e0c0;fill-opacity:1">
          <rect
             rx="49.514881"
             ry="50.081848"
             y="146.18748"
             x="33.261906"
             height="100.1637"
             width="132.66963"
             id="rect815"
             style="opacity:1;fill:#a3e0c0;fill-opacity:1;stroke:none;stroke-width:3.00399995;stroke-linecap:round;stroke-linejoin:round;stroke-miterlimit:4;stroke-dasharray:none;stroke-opacity:1;paint-order:normal" />
        </g>
        <path
           style="fill:#86d0ab;fill-opacity:1;fill-rule:evenodd;stroke-width:0.26458332"
           id="path2023"
           d="M 79.913584,104.69958 A 10.022608,10.557146 0 0 1 69.891632,115.25672 10.022608,10.557146 0 0 1 59.868368,104.70096 10.022608,10.557146 0 0 1 69.889008,94.142431 10.022608,10.557146 0 0 1 79.913583,104.69681 l -10.022607,0.003 z" />
        <path
           style="fill:#86d0ab;fill-opacity:1;fill-rule:evenodd;stroke-width:0.26458332"
           id="path2025"
           d="m 161.16352,101.75961 a 10.423512,11.358955 0 0 1 -10.42283,11.35896 10.423512,11.358955 0 0 1 -10.4242,-11.35747 10.423512,11.358955 0 0 1 10.42147,-11.360442 10.423512,11.358955 0 0 1 10.42556,11.355982 l -10.42351,0.003 z" />
        <path
           style="fill:#95d8af;fill-opacity:1;stroke:#95d8af;stroke-width:0.26458332px;stroke-linecap:butt;stroke-linejoin:miter;stroke-opacity:1"
           d="M 135.46234,139.90161 C 103.83913,141.25495 74.025655,141.06533 71.045524,115.05813 55.376425,115 57.726273,95.128724 69.412294,93.82613 65.298145,53.389322 79.393102,48.961318 88.864323,42.672194 59.562019,39.595249 37.185723,67.453189 37.809284,89.960016 c -1.76528,33.488194 25.446872,52.047174 47.118697,52.046414 23.662139,0.75924 42.395969,0.886 50.534359,-2.10482 z"
           id="path2029" />
        <path
           style="fill:#77c79f;fill-opacity:1;stroke:none;stroke-width:0.114;stroke-linecap:butt;stroke-linejoin:miter;stroke-miterlimit:4;stroke-dasharray:none;stroke-opacity:1"
           d="M 42.918268,69.134595 29.167873,57.475574 c -4.06867,-3.600109 1.797433,-10.284612 5.762783,-6.888703 l 13.041932,10.732934 c -2.588087,3.245779 -3.523411,5.121467 -5.05432,7.81479 z"
           id="path2031" />
        <path
           style="fill:#77c79f;fill-opacity:1;stroke:none;stroke-width:0.075;stroke-linecap:butt;stroke-linejoin:miter;stroke-miterlimit:4;stroke-dasharray:none;stroke-opacity:1"
           d="M 49.850716,58.986426 29.938228,41.293354 C 26.241189,38.140029 32.50453,32.234957 35.8028,34.8462 l 20.059955,18.236876 c -1.122746,1.030173 -4.87864,4.541005 -6.012039,5.90335 z"
           id="path2033" />
        <path
           id="path2044"
           d="M 58.093776,51.342742 44.461795,39.800021 c -4.06867,-3.600109 1.797433,-10.284612 5.762783,-6.888703 l 15.195652,13.90722 c -1.85391,0.869755 -5.856491,3.288176 -7.326454,4.524204 z"
           style="fill:#77c79f;fill-opacity:1;stroke:none;stroke-width:0.114;stroke-linecap:butt;stroke-linejoin:miter;stroke-miterlimit:4;stroke-dasharray:none;stroke-opacity:1" />
      </g>
      <g
         id="layer2-3"
         style="display:inline">
        <path
           d="M 108.76829,82.887405 A 13.607142,12.851191 0 0 1 95.162039,95.738596 13.607142,12.851191 0 0 1 81.554006,82.889088 13.607142,12.851191 0 0 1 95.158476,70.036215 13.607142,12.851191 0 0 1 108.76829,82.884041 l -13.607142,0.0034 z"
           id="path847"
           style="fill:#ffffff;fill-opacity:1;fill-rule:evenodd;stroke-width:0.26458332" />
        <path
           style="fill:#ffffff;fill-opacity:1;fill-rule:evenodd;stroke-width:0.26458332;paint-order:fill markers stroke"
           id="path2091"
           d="M 133.94442,83.118378 A 13.607142,12.851191 0 0 1 120.33816,95.969568 13.607142,12.851191 0 0 1 106.73013,83.12006 13.607142,12.851191 0 0 1 120.3346,70.267187 13.607142,12.851191 0 0 1 133.94441,83.115013 l -13.60714,0.0034 z" />
        <path
           style="fill:#000000;fill-opacity:1;fill-rule:evenodd;stroke:none;stroke-width:0.26458332;stroke-opacity:1"
           id="path2179"
           d="m 101.28195,82.887405 a 6.1208024,5.7743421 0 0 1 -6.120401,5.774342 6.1208024,5.7743421 0 0 1 -6.121203,-5.773586 6.1208024,5.7743421 0 0 1 6.1196,-5.775098 6.1208024,5.7743421 0 0 1 6.122004,5.772831 l -6.120802,0.0015 z" />
        <path
           d="m 126.45808,83.118378 a 6.1208024,5.7743421 0 0 1 -6.12041,5.774342 6.1208024,5.7743421 0 0 1 -6.1212,-5.773586 6.1208024,5.7743421 0 0 1 6.1196,-5.775098 6.1208024,5.7743421 0 0 1 6.122,5.77283 l -6.1208,0.0015 z"
           id="path2181"
           style="fill:#000000;fill-opacity:1;fill-rule:evenodd;stroke-width:0.26458332;paint-order:markers stroke fill" />
        <path
           style="fill:#a3e0c0;fill-opacity:1;stroke:#a3e0c0;stroke-width:0.065;stroke-linecap:butt;stroke-linejoin:miter;stroke-miterlimit:4;stroke-dasharray:none;stroke-opacity:1"
           d="m 81.47596,82.945154 c 1.738848,-17.658284 23.00856,-14.931422 26.27325,-4.965933 7.83267,-13.688767 26.00903,-7.572675 26.1952,5.13579 l 13.16761,-1.258019 -5.85786,-21.035023 -67.631584,4.659656 -1.464463,18.372362 z"
           id="path2201" />
        <path
           style="fill:#a3e0c0;fill-opacity:1;stroke:#a3e0c0;stroke-width:0.065;stroke-linecap:butt;stroke-linejoin:miter;stroke-miterlimit:4;stroke-dasharray:none;stroke-opacity:1"
           d="m 81.47596,82.945154 c 1.045872,13.684224 19.03344,18.034166 26.17231,5.112708 5.50008,11.980628 25.5048,10.051654 26.29614,-4.942853 l 13.16761,-1.258017 -9.33918,16.744471 -55.829213,5.144777 -6.559526,-11.403483 -3.128389,-0.201829 -0.0976,-8.286943 z"
           id="path2213" />
      </g>
      <g
         id="layer5" />
      <g
         transform="matrix(0.98919572,0.15669895,-0.13715363,0.98919572,16.114367,-15.870786)"
         id="layer3"
         style="display:inline">
        <path
           style="fill:none;stroke:#64a2d6;stroke-width:11.81473446;stroke-linecap:round;stroke-linejoin:miter;stroke-miterlimit:4;stroke-dasharray:none;stroke-opacity:1"
           d="m 91.369316,112.28331 c 34.845494,-6.72409 34.845494,-6.72409 34.845494,-6.72409"
           id="path895" />
        <path
           style="fill:none;stroke:#ffffe7;stroke-width:8.19414425;stroke-linecap:round;stroke-linejoin:miter;stroke-miterlimit:4;stroke-dasharray:none;stroke-opacity:1"
           d="m 91.369316,112.28331 c 13.117354,-2.85991 23.935324,-4.68067 34.845494,-6.72409"
           id="path897" />
      </g>
    </g>
    <path
       id="path1648"
       d="M 76.363416,80.562689 110.8882,79.787461"
       style="fill:none;stroke:#000000;stroke-width:0.165;stroke-linecap:butt;stroke-linejoin:miter;stroke-opacity:1;stroke-miterlimit:4;stroke-dasharray:none" />
    <g
       transform="matrix(0.04100662,0,0,0.04203178,122.68922,76.879624)"
       id="g1922">
      <g
         id="g1810">
        <path
           style="fill:#73b7dd"
           d="m 258.861,143.781 c -3.206,0 -6.41,-0.994 -9.127,-2.983 L 200.15,104.501 c -6.887,-5.042 -8.383,-14.71 -3.341,-21.597 5.041,-6.888 14.709,-8.383 21.597,-3.341 l 40.456,29.616 40.456,-29.616 c 6.889,-5.041 16.556,-3.544 21.597,3.341 5.042,6.887 3.545,16.555 -3.341,21.597 l -49.585,36.297 c -2.718,1.989 -5.923,2.983 -9.128,2.983 z"
           id="path1798" />
        <path
           style="fill:#73b7dd"
           d="m 196.808,429.097 c -5.042,-6.887 -3.545,-16.555 3.341,-21.597 l 49.584,-36.298 c 5.434,-3.978 12.821,-3.978 18.256,0 l 49.585,36.298 c 6.887,5.042 8.383,14.71 3.341,21.597 -5.041,6.886 -14.711,8.382 -21.597,3.341 l -40.456,-29.617 -40.456,29.617 c -9.769,6.473 -18.571,0.794 -21.598,-3.341 z"
           id="path1800" />
        <path
           style="fill:#73b7dd"
           d="m 160.698,200.456 c -1.603,2.776 -4.066,5.054 -7.148,6.413 l -56.227,24.792 c -7.809,3.443 -16.931,-0.096 -20.374,-7.905 -3.445,-7.809 0.095,-16.929 7.905,-20.374 l 45.876,-20.229 -5.42,-49.844 c -0.921,-8.486 5.209,-16.11 13.692,-17.033 8.485,-0.923 16.11,5.208 17.033,13.692 l 6.643,61.091 c 0.364,3.347 -0.377,6.621 -1.98,9.397 z"
           id="path1802" />
        <path
           style="fill:#73b7dd"
           d="m 377.415,395.723 c -8.485,0.923 -16.11,-5.208 -17.033,-13.692 l -6.644,-61.091 c -0.727,-6.695 2.966,-13.093 9.127,-15.81 l 56.228,-24.792 c 7.809,-3.443 16.931,0.096 20.374,7.905 3.443,7.808 -0.097,16.931 -7.905,20.374 l -45.877,20.229 5.421,49.844 c 0.722,11.695 -8.597,16.479 -13.691,17.033 z"
           id="path1804" />
        <path
           style="fill:#73b7dd"
           d="m 161.351,312.674 c 1.603,2.776 2.344,6.048 1.98,9.397 l -6.643,61.09 c -0.923,8.485 -8.548,14.614 -17.033,13.692 -8.485,-0.921 -14.614,-8.547 -13.692,-17.033 l 5.42,-49.844 -45.876,-20.229 c -7.809,-3.445 -11.347,-12.566 -7.905,-20.374 3.443,-7.809 12.565,-11.348 20.374,-7.905 l 56.227,24.792 c 3.081,1.36 5.545,3.639 7.148,6.414 z"
           id="path1806" />
        <path
           style="fill:#73b7dd"
           d="m 438.816,222.626 c -3.443,7.809 -12.565,11.347 -20.374,7.905 L 362.215,205.74 c -6.163,-2.718 -9.856,-9.114 -9.127,-15.81 l 6.644,-61.091 c 0.923,-8.485 8.548,-14.614 17.033,-13.692 8.484,0.923 14.614,8.549 13.692,17.033 l -5.421,49.845 45.877,20.228 c 10.486,5.221 9.97,15.684 7.903,20.373 z"
           id="path1808" />
      </g>
      <g
         id="g1824">
        <path
           style="fill:#5e9cd3"
           d="m 258.861,143.781 c 3.205,0 6.411,-0.995 9.127,-2.983 l 33.384,-24.439 V 78.312 c -0.705,0.364 -1.396,0.767 -2.055,1.251 l -40.456,29.616 -39.902,-29.21 v 38.301 l 30.775,22.529 c 2.717,1.989 5.921,2.982 9.127,2.982 z"
           id="path1812" />
        <path
           style="fill:#5e9cd3"
           d="m 249.732,371.202 -32.08,23.484 v 38.223 c 0.249,-0.15 0.5,-0.304 0.751,-0.47 l 40.456,-29.617 40.456,29.617 c 0.244,0.179 0.5,0.331 0.751,0.493 v -38.245 l -32.08,-23.484 c -5.432,-3.978 -12.818,-3.978 -18.254,-10e-4 z"
           id="path1814" />
        <path
           style="fill:#5e9cd3"
           d="m 160.698,200.456 c 1.602,-2.775 2.344,-6.049 1.98,-9.396 L 158.423,151.935 125.281,132.8 c 0.013,0.171 0.011,0.339 0.03,0.51 l 5.42,49.844 -45.876,20.229 c -0.397,0.175 -0.774,0.374 -1.148,0.577 l 33.1,19.111 36.743,-16.202 c 3.083,-1.359 5.545,-3.637 7.148,-6.413 z"
           id="path1816" />
        <path
           style="fill:#5e9cd3"
           d="m 391.107,378.69 -5.421,-49.844 44.882,-19.79 -33.171,-19.151 -34.532,15.226 c -6.163,2.718 -9.856,9.114 -9.127,15.81 l 4.516,41.528 32.829,18.953 c 0.068,-0.867 0.083,-1.774 0.024,-2.732 z"
           id="path1818" />
        <path
           style="fill:#5e9cd3"
           d="m 161.351,312.674 c -1.602,-2.775 -4.067,-5.054 -7.148,-6.413 l -35.27,-15.553 -33.17,19.15 45.622,20.116 -5.42,49.844 c -0.074,0.686 -0.087,1.363 -0.072,2.035 l 33.01,-19.058 4.429,-40.724 c 0.363,-3.348 -0.378,-6.62 -1.981,-9.397 z"
           id="path1820" />
        <path
           style="fill:#5e9cd3"
           d="m 362.215,205.74 38.964,17.179 32.671,-18.863 c -0.868,-0.649 -1.839,-1.257 -2.937,-1.803 l -45.877,-20.228 5.216,-47.961 -33.17,19.151 -3.993,36.716 c -0.73,6.693 2.963,13.091 9.126,15.809 z"
           id="path1822" />
      </g>
      <path
         style="fill:#b3dbf4"
         d="M 449.291,349.604 289.766,257.503 449.291,165.401 c 7.391,-4.267 9.923,-13.717 5.656,-21.108 -4.267,-7.391 -13.717,-9.926 -21.108,-5.656 L 274.314,230.738 V 43.522 c 0,-8.534 -6.919,-15.453 -15.453,-15.453 -8.534,0 -15.453,6.919 -15.453,15.453 V 230.739 L 81.274,137.13 c -7.393,-4.27 -16.843,-1.736 -21.108,5.656 -4.267,7.392 -1.735,16.842 5.656,21.108 l 162.134,93.607 -162.135,93.61 c -7.391,4.267 -9.923,13.717 -5.656,21.108 2.862,4.958 10.905,10.342 21.108,5.656 L 243.407,284.267 V 468.47 c 0,8.534 6.919,15.453 15.453,15.453 8.534,0 15.453,-6.919 15.453,-15.453 V 284.268 l 159.525,92.101 c 10.421,5.827 18.247,-0.699 21.108,-5.656 4.268,-7.391 1.735,-16.842 -5.655,-21.109 z"
         id="path1826" />
      <polygon
         style="fill:#94cbed"
         points="274.314,144.032 258.861,155.344 243.408,144.032 243.408,230.739 169.798,188.24 171.693,205.669 152.69,214.049 227.955,257.503 155.651,299.249 171.693,306.323 169.448,326.969 243.408,284.268 243.408,367.961 258.861,356.649 274.314,367.961 274.314,284.268 348.274,326.969 346.029,306.323 362.072,299.249 289.766,257.503 365.031,214.049 346.029,205.669 347.925,188.239 274.314,230.738 "
         id="polygon1828" />
      <g
         id="g1844">
        <circle
           style="fill:#cae7fc"
           cx="258.866"
           cy="29.01"
           r="29.01"
           id="circle1830" />
        <circle
           style="fill:#cae7fc"
           cx="258.866"
           cy="482.98999"
           r="29.01"
           id="circle1832" />
        <circle
           style="fill:#cae7fc"
           cx="59.418999"
           cy="143.257"
           r="29.01"
           id="circle1834" />
        <circle
           style="fill:#cae7fc"
           cx="452.58099"
           cy="370.24701"
           r="29.01"
           id="circle1836" />
        <circle
           style="fill:#cae7fc"
           cx="59.418999"
           cy="371.76099"
           r="29.01"
           id="circle1838" />
        <circle
           style="fill:#cae7fc"
           cx="452.58099"
           cy="144.761"
           r="29.01"
           id="circle1840" />
        <path
           style="fill:#cae7fc"
           d="m 210.982,358.117 c -3.716,0 -7.45,-0.98 -10.875,-2.957 -7.552,-4.36 -11.658,-12.455 -10.715,-21.124 l 4.495,-41.333 -38.043,-16.774 c -7.98,-3.518 -12.936,-11.121 -12.936,-19.841 0,-8.722 4.957,-16.324 12.936,-19.842 l 38.043,-16.774 -4.495,-41.333 c -0.943,-8.669 3.163,-16.763 10.715,-21.124 7.553,-4.36 16.616,-3.87 23.652,1.282 l 33.548,24.56 33.548,-24.56 c 7.038,-5.15 16.1,-5.641 23.652,-1.282 7.552,4.36 11.658,12.455 10.715,21.124 l -4.495,41.333 38.043,16.774 c 7.98,3.518 12.936,11.121 12.936,19.842 0,8.72 -4.957,16.323 -12.936,19.841 l -38.043,16.774 4.495,41.333 c 0.943,8.669 -3.163,16.763 -10.715,21.124 -7.554,4.36 -16.616,3.867 -23.652,-1.283 l -33.548,-24.558 -33.548,24.558 c -3.846,2.816 -8.298,4.24 -12.777,4.24 z m 0.042,-188.583 c -1.515,0 -2.709,0.584 -3.19,0.862 -0.825,0.477 -3.487,2.323 -3.079,6.072 l 5.107,46.956 c 0.365,3.348 -1.482,6.546 -4.564,7.905 l -43.218,19.056 c -3.45,1.522 -3.718,4.749 -3.718,5.703 0,0.953 0.268,4.182 3.718,5.702 l 43.218,19.056 c 3.081,1.358 4.928,4.556 4.564,7.905 l -5.107,46.956 c -0.408,3.749 2.254,5.595 3.079,6.072 0.824,0.476 3.755,1.858 6.798,-0.369 l 38.112,-27.899 c 2.718,-1.99 6.411,-1.99 9.127,0 l 38.113,27.899 c 3.043,2.23 5.974,0.846 6.798,0.369 0.825,-0.477 3.487,-2.323 3.079,-6.072 l -5.107,-46.956 c -0.365,-3.348 1.482,-6.546 4.564,-7.905 l 43.218,-19.056 c 3.45,-1.522 3.718,-4.749 3.718,-5.702 0,-0.954 -0.268,-4.183 -3.718,-5.703 l -43.218,-19.056 c -3.081,-1.358 -4.928,-4.557 -4.564,-7.905 l 5.107,-46.956 c 0.408,-3.749 -2.254,-5.595 -3.079,-6.072 -0.826,-0.477 -3.756,-1.858 -6.798,0.368 l -38.112,27.9 c -2.718,1.99 -6.411,1.99 -9.127,0 l -38.112,-27.9 c -1.272,-0.929 -2.523,-1.23 -3.609,-1.23 z"
           id="path1842" />
      </g>
      <g
         id="g1846" />
      <g
         id="g1848" />
      <g
         id="g1850" />
      <g
         id="g1852" />
      <g
         id="g1854" />
      <g
         id="g1856" />
      <g
         id="g1858" />
      <g
         id="g1860" />
      <g
         id="g1862" />
      <g
         id="g1864" />
      <g
         id="g1866" />
      <g
         id="g1868" />
      <g
         id="g1870" />
      <g
         id="g1872" />
      <g
         id="g1874" />
    </g>
    <g
       id="g2002"
       transform="matrix(0.04100662,0,0,0.04203178,40.21164,85.686824)">
      <g
         id="g1936">
        <path
           id="path1924"
           d="m 258.861,143.781 c -3.206,0 -6.41,-0.994 -9.127,-2.983 L 200.15,104.501 c -6.887,-5.042 -8.383,-14.71 -3.341,-21.597 5.041,-6.888 14.709,-8.383 21.597,-3.341 l 40.456,29.616 40.456,-29.616 c 6.889,-5.041 16.556,-3.544 21.597,3.341 5.042,6.887 3.545,16.555 -3.341,21.597 l -49.585,36.297 c -2.718,1.989 -5.923,2.983 -9.128,2.983 z"
           style="fill:#73b7dd" />
        <path
           id="path1926"
           d="m 196.808,429.097 c -5.042,-6.887 -3.545,-16.555 3.341,-21.597 l 49.584,-36.298 c 5.434,-3.978 12.821,-3.978 18.256,0 l 49.585,36.298 c 6.887,5.042 8.383,14.71 3.341,21.597 -5.041,6.886 -14.711,8.382 -21.597,3.341 l -40.456,-29.617 -40.456,29.617 c -9.769,6.473 -18.571,0.794 -21.598,-3.341 z"
           style="fill:#73b7dd" />
        <path
           id="path1928"
           d="m 160.698,200.456 c -1.603,2.776 -4.066,5.054 -7.148,6.413 l -56.227,24.792 c -7.809,3.443 -16.931,-0.096 -20.374,-7.905 -3.445,-7.809 0.095,-16.929 7.905,-20.374 l 45.876,-20.229 -5.42,-49.844 c -0.921,-8.486 5.209,-16.11 13.692,-17.033 8.485,-0.923 16.11,5.208 17.033,13.692 l 6.643,61.091 c 0.364,3.347 -0.377,6.621 -1.98,9.397 z"
           style="fill:#73b7dd" />
        <path
           id="path1930"
           d="m 377.415,395.723 c -8.485,0.923 -16.11,-5.208 -17.033,-13.692 l -6.644,-61.091 c -0.727,-6.695 2.966,-13.093 9.127,-15.81 l 56.228,-24.792 c 7.809,-3.443 16.931,0.096 20.374,7.905 3.443,7.808 -0.097,16.931 -7.905,20.374 l -45.877,20.229 5.421,49.844 c 0.722,11.695 -8.597,16.479 -13.691,17.033 z"
           style="fill:#73b7dd" />
        <path
           id="path1932"
           d="m 161.351,312.674 c 1.603,2.776 2.344,6.048 1.98,9.397 l -6.643,61.09 c -0.923,8.485 -8.548,14.614 -17.033,13.692 -8.485,-0.921 -14.614,-8.547 -13.692,-17.033 l 5.42,-49.844 -45.876,-20.229 c -7.809,-3.445 -11.347,-12.566 -7.905,-20.374 3.443,-7.809 12.565,-11.348 20.374,-7.905 l 56.227,24.792 c 3.081,1.36 5.545,3.639 7.148,6.414 z"
           style="fill:#73b7dd" />
        <path
           id="path1934"
           d="m 438.816,222.626 c -3.443,7.809 -12.565,11.347 -20.374,7.905 L 362.215,205.74 c -6.163,-2.718 -9.856,-9.114 -9.127,-15.81 l 6.644,-61.091 c 0.923,-8.485 8.548,-14.614 17.033,-13.692 8.484,0.923 14.614,8.549 13.692,17.033 l -5.421,49.845 45.877,20.228 c 10.486,5.221 9.97,15.684 7.903,20.373 z"
           style="fill:#73b7dd" />
      </g>
      <g
         id="g1950">
        <path
           id="path1938"
           d="m 258.861,143.781 c 3.205,0 6.411,-0.995 9.127,-2.983 l 33.384,-24.439 V 78.312 c -0.705,0.364 -1.396,0.767 -2.055,1.251 l -40.456,29.616 -39.902,-29.21 v 38.301 l 30.775,22.529 c 2.717,1.989 5.921,2.982 9.127,2.982 z"
           style="fill:#5e9cd3" />
        <path
           id="path1940"
           d="m 249.732,371.202 -32.08,23.484 v 38.223 c 0.249,-0.15 0.5,-0.304 0.751,-0.47 l 40.456,-29.617 40.456,29.617 c 0.244,0.179 0.5,0.331 0.751,0.493 v -38.245 l -32.08,-23.484 c -5.432,-3.978 -12.818,-3.978 -18.254,-10e-4 z"
           style="fill:#5e9cd3" />
        <path
           id="path1942"
           d="m 160.698,200.456 c 1.602,-2.775 2.344,-6.049 1.98,-9.396 L 158.423,151.935 125.281,132.8 c 0.013,0.171 0.011,0.339 0.03,0.51 l 5.42,49.844 -45.876,20.229 c -0.397,0.175 -0.774,0.374 -1.148,0.577 l 33.1,19.111 36.743,-16.202 c 3.083,-1.359 5.545,-3.637 7.148,-6.413 z"
           style="fill:#5e9cd3" />
        <path
           id="path1944"
           d="m 391.107,378.69 -5.421,-49.844 44.882,-19.79 -33.171,-19.151 -34.532,15.226 c -6.163,2.718 -9.856,9.114 -9.127,15.81 l 4.516,41.528 32.829,18.953 c 0.068,-0.867 0.083,-1.774 0.024,-2.732 z"
           style="fill:#5e9cd3" />
        <path
           id="path1946"
           d="m 161.351,312.674 c -1.602,-2.775 -4.067,-5.054 -7.148,-6.413 l -35.27,-15.553 -33.17,19.15 45.622,20.116 -5.42,49.844 c -0.074,0.686 -0.087,1.363 -0.072,2.035 l 33.01,-19.058 4.429,-40.724 c 0.363,-3.348 -0.378,-6.62 -1.981,-9.397 z"
           style="fill:#5e9cd3" />
        <path
           id="path1948"
           d="m 362.215,205.74 38.964,17.179 32.671,-18.863 c -0.868,-0.649 -1.839,-1.257 -2.937,-1.803 l -45.877,-20.228 5.216,-47.961 -33.17,19.151 -3.993,36.716 c -0.73,6.693 2.963,13.091 9.126,15.809 z"
           style="fill:#5e9cd3" />
      </g>
      <path
         id="path1952"
         d="M 449.291,349.604 289.766,257.503 449.291,165.401 c 7.391,-4.267 9.923,-13.717 5.656,-21.108 -4.267,-7.391 -13.717,-9.926 -21.108,-5.656 L 274.314,230.738 V 43.522 c 0,-8.534 -6.919,-15.453 -15.453,-15.453 -8.534,0 -15.453,6.919 -15.453,15.453 V 230.739 L 81.274,137.13 c -7.393,-4.27 -16.843,-1.736 -21.108,5.656 -4.267,7.392 -1.735,16.842 5.656,21.108 l 162.134,93.607 -162.135,93.61 c -7.391,4.267 -9.923,13.717 -5.656,21.108 2.862,4.958 10.905,10.342 21.108,5.656 L 243.407,284.267 V 468.47 c 0,8.534 6.919,15.453 15.453,15.453 8.534,0 15.453,-6.919 15.453,-15.453 V 284.268 l 159.525,92.101 c 10.421,5.827 18.247,-0.699 21.108,-5.656 4.268,-7.391 1.735,-16.842 -5.655,-21.109 z"
         style="fill:#b3dbf4" />
      <polygon
         id="polygon1954"
         points="243.408,144.032 243.408,230.739 169.798,188.24 171.693,205.669 152.69,214.049 227.955,257.503 155.651,299.249 171.693,306.323 169.448,326.969 243.408,284.268 243.408,367.961 258.861,356.649 274.314,367.961 274.314,284.268 348.274,326.969 346.029,306.323 362.072,299.249 289.766,257.503 365.031,214.049 346.029,205.669 347.925,188.239 274.314,230.738 274.314,144.032 258.861,155.344 "
         style="fill:#94cbed" />
      <g
         id="g1970">
        <circle
           id="circle1956"
           r="29.01"
           cy="29.01"
           cx="258.866"
           style="fill:#cae7fc" />
        <circle
           id="circle1958"
           r="29.01"
           cy="482.98999"
           cx="258.866"
           style="fill:#cae7fc" />
        <circle
           id="circle1960"
           r="29.01"
           cy="143.257"
           cx="59.418999"
           style="fill:#cae7fc" />
        <circle
           id="circle1962"
           r="29.01"
           cy="370.24701"
           cx="452.58099"
           style="fill:#cae7fc" />
        <circle
           id="circle1964"
           r="29.01"
           cy="371.76099"
           cx="59.418999"
           style="fill:#cae7fc" />
        <circle
           id="circle1966"
           r="29.01"
           cy="144.761"
           cx="452.58099"
           style="fill:#cae7fc" />
        <path
           id="path1968"
           d="m 210.982,358.117 c -3.716,0 -7.45,-0.98 -10.875,-2.957 -7.552,-4.36 -11.658,-12.455 -10.715,-21.124 l 4.495,-41.333 -38.043,-16.774 c -7.98,-3.518 -12.936,-11.121 -12.936,-19.841 0,-8.722 4.957,-16.324 12.936,-19.842 l 38.043,-16.774 -4.495,-41.333 c -0.943,-8.669 3.163,-16.763 10.715,-21.124 7.553,-4.36 16.616,-3.87 23.652,1.282 l 33.548,24.56 33.548,-24.56 c 7.038,-5.15 16.1,-5.641 23.652,-1.282 7.552,4.36 11.658,12.455 10.715,21.124 l -4.495,41.333 38.043,16.774 c 7.98,3.518 12.936,11.121 12.936,19.842 0,8.72 -4.957,16.323 -12.936,19.841 l -38.043,16.774 4.495,41.333 c 0.943,8.669 -3.163,16.763 -10.715,21.124 -7.554,4.36 -16.616,3.867 -23.652,-1.283 l -33.548,-24.558 -33.548,24.558 c -3.846,2.816 -8.298,4.24 -12.777,4.24 z m 0.042,-188.583 c -1.515,0 -2.709,0.584 -3.19,0.862 -0.825,0.477 -3.487,2.323 -3.079,6.072 l 5.107,46.956 c 0.365,3.348 -1.482,6.546 -4.564,7.905 l -43.218,19.056 c -3.45,1.522 -3.718,4.749 -3.718,5.703 0,0.953 0.268,4.182 3.718,5.702 l 43.218,19.056 c 3.081,1.358 4.928,4.556 4.564,7.905 l -5.107,46.956 c -0.408,3.749 2.254,5.595 3.079,6.072 0.824,0.476 3.755,1.858 6.798,-0.369 l 38.112,-27.899 c 2.718,-1.99 6.411,-1.99 9.127,0 l 38.113,27.899 c 3.043,2.23 5.974,0.846 6.798,0.369 0.825,-0.477 3.487,-2.323 3.079,-6.072 l -5.107,-46.956 c -0.365,-3.348 1.482,-6.546 4.564,-7.905 l 43.218,-19.056 c 3.45,-1.522 3.718,-4.749 3.718,-5.702 0,-0.954 -0.268,-4.183 -3.718,-5.703 l -43.218,-19.056 c -3.081,-1.358 -4.928,-4.557 -4.564,-7.905 l 5.107,-46.956 c 0.408,-3.749 -2.254,-5.595 -3.079,-6.072 -0.826,-0.477 -3.756,-1.858 -6.798,0.368 l -38.112,27.9 c -2.718,1.99 -6.411,1.99 -9.127,0 l -38.112,-27.9 c -1.272,-0.929 -2.523,-1.23 -3.609,-1.23 z"
           style="fill:#cae7fc" />
      </g>
      <g
         id="g1972" />
      <g
         id="g1974" />
      <g
         id="g1976" />
      <g
         id="g1978" />
      <g
         id="g1980" />
      <g
         id="g1982" />
      <g
         id="g1984" />
      <g
         id="g1986" />
      <g
         id="g1988" />
      <g
         id="g1990" />
      <g
         id="g1992" />
      <g
         id="g1994" />
      <g
         id="g1996" />
      <g
         id="g1998" />
      <g
         id="g2000" />
    </g>
    <g
       transform="matrix(0.04100662,0,0,0.04203178,36.825442,26.102055)"
       id="g2082">
      <g
         id="g2016">
        <path
           style="fill:#73b7dd"
           d="m 258.861,143.781 c -3.206,0 -6.41,-0.994 -9.127,-2.983 L 200.15,104.501 c -6.887,-5.042 -8.383,-14.71 -3.341,-21.597 5.041,-6.888 14.709,-8.383 21.597,-3.341 l 40.456,29.616 40.456,-29.616 c 6.889,-5.041 16.556,-3.544 21.597,3.341 5.042,6.887 3.545,16.555 -3.341,21.597 l -49.585,36.297 c -2.718,1.989 -5.923,2.983 -9.128,2.983 z"
           id="path2004" />
        <path
           style="fill:#73b7dd"
           d="m 196.808,429.097 c -5.042,-6.887 -3.545,-16.555 3.341,-21.597 l 49.584,-36.298 c 5.434,-3.978 12.821,-3.978 18.256,0 l 49.585,36.298 c 6.887,5.042 8.383,14.71 3.341,21.597 -5.041,6.886 -14.711,8.382 -21.597,3.341 l -40.456,-29.617 -40.456,29.617 c -9.769,6.473 -18.571,0.794 -21.598,-3.341 z"
           id="path2006" />
        <path
           style="fill:#73b7dd"
           d="m 160.698,200.456 c -1.603,2.776 -4.066,5.054 -7.148,6.413 l -56.227,24.792 c -7.809,3.443 -16.931,-0.096 -20.374,-7.905 -3.445,-7.809 0.095,-16.929 7.905,-20.374 l 45.876,-20.229 -5.42,-49.844 c -0.921,-8.486 5.209,-16.11 13.692,-17.033 8.485,-0.923 16.11,5.208 17.033,13.692 l 6.643,61.091 c 0.364,3.347 -0.377,6.621 -1.98,9.397 z"
           id="path2008" />
        <path
           style="fill:#73b7dd"
           d="m 377.415,395.723 c -8.485,0.923 -16.11,-5.208 -17.033,-13.692 l -6.644,-61.091 c -0.727,-6.695 2.966,-13.093 9.127,-15.81 l 56.228,-24.792 c 7.809,-3.443 16.931,0.096 20.374,7.905 3.443,7.808 -0.097,16.931 -7.905,20.374 l -45.877,20.229 5.421,49.844 c 0.722,11.695 -8.597,16.479 -13.691,17.033 z"
           id="path2010" />
        <path
           style="fill:#73b7dd"
           d="m 161.351,312.674 c 1.603,2.776 2.344,6.048 1.98,9.397 l -6.643,61.09 c -0.923,8.485 -8.548,14.614 -17.033,13.692 -8.485,-0.921 -14.614,-8.547 -13.692,-17.033 l 5.42,-49.844 -45.876,-20.229 c -7.809,-3.445 -11.347,-12.566 -7.905,-20.374 3.443,-7.809 12.565,-11.348 20.374,-7.905 l 56.227,24.792 c 3.081,1.36 5.545,3.639 7.148,6.414 z"
           id="path2012" />
        <path
           style="fill:#73b7dd"
           d="m 438.816,222.626 c -3.443,7.809 -12.565,11.347 -20.374,7.905 L 362.215,205.74 c -6.163,-2.718 -9.856,-9.114 -9.127,-15.81 l 6.644,-61.091 c 0.923,-8.485 8.548,-14.614 17.033,-13.692 8.484,0.923 14.614,8.549 13.692,17.033 l -5.421,49.845 45.877,20.228 c 10.486,5.221 9.97,15.684 7.903,20.373 z"
           id="path2014" />
      </g>
      <g
         id="g2030">
        <path
           style="fill:#5e9cd3"
           d="m 258.861,143.781 c 3.205,0 6.411,-0.995 9.127,-2.983 l 33.384,-24.439 V 78.312 c -0.705,0.364 -1.396,0.767 -2.055,1.251 l -40.456,29.616 -39.902,-29.21 v 38.301 l 30.775,22.529 c 2.717,1.989 5.921,2.982 9.127,2.982 z"
           id="path2018" />
        <path
           style="fill:#5e9cd3"
           d="m 249.732,371.202 -32.08,23.484 v 38.223 c 0.249,-0.15 0.5,-0.304 0.751,-0.47 l 40.456,-29.617 40.456,29.617 c 0.244,0.179 0.5,0.331 0.751,0.493 v -38.245 l -32.08,-23.484 c -5.432,-3.978 -12.818,-3.978 -18.254,-10e-4 z"
           id="path2020" />
        <path
           style="fill:#5e9cd3"
           d="m 160.698,200.456 c 1.602,-2.775 2.344,-6.049 1.98,-9.396 L 158.423,151.935 125.281,132.8 c 0.013,0.171 0.011,0.339 0.03,0.51 l 5.42,49.844 -45.876,20.229 c -0.397,0.175 -0.774,0.374 -1.148,0.577 l 33.1,19.111 36.743,-16.202 c 3.083,-1.359 5.545,-3.637 7.148,-6.413 z"
           id="path2022" />
        <path
           style="fill:#5e9cd3"
           d="m 391.107,378.69 -5.421,-49.844 44.882,-19.79 -33.171,-19.151 -34.532,15.226 c -6.163,2.718 -9.856,9.114 -9.127,15.81 l 4.516,41.528 32.829,18.953 c 0.068,-0.867 0.083,-1.774 0.024,-2.732 z"
           id="path2024" />
        <path
           style="fill:#5e9cd3"
           d="m 161.351,312.674 c -1.602,-2.775 -4.067,-5.054 -7.148,-6.413 l -35.27,-15.553 -33.17,19.15 45.622,20.116 -5.42,49.844 c -0.074,0.686 -0.087,1.363 -0.072,2.035 l 33.01,-19.058 4.429,-40.724 c 0.363,-3.348 -0.378,-6.62 -1.981,-9.397 z"
           id="path2026" />
        <path
           style="fill:#5e9cd3"
           d="m 362.215,205.74 38.964,17.179 32.671,-18.863 c -0.868,-0.649 -1.839,-1.257 -2.937,-1.803 l -45.877,-20.228 5.216,-47.961 -33.17,19.151 -3.993,36.716 c -0.73,6.693 2.963,13.091 9.126,15.809 z"
           id="path2028" />
      </g>
      <path
         style="fill:#b3dbf4"
         d="M 449.291,349.604 289.766,257.503 449.291,165.401 c 7.391,-4.267 9.923,-13.717 5.656,-21.108 -4.267,-7.391 -13.717,-9.926 -21.108,-5.656 L 274.314,230.738 V 43.522 c 0,-8.534 -6.919,-15.453 -15.453,-15.453 -8.534,0 -15.453,6.919 -15.453,15.453 V 230.739 L 81.274,137.13 c -7.393,-4.27 -16.843,-1.736 -21.108,5.656 -4.267,7.392 -1.735,16.842 5.656,21.108 l 162.134,93.607 -162.135,93.61 c -7.391,4.267 -9.923,13.717 -5.656,21.108 2.862,4.958 10.905,10.342 21.108,5.656 L 243.407,284.267 V 468.47 c 0,8.534 6.919,15.453 15.453,15.453 8.534,0 15.453,-6.919 15.453,-15.453 V 284.268 l 159.525,92.101 c 10.421,5.827 18.247,-0.699 21.108,-5.656 4.268,-7.391 1.735,-16.842 -5.655,-21.109 z"
         id="path2032" />
      <polygon
         style="fill:#94cbed"
         points="243.408,230.739 169.798,188.24 171.693,205.669 152.69,214.049 227.955,257.503 155.651,299.249 171.693,306.323 169.448,326.969 243.408,284.268 243.408,367.961 258.861,356.649 274.314,367.961 274.314,284.268 348.274,326.969 346.029,306.323 362.072,299.249 289.766,257.503 365.031,214.049 346.029,205.669 347.925,188.239 274.314,230.738 274.314,144.032 258.861,155.344 243.408,144.032 "
         id="polygon2034" />
      <g
         id="g2050">
        <circle
           style="fill:#cae7fc"
           cx="258.866"
           cy="29.01"
           r="29.01"
           id="circle2036" />
        <circle
           style="fill:#cae7fc"
           cx="258.866"
           cy="482.98999"
           r="29.01"
           id="circle2038" />
        <circle
           style="fill:#cae7fc"
           cx="59.418999"
           cy="143.257"
           r="29.01"
           id="circle2040" />
        <circle
           style="fill:#cae7fc"
           cx="452.58099"
           cy="370.24701"
           r="29.01"
           id="circle2042" />
        <circle
           style="fill:#cae7fc"
           cx="59.418999"
           cy="371.76099"
           r="29.01"
           id="circle2044" />
        <circle
           style="fill:#cae7fc"
           cx="452.58099"
           cy="144.761"
           r="29.01"
           id="circle2046" />
        <path
           style="fill:#cae7fc"
           d="m 210.982,358.117 c -3.716,0 -7.45,-0.98 -10.875,-2.957 -7.552,-4.36 -11.658,-12.455 -10.715,-21.124 l 4.495,-41.333 -38.043,-16.774 c -7.98,-3.518 -12.936,-11.121 -12.936,-19.841 0,-8.722 4.957,-16.324 12.936,-19.842 l 38.043,-16.774 -4.495,-41.333 c -0.943,-8.669 3.163,-16.763 10.715,-21.124 7.553,-4.36 16.616,-3.87 23.652,1.282 l 33.548,24.56 33.548,-24.56 c 7.038,-5.15 16.1,-5.641 23.652,-1.282 7.552,4.36 11.658,12.455 10.715,21.124 l -4.495,41.333 38.043,16.774 c 7.98,3.518 12.936,11.121 12.936,19.842 0,8.72 -4.957,16.323 -12.936,19.841 l -38.043,16.774 4.495,41.333 c 0.943,8.669 -3.163,16.763 -10.715,21.124 -7.554,4.36 -16.616,3.867 -23.652,-1.283 l -33.548,-24.558 -33.548,24.558 c -3.846,2.816 -8.298,4.24 -12.777,4.24 z m 0.042,-188.583 c -1.515,0 -2.709,0.584 -3.19,0.862 -0.825,0.477 -3.487,2.323 -3.079,6.072 l 5.107,46.956 c 0.365,3.348 -1.482,6.546 -4.564,7.905 l -43.218,19.056 c -3.45,1.522 -3.718,4.749 -3.718,5.703 0,0.953 0.268,4.182 3.718,5.702 l 43.218,19.056 c 3.081,1.358 4.928,4.556 4.564,7.905 l -5.107,46.956 c -0.408,3.749 2.254,5.595 3.079,6.072 0.824,0.476 3.755,1.858 6.798,-0.369 l 38.112,-27.899 c 2.718,-1.99 6.411,-1.99 9.127,0 l 38.113,27.899 c 3.043,2.23 5.974,0.846 6.798,0.369 0.825,-0.477 3.487,-2.323 3.079,-6.072 l -5.107,-46.956 c -0.365,-3.348 1.482,-6.546 4.564,-7.905 l 43.218,-19.056 c 3.45,-1.522 3.718,-4.749 3.718,-5.702 0,-0.954 -0.268,-4.183 -3.718,-5.703 l -43.218,-19.056 c -3.081,-1.358 -4.928,-4.557 -4.564,-7.905 l 5.107,-46.956 c 0.408,-3.749 -2.254,-5.595 -3.079,-6.072 -0.826,-0.477 -3.756,-1.858 -6.798,0.368 l -38.112,27.9 c -2.718,1.99 -6.411,1.99 -9.127,0 l -38.112,-27.9 c -1.272,-0.929 -2.523,-1.23 -3.609,-1.23 z"
           id="path2048" />
      </g>
      <g
         id="g2052" />
      <g
         id="g2054" />
      <g
         id="g2056" />
      <g
         id="g2058" />
      <g
         id="g2060" />
      <g
         id="g2062" />
      <g
         id="g2064" />
      <g
         id="g2066" />
      <g
         id="g2068" />
      <g
         id="g2070" />
      <g
         id="g2072" />
      <g
         id="g2074" />
      <g
         id="g2076" />
      <g
         id="g2078" />
      <g
         id="g2080" />
    </g>
  </g>
  <g
     id="layer7">
    <g
       style=""
       transform="matrix(1.7186517,0,0,1.230476,104.47592,-45.687418)"
       id="g1427">
      <path
         style="opacity:0.1"
         d="m 111.16257,47.188297 c -0.88,-1 -2.14996,-1.640014 -3.58996,-1.640014 H 37.162571 c -2.649963,0 -4.789978,2.150024 -4.789978,4.799987 v 20.780026 c 0,0.950012 0.279968,1.820007 0.76001,2.559998 l -0.01001,0.01001 0.03998,0.02997 c 0.369995,0.580017 0.859985,1.080017 1.440002,1.450012 l 1.080017,1.070007 -0.710022,0.719971 15.090027,15.090027 c 0.08997,0.859985 -0.119995,1.669983 -0.830017,2.399963 L 86.596964,131.82269 C 113.89939,124.52429 134.01346,99.634951 134.02951,70.03522 L 111.18259,47.1883 Z"
         id="path1367" />
      <path
         style="fill:#e6e9ef"
         d="M 107.56995,45.545464 H 37.165855 c -2.649841,0 -4.797966,2.148124 -4.797966,4.797969 v 20.787205 c 0,2.649841 2.148125,4.797966 4.797966,4.797966 h 70.404095 c 2.64981,0 4.79794,-2.148125 4.79794,-4.797966 V 50.343433 c 0,-2.649845 -2.14813,-4.797969 -4.79794,-4.797969 z"
         id="path1369" />
      <g
         style="fill:#d5d6db"
         id="g1377">
        <path
           d="m 45.005589,53.566639 h 54.724598 v 1.531457 H 45.005589 Z"
           id="path1371" />
        <path
           d="m 45.005589,57.781658 h 54.724598 v 1.531457 H 45.005589 Z"
           id="path1373" />
        <path
           d="m 45.005589,62.069737 h 54.724598 v 1.531457 H 45.005589 Z"
           id="path1375" />
      </g>
      <path
         style="fill:#3a556a"
         d="m 37.419754,70.532387 1.524937,4.682968 h 66.846389 l 1.52498,-4.682968 z"
         id="path1379" />
      <path
         style="fill:#d5d6db"
         d="m 38.401325,73.459511 -3.432815,3.511734 h 73.66021 l -2.31985,-3.109726 z"
         id="path1381" />
      <path
         style="fill:#d15241"
         d="m 105.15595,52.784206 v 0.622364 c 0.44828,0.204533 0.75725,0.661492 0.75725,1.188099 0,0.722428 -0.58752,1.309967 -1.30994,1.309967 -0.72681,0 -1.30997,-0.587539 -1.30997,-1.309967 0,-0.526607 0.30898,-0.983566 0.75725,-1.192455 v -0.618008 c -0.77468,0.235028 -1.33608,0.957455 -1.33608,1.810463 0,1.040146 0.8443,1.888771 1.8888,1.888771 1.04448,0 1.88877,-0.848625 1.88877,-1.888771 0,-0.853008 -0.5614,-1.575435 -1.33608,-1.810463 z"
         id="path1383" />
      <path
         style="fill:#d15241"
         d="m 104.33117,52.284809 h 0.54416 v 2.241409 h -0.54416 z"
         id="path1385" />
      <circle
         style="fill:#00abee"
         cx="104.744"
         cy="60.419998"
         r="1.686"
         id="circle1387" />
      <circle
         style="fill:#f7be56"
         cx="104.744"
         cy="66.074997"
         r="1.686"
         id="circle1389" />
      <g
         style="fill:#d5d6db"
         id="g1399">
        <path
           d="m 94.367569,94.454567 h -1.5e-5 c 4.06575,-4.190155 -8.075424,-10.98381 -2.3e-5,-15.174019 7e-6,0 1.5e-5,0 2.3e-5,-1.5e-5 -8e-6,1.5e-5 -8e-6,1.5e-5 -1.6e-5,1.5e-5 -4.065696,4.1903 8.075482,10.983803 3.1e-5,15.174019 z"
           id="path1391" />
        <path
           d="m 79.114059,94.454567 h -1.5e-5 c 4.06575,-4.190155 -8.075424,-10.98381 -2.3e-5,-15.174019 8e-6,0 1.5e-5,0 2.3e-5,-1.5e-5 0,1.5e-5 -8e-6,1.5e-5 -8e-6,1.5e-5 -4.065696,4.1903 8.07547,10.983803 2.3e-5,15.174019 z"
           id="path1393" />
        <path
           d="m 64.483177,94.454567 h -7e-6 c 4.065742,-4.190155 -8.075428,-10.98381 -3.1e-5,-15.174019 8e-6,0 1.5e-5,0 3.1e-5,-1.5e-5 -8e-6,1.5e-5 -1.6e-5,1.5e-5 -1.6e-5,1.5e-5 -4.065696,4.1903 8.075478,10.983803 2.3e-5,15.174019 z"
           id="path1395" />
        <path
           d="m 49.229672,94.454567 h -1.2e-5 c 4.06575,-4.190155 -8.075424,-10.98381 -2.7e-5,-15.174019 8e-6,0 1.9e-5,0 2.7e-5,-1.5e-5 -4e-6,1.5e-5 -8e-6,1.5e-5 -8e-6,1.5e-5 -4.0657,4.1903 8.07547,10.983803 2e-5,15.174019 z"
           id="path1397" />
      </g>
    </g>
    <g
       style="fill:#acd6fe;fill-opacity:1"
       transform="matrix(0.0422273,0,0,0.03456481,155.7068,84.58616)"
       id="g1572">
      <path
         style="fill:#acd6fe;fill-opacity:1"
         d="m 449.17578,310.30469 -61.66015,16.52344 -45.34766,-26.17969 v -89.29688 l 45.34766,-26.17968 61.66015,16.52343 c 8.16406,2.19532 16.55469,-2.65234 18.75,-10.8164 2.1836,-8.16797 -2.66406,-16.56641 -10.82812,-18.75 l -32.08985,-8.60157 25.3125,-14.61718 c 7.31641,-4.22266 9.82813,-13.58203 5.60157,-20.91016 -4.22266,-7.31641 -13.59375,-9.82813 -20.91016,-5.60156 l -25.3125,14.61328 8.59375,-32.08594 c 2.19531,-8.164061 -2.65234,-16.566405 -10.81641,-18.749999 -8.17578,-2.191406 -16.5625,2.65625 -18.75,10.820313 L 372.20703,158.65625 326.86328,184.83594 249.53125,140.1875 V 87.839844 l 45.14063,-45.140625 c 5.98046,-5.980469 5.98046,-15.675781 0,-21.65625 -5.98047,-5.96875 -15.66407,-5.96875 -21.64454,0 L 249.53125,44.539062 V 15.308594 C 249.53125,6.859375 242.67578,0 234.22266,0 c -8.44922,0 -15.3086,6.859375 -15.3086,15.308594 V 44.539062 L 195.42187,21.042969 c -5.98046,-5.96875 -15.66406,-5.96875 -21.64453,0 -5.98047,5.980469 -5.98047,15.675781 0,21.65625 l 45.13672,45.140625 V 140.1875 L 141.58594,184.83594 96.242188,158.65625 79.71875,96.996094 C 77.535156,88.832031 69.148438,83.984375 60.972656,86.175781 52.808594,88.359375 47.960938,96.761719 50.152344,104.92578 l 8.59375,32.08594 L 33.4375,122.39844 C 26.121094,118.17187 16.75,120.68359 12.527344,128 c -4.226563,7.32813 -1.714844,16.6875 5.601562,20.91016 l 25.308594,14.61718 -32.085938,8.60157 c -8.164062,2.18359 -13.011718,10.58203 -10.828124,18.75 2.195312,8.16406 10.582031,13.01172 18.75,10.8164 l 61.660156,-16.52343 45.343746,26.17968 v 89.29688 L 80.933594,326.82813 19.273438,310.30469 c -8.167969,-2.19531 -16.566407,2.65234 -18.75,10.8164 -2.183594,8.16797 2.664062,16.56641 10.828124,18.75 L 43.4375,348.47266 18.128906,363.08984 C 10.8125,367.3125 8.300781,376.67188 12.527344,384 c 4.222656,7.31641 13.59375,9.82813 20.910156,5.60156 l 25.308594,-14.61328 -8.59375,32.08594 c -2.191406,8.16406 2.65625,16.56641 10.820312,18.75 8.164063,2.19141 16.5625,-2.65625 18.746094,-10.82031 l 16.523438,-61.66016 45.343752,-26.17969 77.32812,44.64844 v 52.34766 l -45.13672,45.14062 c -5.98047,5.98047 -5.98047,15.67578 0,21.65625 5.98047,5.96875 15.66407,5.96875 21.64453,0 l 23.49219,-23.49609 v 29.23047 c 0,8.44922 6.85938,15.30859 15.3086,15.30859 8.45312,0 15.30859,-6.85937 15.30859,-15.30859 v -29.23047 l 23.49609,23.49609 c 5.98047,5.96875 15.66407,5.96875 21.64454,0 5.98046,-5.98047 5.98046,-15.67578 0,-21.65625 L 249.53125,424.16016 V 371.8125 l 77.33203,-44.64844 45.34375,26.17969 16.51953,61.66016 c 2.1875,8.16406 10.58594,13.01172 18.75,10.82031 8.16407,-2.18359 13.01172,-10.58594 10.81641,-18.75 l -8.59375,-32.08594 25.3125,14.61328 c 7.31641,4.22657 16.6875,1.71485 20.91016,-5.60156 4.22656,-7.32812 1.71484,-16.6875 -5.60157,-20.91016 l -25.3125,-14.61718 32.08985,-8.60157 c 8.16406,-2.18359 13.01172,-10.58203 10.82812,-18.75 -2.19531,-8.16406 -10.58594,-13.01171 -18.75,-10.8164 z M 156.89453,229.02734 203.60547,256 156.89453,282.97266 Z m 62.01953,107.4336 -46.71094,-26.97266 46.71094,-26.97265 z m 0,-106.97656 -46.71094,-26.97266 46.71094,-26.97266 z m 30.61719,-53.94532 46.71484,26.97266 -46.71484,26.97266 z m 0,160.92188 v -53.94531 l 46.71484,26.97265 z M 311.55469,282.97266 264.83984,256 311.55469,229.02734 Z m 0,0"
         id="path1540" />
      <path
         style="fill:#acd6fe;fill-opacity:1"
         d="m 335.91016,112.20703 c 0,10.07031 -8.16407,18.23438 -18.23438,18.23438 -10.07422,0 -18.23437,-8.16407 -18.23437,-18.23438 0,-10.07031 8.16015,-18.234374 18.23437,-18.234374 10.07031,0 18.23438,8.164064 18.23438,18.234374 z m 0,0"
         id="path1542" />
      <path
         style="fill:#acd6fe;fill-opacity:1"
         d="m 95.808594,256 c 0,10.07031 -8.164063,18.23438 -18.234375,18.23438 -10.070313,0 -18.234375,-8.16407 -18.234375,-18.23438 0,-10.07031 8.164062,-18.23437 18.234375,-18.23437 10.070312,0 18.234375,8.16406 18.234375,18.23437 z m 0,0"
         id="path1544" />
      <path
         style="fill:#acd6fe;fill-opacity:1"
         d="m 409.10938,256 c 0,10.07031 -8.16407,18.23438 -18.23438,18.23438 -10.07031,0 -18.23437,-8.16407 -18.23437,-18.23438 0,-10.07031 8.16406,-18.23437 18.23437,-18.23437 10.07031,0 18.23438,8.16406 18.23438,18.23437 z m 0,0"
         id="path1546" />
      <path
         style="fill:#acd6fe;fill-opacity:1"
         d="m 171.79688,112.20703 c 0,10.07031 -8.16407,18.23438 -18.23438,18.23438 -10.07031,0 -18.23437,-8.16407 -18.23437,-18.23438 0,-10.07031 8.16406,-18.234374 18.23437,-18.234374 10.07031,0 18.23438,8.164064 18.23438,18.234374 z m 0,0"
         id="path1548" />
      <path
         style="fill:#acd6fe;fill-opacity:1"
         d="m 334.51563,399.79297 c 0,10.07031 -8.16407,18.23437 -18.23438,18.23437 -10.07031,0 -18.23437,-8.16406 -18.23437,-18.23437 0,-10.07031 8.16406,-18.23438 18.23437,-18.23438 10.07031,0 18.23438,8.16407 18.23438,18.23438 z m 0,0"
         id="path1550" />
      <path
         style="fill:#acd6fe;fill-opacity:1"
         d="m 170.40234,399.79297 c 0,10.07031 -8.16406,18.23437 -18.23437,18.23437 -10.07031,0 -18.23438,-8.16406 -18.23438,-18.23437 0,-10.07031 8.16407,-18.23438 18.23438,-18.23438 10.07031,0 18.23437,8.16407 18.23437,18.23438 z m 0,0"
         id="path1552" />
      <path
         style="fill:#acd6fe;fill-opacity:1"
         d="m 449.17578,310.30469 -61.66015,16.52344 -45.34766,-26.17969 v -89.29688 l 45.34766,-26.17968 61.66015,16.52343 c 8.16406,2.19532 16.55469,-2.65234 18.75,-10.8164 2.1836,-8.16797 -2.66406,-16.56641 -10.82812,-18.75 l -32.08985,-8.60157 25.3125,-14.61718 c 7.31641,-4.22266 9.82813,-13.58203 5.60157,-20.91016 -4.22266,-7.31641 -13.59375,-9.82813 -20.91016,-5.60156 l -25.3125,14.61328 8.59375,-32.08594 c 2.19531,-8.164061 -2.65234,-16.566405 -10.81641,-18.749999 -8.17578,-2.191406 -16.5625,2.65625 -18.75,10.820313 L 372.20703,158.65625 326.86328,184.83594 249.53125,140.1875 V 87.839844 l 45.14063,-45.140625 c 5.98046,-5.980469 5.98046,-15.675781 0,-21.65625 -5.98047,-5.96875 -15.66407,-5.96875 -21.64454,0 L 249.53125,44.539062 V 15.308594 C 249.53125,6.859375 242.67578,0 234.22266,0 v 512 c 8.45312,0 15.30859,-6.85937 15.30859,-15.30859 v -29.23047 l 23.49609,23.49609 c 5.98047,5.96875 15.66407,5.96875 21.64454,0 5.98046,-5.98047 5.98046,-15.67578 0,-21.65625 L 249.53125,424.16016 V 371.8125 l 77.33203,-44.64844 45.34375,26.17969 16.51953,61.66016 c 2.1875,8.16406 10.58594,13.01172 18.75,10.82031 8.16407,-2.18359 13.01172,-10.58594 10.81641,-18.75 l -8.59375,-32.08594 25.3125,14.61328 c 7.31641,4.22657 16.6875,1.71485 20.91016,-5.60156 4.22656,-7.32812 1.71484,-16.6875 -5.60157,-20.91016 l -25.3125,-14.61718 32.08985,-8.60157 c 8.16406,-2.18359 13.01172,-10.58203 10.82812,-18.75 -2.19531,-8.16406 -10.58594,-13.01171 -18.75,-10.8164 z m -199.64453,-134.76563 46.71484,26.97266 -46.71484,26.97266 z m 0,160.92188 v -53.94531 l 46.71484,26.97265 z M 311.55469,282.97266 264.83984,256 311.55469,229.02734 Z m 0,0"
         id="path1554" />
    </g>
    <g
       id="g1590"
       transform="matrix(0.0422273,0,0,0.03456481,191.94067,88.671696)"
       style="fill:#acd6fe;fill-opacity:1">
      <path
         id="path1574"
         d="m 449.17578,310.30469 -61.66015,16.52344 -45.34766,-26.17969 v -89.29688 l 45.34766,-26.17968 61.66015,16.52343 c 8.16406,2.19532 16.55469,-2.65234 18.75,-10.8164 2.1836,-8.16797 -2.66406,-16.56641 -10.82812,-18.75 l -32.08985,-8.60157 25.3125,-14.61718 c 7.31641,-4.22266 9.82813,-13.58203 5.60157,-20.91016 -4.22266,-7.31641 -13.59375,-9.82813 -20.91016,-5.60156 l -25.3125,14.61328 8.59375,-32.08594 c 2.19531,-8.164061 -2.65234,-16.566405 -10.81641,-18.749999 -8.17578,-2.191406 -16.5625,2.65625 -18.75,10.820313 L 372.20703,158.65625 326.86328,184.83594 249.53125,140.1875 V 87.839844 l 45.14063,-45.140625 c 5.98046,-5.980469 5.98046,-15.675781 0,-21.65625 -5.98047,-5.96875 -15.66407,-5.96875 -21.64454,0 L 249.53125,44.539062 V 15.308594 C 249.53125,6.859375 242.67578,0 234.22266,0 c -8.44922,0 -15.3086,6.859375 -15.3086,15.308594 V 44.539062 L 195.42187,21.042969 c -5.98046,-5.96875 -15.66406,-5.96875 -21.64453,0 -5.98047,5.980469 -5.98047,15.675781 0,21.65625 l 45.13672,45.140625 V 140.1875 L 141.58594,184.83594 96.242188,158.65625 79.71875,96.996094 C 77.535156,88.832031 69.148438,83.984375 60.972656,86.175781 52.808594,88.359375 47.960938,96.761719 50.152344,104.92578 l 8.59375,32.08594 L 33.4375,122.39844 C 26.121094,118.17187 16.75,120.68359 12.527344,128 c -4.226563,7.32813 -1.714844,16.6875 5.601562,20.91016 l 25.308594,14.61718 -32.085938,8.60157 c -8.164062,2.18359 -13.011718,10.58203 -10.828124,18.75 2.195312,8.16406 10.582031,13.01172 18.75,10.8164 l 61.660156,-16.52343 45.343746,26.17968 v 89.29688 L 80.933594,326.82813 19.273438,310.30469 c -8.167969,-2.19531 -16.566407,2.65234 -18.75,10.8164 -2.183594,8.16797 2.664062,16.56641 10.828124,18.75 L 43.4375,348.47266 18.128906,363.08984 C 10.8125,367.3125 8.300781,376.67188 12.527344,384 c 4.222656,7.31641 13.59375,9.82813 20.910156,5.60156 l 25.308594,-14.61328 -8.59375,32.08594 c -2.191406,8.16406 2.65625,16.56641 10.820312,18.75 8.164063,2.19141 16.5625,-2.65625 18.746094,-10.82031 l 16.523438,-61.66016 45.343752,-26.17969 77.32812,44.64844 v 52.34766 l -45.13672,45.14062 c -5.98047,5.98047 -5.98047,15.67578 0,21.65625 5.98047,5.96875 15.66407,5.96875 21.64453,0 l 23.49219,-23.49609 v 29.23047 c 0,8.44922 6.85938,15.30859 15.3086,15.30859 8.45312,0 15.30859,-6.85937 15.30859,-15.30859 v -29.23047 l 23.49609,23.49609 c 5.98047,5.96875 15.66407,5.96875 21.64454,0 5.98046,-5.98047 5.98046,-15.67578 0,-21.65625 L 249.53125,424.16016 V 371.8125 l 77.33203,-44.64844 45.34375,26.17969 16.51953,61.66016 c 2.1875,8.16406 10.58594,13.01172 18.75,10.82031 8.16407,-2.18359 13.01172,-10.58594 10.81641,-18.75 l -8.59375,-32.08594 25.3125,14.61328 c 7.31641,4.22657 16.6875,1.71485 20.91016,-5.60156 4.22656,-7.32812 1.71484,-16.6875 -5.60157,-20.91016 l -25.3125,-14.61718 32.08985,-8.60157 c 8.16406,-2.18359 13.01172,-10.58203 10.82812,-18.75 -2.19531,-8.16406 -10.58594,-13.01171 -18.75,-10.8164 z M 156.89453,229.02734 203.60547,256 156.89453,282.97266 Z m 62.01953,107.4336 -46.71094,-26.97266 46.71094,-26.97265 z m 0,-106.97656 -46.71094,-26.97266 46.71094,-26.97266 z m 30.61719,-53.94532 46.71484,26.97266 -46.71484,26.97266 z m 0,160.92188 v -53.94531 l 46.71484,26.97265 z M 311.55469,282.97266 264.83984,256 311.55469,229.02734 Z m 0,0"
         style="fill:#acd6fe;fill-opacity:1" />
      <path
         id="path1576"
         d="m 335.91016,112.20703 c 0,10.07031 -8.16407,18.23438 -18.23438,18.23438 -10.07422,0 -18.23437,-8.16407 -18.23437,-18.23438 0,-10.07031 8.16015,-18.234374 18.23437,-18.234374 10.07031,0 18.23438,8.164064 18.23438,18.234374 z m 0,0"
         style="fill:#acd6fe;fill-opacity:1" />
      <path
         id="path1578"
         d="m 95.808594,256 c 0,10.07031 -8.164063,18.23438 -18.234375,18.23438 -10.070313,0 -18.234375,-8.16407 -18.234375,-18.23438 0,-10.07031 8.164062,-18.23437 18.234375,-18.23437 10.070312,0 18.234375,8.16406 18.234375,18.23437 z m 0,0"
         style="fill:#acd6fe;fill-opacity:1" />
      <path
         id="path1580"
         d="m 409.10938,256 c 0,10.07031 -8.16407,18.23438 -18.23438,18.23438 -10.07031,0 -18.23437,-8.16407 -18.23437,-18.23438 0,-10.07031 8.16406,-18.23437 18.23437,-18.23437 10.07031,0 18.23438,8.16406 18.23438,18.23437 z m 0,0"
         style="fill:#acd6fe;fill-opacity:1" />
      <path
         id="path1582"
         d="m 171.79688,112.20703 c 0,10.07031 -8.16407,18.23438 -18.23438,18.23438 -10.07031,0 -18.23437,-8.16407 -18.23437,-18.23438 0,-10.07031 8.16406,-18.234374 18.23437,-18.234374 10.07031,0 18.23438,8.164064 18.23438,18.234374 z m 0,0"
         style="fill:#acd6fe;fill-opacity:1" />
      <path
         id="path1584"
         d="m 334.51563,399.79297 c 0,10.07031 -8.16407,18.23437 -18.23438,18.23437 -10.07031,0 -18.23437,-8.16406 -18.23437,-18.23437 0,-10.07031 8.16406,-18.23438 18.23437,-18.23438 10.07031,0 18.23438,8.16407 18.23438,18.23438 z m 0,0"
         style="fill:#acd6fe;fill-opacity:1" />
      <path
         id="path1586"
         d="m 170.40234,399.79297 c 0,10.07031 -8.16406,18.23437 -18.23437,18.23437 -10.07031,0 -18.23438,-8.16406 -18.23438,-18.23437 0,-10.07031 8.16407,-18.23438 18.23438,-18.23438 10.07031,0 18.23437,8.16407 18.23437,18.23438 z m 0,0"
         style="fill:#acd6fe;fill-opacity:1" />
      <path
         id="path1588"
         d="m 449.17578,310.30469 -61.66015,16.52344 -45.34766,-26.17969 v -89.29688 l 45.34766,-26.17968 61.66015,16.52343 c 8.16406,2.19532 16.55469,-2.65234 18.75,-10.8164 2.1836,-8.16797 -2.66406,-16.56641 -10.82812,-18.75 l -32.08985,-8.60157 25.3125,-14.61718 c 7.31641,-4.22266 9.82813,-13.58203 5.60157,-20.91016 -4.22266,-7.31641 -13.59375,-9.82813 -20.91016,-5.60156 l -25.3125,14.61328 8.59375,-32.08594 c 2.19531,-8.164061 -2.65234,-16.566405 -10.81641,-18.749999 -8.17578,-2.191406 -16.5625,2.65625 -18.75,10.820313 L 372.20703,158.65625 326.86328,184.83594 249.53125,140.1875 V 87.839844 l 45.14063,-45.140625 c 5.98046,-5.980469 5.98046,-15.675781 0,-21.65625 -5.98047,-5.96875 -15.66407,-5.96875 -21.64454,0 L 249.53125,44.539062 V 15.308594 C 249.53125,6.859375 242.67578,0 234.22266,0 v 512 c 8.45312,0 15.30859,-6.85937 15.30859,-15.30859 v -29.23047 l 23.49609,23.49609 c 5.98047,5.96875 15.66407,5.96875 21.64454,0 5.98046,-5.98047 5.98046,-15.67578 0,-21.65625 L 249.53125,424.16016 V 371.8125 l 77.33203,-44.64844 45.34375,26.17969 16.51953,61.66016 c 2.1875,8.16406 10.58594,13.01172 18.75,10.82031 8.16407,-2.18359 13.01172,-10.58594 10.81641,-18.75 l -8.59375,-32.08594 25.3125,14.61328 c 7.31641,4.22657 16.6875,1.71485 20.91016,-5.60156 4.22656,-7.32812 1.71484,-16.6875 -5.60157,-20.91016 l -25.3125,-14.61718 32.08985,-8.60157 c 8.16406,-2.18359 13.01172,-10.58203 10.82812,-18.75 -2.19531,-8.16406 -10.58594,-13.01171 -18.75,-10.8164 z m -199.64453,-134.76563 46.71484,26.97266 -46.71484,26.97266 z m 0,160.92188 v -53.94531 l 46.71484,26.97265 z M 311.55469,282.97266 264.83984,256 311.55469,229.02734 Z m 0,0"
         style="fill:#acd6fe;fill-opacity:1" />
    </g>
    <g
       style="fill:#acd6fe;fill-opacity:1"
       transform="matrix(0.0422273,0,0,0.03456481,128.05577,16.78219)"
       id="g1608">
      <path
         style="fill:#acd6fe;fill-opacity:1"
         d="m 449.17578,310.30469 -61.66015,16.52344 -45.34766,-26.17969 v -89.29688 l 45.34766,-26.17968 61.66015,16.52343 c 8.16406,2.19532 16.55469,-2.65234 18.75,-10.8164 2.1836,-8.16797 -2.66406,-16.56641 -10.82812,-18.75 l -32.08985,-8.60157 25.3125,-14.61718 c 7.31641,-4.22266 9.82813,-13.58203 5.60157,-20.91016 -4.22266,-7.31641 -13.59375,-9.82813 -20.91016,-5.60156 l -25.3125,14.61328 8.59375,-32.08594 c 2.19531,-8.164061 -2.65234,-16.566405 -10.81641,-18.749999 -8.17578,-2.191406 -16.5625,2.65625 -18.75,10.820313 L 372.20703,158.65625 326.86328,184.83594 249.53125,140.1875 V 87.839844 l 45.14063,-45.140625 c 5.98046,-5.980469 5.98046,-15.675781 0,-21.65625 -5.98047,-5.96875 -15.66407,-5.96875 -21.64454,0 L 249.53125,44.539062 V 15.308594 C 249.53125,6.859375 242.67578,0 234.22266,0 c -8.44922,0 -15.3086,6.859375 -15.3086,15.308594 V 44.539062 L 195.42187,21.042969 c -5.98046,-5.96875 -15.66406,-5.96875 -21.64453,0 -5.98047,5.980469 -5.98047,15.675781 0,21.65625 l 45.13672,45.140625 V 140.1875 L 141.58594,184.83594 96.242188,158.65625 79.71875,96.996094 C 77.535156,88.832031 69.148438,83.984375 60.972656,86.175781 52.808594,88.359375 47.960938,96.761719 50.152344,104.92578 l 8.59375,32.08594 L 33.4375,122.39844 C 26.121094,118.17187 16.75,120.68359 12.527344,128 c -4.226563,7.32813 -1.714844,16.6875 5.601562,20.91016 l 25.308594,14.61718 -32.085938,8.60157 c -8.164062,2.18359 -13.011718,10.58203 -10.828124,18.75 2.195312,8.16406 10.582031,13.01172 18.75,10.8164 l 61.660156,-16.52343 45.343746,26.17968 v 89.29688 L 80.933594,326.82813 19.273438,310.30469 c -8.167969,-2.19531 -16.566407,2.65234 -18.75,10.8164 -2.183594,8.16797 2.664062,16.56641 10.828124,18.75 L 43.4375,348.47266 18.128906,363.08984 C 10.8125,367.3125 8.300781,376.67188 12.527344,384 c 4.222656,7.31641 13.59375,9.82813 20.910156,5.60156 l 25.308594,-14.61328 -8.59375,32.08594 c -2.191406,8.16406 2.65625,16.56641 10.820312,18.75 8.164063,2.19141 16.5625,-2.65625 18.746094,-10.82031 l 16.523438,-61.66016 45.343752,-26.17969 77.32812,44.64844 v 52.34766 l -45.13672,45.14062 c -5.98047,5.98047 -5.98047,15.67578 0,21.65625 5.98047,5.96875 15.66407,5.96875 21.64453,0 l 23.49219,-23.49609 v 29.23047 c 0,8.44922 6.85938,15.30859 15.3086,15.30859 8.45312,0 15.30859,-6.85937 15.30859,-15.30859 v -29.23047 l 23.49609,23.49609 c 5.98047,5.96875 15.66407,5.96875 21.64454,0 5.98046,-5.98047 5.98046,-15.67578 0,-21.65625 L 249.53125,424.16016 V 371.8125 l 77.33203,-44.64844 45.34375,26.17969 16.51953,61.66016 c 2.1875,8.16406 10.58594,13.01172 18.75,10.82031 8.16407,-2.18359 13.01172,-10.58594 10.81641,-18.75 l -8.59375,-32.08594 25.3125,14.61328 c 7.31641,4.22657 16.6875,1.71485 20.91016,-5.60156 4.22656,-7.32812 1.71484,-16.6875 -5.60157,-20.91016 l -25.3125,-14.61718 32.08985,-8.60157 c 8.16406,-2.18359 13.01172,-10.58203 10.82812,-18.75 -2.19531,-8.16406 -10.58594,-13.01171 -18.75,-10.8164 z M 156.89453,229.02734 203.60547,256 156.89453,282.97266 Z m 62.01953,107.4336 -46.71094,-26.97266 46.71094,-26.97265 z m 0,-106.97656 -46.71094,-26.97266 46.71094,-26.97266 z m 30.61719,-53.94532 46.71484,26.97266 -46.71484,26.97266 z m 0,160.92188 v -53.94531 l 46.71484,26.97265 z M 311.55469,282.97266 264.83984,256 311.55469,229.02734 Z m 0,0"
         id="path1592" />
      <path
         style="fill:#acd6fe;fill-opacity:1"
         d="m 335.91016,112.20703 c 0,10.07031 -8.16407,18.23438 -18.23438,18.23438 -10.07422,0 -18.23437,-8.16407 -18.23437,-18.23438 0,-10.07031 8.16015,-18.234374 18.23437,-18.234374 10.07031,0 18.23438,8.164064 18.23438,18.234374 z m 0,0"
         id="path1594" />
      <path
         style="fill:#acd6fe;fill-opacity:1"
         d="m 95.808594,256 c 0,10.07031 -8.164063,18.23438 -18.234375,18.23438 -10.070313,0 -18.234375,-8.16407 -18.234375,-18.23438 0,-10.07031 8.164062,-18.23437 18.234375,-18.23437 10.070312,0 18.234375,8.16406 18.234375,18.23437 z m 0,0"
         id="path1596" />
      <path
         style="fill:#acd6fe;fill-opacity:1"
         d="m 409.10938,256 c 0,10.07031 -8.16407,18.23438 -18.23438,18.23438 -10.07031,0 -18.23437,-8.16407 -18.23437,-18.23438 0,-10.07031 8.16406,-18.23437 18.23437,-18.23437 10.07031,0 18.23438,8.16406 18.23438,18.23437 z m 0,0"
         id="path1598" />
      <path
         style="fill:#acd6fe;fill-opacity:1"
         d="m 171.79688,112.20703 c 0,10.07031 -8.16407,18.23438 -18.23438,18.23438 -10.07031,0 -18.23437,-8.16407 -18.23437,-18.23438 0,-10.07031 8.16406,-18.234374 18.23437,-18.234374 10.07031,0 18.23438,8.164064 18.23438,18.234374 z m 0,0"
         id="path1600" />
      <path
         style="fill:#acd6fe;fill-opacity:1"
         d="m 334.51563,399.79297 c 0,10.07031 -8.16407,18.23437 -18.23438,18.23437 -10.07031,0 -18.23437,-8.16406 -18.23437,-18.23437 0,-10.07031 8.16406,-18.23438 18.23437,-18.23438 10.07031,0 18.23438,8.16407 18.23438,18.23438 z m 0,0"
         id="path1602" />
      <path
         style="fill:#acd6fe;fill-opacity:1"
         d="m 170.40234,399.79297 c 0,10.07031 -8.16406,18.23437 -18.23437,18.23437 -10.07031,0 -18.23438,-8.16406 -18.23438,-18.23437 0,-10.07031 8.16407,-18.23438 18.23438,-18.23438 10.07031,0 18.23437,8.16407 18.23437,18.23438 z m 0,0"
         id="path1604" />
      <path
         style="fill:#acd6fe;fill-opacity:1"
         d="m 449.17578,310.30469 -61.66015,16.52344 -45.34766,-26.17969 v -89.29688 l 45.34766,-26.17968 61.66015,16.52343 c 8.16406,2.19532 16.55469,-2.65234 18.75,-10.8164 2.1836,-8.16797 -2.66406,-16.56641 -10.82812,-18.75 l -32.08985,-8.60157 25.3125,-14.61718 c 7.31641,-4.22266 9.82813,-13.58203 5.60157,-20.91016 -4.22266,-7.31641 -13.59375,-9.82813 -20.91016,-5.60156 l -25.3125,14.61328 8.59375,-32.08594 c 2.19531,-8.164061 -2.65234,-16.566405 -10.81641,-18.749999 -8.17578,-2.191406 -16.5625,2.65625 -18.75,10.820313 L 372.20703,158.65625 326.86328,184.83594 249.53125,140.1875 V 87.839844 l 45.14063,-45.140625 c 5.98046,-5.980469 5.98046,-15.675781 0,-21.65625 -5.98047,-5.96875 -15.66407,-5.96875 -21.64454,0 L 249.53125,44.539062 V 15.308594 C 249.53125,6.859375 242.67578,0 234.22266,0 v 512 c 8.45312,0 15.30859,-6.85937 15.30859,-15.30859 v -29.23047 l 23.49609,23.49609 c 5.98047,5.96875 15.66407,5.96875 21.64454,0 5.98046,-5.98047 5.98046,-15.67578 0,-21.65625 L 249.53125,424.16016 V 371.8125 l 77.33203,-44.64844 45.34375,26.17969 16.51953,61.66016 c 2.1875,8.16406 10.58594,13.01172 18.75,10.82031 8.16407,-2.18359 13.01172,-10.58594 10.81641,-18.75 l -8.59375,-32.08594 25.3125,14.61328 c 7.31641,4.22657 16.6875,1.71485 20.91016,-5.60156 4.22656,-7.32812 1.71484,-16.6875 -5.60157,-20.91016 l -25.3125,-14.61718 32.08985,-8.60157 c 8.16406,-2.18359 13.01172,-10.58203 10.82812,-18.75 -2.19531,-8.16406 -10.58594,-13.01171 -18.75,-10.8164 z m -199.64453,-134.76563 46.71484,26.97266 -46.71484,26.97266 z m 0,160.92188 v -53.94531 l 46.71484,26.97265 z M 311.55469,282.97266 264.83984,256 311.55469,229.02734 Z m 0,0"
         id="path1606" />
    </g>
    <g
       id="g1626"
       transform="matrix(0.0422273,0,0,0.03456481,303.43672,161.16909)"
       style="fill:#acd6fe;fill-opacity:1">
      <path
         id="path1610"
         d="m 449.17578,310.30469 -61.66015,16.52344 -45.34766,-26.17969 v -89.29688 l 45.34766,-26.17968 61.66015,16.52343 c 8.16406,2.19532 16.55469,-2.65234 18.75,-10.8164 2.1836,-8.16797 -2.66406,-16.56641 -10.82812,-18.75 l -32.08985,-8.60157 25.3125,-14.61718 c 7.31641,-4.22266 9.82813,-13.58203 5.60157,-20.91016 -4.22266,-7.31641 -13.59375,-9.82813 -20.91016,-5.60156 l -25.3125,14.61328 8.59375,-32.08594 c 2.19531,-8.164061 -2.65234,-16.566405 -10.81641,-18.749999 -8.17578,-2.191406 -16.5625,2.65625 -18.75,10.820313 L 372.20703,158.65625 326.86328,184.83594 249.53125,140.1875 V 87.839844 l 45.14063,-45.140625 c 5.98046,-5.980469 5.98046,-15.675781 0,-21.65625 -5.98047,-5.96875 -15.66407,-5.96875 -21.64454,0 L 249.53125,44.539062 V 15.308594 C 249.53125,6.859375 242.67578,0 234.22266,0 c -8.44922,0 -15.3086,6.859375 -15.3086,15.308594 V 44.539062 L 195.42187,21.042969 c -5.98046,-5.96875 -15.66406,-5.96875 -21.64453,0 -5.98047,5.980469 -5.98047,15.675781 0,21.65625 l 45.13672,45.140625 V 140.1875 L 141.58594,184.83594 96.242188,158.65625 79.71875,96.996094 C 77.535156,88.832031 69.148438,83.984375 60.972656,86.175781 52.808594,88.359375 47.960938,96.761719 50.152344,104.92578 l 8.59375,32.08594 L 33.4375,122.39844 C 26.121094,118.17187 16.75,120.68359 12.527344,128 c -4.226563,7.32813 -1.714844,16.6875 5.601562,20.91016 l 25.308594,14.61718 -32.085938,8.60157 c -8.164062,2.18359 -13.011718,10.58203 -10.828124,18.75 2.195312,8.16406 10.582031,13.01172 18.75,10.8164 l 61.660156,-16.52343 45.343746,26.17968 v 89.29688 L 80.933594,326.82813 19.273438,310.30469 c -8.167969,-2.19531 -16.566407,2.65234 -18.75,10.8164 -2.183594,8.16797 2.664062,16.56641 10.828124,18.75 L 43.4375,348.47266 18.128906,363.08984 C 10.8125,367.3125 8.300781,376.67188 12.527344,384 c 4.222656,7.31641 13.59375,9.82813 20.910156,5.60156 l 25.308594,-14.61328 -8.59375,32.08594 c -2.191406,8.16406 2.65625,16.56641 10.820312,18.75 8.164063,2.19141 16.5625,-2.65625 18.746094,-10.82031 l 16.523438,-61.66016 45.343752,-26.17969 77.32812,44.64844 v 52.34766 l -45.13672,45.14062 c -5.98047,5.98047 -5.98047,15.67578 0,21.65625 5.98047,5.96875 15.66407,5.96875 21.64453,0 l 23.49219,-23.49609 v 29.23047 c 0,8.44922 6.85938,15.30859 15.3086,15.30859 8.45312,0 15.30859,-6.85937 15.30859,-15.30859 v -29.23047 l 23.49609,23.49609 c 5.98047,5.96875 15.66407,5.96875 21.64454,0 5.98046,-5.98047 5.98046,-15.67578 0,-21.65625 L 249.53125,424.16016 V 371.8125 l 77.33203,-44.64844 45.34375,26.17969 16.51953,61.66016 c 2.1875,8.16406 10.58594,13.01172 18.75,10.82031 8.16407,-2.18359 13.01172,-10.58594 10.81641,-18.75 l -8.59375,-32.08594 25.3125,14.61328 c 7.31641,4.22657 16.6875,1.71485 20.91016,-5.60156 4.22656,-7.32812 1.71484,-16.6875 -5.60157,-20.91016 l -25.3125,-14.61718 32.08985,-8.60157 c 8.16406,-2.18359 13.01172,-10.58203 10.82812,-18.75 -2.19531,-8.16406 -10.58594,-13.01171 -18.75,-10.8164 z M 156.89453,229.02734 203.60547,256 156.89453,282.97266 Z m 62.01953,107.4336 -46.71094,-26.97266 46.71094,-26.97265 z m 0,-106.97656 -46.71094,-26.97266 46.71094,-26.97266 z m 30.61719,-53.94532 46.71484,26.97266 -46.71484,26.97266 z m 0,160.92188 v -53.94531 l 46.71484,26.97265 z M 311.55469,282.97266 264.83984,256 311.55469,229.02734 Z m 0,0"
         style="fill:#acd6fe;fill-opacity:1" />
      <path
         id="path1612"
         d="m 335.91016,112.20703 c 0,10.07031 -8.16407,18.23438 -18.23438,18.23438 -10.07422,0 -18.23437,-8.16407 -18.23437,-18.23438 0,-10.07031 8.16015,-18.234374 18.23437,-18.234374 10.07031,0 18.23438,8.164064 18.23438,18.234374 z m 0,0"
         style="fill:#acd6fe;fill-opacity:1" />
      <path
         id="path1614"
         d="m 95.808594,256 c 0,10.07031 -8.164063,18.23438 -18.234375,18.23438 -10.070313,0 -18.234375,-8.16407 -18.234375,-18.23438 0,-10.07031 8.164062,-18.23437 18.234375,-18.23437 10.070312,0 18.234375,8.16406 18.234375,18.23437 z m 0,0"
         style="fill:#acd6fe;fill-opacity:1" />
      <path
         id="path1616"
         d="m 409.10938,256 c 0,10.07031 -8.16407,18.23438 -18.23438,18.23438 -10.07031,0 -18.23437,-8.16407 -18.23437,-18.23438 0,-10.07031 8.16406,-18.23437 18.23437,-18.23437 10.07031,0 18.23438,8.16406 18.23438,18.23437 z m 0,0"
         style="fill:#acd6fe;fill-opacity:1" />
      <path
         id="path1618"
         d="m 171.79688,112.20703 c 0,10.07031 -8.16407,18.23438 -18.23438,18.23438 -10.07031,0 -18.23437,-8.16407 -18.23437,-18.23438 0,-10.07031 8.16406,-18.234374 18.23437,-18.234374 10.07031,0 18.23438,8.164064 18.23438,18.234374 z m 0,0"
         style="fill:#acd6fe;fill-opacity:1" />
      <path
         id="path1620"
         d="m 334.51563,399.79297 c 0,10.07031 -8.16407,18.23437 -18.23438,18.23437 -10.07031,0 -18.23437,-8.16406 -18.23437,-18.23437 0,-10.07031 8.16406,-18.23438 18.23437,-18.23438 10.07031,0 18.23438,8.16407 18.23438,18.23438 z m 0,0"
         style="fill:#acd6fe;fill-opacity:1" />
      <path
         id="path1622"
         d="m 170.40234,399.79297 c 0,10.07031 -8.16406,18.23437 -18.23437,18.23437 -10.07031,0 -18.23438,-8.16406 -18.23438,-18.23437 0,-10.07031 8.16407,-18.23438 18.23438,-18.23438 10.07031,0 18.23437,8.16407 18.23437,18.23438 z m 0,0"
         style="fill:#acd6fe;fill-opacity:1" />
      <path
         id="path1624"
         d="m 449.17578,310.30469 -61.66015,16.52344 -45.34766,-26.17969 v -89.29688 l 45.34766,-26.17968 61.66015,16.52343 c 8.16406,2.19532 16.55469,-2.65234 18.75,-10.8164 2.1836,-8.16797 -2.66406,-16.56641 -10.82812,-18.75 l -32.08985,-8.60157 25.3125,-14.61718 c 7.31641,-4.22266 9.82813,-13.58203 5.60157,-20.91016 -4.22266,-7.31641 -13.59375,-9.82813 -20.91016,-5.60156 l -25.3125,14.61328 8.59375,-32.08594 c 2.19531,-8.164061 -2.65234,-16.566405 -10.81641,-18.749999 -8.17578,-2.191406 -16.5625,2.65625 -18.75,10.820313 L 372.20703,158.65625 326.86328,184.83594 249.53125,140.1875 V 87.839844 l 45.14063,-45.140625 c 5.98046,-5.980469 5.98046,-15.675781 0,-21.65625 -5.98047,-5.96875 -15.66407,-5.96875 -21.64454,0 L 249.53125,44.539062 V 15.308594 C 249.53125,6.859375 242.67578,0 234.22266,0 v 512 c 8.45312,0 15.30859,-6.85937 15.30859,-15.30859 v -29.23047 l 23.49609,23.49609 c 5.98047,5.96875 15.66407,5.96875 21.64454,0 5.98046,-5.98047 5.98046,-15.67578 0,-21.65625 L 249.53125,424.16016 V 371.8125 l 77.33203,-44.64844 45.34375,26.17969 16.51953,61.66016 c 2.1875,8.16406 10.58594,13.01172 18.75,10.82031 8.16407,-2.18359 13.01172,-10.58594 10.81641,-18.75 l -8.59375,-32.08594 25.3125,14.61328 c 7.31641,4.22657 16.6875,1.71485 20.91016,-5.60156 4.22656,-7.32812 1.71484,-16.6875 -5.60157,-20.91016 l -25.3125,-14.61718 32.08985,-8.60157 c 8.16406,-2.18359 13.01172,-10.58203 10.82812,-18.75 -2.19531,-8.16406 -10.58594,-13.01171 -18.75,-10.8164 z m -199.64453,-134.76563 46.71484,26.97266 -46.71484,26.97266 z m 0,160.92188 v -53.94531 l 46.71484,26.97265 z M 311.55469,282.97266 264.83984,256 311.55469,229.02734 Z m 0,0"
         style="fill:#acd6fe;fill-opacity:1" />
    </g>
    <flowRoot
       style="fill:#eaf4fe;fill-opacity:1;stroke:none;font-family:sans-serif;font-style:normal;font-weight:normal;font-size:40px;line-height:1.25;letter-spacing:0px;word-spacing:0px;"
       id="flowRoot1628"
       xml:space="preserve"><flowRegion
         style="fill:#eaf4fe;fill-opacity:1;"
         id="flowRegion1630"><rect
           style="fill:#eaf4fe;fill-opacity:1;"
           y="360.23352"
           x="660.18628"
           height="295.06985"
           width="546.06512"
           id="rect1632" /></flowRegion><flowPara
         id="flowPara1634" /></flowRoot>    <text
       id="text2096"
       y="129.70372"
       x="167.84283"
       style="font-style:normal;font-variant:normal;font-weight:900;font-stretch:normal;font-size:14.11111164px;line-height:1.70000005;font-family:Arial;-inkscape-font-specification:'Arial Heavy';letter-spacing:0px;word-spacing:0px;fill:#d5eaff;fill-opacity:1;stroke:none;stroke-width:0.26458332"
       xml:space="preserve"><tspan
         style="stroke-width:0.26458332"
         id="tspan2086"
         y="129.70372"
         x="167.84283"><tspan
           style="stroke-width:0.26458332"
           id="tspan2084"
           y="129.70372"
           x="167.84283">PROPER USAGE OF </tspan></tspan><tspan
         style="stroke-width:0.26458332"
         id="tspan2090"
         y="153.69261"
         x="167.84283"><tspan
           style="stroke-width:0.26458332"
           id="tspan2088"
           y="153.69261"
           x="167.84283">AIR CONDITIONER </tspan></tspan><tspan
         style="stroke-width:0.26458332"
         id="tspan2094"
         y="177.6815"
         x="167.84283"><tspan
           style="stroke-width:0.26458332"
           id="tspan2092"
           y="177.6815"
           x="167.84283">(AC)</tspan></tspan></text>
  </g>
</svg>
